<?xml version="1.0" encoding="UTF-8"?>
<svg width="260px" height="140px" viewBox="0 0 260 140" version="1.1" xmlns="http://www.w3.org/2000/svg" xmlns:xlink="http://www.w3.org/1999/xlink">
    <!-- Generator: Sketch 52.5 (67469) - http://www.bohemiancoding.com/sketch -->
    <title>structural_street</title>
    <desc>Created with Sketch.</desc>
    <g id="Page-2" stroke="none" stroke-width="1" fill="none" fill-rule="evenodd">
        <g id="Desktop-HD-Copy" transform="translate(-120.000000, -413.000000)">
            <g id="structural_street" transform="translate(120.000000, 413.000000)">
                <g id="Group">
                    <path d="M15.27,1.58 L14.96,20.8 L14.82,30.08 L13.63,106.01 L13.5,113.86 L13.42,119.31 L13.1,139.29 L0.92,139.29 L1.42,123.85 L1.58,119.06 L1.84,111.24 L4.49,31.28 L4.59,27.93 L5.41,3.3 C5.47,1.19 7.47,-0.32 9.51,0.18 L15.27,1.58 Z" id="Path" fill="#B5B5B5"></path>
                    <polygon id="Path" fill="#B5B5B5" points="29.65 5.07 29.65 6.11 14.96 20.8 15.27 1.58"></polygon>
                    <polygon id="Path" fill="#B5B5B5" points="260 139.29 256.2 139.29 252.49 79.93 252.52 79.93 253.42 80.13 256.88 80.85"></polygon>
                    <path d="M79.85,114.82 L79.85,111.94" id="Path"></path>
                    <path d="M83.07,113.84 L83.07,110.34" id="Path"></path>
                    <polygon id="Path" fill="#B5B5B5" points="29.65 6.11 29.26 33.11 14.82 30.08 14.96 20.8"></polygon>
                    <polygon id="Path" fill="#B5B5B5" points="31.47 5.52 30.39 106.52 30.04 139.29 27.77 139.29 28.12 113.76 28.22 107.47 28.33 99.48 29.26 33.11 29.65 6.11 29.65 5.07 30.49 5.28"></polygon>
                    <polygon id="Path" fill="#B5B5B5" points="42.42 8.16 42.02 35.78 41.17 93.78 41.05 101.89 40.96 108.92 40.51 139.29 30.04 139.29 30.39 106.52 31.47 5.52"></polygon>
                    <polygon id="Path" fill="#B5B5B5" points="28.22 107.47 28.12 113.76 13.42 119.31 13.5 113.86"></polygon>
                    <path d="M27.77,139.29 L13.1,139.29" id="Path"></path>
                    <path d="M83.07,113.84 L83.07,139.51 L79.85,139.51 L79.85,115.38 C79.85,115.04 80.08,114.75 80.4,114.66 L83.07,113.84 Z" id="Path" fill="#B5B5B5"></path>
                    <polygon id="Path" fill="#B5B5B5" points="172.35 139.29 166.3 139.29 165.29 101.07 165.08 93.08 164.88 85.97 164.27 62.35 164.24 61.42 165.85 61.76 170.34 62.69 170.9 84.15 171.08 91.18 171.3 99.62"></polygon>
                    <path d="M162.57,139.29 L83.07,139.52" id="Path"></path>
                    <polygon id="Path" fill="#B5B5B5" points="256.2 139.29 253.49 139.29 249.37 80.69 249.27 79.26 252.49 79.93"></polygon>
                    <path d="M253.49,139.29 L172.35,139.29" id="Path"></path>
                    <polygon id="Path" fill="#B5B5B5" points="161.59 101.97 83.07 122.87 83.07 119.05 161.39 94.25"></polygon>
                    <polygon id="Path" fill="#B5B5B5" points="166.3 139.29 162.57 139.29 161.59 101.97 161.39 94.25 161.2 87.08 160.59 63.73 160.49 60.63 164.24 61.42 164.27 62.35 164.88 85.97 165.08 93.08 165.29 101.07"></polygon>
                    <path d="M79.85,139.52 L40.51,139.29" id="Path"></path>
                    <polygon id="Path" fill="#B5B5B5" points="249.37 80.69 171.3 99.62 171.08 91.18 224.88 74.14 224.92 74.14 249.27 79.26"></polygon>
                    <polygon id="Path" fill="#B5B5B5" points="160.59 63.73 40.96 108.92 41.05 101.89 143.94 57.16 160.49 60.63"></polygon>
                    <polygon id="Path" fill="#B5B5B5" points="256.88 80.85 253.42 80.13 252.52 79.93 252.49 79.93 249.27 79.26 224.92 74.14 224.88 74.14 212.53 71.54 212.51 71.54 170.34 62.69 165.85 61.76 164.24 61.42 160.49 60.63 143.94 57.16 130.22 54.28 42.02 35.78 42.42 8.16 159.87 36.65 163.61 37.56 166.4 38.24 169.71 39.04 179.91 41.52 203.97 47.36 247.76 57.98 252.44 59.12 255.75 59.92 255.77 59.92 255.99 64.28 256.77 78.9"></polygon>
                    <polygon id="Path" fill="#B5B5B5" points="28.33 99.48 28.22 107.47 13.5 113.86 13.63 106.01"></polygon>
                    <polygon id="Path" fill="#B5B5B5" points="143.94 57.16 41.05 101.89 41.17 93.78 130.22 54.28"></polygon>
                    <polyline id="Path" points="28.22 107.47 30.39 106.52 41.05 101.89"></polyline>
                    <path d="M179.91,41.52 L143.94,57.16" id="Path"></path>
                    <path d="M13.5,113.86 L1.58,119.05" id="Path"></path>
                    <polygon id="Path" fill="#B5B5B5" points="161.39 94.25 83.07 119.05 83.07 113.84 161.2 87.08"></polygon>
                    <polygon id="Path" fill="#B5B5B5" points="224.88 74.14 171.08 91.18 170.9 84.15 212.51 71.54 212.53 71.54"></polygon>
                    <polyline id="Path" points="161.39 94.25 165.08 93.08 171.08 91.18"></polyline>
                    <polyline id="Path" points="255.99 64.28 224.92 74.14 224.9 74.14 224.88 74.14"></polyline>
                    <path d="M83.07,119.05 L79.85,120.07" id="Path"></path>
                </g>
            </g>
        </g>
    </g>
</svg>