<?xml version="1.0" encoding="utf-8"?>
<!-- Generator: Adobe Illustrator 24.0.0, SVG Export Plug-In . SVG Version: 6.00 Build 0)  -->
<svg version="1.1" id="Layer_1" xmlns="http://www.w3.org/2000/svg" xmlns:xlink="http://www.w3.org/1999/xlink" x="0px" y="0px"
	 viewBox="0 0 288 288" style="enable-background:new 0 0 288 288;" xml:space="preserve">
<style type="text/css">
	.st0{display:none;}
	.st1{fill-rule:evenodd;clip-rule:evenodd;fill:#404040;}
	.st2{fill:#404040;}
</style>
<g id="gGr0at_1_" class="st0">
	
		<image style="display:inline;overflow:visible;enable-background:new    ;" width="530" height="201" id="gGr0at" xlink:href="CE35E0BD10E805FE.jpeg"  transform="matrix(0.445 0 0 0.445 22.5896 107)">
	</image>
</g>
<g>
	<g>
		<g>
			<polygon class="st1" points="183.6,186.7 184.8,186.7 184.8,194.2 183.6,193 			"/>
			<path class="st2" d="M184.9,194.5l-1.4-1.5v-6.5h1.4V194.5z M183.7,193l0.9,0.9v-7.1h-0.9V193z"/>
		</g>
		<g>
			<polygon class="st1" points="185.5,185.1 185.5,186.7 177.2,186.7 175.7,185.1 			"/>
			<path class="st2" d="M185.6,186.8h-8.4l-1.8-1.8h10.2V186.8z M177.3,186.5h8v-1.3H176L177.3,186.5z"/>
		</g>
	</g>
	<g>
		<g>
			<polygon class="st1" points="174.5,177.6 175.7,177.6 175.7,185.2 174.5,184 			"/>
			<path class="st2" d="M175.8,185.5l-1.4-1.5v-6.5h1.4V185.5z M174.6,183.9l0.9,0.9v-7.1h-0.9V183.9z"/>
		</g>
		<g>
			<polygon class="st1" points="176.3,176.1 176.3,177.6 168.1,177.6 166.6,176.1 			"/>
			<path class="st2" d="M176.5,177.8h-8.4l-1.8-1.8h10.2V177.8z M168.2,177.5h8v-1.3h-9.3L168.2,177.5z"/>
		</g>
	</g>
	<g>
		<g>
			<polygon class="st1" points="165.4,168.6 166.6,168.6 166.6,176.1 165.4,174.9 			"/>
			<path class="st2" d="M166.8,176.4l-1.4-1.5v-6.5h1.4V176.4z M165.6,174.9l0.9,0.9v-7.1h-0.9V174.9z"/>
		</g>
		<g>
			<polygon class="st1" points="167.3,167.1 167.3,168.6 159.1,168.6 157.5,167.1 			"/>
			<path class="st2" d="M167.4,168.7H159l-1.8-1.8h10.2V168.7z M159.1,168.5h8v-1.3h-9.3L159.1,168.5z"/>
		</g>
	</g>
	<g>
		<g>
			<polygon class="st1" points="156.3,159.5 157.5,159.5 157.5,167.1 156.3,165.9 			"/>
			<path class="st2" d="M157.7,167.4l-1.4-1.5v-6.5h1.4V167.4z M156.5,165.8l0.9,0.9v-7.1h-0.9V165.8z"/>
		</g>
		<g>
			<polygon class="st1" points="158.2,158 158.2,159.5 150,159.5 148.4,158 			"/>
			<path class="st2" d="M158.3,159.7h-8.4l-1.8-1.8h10.2V159.7z M150,159.4h8v-1.3h-9.3L150,159.4z"/>
		</g>
	</g>
	<g>
		<g>
			<polygon class="st1" points="147.2,150.5 148.4,150.5 148.4,158 147.2,156.8 			"/>
			<path class="st2" d="M148.5,158.3l-1.4-1.5v-6.5h1.4V158.3z M147.4,156.8l0.9,0.9v-7.1h-0.9V156.8z"/>
		</g>
		<g>
			<polygon class="st1" points="149.1,149 149.1,150.5 140.9,150.5 139.3,149 			"/>
			<path class="st2" d="M149.2,150.6h-8.4l-1.8-1.8h10.2V150.6z M140.9,150.4h8v-1.3h-9.3L140.9,150.4z"/>
		</g>
	</g>
	<g>
		<g>
			<polygon class="st1" points="138.1,141.4 139.3,141.4 139.3,149 138.1,147.8 			"/>
			<path class="st2" d="M139.4,149.3l-1.4-1.5v-6.5h1.4V149.3z M138.3,147.7l0.9,0.9v-7.1h-0.9V147.7z"/>
		</g>
		<g>
			<polygon class="st1" points="140,139.9 140,141.4 131.8,141.4 130.2,139.9 			"/>
			<path class="st2" d="M140.1,141.6h-8.4l-1.8-1.8h10.2V141.6z M131.8,141.3h8V140h-9.3L131.8,141.3z"/>
		</g>
	</g>
	<g>
		<g>
			<polygon class="st1" points="129.1,132.4 130.2,132.4 130.2,139.9 129.1,138.7 			"/>
			<path class="st2" d="M130.4,140.2l-1.4-1.5v-6.5h1.4V140.2z M129.2,138.7l0.9,0.9v-7.1h-0.9V138.7z"/>
		</g>
		<g>
			<polygon class="st1" points="130.9,130.9 130.9,132.4 122.7,132.4 121.1,130.9 			"/>
			<path class="st2" d="M131,132.5h-8.4l-1.8-1.8H131C131,130.7,131,132.5,131,132.5z M122.7,132.3h8V131h-9.3L122.7,132.3z"/>
		</g>
	</g>
	<g>
		<g>
			<polygon class="st1" points="120,123.4 121.1,123.4 121.1,130.9 120,129.7 			"/>
			<path class="st2" d="M121.3,131.2l-1.4-1.5v-6.5h1.4V131.2z M120.1,129.6l0.9,0.9v-7.1h-0.9V129.6z"/>
		</g>
		<g>
			<polygon class="st1" points="121.8,121.8 121.8,123.4 113.6,123.4 112,121.8 			"/>
			<path class="st2" d="M121.9,123.5h-8.4l-1.8-1.8h10.2C121.9,121.7,121.9,123.5,121.9,123.5z M113.6,123.2h8v-1.3h-9.3
				L113.6,123.2z"/>
		</g>
	</g>
	<g>
		<g>
			<polygon class="st1" points="111,114.3 112.1,114.3 112.1,121.9 111,120.7 			"/>
			<path class="st2" d="M112.3,122.2l-1.4-1.5v-6.5h1.4V122.2z M111.1,120.6l0.9,0.9v-7.1h-0.9V120.6z"/>
		</g>
		<g>
			<polygon class="st1" points="112.8,112.8 112.8,114.3 104.6,114.3 103,112.8 			"/>
			<path class="st2" d="M112.9,114.5h-8.4l-1.8-1.8h10.2C112.9,112.7,112.9,114.5,112.9,114.5z M104.6,114.2h8v-1.3h-9.3
				L104.6,114.2z"/>
		</g>
	</g>
	<polygon class="st1" points="135.5,99.1 114.1,120.6 113.2,119.6 134.6,98.1 	"/>
	<path class="st2" d="M114.1,120.7l-1.1-1.1l0.1-0.1l21.6-21.6l1,1.2L114.1,120.7z M113.3,119.6l0.7,0.8l21.2-21.3l-0.7-0.8
		L113.3,119.6z"/>
	<polygon class="st1" points="162.7,126.3 141.3,147.8 140.3,146.8 161.8,125.3 	"/>
	<path class="st2" d="M141.3,148l-1.1-1.1l21.7-21.7l1,1.2l-0.1,0.1L141.3,148z M140.5,146.8l0.7,0.8l21.2-21.3l-0.7-0.8
		L140.5,146.8z"/>
	<polygon class="st1" points="181.7,199.7 102.7,120.6 108.7,115.4 187.5,194.5 	"/>
	<path class="st2" d="M181.7,199.9L181.7,199.9l-79.2-79.3l6.2-5.3l79,79.3L181.7,199.9z M102.9,120.6l78.8,79l5.7-5l-78.7-78.9
		L102.9,120.6z"/>
	<polygon class="st1" points="184.9,192.5 105.3,112.8 106.3,112.8 185.5,192 	"/>
	<path class="st2" d="M184.9,192.7L184.9,192.7l-79.9-80h1.4l0,0l79.3,79.3L184.9,192.7z M105.6,112.9l79.3,79.4l0.4-0.3l-79.1-79.1
		C106.3,112.9,105.6,112.9,105.6,112.9z"/>
	<polygon class="st1" points="181.3,200.4 102.1,121.1 102.7,120.6 181.7,199.7 	"/>
	<path class="st2" d="M181.4,200.6l-0.1-0.1L102,121.1l0.8-0.7l0.1,0.1l79,79.2L181.4,200.6z M102.3,121.1l79,79.1l0.2-0.5l-78.8-79
		L102.3,121.1z"/>
	<polygon class="st1" points="184.1,194.3 103.7,113.4 106,113.4 184.9,192.5 	"/>
	<path class="st2" d="M184.1,194.6l-0.1-0.1l-80.6-81.1h2.6l0,0l79,79.2L184.1,194.6z M104,113.6l80,80.6l0.7-1.6l-78.9-79
		L104,113.6L104,113.6z"/>
	<polygon class="st1" points="181.7,199.7 102.7,120.6 103,119.5 182.2,198.5 	"/>
	<path class="st2" d="M181.7,199.9l-79.1-79.3l0.4-1.3l79.4,79.2L181.7,199.9z M102.9,120.5l78.8,78.9l0.4-0.9l-79-78.8L102.9,120.5
		z"/>
	<g>
		<g>
			<path class="st1" d="M105.9,121.9c0.2,0.3,0.6,0.3,0.9,0.1c0.2-0.2,0.3-0.6,0-0.9c-0.2-0.3-0.6-0.3-0.9-0.1
				C105.7,121.3,105.7,121.6,105.9,121.9z"/>
			<path class="st2" d="M106.4,122.2C106.4,122.2,106.4,122.2,106.4,122.2c-0.2,0-0.4-0.1-0.6-0.3c-0.1-0.1-0.2-0.3-0.2-0.5
				c0-0.2,0.1-0.4,0.2-0.5c0.3-0.3,0.8-0.2,1,0.1c0.3,0.3,0.3,0.8-0.1,1C106.7,122.2,106.6,122.2,106.4,122.2z M106.4,121
				c-0.1,0-0.2,0-0.3,0.1c-0.1,0.1-0.1,0.2-0.2,0.3c0,0.1,0,0.3,0.1,0.3l0,0c0.1,0.1,0.2,0.2,0.3,0.2c0.1,0,0.2,0,0.3-0.1
				c0.2-0.2,0.2-0.5,0-0.7C106.6,121.1,106.5,121,106.4,121z"/>
		</g>
		<g>
			<g>
				<path class="st1" d="M106.4,120.9c-0.3,0-0.6,0.2-0.6,0.5c0,0.3,0.2,0.6,0.5,0.6c0.3,0,0.6-0.2,0.6-0.5S106.7,120.9,106.4,120.9
					z"/>
				<path class="st2" d="M106.4,122.1C106.3,122.1,106.3,122.1,106.4,122.1c-0.4,0-0.7-0.3-0.7-0.7c0-0.2,0.1-0.3,0.2-0.5
					c0.1-0.1,0.3-0.2,0.5-0.2l0,0c0.4,0,0.7,0.3,0.6,0.7c0,0.2-0.1,0.3-0.2,0.5C106.7,122.1,106.5,122.1,106.4,122.1z M106.3,121
					c-0.1,0-0.2,0-0.3,0.1c-0.1,0.1-0.1,0.2-0.1,0.3c0,0.2,0.2,0.4,0.4,0.5c0.1,0,0.2,0,0.3-0.1s0.1-0.2,0.1-0.3
					C106.8,121.3,106.6,121,106.3,121L106.3,121C106.4,121,106.3,121,106.3,121z"/>
			</g>
			<g>
				<path class="st1" d="M106.3,121c-0.2,0-0.5,0.2-0.5,0.4c0,0.2,0.1,0.4,0.4,0.4c0.2,0,0.5-0.2,0.5-0.4
					C106.7,121.2,106.6,121,106.3,121z"/>
				<path class="st2" d="M106.3,121.9L106.3,121.9c-0.2,0-0.3-0.1-0.4-0.2c-0.1-0.1-0.1-0.3-0.1-0.4c0-0.3,0.3-0.6,0.6-0.5l0,0
					c0.1,0,0.3,0.1,0.4,0.2c0.1,0.1,0.1,0.3,0.1,0.4C106.8,121.7,106.6,121.9,106.3,121.9z M106.3,121.1c-0.2,0-0.3,0.1-0.3,0.3
					c0,0.1,0,0.2,0.1,0.2c0.1,0.1,0.1,0.1,0.2,0.1c0.2,0,0.3-0.1,0.3-0.3c0-0.1,0-0.1-0.1-0.2C106.5,121.1,106.4,121.1,106.3,121.1
					L106.3,121.1C106.3,121.1,106.3,121.1,106.3,121.1z"/>
			</g>
		</g>
	</g>
	<g>
		<g>
			<path class="st1" d="M108,120c0.2,0.3,0.6,0.3,0.9,0.1c0.3-0.2,0.3-0.6,0-0.9c-0.2-0.3-0.6-0.3-0.9-0.1
				C107.8,119.4,107.8,119.8,108,120z"/>
			<path class="st2" d="M108.5,120.4c-0.2,0-0.4-0.1-0.6-0.3l0,0c-0.1-0.1-0.2-0.3-0.2-0.5c0-0.2,0.1-0.4,0.2-0.5
				c0.3-0.3,0.8-0.2,1,0.1c0.3,0.3,0.3,0.8-0.1,1C108.9,120.3,108.7,120.4,108.5,120.4z M108.1,119.9c0.2,0.2,0.5,0.2,0.7,0.1
				c0.2-0.2,0.2-0.5,0-0.7c-0.2-0.2-0.5-0.2-0.7-0.1c-0.1,0.1-0.1,0.2-0.2,0.3C108,119.7,108.1,119.8,108.1,119.9L108.1,119.9z"/>
		</g>
		<g>
			<g>
				<path class="st1" d="M108.5,119c-0.3,0-0.6,0.2-0.6,0.5s0.2,0.6,0.5,0.6c0.3,0,0.6-0.2,0.6-0.5C109,119.3,108.8,119,108.5,119z"
					/>
				<path class="st2" d="M108.5,120.3C108.5,120.3,108.4,120.3,108.5,120.3c-0.4,0-0.7-0.3-0.7-0.7c0-0.2,0.1-0.3,0.2-0.5
					c0.1-0.1,0.3-0.2,0.5-0.2c0.4,0,0.7,0.3,0.6,0.7c0,0.2-0.1,0.3-0.2,0.5C108.8,120.2,108.6,120.3,108.5,120.3z M108.5,119.1
					c-0.1,0-0.2,0-0.3,0.1c-0.1,0.1-0.1,0.2-0.1,0.3c0,0.2,0.2,0.4,0.4,0.5c0.1,0,0.2,0,0.3-0.1s0.1-0.2,0.1-0.3
					C108.9,119.4,108.7,119.2,108.5,119.1L108.5,119.1C108.5,119.1,108.5,119.1,108.5,119.1z"/>
			</g>
			<g>
				<path class="st1" d="M108.4,119.1c-0.2,0-0.5,0.2-0.5,0.4c0,0.2,0.1,0.4,0.4,0.4s0.5-0.2,0.5-0.4
					C108.9,119.3,108.7,119.1,108.4,119.1z"/>
				<path class="st2" d="M108.4,120.1L108.4,120.1c-0.2,0-0.3-0.1-0.4-0.2c-0.1-0.1-0.1-0.3-0.1-0.4c0-0.3,0.3-0.5,0.6-0.5
					c0.1,0,0.3,0.1,0.4,0.2c0.1,0.1,0.1,0.3,0.1,0.4C108.9,119.8,108.7,120.1,108.4,120.1z M108.4,119.2c-0.2,0-0.3,0.1-0.3,0.3
					c0,0.1,0,0.2,0.1,0.2c0.1,0.1,0.1,0.1,0.2,0.1c0.2,0,0.3-0.1,0.3-0.3c0-0.1,0-0.1-0.1-0.2C108.6,119.2,108.5,119.2,108.4,119.2
					L108.4,119.2C108.4,119.2,108.4,119.2,108.4,119.2z"/>
			</g>
		</g>
	</g>
	<g>
		<g>
			<path class="st1" d="M141.6,157.5c0.2,0.3,0.6,0.3,0.9,0.1c0.3-0.2,0.3-0.6,0-0.9c-0.2-0.3-0.6-0.3-0.9-0.1
				C141.4,156.8,141.4,157.2,141.6,157.5z"/>
			<path class="st2" d="M142.1,157.8C142.1,157.8,142.1,157.8,142.1,157.8c-0.2,0-0.4-0.1-0.6-0.3l0,0c-0.3-0.3-0.3-0.8,0.1-1
				c0.3-0.3,0.8-0.2,1,0.1c0.3,0.3,0.3,0.8-0.1,1C142.5,157.8,142.3,157.8,142.1,157.8z M142.1,156.6c-0.1,0-0.2,0-0.3,0.1
				c-0.2,0.2-0.2,0.5,0,0.7l0,0c0.1,0.1,0.2,0.2,0.3,0.2s0.2,0,0.3-0.1c0.2-0.2,0.2-0.5,0-0.7C142.4,156.7,142.2,156.6,142.1,156.6z
				"/>
		</g>
		<g>
			<g>
				<path class="st1" d="M142.1,156.5c-0.3,0-0.6,0.2-0.6,0.5c0,0.3,0.2,0.6,0.5,0.6s0.6-0.2,0.6-0.5
					C142.6,156.8,142.4,156.5,142.1,156.5z"/>
				<path class="st2" d="M142.1,157.7C142.1,157.7,142,157.7,142.1,157.7c-0.4,0-0.7-0.3-0.7-0.7c0-0.2,0.1-0.3,0.2-0.5
					c0.1-0.1,0.3-0.2,0.5-0.2l0,0c0.4,0,0.7,0.3,0.6,0.7c0,0.2-0.1,0.3-0.2,0.5C142.4,157.7,142.2,157.7,142.1,157.7z M142.1,156.6
					c-0.1,0-0.2,0-0.3,0.1c-0.1,0.1-0.1,0.2-0.1,0.3c0,0.2,0.2,0.4,0.4,0.5c0.1,0,0.2,0,0.3-0.1c0.1-0.1,0.1-0.2,0.1-0.3
					C142.5,156.8,142.3,156.6,142.1,156.6C142.1,156.6,142.1,156.6,142.1,156.6z"/>
			</g>
			<g>
				<path class="st1" d="M142,156.6c-0.2,0-0.5,0.2-0.5,0.4c0,0.2,0.1,0.4,0.4,0.4c0.2,0,0.4-0.2,0.5-0.4
					C142.5,156.8,142.3,156.6,142,156.6z"/>
				<path class="st2" d="M142,157.5L142,157.5c-0.2,0-0.3-0.1-0.4-0.2c-0.1-0.1-0.1-0.3-0.1-0.4c0-0.3,0.3-0.5,0.6-0.5l0,0
					c0.1,0,0.3,0.1,0.4,0.2c0.1,0.1,0.1,0.3,0.1,0.4C142.5,157.3,142.3,157.5,142,157.5z M142,156.7c-0.2,0-0.3,0.1-0.3,0.3
					c0,0.1,0,0.2,0.1,0.2c0.1,0.1,0.1,0.1,0.2,0.1c0.2,0,0.3-0.1,0.3-0.3c0-0.1,0-0.1-0.1-0.2C142.2,156.7,142.1,156.7,142,156.7
					L142,156.7C142,156.7,142,156.7,142,156.7z"/>
			</g>
		</g>
	</g>
	<g>
		<g>
			<path class="st1" d="M143.8,155.6c0.2,0.3,0.6,0.3,0.9,0.1c0.2-0.2,0.3-0.6,0-0.9c-0.2-0.3-0.6-0.3-0.9-0.1
				C143.6,155,143.5,155.4,143.8,155.6z"/>
			<path class="st2" d="M144.2,155.9C144.2,155.9,144.2,155.9,144.2,155.9c-0.3,0-0.4-0.1-0.6-0.3s-0.2-0.3-0.2-0.5
				c0-0.2,0.1-0.4,0.2-0.5c0.3-0.3,0.8-0.2,1,0.1c0.3,0.3,0.3,0.8-0.1,1C144.6,155.9,144.4,155.9,144.2,155.9z M144.2,154.7
				c-0.1,0-0.2,0-0.3,0.1c-0.1,0.1-0.1,0.2-0.2,0.3c0,0.1,0,0.3,0.1,0.3l0,0c0.1,0.1,0.2,0.2,0.3,0.2c0.1,0,0.3,0,0.3-0.1
				c0.2-0.2,0.2-0.5,0-0.7C144.5,154.8,144.3,154.7,144.2,154.7z"/>
		</g>
		<g>
			<g>
				<path class="st1" d="M144.2,154.6c-0.3,0-0.6,0.2-0.6,0.5c0,0.3,0.2,0.6,0.5,0.6c0.3,0,0.6-0.2,0.6-0.5
					C144.8,154.9,144.5,154.6,144.2,154.6z"/>
				<path class="st2" d="M144.2,155.9C144.2,155.9,144.2,155.9,144.2,155.9c-0.4,0-0.7-0.3-0.7-0.7c0-0.2,0.1-0.3,0.2-0.5
					c0.1-0.1,0.3-0.2,0.5-0.2c0.4,0,0.7,0.3,0.6,0.7c0,0.2-0.1,0.3-0.2,0.5C144.5,155.8,144.4,155.9,144.2,155.9z M144.2,154.7
					c-0.1,0-0.2,0-0.3,0.1c-0.1,0.1-0.1,0.2-0.1,0.3c0,0.2,0.2,0.4,0.4,0.5c0.1,0,0.2,0,0.3-0.1c0.1-0.1,0.1-0.2,0.1-0.3
					C144.6,155,144.4,154.8,144.2,154.7L144.2,154.7C144.2,154.7,144.2,154.7,144.2,154.7z"/>
			</g>
			<g>
				<path class="st1" d="M144.2,154.7c-0.2,0-0.5,0.2-0.5,0.4s0.1,0.4,0.4,0.4c0.2,0,0.5-0.2,0.5-0.4
					C144.6,154.9,144.4,154.7,144.2,154.7z"/>
				<path class="st2" d="M144.1,155.7L144.1,155.7c-0.2,0-0.3-0.1-0.4-0.2c-0.1-0.1-0.1-0.3-0.1-0.4c0-0.3,0.3-0.5,0.6-0.5
					c0.1,0,0.3,0.1,0.4,0.2c0.1,0.1,0.1,0.3,0.1,0.4C144.7,155.4,144.4,155.7,144.1,155.7z M144.2,154.8c-0.2,0-0.3,0.1-0.3,0.3
					c0,0.1,0,0.2,0.1,0.2c0.1,0.1,0.1,0.1,0.2,0.1c0.2,0,0.3-0.1,0.3-0.3c0-0.1,0-0.1-0.1-0.2C144.3,154.8,144.2,154.8,144.2,154.8
					L144.2,154.8C144.2,154.8,144.2,154.8,144.2,154.8z"/>
			</g>
		</g>
	</g>
	<g>
		<g>
			<path class="st1" d="M179.8,195.5c0.2,0.3,0.6,0.3,0.9,0.1c0.3-0.2,0.3-0.6,0-0.9c-0.2-0.3-0.6-0.3-0.9-0.1
				C179.6,194.9,179.6,195.3,179.8,195.5z"/>
			<path class="st2" d="M180.3,195.9C180.3,195.9,180.3,195.9,180.3,195.9c-0.2,0-0.4-0.1-0.6-0.3c-0.3-0.3-0.3-0.8,0.1-1
				c0.3-0.3,0.8-0.2,1,0.1c0.1,0.1,0.2,0.3,0.2,0.5c0,0.2-0.1,0.4-0.2,0.5C180.6,195.8,180.5,195.9,180.3,195.9z M180.3,194.6
				c-0.1,0-0.2,0-0.3,0.1c-0.2,0.2-0.2,0.5,0,0.7c0.1,0.1,0.2,0.2,0.3,0.2c0.1,0,0.2,0,0.3-0.1c0.1-0.1,0.1-0.2,0.2-0.3
				c0-0.1,0-0.3-0.1-0.3C180.5,194.7,180.4,194.6,180.3,194.6z"/>
		</g>
		<g>
			<g>
				<path class="st1" d="M180.3,194.5c-0.3,0-0.6,0.2-0.6,0.5c0,0.3,0.2,0.6,0.5,0.6c0.3,0,0.6-0.2,0.6-0.5
					C180.8,194.8,180.6,194.5,180.3,194.5z"/>
				<path class="st2" d="M180.3,195.8C180.2,195.8,180.2,195.8,180.3,195.8c-0.4,0-0.7-0.3-0.7-0.7c0-0.2,0.1-0.3,0.2-0.5
					c0.1-0.1,0.3-0.2,0.5-0.2l0,0c0.4,0,0.7,0.3,0.6,0.7c0,0.2-0.1,0.3-0.2,0.5C180.6,195.7,180.4,195.8,180.3,195.8z M180.2,194.6
					c-0.1,0-0.2,0-0.3,0.1c-0.1,0.1-0.1,0.2-0.1,0.3c0,0.2,0.2,0.4,0.4,0.5c0.1,0,0.2,0,0.3-0.1s0.1-0.2,0.1-0.3
					C180.7,194.9,180.5,194.7,180.2,194.6L180.2,194.6C180.3,194.6,180.2,194.6,180.2,194.6z"/>
			</g>
			<g>
				<path class="st1" d="M180.2,194.6c-0.2,0-0.5,0.2-0.5,0.4c0,0.2,0.1,0.4,0.4,0.4c0.2,0,0.5-0.2,0.5-0.4S180.5,194.6,180.2,194.6
					z"/>
				<path class="st2" d="M180.2,195.6L180.2,195.6c-0.2,0-0.3-0.1-0.4-0.2c-0.1-0.1-0.1-0.3-0.1-0.4c0-0.3,0.3-0.5,0.6-0.5h0l0,0
					c0.1,0,0.3,0.1,0.4,0.2c0.1,0.1,0.1,0.3,0.1,0.4C180.7,195.3,180.5,195.6,180.2,195.6z M180.2,194.7c-0.2,0-0.3,0.1-0.3,0.3
					c0,0.1,0,0.2,0.1,0.2c0.1,0.1,0.1,0.1,0.2,0.1h0c0.2,0,0.3-0.1,0.3-0.3c0-0.1,0-0.2-0.1-0.2
					C180.4,194.7,180.3,194.7,180.2,194.7C180.2,194.7,180.2,194.7,180.2,194.7z"/>
			</g>
		</g>
	</g>
	<g>
		<g>
			<path class="st1" d="M181.9,193.6c0.2,0.3,0.6,0.3,0.9,0.1c0.3-0.2,0.3-0.6,0-0.9c-0.2-0.3-0.6-0.3-0.9-0.1
				C181.7,193,181.7,193.4,181.9,193.6z"/>
			<path class="st2" d="M182.4,194c-0.2,0-0.4-0.1-0.6-0.3l0,0c-0.3-0.3-0.3-0.8,0.1-1c0.3-0.3,0.8-0.2,1,0.1c0.3,0.3,0.3,0.8-0.1,1
				C182.8,193.9,182.6,194,182.4,194z M182,193.6c0.2,0.2,0.5,0.2,0.7,0.1c0.2-0.2,0.2-0.5,0-0.7s-0.5-0.2-0.7-0.1
				C181.9,193,181.9,193.4,182,193.6L182,193.6z"/>
		</g>
		<g>
			<g>
				<path class="st1" d="M182.4,192.6c-0.3,0-0.6,0.2-0.6,0.5c0,0.3,0.2,0.6,0.5,0.6c0.3,0,0.6-0.2,0.6-0.5
					C182.9,192.9,182.7,192.7,182.4,192.6z"/>
				<path class="st2" d="M182.4,193.9C182.4,193.9,182.3,193.9,182.4,193.9c-0.4,0-0.7-0.3-0.7-0.7c0-0.2,0.1-0.3,0.2-0.5
					c0.1-0.1,0.3-0.2,0.5-0.2l0,0c0.4,0,0.7,0.3,0.6,0.7c0,0.2-0.1,0.3-0.2,0.5C182.7,193.8,182.5,193.9,182.4,193.9z M182.3,192.8
					c-0.1,0-0.2,0-0.3,0.1c-0.1,0.1-0.1,0.2-0.1,0.3c0,0.2,0.2,0.4,0.4,0.5c0.1,0,0.2,0,0.3-0.1s0.1-0.2,0.1-0.3
					C182.8,193,182.6,192.8,182.3,192.8L182.3,192.8C182.4,192.8,182.4,192.8,182.3,192.8z"/>
			</g>
			<g>
				<path class="st1" d="M182.3,192.7c-0.2,0-0.5,0.2-0.5,0.4c0,0.2,0.1,0.4,0.4,0.4s0.5-0.2,0.5-0.4S182.6,192.7,182.3,192.7z"/>
				<path class="st2" d="M182.3,193.7L182.3,193.7c-0.2,0-0.3-0.1-0.4-0.2c-0.1-0.1-0.1-0.3-0.1-0.4c0-0.3,0.3-0.5,0.6-0.5l0,0
					c0.1,0,0.3,0.1,0.4,0.2c0.1,0.1,0.1,0.3,0.1,0.4C182.8,193.4,182.6,193.7,182.3,193.7z M182.3,192.8c-0.2,0-0.3,0.1-0.3,0.3
					c0,0.1,0,0.2,0.1,0.2c0.1,0.1,0.1,0.1,0.2,0.1c0.2,0,0.3-0.1,0.3-0.3c0-0.1,0-0.1-0.1-0.2C182.5,192.9,182.4,192.8,182.3,192.8
					C182.3,192.8,182.3,192.8,182.3,192.8z"/>
			</g>
		</g>
	</g>
	<polygon class="st1" points="119.9,82.7 187.5,150.5 187.5,152.3 119,83.6 	"/>
	<path class="st2" d="M187.7,152.7l-0.2-0.2l-68.7-68.8l1.2-1l67.7,67.9L187.7,152.7z M119.1,83.6l68.3,68.4l0-1.5l-67.5-67.6
		L119.1,83.6z"/>
	<rect x="183.5" y="147.8" class="st1" width="1.3" height="42.2"/>
	<path class="st2" d="M185,190.1h-1.6v-42.5h1.6V190.1z M183.7,189.9h1.1v-42h-1.1V189.9z"/>
	<polygon class="st1" points="115,92.3 184.5,162.4 184,162.9 114.5,92.8 	"/>
	<path class="st2" d="M184,163L184,163l-69.7-70.3l0.7-0.6l0.1,0.1l69.6,70.2L184,163z M114.7,92.8l69.3,69.9l0.3-0.3L115,92.5
		L114.7,92.8z"/>
	<polygon class="st1" points="110.9,101.3 184.5,175.5 184,175.9 110.4,101.7 	"/>
	<path class="st2" d="M184,176.1L184,176.1l-73.8-74.3l0.7-0.6l73.8,74.3L184,176.1z M110.6,101.7l73.4,74l0.3-0.3l-73.4-74
		L110.6,101.7z"/>
	<rect x="101.5" y="82.7" class="st1" width="18.5" height="1.3"/>
	<path class="st2" d="M120.1,84.2h-18.7v-1.6h18.7V84.2z M101.6,83.9h18.2v-1.1h-18.2V83.9z"/>
	<rect x="103" y="92.3" class="st1" width="12" height="0.6"/>
	<path class="st2" d="M115.2,93.1h-12.2v-0.9h12.2V93.1z M103.2,92.9h11.7v-0.4h-11.7V92.9z"/>
	<rect x="103" y="101.3" class="st1" width="7.9" height="0.6"/>
	<path class="st2" d="M111,102.1h-8.1v-0.9h8.1V102.1z M103.2,101.8h7.6v-0.4h-7.6V101.8z"/>
	<rect x="102.1" y="84" class="st1" width="1.3" height="28.8"/>
	<path class="st2" d="M103.5,112.9h-1.6v-29h1.6V112.9z M102.2,112.7h1.1V84.2h-1.1V112.7z"/>
	<g>
		<g>
			<polygon class="st1" points="107,266 105.8,266 105.8,273.6 107,272.4 			"/>
			<path class="st2" d="M105.7,273.9v-8h1.4v6.5L105.7,273.9z M105.9,266.2v7.1l0.9-0.9v-6.2H105.9z"/>
		</g>
		<g>
			<polygon class="st1" points="105.1,264.5 105.1,266 113.3,266 114.9,264.5 			"/>
			<path class="st2" d="M113.4,266.2H105v-1.8h10.2L113.4,266.2z M105.3,265.9h8l1.3-1.3h-9.3V265.9z"/>
		</g>
	</g>
	<g>
		<g>
			<polygon class="st1" points="116.1,257 114.9,257 114.9,264.5 116.1,263.3 			"/>
			<path class="st2" d="M114.7,264.8v-8h1.4v6.5L114.7,264.8z M115,257.1v7.1l0.9-0.9v-6.2H115z"/>
		</g>
		<g>
			<polygon class="st1" points="114.2,255.5 114.2,257 122.4,257 124,255.5 			"/>
			<path class="st2" d="M122.5,257.1h-8.4v-1.8h10.2L122.5,257.1z M114.4,256.8h8l1.3-1.3h-9.3V256.8z"/>
		</g>
	</g>
	<g>
		<g>
			<polygon class="st1" points="125.1,247.9 124,247.9 124,255.5 125.1,254.3 			"/>
			<path class="st2" d="M123.8,255.8v-8h1.4v6.5L123.8,255.8z M124.1,248.1v7.1l0.9-0.9v-6.2H124.1z"/>
		</g>
		<g>
			<polygon class="st1" points="123.3,246.4 123.3,247.9 131.5,247.9 133.1,246.4 			"/>
			<path class="st2" d="M131.6,248.1h-8.4v-1.8h10.2L131.6,248.1z M123.4,247.8h8l1.3-1.3h-9.3V247.8z"/>
		</g>
	</g>
	<g>
		<g>
			<polygon class="st1" points="134.2,238.9 133.1,238.9 133.1,246.4 134.2,245.2 			"/>
			<path class="st2" d="M132.9,246.7v-8h1.4v6.5L132.9,246.7z M133.2,239v7.1l0.9-0.9V239L133.2,239L133.2,239z"/>
		</g>
		<g>
			<polygon class="st1" points="132.4,237.4 132.4,238.9 140.6,238.9 142.2,237.4 			"/>
			<path class="st2" d="M140.7,239h-8.4v-1.8h10.2L140.7,239z M132.5,238.8h8l1.3-1.3h-9.3C132.5,237.5,132.5,238.8,132.5,238.8z"/>
		</g>
	</g>
	<g>
		<g>
			<polygon class="st1" points="143.3,229.8 142.2,229.8 142.2,237.4 143.3,236.2 			"/>
			<path class="st2" d="M142,237.7v-8h1.4v6.5L142,237.7z M142.3,230v7.1l0.9-0.9V230L142.3,230L142.3,230z"/>
		</g>
		<g>
			<polygon class="st1" points="141.5,228.3 141.5,229.8 149.7,229.8 151.3,228.3 			"/>
			<path class="st2" d="M149.8,230h-8.4v-1.8h10.2L149.8,230z M141.6,229.7h8l1.3-1.3h-9.3L141.6,229.7L141.6,229.7z"/>
		</g>
	</g>
	<g>
		<g>
			<polygon class="st1" points="152.5,220.8 151.3,220.8 151.3,228.3 152.5,227.1 			"/>
			<path class="st2" d="M151.1,228.6v-8h1.4v6.5L151.1,228.6z M151.4,220.9v7.1l0.9-0.9v-6.2L151.4,220.9L151.4,220.9z"/>
		</g>
		<g>
			<polygon class="st1" points="150.6,219.3 150.6,220.8 158.8,220.8 160.4,219.3 			"/>
			<path class="st2" d="M158.9,220.9h-8.4v-1.8h10.2L158.9,220.9z M150.7,220.7h8l1.3-1.3h-9.3L150.7,220.7L150.7,220.7z"/>
		</g>
	</g>
	<g>
		<g>
			<polygon class="st1" points="161.5,211.8 160.3,211.8 160.3,219.3 161.5,218.1 			"/>
			<path class="st2" d="M160.2,219.6v-8h1.4v6.5L160.2,219.6z M160.5,211.9v7.1l0.9-0.9v-6.2L160.5,211.9L160.5,211.9z"/>
		</g>
		<g>
			<polygon class="st1" points="159.7,210.2 159.7,211.8 167.9,211.8 169.4,210.2 			"/>
			<path class="st2" d="M168,211.9h-8.4v-1.8h10.2L168,211.9z M159.8,211.6h8l1.3-1.3h-9.3L159.8,211.6L159.8,211.6z"/>
		</g>
	</g>
	<g>
		<g>
			<polygon class="st1" points="170.6,202.7 169.4,202.7 169.4,210.2 170.6,209.1 			"/>
			<path class="st2" d="M169.3,210.6v-8h1.4v6.5L169.3,210.6z M169.6,202.8v7.1l0.9-0.9v-6.2L169.6,202.8L169.6,202.8z"/>
		</g>
		<g>
			<polygon class="st1" points="168.8,201.2 168.8,202.7 177,202.7 178.5,201.2 			"/>
			<path class="st2" d="M177.1,202.8h-8.4V201h10.2L177.1,202.8z M168.9,202.6h8l1.3-1.3h-9.3L168.9,202.6L168.9,202.6z"/>
		</g>
	</g>
	<g>
		<g>
			<polygon class="st1" points="179.6,193.7 178.4,193.7 178.4,201.2 179.6,200 			"/>
			<path class="st2" d="M178.3,201.5v-8h1.4v6.5L178.3,201.5z M178.6,193.8v7.1l0.9-0.9v-6.2L178.6,193.8L178.6,193.8z"/>
		</g>
		<g>
			<polygon class="st1" points="177.8,192.2 177.8,193.7 186,193.7 187.5,192.2 			"/>
			<path class="st2" d="M186.1,193.8h-8.4V192h10.2L186.1,193.8z M177.9,193.6h8l1.3-1.3h-9.3L177.9,193.6L177.9,193.6z"/>
		</g>
	</g>
	<polygon class="st1" points="100.7,233 122.2,254.4 123.1,253.5 101.6,232 	"/>
	<path class="st2" d="M122.2,254.6L100.6,233l1-1.2l0.1,0.1l21.6,21.6L122.2,254.6z M100.9,233l21.2,21.3l0.7-0.8l-21.3-21.4
		L100.9,233z"/>
	<polygon class="st1" points="155.1,178.4 176.5,199.9 177.4,199 155.9,177.4 	"/>
	<path class="st2" d="M176.5,200.1l-21.6-21.6l1-1.2l0.1,0.1l21.6,21.6L176.5,200.1z M155.2,178.4l21.2,21.3l0.7-0.8l-21.3-21.3
		L155.2,178.4z"/>
	<polygon class="st1" points="127.9,205.7 149.3,227.1 150.3,226.2 128.8,204.6 	"/>
	<path class="st2" d="M149.3,227.3l-21.6-21.6l1-1.2l0.1,0.1l21.6,21.6L149.3,227.3z M128.1,205.6l21.2,21.3l0.7-0.8l-21.3-21.3
		L128.1,205.6z"/>
	<polygon class="st1" points="108.9,279.1 187.9,199.9 181.9,194.7 103,273.8 	"/>
	<path class="st2" d="M108.9,279.2l-6-5.4l0.1-0.1l78.9-79.2l6.2,5.3l-0.1,0.1L108.9,279.2z M103.2,273.8l5.6,5l78.8-79l-5.8-5
		L103.2,273.8z"/>
	<polygon class="st1" points="105.6,271.9 185.3,192 184.3,192 105.1,271.4 	"/>
	<path class="st2" d="M105.6,272.1l-0.8-0.7l0.1-0.1l79.2-79.4h1.4l-0.2,0.2L105.6,272.1z M105.2,271.4l0.4,0.3l79.3-79.6h-0.6
		L105.2,271.4z"/>
	<polygon class="st1" points="109.3,279.8 188.4,200.4 187.9,199.9 108.9,279 	"/>
	<path class="st2" d="M109.2,280l-0.5-1l79.1-79.2l0.8,0.7L109.2,280z M109.1,279l0.2,0.5l79-79.1l-0.4-0.3L109.1,279z"/>
	<polygon class="st1" points="177.4,199.9 240.1,199.9 240.1,192 185.3,192 	"/>
	<path class="st2" d="M240.2,200.1h-63.1l8.1-8.2h55L240.2,200.1L240.2,200.1z M177.7,199.8h62.2v-7.6h-54.6L177.7,199.8z"/>
	<rect x="184.3" y="192" class="st1" width="57.1" height="0.8"/>
	<path class="st2" d="M241.4,192.9h-57.3v-1h57.3V192.9z M184.4,192.7h56.8v-0.5h-56.8V192.7z"/>
	<polygon class="st1" points="183.1,194.5 240.1,194.5 240.1,192.8 184.6,192.8 	"/>
	<path class="st2" d="M240.2,194.6h-57.3l1.7-2h55.6V194.6z M183.4,194.4h56.5v-1.4h-55.3L183.4,194.4z"/>
	<rect x="187.9" y="199.9" class="st1" width="53.5" height="0.8"/>
	<path class="st2" d="M241.4,200.8h-53.7v-1h53.7V200.8z M188,200.5h53.2v-0.5H188V200.5z"/>
	<polygon class="st1" points="187.9,199.9 240.1,199.9 240.1,198.9 187.5,198.9 	"/>
	<path class="st2" d="M240.2,200h-52.4l-0.4-1.3h52.8V200z M187.9,199.8h52V199h-52.2L187.9,199.8z"/>
	<polygon class="st1" points="106.5,273.7 186.9,192.8 184.6,192.8 105.6,271.9 	"/>
	<path class="st2" d="M106.4,273.9l-1-2.1l0.1-0.1l79-79.1h2.6l-0.2,0.2L106.4,273.9z M105.8,271.9l0.7,1.6l80-80.6h-1.9
		L105.8,271.9z"/>
	<g>
		<g>
			<path class="st1" d="M235.9,195c0,0.3-0.3,0.6-0.6,0.6c-0.3,0-0.6-0.3-0.6-0.6s0.3-0.6,0.6-0.6
				C235.6,194.4,235.9,194.7,235.9,195z"/>
			<path class="st2" d="M235.3,195.8c-0.4,0-0.7-0.3-0.7-0.8s0.3-0.7,0.7-0.7s0.7,0.3,0.7,0.7C236,195.5,235.7,195.8,235.3,195.8z
				 M235.3,194.6c-0.3,0-0.5,0.2-0.5,0.5c0,0.3,0.2,0.5,0.5,0.5s0.5-0.2,0.5-0.5S235.5,194.6,235.3,194.6z"/>
		</g>
		<g>
			<g>
				<path class="st1" d="M234.9,194.6c0.2-0.2,0.6-0.2,0.8,0c0.2,0.2,0.2,0.6,0,0.8c-0.2,0.2-0.6,0.2-0.8,0
					C234.7,195.2,234.7,194.8,234.9,194.6z"/>
				<path class="st2" d="M235.3,195.7c-0.2,0-0.4-0.1-0.5-0.2c-0.3-0.3-0.3-0.7,0-1l0,0c0.3-0.3,0.7-0.3,1,0c0.3,0.3,0.3,0.7,0,1
					C235.6,195.6,235.5,195.7,235.3,195.7z M235,194.7c-0.2,0.2-0.2,0.4,0,0.6c0.2,0.2,0.4,0.2,0.6,0c0.2-0.2,0.2-0.4,0-0.6
					C235.4,194.5,235.1,194.5,235,194.7L235,194.7z"/>
			</g>
			<g>
				<path class="st1" d="M235,194.6c0.2-0.2,0.5-0.2,0.6,0c0.2,0.2,0.2,0.4,0,0.6c-0.2,0.2-0.5,0.2-0.6,0
					C234.8,195,234.8,194.8,235,194.6z"/>
				<path class="st2" d="M235.3,195.4c-0.1,0-0.3-0.1-0.4-0.2c-0.1-0.1-0.2-0.2-0.2-0.4s0.1-0.3,0.2-0.4l0,0c0.2-0.2,0.6-0.2,0.8,0
					c0.1,0.1,0.2,0.2,0.2,0.4s-0.1,0.3-0.2,0.4C235.6,195.4,235.4,195.4,235.3,195.4z M235,194.7c-0.1,0.1-0.1,0.1-0.1,0.2
					c0,0.1,0,0.1,0.1,0.2c0.1,0.1,0.3,0.1,0.5,0c0.1-0.1,0.1-0.1,0.1-0.2c0-0.1,0-0.1-0.1-0.2C235.4,194.6,235.2,194.6,235,194.7
					L235,194.7z"/>
			</g>
		</g>
	</g>
	<g>
		<g>
			<path class="st1" d="M235.9,198.3c0,0.3-0.3,0.6-0.6,0.6c-0.3,0-0.6-0.3-0.6-0.6c0-0.3,0.3-0.6,0.6-0.6
				C235.6,197.7,235.9,198,235.9,198.3z"/>
			<path class="st2" d="M235.3,199.1c-0.4,0-0.7-0.3-0.7-0.8c0-0.4,0.3-0.8,0.7-0.8s0.7,0.3,0.7,0.8
				C236,198.7,235.7,199.1,235.3,199.1z M235.3,197.8c-0.3,0-0.5,0.2-0.5,0.5c0,0.3,0.2,0.5,0.5,0.5s0.5-0.2,0.5-0.5
				C235.8,198.1,235.5,197.8,235.3,197.8z"/>
		</g>
		<g>
			<g>
				<path class="st1" d="M234.9,197.9c0.2-0.2,0.6-0.2,0.8,0c0.2,0.2,0.2,0.6,0,0.8c-0.2,0.2-0.6,0.2-0.8,0
					C234.7,198.5,234.7,198.1,234.9,197.9z"/>
				<path class="st2" d="M235.3,199c-0.2,0-0.4-0.1-0.5-0.2c-0.3-0.3-0.3-0.7,0-1l0,0c0.3-0.3,0.7-0.3,1,0c0.3,0.3,0.3,0.7,0,1
					C235.6,198.9,235.5,199,235.3,199z M235,198c-0.2,0.2-0.2,0.4,0,0.6c0.2,0.2,0.4,0.2,0.6,0c0.2-0.2,0.2-0.4,0-0.6
					C235.4,197.8,235.1,197.8,235,198z"/>
			</g>
			<g>
				<path class="st1" d="M235,197.9c0.2-0.2,0.5-0.2,0.6,0c0.2,0.2,0.2,0.4,0,0.6c-0.2,0.2-0.5,0.2-0.6,0
					C234.8,198.3,234.8,198.1,235,197.9z"/>
				<path class="st2" d="M235.3,198.7c-0.1,0-0.3-0.1-0.4-0.2c-0.1-0.1-0.2-0.2-0.2-0.4s0.1-0.3,0.2-0.4l0,0c0.2-0.2,0.6-0.2,0.8,0
					c0.1,0.1,0.2,0.2,0.2,0.4s-0.1,0.3-0.2,0.4C235.6,198.7,235.4,198.7,235.3,198.7z M235,198c-0.1,0.1-0.1,0.1-0.1,0.2
					s0,0.1,0.1,0.2c0.1,0.1,0.3,0.1,0.5,0c0.1-0.1,0.1-0.1,0.1-0.2c0-0.1,0-0.1-0.1-0.2C235.4,197.9,235.2,197.9,235,198L235,198z"
					/>
			</g>
		</g>
	</g>
	<g>
		<g>
			<path class="st1" d="M191.7,195c0,0.3-0.3,0.6-0.6,0.6c-0.3,0-0.6-0.3-0.6-0.6s0.3-0.6,0.6-0.6
				C191.4,194.4,191.7,194.7,191.7,195z"/>
			<path class="st2" d="M191.1,195.8c-0.4,0-0.7-0.3-0.7-0.8s0.3-0.7,0.7-0.7c0.4,0,0.7,0.3,0.7,0.7
				C191.8,195.5,191.5,195.8,191.1,195.8z M191.1,194.6c-0.3,0-0.5,0.2-0.5,0.5c0,0.3,0.2,0.5,0.5,0.5c0.3,0,0.5-0.2,0.5-0.5
				S191.3,194.6,191.1,194.6z"/>
		</g>
		<g>
			<g>
				<path class="st1" d="M190.7,194.6c0.2-0.2,0.6-0.2,0.8,0c0.2,0.2,0.2,0.6,0,0.8c-0.2,0.2-0.6,0.2-0.8,0
					C190.5,195.2,190.5,194.8,190.7,194.6z"/>
				<path class="st2" d="M191.1,195.7c-0.2,0-0.4-0.1-0.5-0.2c-0.3-0.3-0.3-0.7,0-1l0,0c0.1-0.1,0.3-0.2,0.5-0.2l0,0
					c0.2,0,0.3,0.1,0.5,0.2c0.3,0.3,0.3,0.7,0,1C191.4,195.6,191.3,195.7,191.1,195.7L191.1,195.7z M190.8,194.7
					c-0.2,0.2-0.2,0.4,0,0.6c0.1,0.1,0.2,0.1,0.3,0.1l0,0c0.1,0,0.2,0,0.3-0.1c0.2-0.2,0.2-0.4,0-0.6c-0.1-0.1-0.2-0.1-0.3-0.1l0,0
					C191,194.6,190.9,194.6,190.8,194.7z"/>
			</g>
			<g>
				<path class="st1" d="M190.8,194.6c0.2-0.2,0.5-0.2,0.6,0c0.2,0.2,0.2,0.4,0,0.6c-0.2,0.2-0.5,0.2-0.6,0
					C190.6,195,190.6,194.8,190.8,194.6z"/>
				<path class="st2" d="M191.1,195.4c-0.1,0-0.3-0.1-0.4-0.2c-0.1-0.1-0.2-0.2-0.2-0.4s0.1-0.3,0.2-0.4l0,0c0.2-0.2,0.6-0.2,0.8,0
					c0.1,0.1,0.2,0.2,0.2,0.4s-0.1,0.3-0.2,0.4S191.2,195.4,191.1,195.4z M190.8,194.7c-0.1,0.1-0.1,0.1-0.1,0.2
					c0,0.1,0,0.1,0.1,0.2c0.1,0.1,0.3,0.1,0.5,0c0.1-0.1,0.1-0.1,0.1-0.2c0-0.1,0-0.1-0.1-0.2C191.2,194.6,191,194.6,190.8,194.7
					L190.8,194.7z"/>
			</g>
		</g>
	</g>
	<g>
		<g>
			<path class="st1" d="M191.7,198.3c0,0.3-0.3,0.6-0.6,0.6c-0.3,0-0.6-0.3-0.6-0.6c0-0.3,0.3-0.6,0.6-0.6
				C191.4,197.7,191.7,198,191.7,198.3z"/>
			<path class="st2" d="M191.1,199.1c-0.4,0-0.7-0.3-0.7-0.8c0-0.4,0.3-0.8,0.7-0.8c0.4,0,0.7,0.3,0.7,0.8
				C191.8,198.7,191.5,199.1,191.1,199.1z M191.1,197.8c-0.3,0-0.5,0.2-0.5,0.5c0,0.3,0.2,0.5,0.5,0.5c0.3,0,0.5-0.2,0.5-0.5
				C191.6,198.1,191.3,197.8,191.1,197.8z"/>
		</g>
		<g>
			<g>
				<path class="st1" d="M190.7,197.9c0.2-0.2,0.6-0.2,0.8,0c0.2,0.2,0.2,0.6,0,0.8c-0.2,0.2-0.6,0.2-0.8,0
					C190.5,198.5,190.5,198.1,190.7,197.9z"/>
				<path class="st2" d="M191.1,199c-0.2,0-0.4-0.1-0.5-0.2c-0.3-0.3-0.3-0.7,0-1l0,0c0.1-0.1,0.3-0.2,0.5-0.2l0,0
					c0.2,0,0.3,0.1,0.5,0.2c0.3,0.3,0.3,0.7,0,1C191.4,198.9,191.3,199,191.1,199L191.1,199z M190.8,198c-0.2,0.2-0.2,0.4,0,0.6
					c0.1,0.1,0.2,0.1,0.3,0.1l0,0c0.1,0,0.2,0,0.3-0.1c0.2-0.2,0.2-0.4,0-0.6c-0.1-0.1-0.2-0.1-0.3-0.1l0,0
					C191,197.8,190.9,197.9,190.8,198L190.8,198z"/>
			</g>
			<g>
				<path class="st1" d="M190.8,197.9c0.2-0.2,0.5-0.2,0.6,0c0.2,0.2,0.2,0.4,0,0.6c-0.2,0.2-0.5,0.2-0.6,0
					C190.6,198.3,190.6,198.1,190.8,197.9z"/>
				<path class="st2" d="M191.1,198.7c-0.1,0-0.3-0.1-0.4-0.2s-0.2-0.2-0.2-0.4s0.1-0.3,0.2-0.4l0,0c0.2-0.2,0.6-0.2,0.8,0
					c0.1,0.1,0.2,0.2,0.2,0.4s-0.1,0.3-0.2,0.4C191.4,198.7,191.2,198.7,191.1,198.7z M190.8,198c-0.1,0.1-0.1,0.1-0.1,0.2
					s0,0.1,0.1,0.2c0.1,0.1,0.3,0.1,0.5,0c0.1-0.1,0.1-0.1,0.1-0.2c0-0.1,0-0.1-0.1-0.2C191.2,197.9,191,197.9,190.8,198L190.8,198z
					"/>
			</g>
		</g>
	</g>
	<polygon class="st1" points="108.9,279 50.5,279 50.5,271.1 105.3,271.1 	"/>
	<path class="st2" d="M109.1,279.2H50.4V271h55L109.1,279.2z M50.6,278.9h58l-3.5-7.6H50.6V278.9z"/>
	<polygon class="st1" points="105.6,271.9 49.3,271.9 49.3,271.1 106.3,271.1 	"/>
	<path class="st2" d="M105.7,272H49.1v-1h57.5L105.7,272z M49.4,271.8h56.2l0.4-0.5H49.4V271.8z"/>
	<rect x="49.3" y="279" class="st1" width="59.9" height="0.8"/>
	<path class="st2" d="M109.4,279.9H49.2v-1h60.2L109.4,279.9L109.4,279.9z M49.4,279.7h59.7v-0.5H49.4V279.7z"/>
	<polygon class="st1" points="108.9,279 50.5,279 50.5,278 108.4,278 	"/>
	<path class="st2" d="M109.1,279.1H50.4v-1.3h58.1L109.1,279.1z M50.6,278.9h58l-0.4-0.8H50.6V278.9z"/>
	<g>
		<g>
			<path class="st1" d="M54.7,274.1c0,0.3,0.3,0.6,0.6,0.6c0.3,0,0.6-0.3,0.6-0.6c0-0.3-0.3-0.6-0.6-0.6
				C55,273.5,54.7,273.8,54.7,274.1z"/>
			<path class="st2" d="M55.3,274.9c-0.4,0-0.7-0.3-0.7-0.8s0.3-0.8,0.7-0.8c0.4,0,0.7,0.3,0.7,0.8C56,274.6,55.7,274.9,55.3,274.9z
				 M55.3,273.7c-0.3,0-0.5,0.2-0.5,0.5c0,0.3,0.2,0.5,0.5,0.5s0.5-0.2,0.5-0.5C55.8,273.9,55.6,273.7,55.3,273.7z"/>
		</g>
		<g>
			<g>
				<path class="st1" d="M55.7,273.7c-0.2-0.2-0.6-0.2-0.8,0c-0.2,0.2-0.2,0.6,0,0.8c0.2,0.2,0.6,0.2,0.8,0
					C55.9,274.3,55.9,273.9,55.7,273.7z"/>
				<path class="st2" d="M55.3,274.8L55.3,274.8c-0.2,0-0.4-0.1-0.5-0.2c-0.3-0.3-0.3-0.7,0-1c0.1-0.1,0.3-0.2,0.5-0.2l0,0
					c0.2,0,0.4,0.1,0.5,0.2l0,0c0.3,0.3,0.3,0.7,0,1C55.7,274.7,55.5,274.8,55.3,274.8z M55.3,273.7L55.3,273.7
					c-0.1,0-0.2,0-0.3,0.1c-0.2,0.2-0.2,0.4,0,0.6c0.1,0.1,0.2,0.1,0.3,0.1l0,0c0.1,0,0.2,0,0.3-0.1c0.2-0.2,0.2-0.4,0-0.6
					C55.5,273.7,55.4,273.7,55.3,273.7z"/>
			</g>
			<g>
				<path class="st1" d="M55.6,273.7c-0.2-0.2-0.5-0.2-0.6,0c-0.2,0.2-0.2,0.4,0,0.6c0.2,0.2,0.5,0.2,0.6,0
					C55.8,274.1,55.8,273.9,55.6,273.7z"/>
				<path class="st2" d="M55.3,274.5c-0.1,0-0.3-0.1-0.4-0.2s-0.2-0.2-0.2-0.4c0-0.1,0.1-0.3,0.2-0.4c0.2-0.2,0.6-0.2,0.8,0l0,0
					c0.1,0.1,0.2,0.2,0.2,0.4c0,0.1-0.1,0.3-0.2,0.4C55.6,274.5,55.5,274.5,55.3,274.5z M55.3,273.7c-0.1,0-0.2,0-0.2,0.1
					c-0.1,0.1-0.1,0.1-0.1,0.2c0,0.1,0,0.1,0.1,0.2c0.1,0.1,0.3,0.1,0.5,0c0.1-0.1,0.1-0.1,0.1-0.2c0-0.1,0-0.1-0.1-0.2l0,0
					C55.5,273.7,55.4,273.7,55.3,273.7z"/>
			</g>
		</g>
	</g>
	<g>
		<g>
			<path class="st1" d="M54.7,277.4c0,0.3,0.3,0.6,0.6,0.6c0.3,0,0.6-0.3,0.6-0.6c0-0.3-0.3-0.6-0.6-0.6
				C55,276.8,54.7,277.1,54.7,277.4z"/>
			<path class="st2" d="M55.3,278.2c-0.4,0-0.7-0.3-0.7-0.8c0-0.4,0.3-0.8,0.7-0.8c0.4,0,0.7,0.3,0.7,0.8
				C56,277.8,55.7,278.2,55.3,278.2z M55.3,276.9c-0.3,0-0.5,0.2-0.5,0.5c0,0.3,0.2,0.5,0.5,0.5s0.5-0.2,0.5-0.5
				C55.8,277.2,55.6,276.9,55.3,276.9z"/>
		</g>
		<g>
			<g>
				<path class="st1" d="M55.7,277c-0.2-0.2-0.6-0.2-0.8,0c-0.2,0.2-0.2,0.6,0,0.8c0.2,0.2,0.6,0.2,0.8,0
					C55.9,277.6,55.9,277.2,55.7,277z"/>
				<path class="st2" d="M55.3,278.1L55.3,278.1c-0.2,0-0.4-0.1-0.5-0.2c-0.3-0.3-0.3-0.7,0-1c0.1-0.1,0.3-0.2,0.5-0.2l0,0
					c0.2,0,0.4,0.1,0.5,0.2l0,0c0.3,0.3,0.3,0.7,0,1C55.7,278,55.5,278.1,55.3,278.1z M55.3,276.9L55.3,276.9c-0.1,0-0.2,0-0.3,0.1
					c-0.2,0.2-0.2,0.4,0,0.6c0.1,0.1,0.2,0.1,0.3,0.1l0,0c0.1,0,0.2,0,0.3-0.1c0.2-0.2,0.2-0.4,0-0.6
					C55.5,277,55.4,276.9,55.3,276.9z"/>
			</g>
			<g>
				<path class="st1" d="M55.6,277c-0.2-0.2-0.5-0.2-0.6,0c-0.2,0.2-0.2,0.4,0,0.6c0.2,0.2,0.5,0.2,0.6,0
					C55.8,277.4,55.8,277.2,55.6,277z"/>
				<path class="st2" d="M55.3,277.8c-0.1,0-0.3-0.1-0.4-0.2s-0.2-0.2-0.2-0.4c0-0.1,0.1-0.3,0.2-0.4c0.2-0.2,0.6-0.2,0.8,0l0,0
					c0.1,0.1,0.2,0.2,0.2,0.4c0,0.1-0.1,0.3-0.2,0.4C55.6,277.8,55.5,277.8,55.3,277.8z M55.3,277c-0.1,0-0.2,0-0.2,0.1
					c-0.1,0.1-0.1,0.1-0.1,0.2s0,0.1,0.1,0.2c0.1,0.1,0.3,0.1,0.5,0c0.1-0.1,0.1-0.1,0.1-0.2s0-0.1-0.1-0.2l0,0
					C55.5,277,55.4,277,55.3,277z"/>
			</g>
		</g>
	</g>
	<g>
		<g>
			<path class="st1" d="M103,274.1c0,0.3,0.3,0.6,0.6,0.6c0.3,0,0.6-0.3,0.6-0.6c0-0.3-0.3-0.6-0.6-0.6
				C103.3,273.5,103,273.8,103,274.1z"/>
			<path class="st2" d="M103.6,274.9c-0.4,0-0.7-0.3-0.7-0.8s0.3-0.8,0.7-0.8c0.4,0,0.7,0.3,0.7,0.8
				C104.4,274.6,104.1,274.9,103.6,274.9z M103.6,273.7c-0.3,0-0.5,0.2-0.5,0.5c0,0.3,0.2,0.5,0.5,0.5c0.3,0,0.5-0.2,0.5-0.5
				C104.1,273.9,103.9,273.7,103.6,273.7z"/>
		</g>
		<g>
			<g>
				<path class="st1" d="M104.1,273.7c-0.2-0.2-0.6-0.2-0.8,0c-0.2,0.2-0.2,0.6,0,0.8c0.2,0.2,0.6,0.2,0.8,0
					C104.3,274.3,104.3,273.9,104.1,273.7z"/>
				<path class="st2" d="M103.7,274.8L103.7,274.8c-0.2,0-0.4-0.1-0.5-0.2c-0.3-0.3-0.3-0.7,0-1c0.1-0.1,0.3-0.2,0.5-0.2l0,0
					c0.2,0,0.4,0.1,0.5,0.2l0,0c0.3,0.3,0.3,0.7,0,1C104,274.7,103.8,274.8,103.7,274.8z M103.7,273.7L103.7,273.7
					c-0.1,0-0.2,0-0.3,0.1c-0.2,0.2-0.2,0.4,0,0.6c0.1,0.1,0.2,0.1,0.3,0.1l0,0c0.1,0,0.2,0,0.3-0.1c0.2-0.2,0.2-0.4,0-0.6
					C103.9,273.7,103.8,273.7,103.7,273.7z"/>
			</g>
			<g>
				<path class="st1" d="M104,273.7c-0.2-0.2-0.5-0.2-0.6,0c-0.2,0.2-0.2,0.4,0,0.6c0.2,0.2,0.5,0.2,0.6,0
					C104.1,274.1,104.1,273.9,104,273.7z"/>
				<path class="st2" d="M103.7,274.5c-0.1,0-0.3-0.1-0.4-0.2c-0.1-0.1-0.2-0.2-0.2-0.4c0-0.1,0.1-0.3,0.2-0.4
					c0.2-0.2,0.6-0.2,0.8,0l0,0c0.1,0.1,0.2,0.2,0.2,0.4c0,0.1-0.1,0.3-0.2,0.4C104,274.5,103.8,274.5,103.7,274.5z M103.7,273.7
					c-0.1,0-0.2,0-0.2,0.1c-0.1,0.1-0.1,0.1-0.1,0.2c0,0.1,0,0.1,0.1,0.2c0.1,0.1,0.3,0.1,0.5,0c0.1-0.1,0.1-0.1,0.1-0.2
					c0-0.1,0-0.1-0.1-0.2C103.8,273.7,103.7,273.7,103.7,273.7z"/>
			</g>
		</g>
	</g>
	<g>
		<g>
			<path class="st1" d="M103,277.4c0,0.3,0.3,0.6,0.6,0.6c0.3,0,0.6-0.3,0.6-0.6c0-0.3-0.3-0.6-0.6-0.6
				C103.3,276.8,103,277.1,103,277.4z"/>
			<path class="st2" d="M103.6,278.2c-0.4,0-0.7-0.3-0.7-0.8c0-0.4,0.3-0.8,0.7-0.8c0.4,0,0.7,0.3,0.7,0.8
				C104.4,277.8,104.1,278.2,103.6,278.2z M103.6,276.9c-0.3,0-0.5,0.2-0.5,0.5c0,0.3,0.2,0.5,0.5,0.5c0.3,0,0.5-0.2,0.5-0.5
				C104.1,277.2,103.9,276.9,103.6,276.9z"/>
		</g>
		<g>
			<g>
				<path class="st1" d="M104.1,277c-0.2-0.2-0.6-0.2-0.8,0c-0.2,0.2-0.2,0.6,0,0.8c0.2,0.2,0.6,0.2,0.8,0
					C104.3,277.6,104.3,277.2,104.1,277z"/>
				<path class="st2" d="M103.7,278.1L103.7,278.1c-0.2,0-0.4-0.1-0.5-0.2c-0.3-0.3-0.3-0.7,0-1c0.1-0.1,0.3-0.2,0.5-0.2l0,0
					c0.2,0,0.4,0.1,0.5,0.2l0,0c0.3,0.3,0.3,0.7,0,1C104,278,103.8,278.1,103.7,278.1z M103.7,276.9L103.7,276.9
					c-0.1,0-0.2,0-0.3,0.1c-0.2,0.2-0.2,0.4,0,0.6c0.1,0.1,0.2,0.1,0.3,0.1l0,0c0.1,0,0.2,0,0.3-0.1c0.2-0.2,0.2-0.4,0-0.6
					C103.9,277,103.8,276.9,103.7,276.9z"/>
			</g>
			<g>
				<path class="st1" d="M104,277c-0.2-0.2-0.5-0.2-0.6,0c-0.2,0.2-0.2,0.4,0,0.6c0.2,0.2,0.5,0.2,0.6,0
					C104.1,277.4,104.1,277.2,104,277z"/>
				<path class="st2" d="M103.7,277.8c-0.1,0-0.3-0.1-0.4-0.2c-0.1-0.1-0.2-0.2-0.2-0.4c0-0.1,0.1-0.3,0.2-0.4
					c0.2-0.2,0.6-0.2,0.8,0l0,0c0.1,0.1,0.2,0.2,0.2,0.4c0,0.1-0.1,0.3-0.2,0.4C104,277.8,103.8,277.8,103.7,277.8z M103.7,277
					c-0.1,0-0.2,0-0.2,0.1c-0.1,0.1-0.1,0.1-0.1,0.2s0,0.1,0.1,0.2c0.1,0.1,0.3,0.1,0.5,0c0.1-0.1,0.1-0.1,0.1-0.2s0-0.1-0.1-0.2
					l0,0C103.8,277,103.7,277,103.7,277z"/>
			</g>
		</g>
	</g>
	<polygon class="st1" points="190.1,197.1 113,274 108.5,270.1 185.6,193.2 	"/>
	<path class="st2" d="M113,274.2l-4.7-4.1l0.1-0.1l77.2-77l4.7,4.1l-0.1,0.1L113,274.2z M108.7,270.1l4.3,3.7l76.9-76.8l-4.3-3.7
		L108.7,270.1z"/>
	<polygon class="st1" points="108.9,279 187.9,199.9 187.5,198.9 108.4,277.8 	"/>
	<path class="st2" d="M108.9,279.2l-0.7-1.4l0.1-0.1l79.3-79.1l0.4,1.3l-0.1,0.1L108.9,279.2z M108.5,277.9l0.4,0.9l78.8-78.9
		l-0.2-0.8L108.5,277.9z"/>
	<g>
		<g>
			<path class="st1" d="M184.7,201.2c-0.2,0.3-0.6,0.3-0.9,0.1c-0.2-0.2-0.3-0.6,0-0.9c0.2-0.3,0.6-0.3,0.9-0.1
				C184.9,200.6,184.9,201,184.7,201.2z"/>
			<path class="st2" d="M184.2,201.6c-0.2,0-0.3-0.1-0.5-0.2c-0.3-0.3-0.3-0.7-0.1-1c0.3-0.3,0.7-0.3,1-0.1c0.1,0.1,0.2,0.3,0.2,0.5
				c0,0.2-0.1,0.4-0.2,0.5l0,0C184.6,201.5,184.4,201.6,184.2,201.6C184.2,201.6,184.2,201.6,184.2,201.6z M184.2,200.4
				c-0.1,0-0.3,0.1-0.4,0.2c-0.2,0.2-0.2,0.5,0,0.7c0.1,0.1,0.2,0.1,0.3,0.1c0.1,0,0.2-0.1,0.3-0.2l0,0c0.1-0.1,0.1-0.2,0.1-0.3
				c0-0.1-0.1-0.2-0.2-0.3C184.4,200.4,184.3,200.4,184.2,200.4z"/>
		</g>
		<g>
			<g>
				<path class="st1" d="M184.2,200.2c0.3,0,0.6,0.2,0.6,0.5c0,0.3-0.2,0.6-0.5,0.6c-0.3,0-0.6-0.2-0.6-0.5
					C183.7,200.5,183.9,200.3,184.2,200.2z"/>
				<path class="st2" d="M184.2,201.5c-0.2,0-0.3-0.1-0.5-0.2c-0.1-0.1-0.2-0.3-0.2-0.5c0-0.4,0.3-0.7,0.6-0.7l0,0
					c0.2,0,0.4,0.1,0.5,0.2c0.1,0.1,0.2,0.3,0.2,0.5C184.9,201.1,184.6,201.5,184.2,201.5C184.3,201.5,184.2,201.5,184.2,201.5z
					 M184.2,200.4c-0.2,0-0.4,0.2-0.4,0.5c0,0.1,0.1,0.2,0.1,0.3c0.1,0.1,0.2,0.1,0.3,0.1c0.2,0,0.4-0.2,0.4-0.5
					c0-0.1-0.1-0.2-0.1-0.3C184.4,200.4,184.3,200.4,184.2,200.4L184.2,200.4z"/>
			</g>
			<g>
				<path class="st1" d="M184.2,200.3c0.2,0,0.5,0.2,0.5,0.4c0,0.2-0.1,0.4-0.4,0.4c-0.2,0-0.5-0.2-0.5-0.4
					C183.8,200.5,184,200.3,184.2,200.3z"/>
				<path class="st2" d="M184.3,201.3c-0.3,0-0.6-0.2-0.6-0.5c0-0.1,0-0.3,0.1-0.4s0.2-0.2,0.4-0.2l0,0c0.3,0,0.6,0.2,0.6,0.5
					c0,0.1,0,0.3-0.1,0.4C184.6,201.2,184.5,201.3,184.3,201.3C184.3,201.3,184.3,201.3,184.3,201.3z M184.3,200.4
					C184.3,200.4,184.3,200.4,184.3,200.4L184.3,200.4c-0.1,0-0.2,0-0.2,0.1c-0.1,0.1-0.1,0.1-0.1,0.2c0,0.2,0.2,0.3,0.3,0.3
					c0.1,0,0.1,0,0.2-0.1s0.1-0.1,0.1-0.2C184.6,200.6,184.4,200.4,184.3,200.4z"/>
			</g>
		</g>
	</g>
	<g>
		<g>
			<path class="st1" d="M182.5,199.4c-0.2,0.3-0.6,0.3-0.9,0.1c-0.3-0.2-0.3-0.6,0-0.9c0.2-0.3,0.6-0.3,0.9-0.1
				S182.8,199.1,182.5,199.4z"/>
			<path class="st2" d="M182.1,199.7c-0.2,0-0.3-0.1-0.5-0.2c-0.3-0.3-0.3-0.7-0.1-1c0.3-0.3,0.7-0.3,1-0.1c0.1,0.1,0.2,0.3,0.2,0.5
				c0,0.2-0.1,0.4-0.2,0.5l0,0C182.5,199.6,182.3,199.7,182.1,199.7z M182.1,198.5c-0.1,0-0.3,0.1-0.4,0.2c-0.2,0.2-0.2,0.5,0,0.7
				c0.2,0.2,0.5,0.1,0.7-0.1c0.1-0.1,0.1-0.2,0.1-0.3c0-0.1-0.1-0.2-0.2-0.3C182.3,198.5,182.2,198.5,182.1,198.5z"/>
		</g>
		<g>
			<g>
				<path class="st1" d="M182.1,198.4c0.3,0,0.6,0.2,0.6,0.5c0,0.3-0.2,0.6-0.5,0.6c-0.3,0-0.6-0.2-0.6-0.5
					C181.5,198.7,181.8,198.4,182.1,198.4z"/>
				<path class="st2" d="M182.1,199.6c-0.2,0-0.3-0.1-0.5-0.2c-0.1-0.1-0.2-0.3-0.2-0.5c0-0.4,0.3-0.7,0.6-0.7
					c0.2,0,0.4,0.1,0.5,0.2c0.1,0.1,0.2,0.3,0.2,0.5C182.8,199.3,182.5,199.6,182.1,199.6C182.1,199.6,182.1,199.6,182.1,199.6z
					 M182.1,198.5C182.1,198.5,182.1,198.5,182.1,198.5c-0.3,0-0.5,0.2-0.4,0.5c0,0.1,0.1,0.2,0.1,0.3c0.1,0.1,0.2,0.1,0.3,0.1
					c0.2,0,0.4-0.2,0.4-0.5c0-0.1-0.1-0.2-0.1-0.3C182.3,198.5,182.2,198.5,182.1,198.5z"/>
			</g>
			<g>
				<path class="st1" d="M182.1,198.4c0.2,0,0.5,0.2,0.5,0.4c0,0.2-0.1,0.4-0.4,0.4c-0.2,0-0.5-0.2-0.5-0.4S181.9,198.4,182.1,198.4
					z"/>
				<path class="st2" d="M182.2,199.4c-0.3,0-0.6-0.2-0.6-0.5c0-0.1,0-0.3,0.1-0.4c0.1-0.1,0.2-0.2,0.4-0.2l0,0h0
					c0.3,0,0.6,0.2,0.6,0.5c0,0.1,0,0.3-0.1,0.4C182.5,199.3,182.4,199.4,182.2,199.4C182.2,199.4,182.2,199.4,182.2,199.4z
					 M182.1,198.6L182.1,198.6L182.1,198.6c-0.1,0-0.2,0-0.2,0.1c-0.1,0.1-0.1,0.1-0.1,0.2c0,0.2,0.2,0.3,0.3,0.3
					c0.1,0,0.1,0,0.2-0.1c0.1-0.1,0.1-0.1,0.1-0.2C182.5,198.7,182.3,198.6,182.1,198.6z"/>
			</g>
		</g>
	</g>
	<g>
		<g>
			<path class="st1" d="M148.9,236.8c-0.2,0.3-0.6,0.3-0.9,0.1c-0.3-0.2-0.3-0.6,0-0.9c0.2-0.3,0.6-0.3,0.9-0.1
				C149.1,236.2,149.2,236.6,148.9,236.8z"/>
			<path class="st2" d="M148.5,237.2c-0.2,0-0.3-0.1-0.5-0.2c-0.3-0.3-0.3-0.7-0.1-1c0.1-0.1,0.3-0.2,0.5-0.3c0.2,0,0.4,0.1,0.5,0.2
				c0.3,0.3,0.3,0.7,0.1,1C148.9,237.1,148.7,237.2,148.5,237.2C148.5,237.2,148.5,237.2,148.5,237.2z M148.5,236
				C148.5,236,148.5,236,148.5,236c-0.2,0-0.3,0.1-0.4,0.2c-0.2,0.2-0.2,0.5,0,0.7c0.1,0.1,0.2,0.1,0.3,0.1c0.1,0,0.3-0.1,0.3-0.2
				l0,0c0.2-0.2,0.2-0.5,0-0.7C148.7,236,148.6,236,148.5,236z"/>
		</g>
		<g>
			<g>
				<path class="st1" d="M148.5,235.8c0.3,0,0.6,0.2,0.6,0.5c0,0.3-0.2,0.6-0.5,0.6c-0.3,0-0.6-0.2-0.6-0.5
					C147.9,236.1,148.2,235.9,148.5,235.8z"/>
				<path class="st2" d="M148.5,237.1c-0.2,0-0.3-0.1-0.5-0.2c-0.1-0.1-0.2-0.3-0.2-0.5c0-0.4,0.3-0.7,0.6-0.7l0,0
					c0.2,0,0.4,0,0.5,0.2c0.1,0.1,0.2,0.3,0.2,0.5C149.2,236.7,148.9,237.1,148.5,237.1C148.5,237.1,148.5,237.1,148.5,237.1z
					 M148.5,236C148.5,236,148.5,236,148.5,236L148.5,236c-0.3,0-0.5,0.2-0.4,0.5c0,0.1,0.1,0.2,0.1,0.3c0.1,0.1,0.2,0.1,0.3,0.1
					c0.2,0,0.4-0.2,0.4-0.5c0-0.1-0.1-0.2-0.1-0.3C148.7,236,148.6,236,148.5,236z"/>
			</g>
			<g>
				<path class="st1" d="M148.5,235.9c0.2,0,0.5,0.2,0.5,0.4c0,0.2-0.1,0.4-0.4,0.4c-0.2,0-0.4-0.2-0.5-0.4
					C148.1,236.1,148.3,235.9,148.5,235.9z"/>
				<path class="st2" d="M148.6,236.9c-0.3,0-0.6-0.2-0.6-0.5c0-0.1,0-0.3,0.1-0.4c0.1-0.1,0.2-0.2,0.4-0.2l0,0
					c0.3,0,0.6,0.2,0.6,0.5c0,0.1,0,0.3-0.1,0.4C148.9,236.8,148.8,236.9,148.6,236.9L148.6,236.9z M148.5,236L148.5,236L148.5,236
					c-0.1,0-0.2,0-0.2,0.1c-0.1,0.1-0.1,0.1-0.1,0.2c0,0.2,0.2,0.3,0.3,0.3c0,0,0,0,0,0c0.1,0,0.1,0,0.2-0.1
					c0.1-0.1,0.1-0.1,0.1-0.2C148.9,236.2,148.7,236,148.5,236z"/>
			</g>
		</g>
	</g>
	<g>
		<g>
			<path class="st1" d="M146.8,235c-0.2,0.3-0.6,0.3-0.9,0.1s-0.3-0.6,0-0.9c0.2-0.3,0.6-0.3,0.9-0.1C147,234.3,147,234.7,146.8,235
				z"/>
			<path class="st2" d="M146.3,235.3c-0.2,0-0.3-0.1-0.5-0.2c-0.3-0.3-0.3-0.7-0.1-1c0.1-0.1,0.3-0.2,0.5-0.3c0.2,0,0.4,0.1,0.5,0.2
				c0.1,0.1,0.2,0.3,0.2,0.5s-0.1,0.4-0.2,0.5l0,0C146.8,235.2,146.6,235.3,146.3,235.3C146.4,235.3,146.4,235.3,146.3,235.3z
				 M146.4,234.1C146.4,234.1,146.4,234.1,146.4,234.1c-0.2,0-0.3,0.1-0.4,0.2c-0.2,0.2-0.2,0.5,0,0.7c0.1,0.1,0.2,0.1,0.3,0.1
				c0.1,0,0.2-0.1,0.3-0.2l0,0c0.1-0.1,0.1-0.2,0.1-0.3c0-0.1-0.1-0.2-0.2-0.3C146.6,234.1,146.5,234.1,146.4,234.1z"/>
		</g>
		<g>
			<g>
				<path class="st1" d="M146.4,234c0.3,0,0.6,0.2,0.6,0.5c0,0.3-0.2,0.6-0.5,0.6c-0.3,0-0.6-0.2-0.6-0.5
					C145.8,234.2,146.1,234,146.4,234z"/>
				<path class="st2" d="M146.4,235.2c-0.2,0-0.3-0.1-0.5-0.2c-0.1-0.1-0.2-0.3-0.2-0.5c0-0.4,0.3-0.7,0.6-0.7l0,0
					c0.2,0,0.4,0.1,0.5,0.2c0.1,0.1,0.2,0.3,0.2,0.5C147.1,234.9,146.8,235.2,146.4,235.2C146.4,235.2,146.4,235.2,146.4,235.2z
					 M146.4,234.1C146.4,234.1,146.4,234.1,146.4,234.1L146.4,234.1c-0.3,0-0.5,0.2-0.4,0.5c0,0.1,0.1,0.2,0.1,0.3
					c0.1,0.1,0.2,0.1,0.3,0.1c0.2,0,0.4-0.2,0.4-0.5c0-0.1-0.1-0.2-0.1-0.3C146.6,234.1,146.5,234.1,146.4,234.1z"/>
			</g>
			<g>
				<path class="st1" d="M146.4,234c0.2,0,0.5,0.2,0.5,0.4c0,0.2-0.1,0.4-0.4,0.4c-0.2,0-0.5-0.2-0.5-0.4
					C146,234.2,146.2,234,146.4,234z"/>
				<path class="st2" d="M146.5,235c-0.3,0-0.6-0.2-0.6-0.5c0-0.1,0-0.3,0.1-0.4c0.1-0.1,0.2-0.2,0.4-0.2l0,0c0.3,0,0.6,0.2,0.6,0.5
					c0,0.1,0,0.3-0.1,0.4C146.8,234.9,146.7,235,146.5,235L146.5,235z M146.4,234.2c-0.1,0-0.1,0-0.2,0.1c-0.1,0.1-0.1,0.1-0.1,0.2
					c0,0.2,0.2,0.3,0.3,0.3c0,0,0,0,0,0c0.1,0,0.1,0,0.2-0.1c0.1-0.1,0.1-0.1,0.1-0.2C146.7,234.3,146.6,234.1,146.4,234.2
					L146.4,234.2z"/>
			</g>
		</g>
	</g>
	<g>
		<g>
			<path class="st1" d="M110.8,274.9c-0.2,0.3-0.6,0.3-0.9,0.1c-0.3-0.2-0.3-0.6,0-0.9c0.2-0.3,0.6-0.3,0.9-0.1
				C111,274.2,111,274.6,110.8,274.9z"/>
			<path class="st2" d="M110.3,275.2c-0.2,0-0.3-0.1-0.5-0.2c-0.3-0.3-0.3-0.7-0.1-1c0.3-0.3,0.7-0.3,1-0.1c0.3,0.3,0.3,0.7,0.1,1
				l0,0C110.7,275.1,110.5,275.2,110.3,275.2C110.3,275.2,110.3,275.2,110.3,275.2z M110.3,274c-0.1,0-0.3,0.1-0.4,0.2
				c-0.2,0.2-0.2,0.5,0,0.7c0.1,0.1,0.2,0.1,0.3,0.1c0.1,0,0.2-0.1,0.3-0.2l0,0c0.2-0.2,0.2-0.5,0-0.7
				C110.6,274,110.4,274,110.3,274z"/>
		</g>
		<g>
			<g>
				<path class="st1" d="M110.3,273.9c0.3,0,0.6,0.2,0.6,0.5c0,0.3-0.2,0.6-0.5,0.6c-0.3,0-0.6-0.2-0.6-0.5
					C109.8,274.2,110,273.9,110.3,273.9z"/>
				<path class="st2" d="M110.3,275.1c-0.2,0-0.3-0.1-0.5-0.2c-0.1-0.1-0.2-0.3-0.2-0.5c0-0.4,0.3-0.7,0.6-0.7l0,0
					c0.2,0,0.4,0.1,0.5,0.2c0.1,0.1,0.2,0.3,0.2,0.5C111,274.8,110.7,275.1,110.3,275.1C110.4,275.1,110.4,275.1,110.3,275.1z
					 M110.3,274c-0.2,0-0.4,0.2-0.4,0.5c0,0.1,0.1,0.2,0.1,0.3c0.1,0.1,0.2,0.1,0.3,0.1c0.2,0,0.4-0.2,0.4-0.5
					c0-0.1-0.1-0.2-0.1-0.3C110.5,274,110.4,274,110.3,274L110.3,274z"/>
			</g>
			<g>
				<path class="st1" d="M110.4,273.9c0.2,0,0.5,0.2,0.5,0.4c0,0.2-0.1,0.4-0.4,0.4c-0.2,0-0.5-0.2-0.5-0.4
					C109.9,274.1,110.1,273.9,110.4,273.9z"/>
				<path class="st2" d="M110.4,274.9c-0.3,0-0.6-0.2-0.6-0.5c0-0.1,0-0.3,0.1-0.4c0.1-0.1,0.2-0.2,0.4-0.2l0,0
					c0.3,0,0.6,0.2,0.6,0.5c0,0.1,0,0.3-0.1,0.4C110.7,274.8,110.6,274.9,110.4,274.9L110.4,274.9z M110.4,274.1
					c-0.1,0-0.1,0-0.2,0.1c-0.1,0.1-0.1,0.1-0.1,0.2c0,0.2,0.2,0.3,0.3,0.3c0.1,0,0.1,0,0.2-0.1s0.1-0.1,0.1-0.2
					C110.7,274.2,110.5,274.1,110.4,274.1L110.4,274.1L110.4,274.1z"/>
			</g>
		</g>
	</g>
	<g>
		<g>
			<path class="st1" d="M108.6,273c-0.2,0.3-0.6,0.3-0.9,0.1c-0.3-0.2-0.3-0.6,0-0.9s0.6-0.3,0.9-0.1
				C108.8,272.3,108.9,272.7,108.6,273z"/>
			<path class="st2" d="M108.2,273.3c-0.2,0-0.3-0.1-0.5-0.2c-0.1-0.1-0.2-0.3-0.2-0.5s0.1-0.4,0.2-0.5c0.1-0.1,0.3-0.2,0.5-0.3
				c0.2,0,0.4,0.1,0.5,0.2c0.1,0.1,0.2,0.3,0.2,0.5c0,0.2-0.1,0.4-0.2,0.5l0,0C108.6,273.2,108.4,273.3,108.2,273.3z M108.2,272.1
				C108.2,272.1,108.2,272.1,108.2,272.1c-0.2,0-0.3,0.1-0.4,0.2c-0.1,0.1-0.1,0.2-0.1,0.3c0,0.1,0.1,0.2,0.2,0.3
				c0.2,0.2,0.5,0.1,0.7-0.1c0.1-0.1,0.1-0.2,0.1-0.3c0-0.1-0.1-0.2-0.2-0.3C108.4,272.1,108.3,272.1,108.2,272.1z"/>
		</g>
		<g>
			<g>
				<path class="st1" d="M108.2,272c0.3,0,0.6,0.2,0.6,0.5c0,0.3-0.2,0.6-0.5,0.6c-0.3,0-0.6-0.2-0.6-0.5
					C107.7,272.3,107.9,272,108.2,272z"/>
				<path class="st2" d="M108.2,273.2c-0.2,0-0.3-0.1-0.5-0.2c-0.1-0.1-0.2-0.3-0.2-0.5c0-0.4,0.3-0.7,0.6-0.7c0.2,0,0.4,0,0.5,0.2
					c0.1,0.1,0.2,0.3,0.2,0.5C108.9,272.9,108.6,273.2,108.2,273.2C108.2,273.2,108.2,273.2,108.2,273.2z M108.2,272.1
					C108.2,272.1,108.2,272.1,108.2,272.1L108.2,272.1c-0.3,0-0.5,0.2-0.4,0.5c0,0.1,0.1,0.2,0.1,0.3c0.1,0.1,0.2,0.1,0.3,0.1
					c0.2,0,0.4-0.2,0.4-0.5c0-0.1-0.1-0.2-0.1-0.3C108.4,272.1,108.3,272.1,108.2,272.1z"/>
			</g>
			<g>
				<path class="st1" d="M108.2,272c0.2,0,0.5,0.2,0.5,0.4c0,0.2-0.1,0.4-0.4,0.4c-0.2,0-0.5-0.2-0.5-0.4
					C107.8,272.3,108,272,108.2,272z"/>
				<path class="st2" d="M108.3,273c-0.3,0-0.6-0.2-0.6-0.5c0-0.1,0-0.3,0.1-0.4c0.1-0.1,0.2-0.2,0.4-0.2l0,0c0.3,0,0.6,0.2,0.6,0.5
					c0,0.1,0,0.3-0.1,0.4S108.5,273,108.3,273C108.3,273,108.3,273,108.3,273z M108.2,272.2L108.2,272.2L108.2,272.2
					c-0.1,0-0.2,0-0.2,0.1c-0.1,0.1-0.1,0.1-0.1,0.2c0,0.2,0.2,0.3,0.3,0.3c0.1,0,0.1,0,0.2-0.1c0.1-0.1,0.1-0.1,0.1-0.2
					C108.6,272.3,108.4,272.2,108.2,272.2z"/>
			</g>
		</g>
	</g>
	<polygon class="st1" points="109,278.9 108.9,279 105.6,271.9 105.7,271.8 	"/>
	<polygon class="st2" points="108.9,279.2 105.5,271.9 105.8,271.5 109.2,278.9 	"/>
	<polygon class="st1" points="187.8,199.9 187.7,200 184.5,192.9 184.6,192.8 	"/>
	<polygon class="st2" points="187.7,200.3 184.4,192.9 184.6,192.5 188,199.9 	"/>
	<rect x="230.3" y="192.8" class="st1" width="0.2" height="7.1"/>
	<rect x="230.2" y="192.7" class="st2" width="0.5" height="7.4"/>
	<rect x="59.1" y="271.9" class="st1" width="0.2" height="7.1"/>
	<rect x="59" y="271.8" class="st2" width="0.5" height="7.4"/>
	<rect x="49.8" y="241.2" class="st1" width="42.4" height="1.3"/>
	<path class="st2" d="M92.4,242.6H49.7V241h42.7C92.4,241,92.4,242.6,92.4,242.6z M49.9,242.4h42.2v-1.1H49.9V242.4z"/>
	<polygon class="st1" points="170.6,162.1 91.3,241.6 92.2,242.5 171.6,162.9 	"/>
	<path class="st2" d="M92.2,242.7l-1.2-1l0.1-0.1l79.5-79.6l1.2,1l-0.1,0.1L92.2,242.7z M91.4,241.6l0.8,0.7l79.2-79.4l-0.8-0.7
		L91.4,241.6z"/>
	<rect x="50.6" y="242.5" class="st1" width="1.3" height="28.6"/>
	<path class="st2" d="M52,271.3h-1.6v-28.9H52V271.3z M50.7,271h1.1v-28.4h-1.1V271z"/>
	<rect x="90.9" y="242.5" class="st1" width="1.3" height="28.6"/>
	<path class="st2" d="M92.4,271.3h-1.6v-28.9h1.6V271.3z M91.1,271h1.1v-28.4h-1.1V271z"/>
	<rect x="51.9" y="250.8" class="st1" width="45.5" height="0.7"/>
	<path class="st2" d="M97.5,251.6H51.8v-0.9h45.7V251.6z M52,251.3h45.2v-0.4H52V251.3z"/>
	<rect x="51.9" y="259.7" class="st1" width="49.6" height="0.7"/>
	<path class="st2" d="M101.6,260.5H51.8v-0.9h49.8V260.5z M52,260.3h49.3v-0.4H52V260.3z"/>
	<polygon class="st1" points="175.6,171.7 96.9,251 97.4,251.4 176.1,172.1 	"/>
	<path class="st2" d="M97.4,251.6l-0.7-0.6l0.1-0.1l78.8-79.4l0.7,0.6l-0.1,0.1L97.4,251.6z M97.1,251l0.3,0.3l78.5-79.1l-0.3-0.3
		L97.1,251z"/>
	<polygon class="st1" points="179.7,180.7 101,260 101.5,260.4 180.2,181.1 	"/>
	<path class="st2" d="M101.5,260.6l-0.7-0.6l0.1-0.1l78.8-79.4l0.7,0.6l-0.1,0.1L101.5,260.6z M101.2,260l0.3,0.3l78.5-79.1
		l-0.3-0.3L101.2,260z"/>
	<g>
		<path class="st1" d="M50.9,260.1c0,0.2,0.1,0.3,0.3,0.3c0.2,0,0.3-0.1,0.3-0.3c0-0.2-0.1-0.3-0.3-0.3
			C51.1,259.8,50.9,260,50.9,260.1z"/>
		<path class="st2" d="M51.2,260.6c-0.2,0-0.4-0.2-0.4-0.4s0.2-0.4,0.4-0.4c0.2,0,0.4,0.2,0.4,0.4S51.5,260.6,51.2,260.6z
			 M51.2,259.9c-0.1,0-0.2,0.1-0.2,0.2s0.1,0.2,0.2,0.2s0.2-0.1,0.2-0.2C51.4,260,51.4,259.9,51.2,259.9z"/>
	</g>
	<g>
		<g>
			<path class="st1" d="M51.5,259.9c-0.1-0.1-0.3-0.1-0.4,0c-0.1,0.1-0.1,0.3,0,0.4c0.1,0.1,0.3,0.1,0.4,0
				C51.6,260.2,51.6,260,51.5,259.9z"/>
			<path class="st2" d="M51.3,260.5L51.3,260.5c-0.1,0-0.2,0-0.3-0.1c-0.2-0.2-0.2-0.4,0-0.6c0.1-0.1,0.2-0.1,0.3-0.1l0,0
				c0.1,0,0.2,0,0.3,0.1l0,0c0.2,0.2,0.2,0.4,0,0.6C51.5,260.5,51.4,260.5,51.3,260.5z M51.3,259.9c0,0-0.1,0-0.1,0
				c-0.1,0.1-0.1,0.2,0,0.2c0,0,0.1,0,0.1,0l0,0c0,0,0.1,0,0.1,0c0.1-0.1,0.1-0.2,0-0.2C51.3,260,51.3,259.9,51.3,259.9z"/>
		</g>
		<g>
			<path class="st1" d="M51.4,259.9c-0.1-0.1-0.2-0.1-0.3,0c-0.1,0.1-0.1,0.2,0,0.3c0.1,0.1,0.2,0.1,0.3,0
				C51.5,260.1,51.5,260,51.4,259.9z"/>
			<path class="st2" d="M51.3,260.4c-0.1,0-0.2,0-0.3-0.1c-0.1-0.1-0.1-0.1-0.1-0.2s0-0.2,0.1-0.2c0.1-0.1,0.4-0.1,0.5,0l0,0
				c0.1,0.1,0.1,0.1,0.1,0.2s0,0.2-0.1,0.2C51.4,260.4,51.3,260.4,51.3,260.4z M51.3,260C51.2,260,51.2,260,51.3,260
				C51.2,260,51.2,260,51.3,260c-0.1,0.1-0.1,0.1-0.1,0.1c0,0,0.1,0,0.1,0C51.4,260.1,51.4,260.1,51.3,260
				C51.4,260,51.3,260,51.3,260C51.3,260,51.3,260,51.3,260z"/>
		</g>
	</g>
	<g>
		<path class="st1" d="M50.9,251.1c0,0.2,0.1,0.3,0.3,0.3c0.2,0,0.3-0.1,0.3-0.3c0-0.2-0.1-0.3-0.3-0.3
			C51.1,250.8,50.9,250.9,50.9,251.1z"/>
		<path class="st2" d="M51.2,251.6c-0.2,0-0.4-0.2-0.4-0.4c0-0.2,0.2-0.4,0.4-0.4c0.2,0,0.4,0.2,0.4,0.4
			C51.7,251.4,51.5,251.6,51.2,251.6z M51.2,250.9c-0.1,0-0.2,0.1-0.2,0.2s0.1,0.2,0.2,0.2s0.2-0.1,0.2-0.2
			C51.4,251,51.4,250.9,51.2,250.9z"/>
	</g>
	<g>
		<g>
			<path class="st1" d="M51.5,250.9c-0.1-0.1-0.3-0.1-0.4,0c-0.1,0.1-0.1,0.3,0,0.4s0.3,0.1,0.4,0C51.6,251.2,51.6,251,51.5,250.9z"
				/>
			<path class="st2" d="M51.3,251.5L51.3,251.5c-0.1,0-0.2,0-0.3-0.1c-0.2-0.2-0.2-0.4,0-0.6c0.1-0.1,0.2-0.1,0.3-0.1l0,0
				c0.1,0,0.2,0,0.3,0.1l0,0c0.2,0.2,0.2,0.4,0,0.6C51.5,251.5,51.4,251.5,51.3,251.5z M51.3,250.9c0,0-0.1,0-0.1,0
				c-0.1,0.1-0.1,0.2,0,0.2c0,0,0.1,0,0.1,0l0,0c0,0,0.1,0,0.1,0c0.1-0.1,0.1-0.2,0-0.2l0,0C51.3,250.9,51.3,250.9,51.3,250.9z"/>
		</g>
		<g>
			<path class="st1" d="M51.4,250.9c-0.1-0.1-0.2-0.1-0.3,0c-0.1,0.1-0.1,0.2,0,0.3c0.1,0.1,0.2,0.1,0.3,0
				C51.5,251.1,51.5,251,51.4,250.9z"/>
			<path class="st2" d="M51.3,251.4c-0.1,0-0.2,0-0.3-0.1c-0.1-0.1-0.1-0.1-0.1-0.2c0-0.1,0-0.2,0.1-0.2c0.1-0.1,0.4-0.1,0.5,0l0,0
				c0.1,0.1,0.1,0.1,0.1,0.2c0,0.1,0,0.2-0.1,0.2C51.4,251.4,51.3,251.4,51.3,251.4z M51.3,251C51.2,251,51.2,251,51.3,251
				C51.2,251,51.2,251,51.3,251c-0.1,0.1-0.1,0.1-0.1,0.1c0,0,0.1,0,0.1,0C51.4,251.1,51.4,251.1,51.3,251
				C51.4,251,51.3,251,51.3,251C51.3,251,51.3,251,51.3,251z"/>
		</g>
	</g>
	<rect x="170.6" y="162.1" class="st1" width="70.2" height="1.3"/>
	<path class="st2" d="M241,163.5h-70.5v-1.6H241V163.5z M170.8,163.3h69.9v-1.1h-69.9V163.3z"/>
	<rect x="238.7" y="163.4" class="st1" width="1.3" height="28.6"/>
	<path class="st2" d="M240.2,192.2h-1.6v-28.9h1.6V192.2z M238.9,191.9h1.1v-28.4h-1.1V191.9z"/>
	<rect x="187.2" y="163.4" class="st1" width="1.3" height="28.6"/>
	<path class="st2" d="M188.6,192.2h-1.6v-28.9h1.6V192.2z M187.3,191.9h1.1v-28.4h-1.1V191.9z"/>
	<rect x="175.6" y="171.7" class="st1" width="63.2" height="0.7"/>
	<path class="st2" d="M238.9,172.5h-63.4v-0.9h63.4V172.5z M175.7,172.2h62.9v-0.4h-62.9V172.2z"/>
	<rect x="179.7" y="180.6" class="st1" width="59.1" height="0.7"/>
	<path class="st2" d="M238.9,181.4h-59.3v-0.9h59.3V181.4z M179.8,181.2h58.8v-0.4h-58.8L179.8,181.2L179.8,181.2z"/>
	<g>
		<path class="st1" d="M239.7,181c0,0.2-0.1,0.3-0.3,0.3c-0.2,0-0.3-0.1-0.3-0.3c0-0.2,0.1-0.3,0.3-0.3
			C239.6,180.7,239.7,180.9,239.7,181z"/>
		<path class="st2" d="M239.4,181.5c-0.2,0-0.4-0.2-0.4-0.4c0-0.2,0.2-0.4,0.4-0.4c0.2,0,0.4,0.2,0.4,0.4
			C239.8,181.3,239.7,181.5,239.4,181.5z M239.4,180.8c-0.1,0-0.2,0.1-0.2,0.2c0,0.1,0.1,0.2,0.2,0.2c0.1,0,0.2-0.1,0.2-0.2
			C239.6,180.9,239.5,180.8,239.4,180.8z"/>
	</g>
	<g>
		<g>
			<path class="st1" d="M239.2,180.8c0.1-0.1,0.3-0.1,0.4,0c0.1,0.1,0.1,0.3,0,0.4c-0.1,0.1-0.3,0.1-0.4,0
				C239.1,181.1,239.1,180.9,239.2,180.8z"/>
			<path class="st2" d="M239.4,181.4c-0.1,0-0.2,0-0.3-0.1c-0.2-0.2-0.2-0.4,0-0.6l0,0c0.1-0.1,0.2-0.1,0.3-0.1l0,0
				c0.1,0,0.2,0,0.3,0.1c0.2,0.2,0.2,0.4,0,0.6C239.6,181.4,239.5,181.4,239.4,181.4L239.4,181.4z M239.3,180.9
				c-0.1,0.1-0.1,0.2,0,0.2c0,0,0.1,0,0.1,0l0,0c0,0,0.1,0,0.1,0c0.1-0.1,0.1-0.2,0-0.2c0,0-0.1,0-0.1,0l0,0
				C239.4,180.8,239.3,180.9,239.3,180.9z"/>
		</g>
		<g>
			<path class="st1" d="M239.2,180.8c0.1-0.1,0.2-0.1,0.3,0c0.1,0.1,0.1,0.2,0,0.3c-0.1,0.1-0.2,0.1-0.3,0
				C239.2,181,239.2,180.9,239.2,180.8z"/>
			<path class="st2" d="M239.4,181.3c-0.1,0-0.2,0-0.3-0.1c-0.1-0.1-0.1-0.1-0.1-0.2c0-0.1,0-0.2,0.1-0.2l0,0c0.1-0.1,0.4-0.1,0.5,0
				c0.1,0.1,0.1,0.1,0.1,0.2c0,0.1,0,0.2-0.1,0.2C239.6,181.3,239.5,181.3,239.4,181.3z M239.3,180.9
				C239.3,180.9,239.3,180.9,239.3,180.9c0,0.1,0,0.1,0,0.1c0,0,0.1,0,0.1,0c0,0,0,0,0-0.1c0,0,0,0,0-0.1
				C239.4,180.9,239.4,180.9,239.3,180.9z"/>
		</g>
	</g>
	<g>
		<path class="st1" d="M239.7,172c0,0.2-0.1,0.3-0.3,0.3c-0.2,0-0.3-0.1-0.3-0.3s0.1-0.3,0.3-0.3C239.6,171.7,239.7,171.8,239.7,172
			z"/>
		<path class="st2" d="M239.4,172.5c-0.2,0-0.4-0.2-0.4-0.4c0-0.2,0.2-0.4,0.4-0.4c0.2,0,0.4,0.2,0.4,0.4
			C239.8,172.3,239.7,172.5,239.4,172.5z M239.4,171.8c-0.1,0-0.2,0.1-0.2,0.2c0,0.1,0.1,0.2,0.2,0.2c0.1,0,0.2-0.1,0.2-0.2
			S239.5,171.8,239.4,171.8z"/>
	</g>
	<g>
		<g>
			<path class="st1" d="M239.2,171.8c0.1-0.1,0.3-0.1,0.4,0c0.1,0.1,0.1,0.3,0,0.4c-0.1,0.1-0.3,0.1-0.4,0
				C239.1,172.1,239.1,171.9,239.2,171.8z"/>
			<path class="st2" d="M239.4,172.4c-0.1,0-0.2,0-0.3-0.1c-0.2-0.2-0.2-0.4,0-0.6l0,0c0.1-0.1,0.2-0.1,0.3-0.1l0,0
				c0.1,0,0.2,0,0.3,0.1c0.2,0.2,0.2,0.4,0,0.6C239.6,172.4,239.5,172.4,239.4,172.4L239.4,172.4z M239.3,171.9
				c-0.1,0.1-0.1,0.2,0,0.2c0,0,0.1,0,0.1,0l0,0c0,0,0.1,0,0.1,0c0.1-0.1,0.1-0.2,0-0.2c0,0-0.1,0-0.1,0l0,0
				C239.4,171.8,239.3,171.8,239.3,171.9z"/>
		</g>
		<g>
			<path class="st1" d="M239.2,171.8c0.1-0.1,0.2-0.1,0.3,0c0.1,0.1,0.1,0.2,0,0.3c-0.1,0.1-0.2,0.1-0.3,0
				C239.2,172,239.2,171.9,239.2,171.8z"/>
			<path class="st2" d="M239.4,172.3c-0.1,0-0.2,0-0.3-0.1c-0.1-0.1-0.1-0.1-0.1-0.2c0-0.1,0-0.2,0.1-0.2l0,0c0.1-0.1,0.4-0.1,0.5,0
				c0.1,0.1,0.1,0.1,0.1,0.2c0,0.1,0,0.2-0.1,0.2C239.6,172.3,239.5,172.3,239.4,172.3z M239.3,171.9
				C239.3,171.9,239.3,171.9,239.3,171.9c0,0.1,0,0.1,0,0.1c0,0,0.1,0,0.1,0c0,0,0,0,0-0.1s0,0,0-0.1
				C239.4,171.8,239.4,171.8,239.3,171.9z"/>
		</g>
	</g>
	<polygon class="st1" points="106.4,273.6 50.5,273.6 50.5,271.9 105.6,271.9 	"/>
	<path class="st2" d="M106.6,273.7H50.4v-2h55.3L106.6,273.7z M50.6,273.5h55.6l-0.7-1.4H50.6V273.5z"/>
	<g>
		<g>
			<polygon class="st1" points="107,107.7 105.8,107.7 105.8,115.2 107,114 			"/>
			<path class="st2" d="M105.7,115.5v-8h1.4v6.5L105.7,115.5z M105.9,107.8v7.1l0.9-0.9v-6.2H105.9z"/>
		</g>
		<g>
			<polygon class="st1" points="105.1,106.2 105.1,107.7 113.3,107.7 114.9,106.2 			"/>
			<path class="st2" d="M113.4,107.8H105V106h10.2L113.4,107.8z M105.3,107.6h8l1.3-1.3h-9.3V107.6z"/>
		</g>
	</g>
	<g>
		<g>
			<polygon class="st1" points="116.1,98.6 114.9,98.6 114.9,106.2 116.1,105 			"/>
			<path class="st2" d="M114.7,106.5v-8h1.4v6.5L114.7,106.5z M115,98.8v7.1l0.9-0.9v-6.2H115z"/>
		</g>
		<g>
			<polygon class="st1" points="114.2,97.1 114.2,98.6 122.4,98.6 124,97.1 			"/>
			<path class="st2" d="M122.5,98.8h-8.4V97h10.2L122.5,98.8z M114.4,98.5h8l1.3-1.3h-9.3V98.5z"/>
		</g>
	</g>
	<g>
		<g>
			<polygon class="st1" points="125.1,89.6 124,89.6 124,97.1 125.1,96 			"/>
			<path class="st2" d="M123.8,97.5v-8h1.4V96L123.8,97.5z M124.1,89.7v7.1l0.9-0.9v-6.2H124.1z"/>
		</g>
		<g>
			<polygon class="st1" points="123.3,88.1 123.3,89.6 131.5,89.6 133.1,88.1 			"/>
			<path class="st2" d="M131.6,89.7h-8.4V88h10.2L131.6,89.7z M123.4,89.5h8l1.3-1.3h-9.3V89.5z"/>
		</g>
	</g>
	<g>
		<g>
			<polygon class="st1" points="134.2,80.6 133.1,80.6 133.1,88.1 134.2,86.9 			"/>
			<path class="st2" d="M132.9,88.4v-8h1.4V87L132.9,88.4z M133.2,80.7v7.1l0.9-0.9v-6.2H133.2z"/>
		</g>
		<g>
			<polygon class="st1" points="132.4,79 132.4,80.6 140.6,80.6 142.2,79 			"/>
			<path class="st2" d="M140.7,80.7h-8.4v-1.8h10.2L140.7,80.7z M132.5,80.4h8l1.3-1.3h-9.3C132.5,79.2,132.5,80.4,132.5,80.4z"/>
		</g>
	</g>
	<g>
		<g>
			<polygon class="st1" points="143.3,71.5 142.2,71.5 142.2,79 143.3,77.8 			"/>
			<path class="st2" d="M142,79.3v-8h1.4v6.5L142,79.3z M142.3,71.6v7.1l0.9-0.9v-6.2H142.3z"/>
		</g>
		<g>
			<polygon class="st1" points="141.5,70 141.5,71.5 149.7,71.5 151.3,70 			"/>
			<path class="st2" d="M149.8,71.6h-8.4v-1.8h10.2L149.8,71.6z M141.6,71.4h8l1.3-1.3h-9.3L141.6,71.4L141.6,71.4z"/>
		</g>
	</g>
	<g>
		<g>
			<polygon class="st1" points="152.5,62.4 151.3,62.4 151.3,70 152.5,68.8 			"/>
			<path class="st2" d="M151.1,70.3v-8h1.4v6.5L151.1,70.3z M151.4,62.6v7.1l0.9-0.9v-6.2H151.4z"/>
		</g>
		<g>
			<polygon class="st1" points="150.6,60.9 150.6,62.4 158.8,62.4 160.4,60.9 			"/>
			<path class="st2" d="M158.9,62.6h-8.4v-1.8h10.2L158.9,62.6z M150.7,62.3h8l1.3-1.3h-9.3L150.7,62.3L150.7,62.3z"/>
		</g>
	</g>
	<g>
		<g>
			<polygon class="st1" points="161.5,53.4 160.3,53.4 160.3,60.9 161.5,59.8 			"/>
			<path class="st2" d="M160.2,61.3v-8h1.4v6.5L160.2,61.3z M160.5,53.5v7.1l0.9-0.9v-6.2H160.5z"/>
		</g>
		<g>
			<polygon class="st1" points="159.7,51.9 159.7,53.4 167.9,53.4 169.4,51.9 			"/>
			<path class="st2" d="M168,53.5h-8.4v-1.8h10.2L168,53.5z M159.8,53.3h8l1.3-1.3h-9.3L159.8,53.3L159.8,53.3z"/>
		</g>
	</g>
	<g>
		<g>
			<polygon class="st1" points="170.6,44.4 169.4,44.4 169.4,51.9 170.6,50.7 			"/>
			<path class="st2" d="M169.3,52.2v-8h1.4v6.5L169.3,52.2z M169.6,44.5v7.1l0.9-0.9v-6.2H169.6z"/>
		</g>
		<g>
			<polygon class="st1" points="168.8,42.8 168.8,44.4 177,44.4 178.5,42.8 			"/>
			<path class="st2" d="M177.1,44.5h-8.4v-1.8h10.2L177.1,44.5z M168.9,44.2h8l1.3-1.3h-9.3L168.9,44.2L168.9,44.2z"/>
		</g>
	</g>
	<g>
		<g>
			<polygon class="st1" points="179.6,35.4 178.4,35.4 178.4,42.9 179.6,41.7 			"/>
			<path class="st2" d="M178.3,43.2v-8h1.4v6.5L178.3,43.2z M178.6,35.5v7.1l0.9-0.9v-6.2H178.6z"/>
		</g>
		<g>
			<polygon class="st1" points="177.8,33.8 177.8,35.4 186,35.4 187.5,33.8 			"/>
			<path class="st2" d="M186.1,35.5h-8.4v-1.8h10.2L186.1,35.5z M177.9,35.2h8l1.3-1.3h-9.3L177.9,35.2L177.9,35.2z"/>
		</g>
	</g>
	<polygon class="st1" points="100.7,74.6 122.2,96.1 123.1,95.2 101.6,73.6 	"/>
	<path class="st2" d="M122.2,96.3l-21.6-21.6l1-1.2l21.7,21.7L122.2,96.3z M100.9,74.6l21.2,21.3l0.7-0.8l-21.3-21.4L100.9,74.6z"/>
	<polygon class="st1" points="155.1,20.1 176.5,41.6 177.4,40.6 155.9,19.1 	"/>
	<path class="st2" d="M176.5,41.8l-21.6-21.6l1-1.2L156,19l21.6,21.6L176.5,41.8z M155.2,20.1l21.2,21.3l0.7-0.8l-21.3-21.3
		L155.2,20.1z"/>
	<polygon class="st1" points="127.9,47.3 149.3,68.8 150.3,67.8 128.8,46.3 	"/>
	<path class="st2" d="M149.3,69l-21.6-21.6l1-1.2l21.7,21.7L149.3,69z M128.1,47.3l21.2,21.3l0.7-0.8l-21.3-21.3L128.1,47.3z"/>
	<polygon class="st1" points="108.9,120.7 187.9,41.6 181.9,36.4 103,115.5 	"/>
	<path class="st2" d="M108.9,120.9l-6-5.4l0.1-0.1l78.9-79.2l6.2,5.3l-0.1,0.1L108.9,120.9z M103.2,115.5l5.6,5l78.8-79l-5.8-5
		L103.2,115.5z"/>
	<polygon class="st1" points="105.6,113.6 185.3,33.7 184.3,33.7 105.1,113.1 	"/>
	<path class="st2" d="M105.6,113.7l-0.8-0.7l0.1-0.1l79.2-79.4h1.4L105.6,113.7z M105.2,113l0.4,0.3L185,33.8h-0.6L105.2,113z"/>
	<polygon class="st1" points="109.3,121.4 188.4,42.1 187.9,41.6 108.9,120.7 	"/>
	<path class="st2" d="M109.2,121.7l-0.5-1l79.1-79.2l0.8,0.7l-0.1,0.1L109.2,121.7z M109.1,120.7l0.2,0.5l79-79.1l-0.4-0.3
		L109.1,120.7z"/>
	<polygon class="st1" points="177.4,41.6 240.1,41.6 240.1,33.7 185.3,33.7 	"/>
	<path class="st2" d="M240.2,41.7h-63.1l8.1-8.2h55L240.2,41.7L240.2,41.7z M177.7,41.5h62.2v-7.6h-54.6L177.7,41.5z"/>
	<rect x="184.3" y="33.7" class="st1" width="57.1" height="0.8"/>
	<path class="st2" d="M241.4,34.6h-57.3v-1h57.3V34.6z M184.4,34.3h56.8v-0.5h-56.8V34.3z"/>
	<polygon class="st1" points="183.1,36.2 240.1,36.2 240.1,34.4 184.6,34.4 	"/>
	<path class="st2" d="M240.2,36.3h-57.3l1.7-2h55.6V36.3z M183.4,36h56.5v-1.4h-55.3L183.4,36z"/>
	<rect x="187.9" y="41.6" class="st1" width="53.5" height="0.8"/>
	<path class="st2" d="M241.4,42.5h-53.7v-1h53.7V42.5z M188,42.2h53.2v-0.5H188V42.2z"/>
	<polygon class="st1" points="187.9,41.6 240.1,41.6 240.1,40.5 187.5,40.5 	"/>
	<path class="st2" d="M240.2,41.7h-52.4l-0.4-1.3h52.8V41.7z M187.9,41.4h52v-0.8h-52.2L187.9,41.4z"/>
	<polygon class="st1" points="106.5,115.4 186.9,34.4 184.6,34.4 105.6,113.6 	"/>
	<path class="st2" d="M106.4,115.6l-1-2.1l0.1-0.1l79-79.1h2.6l-0.2,0.2L106.4,115.6z M105.8,113.6l0.7,1.6l80-80.6h-1.9
		L105.8,113.6z"/>
	<g>
		<g>
			<path class="st1" d="M235.9,36.7c0,0.3-0.3,0.6-0.6,0.6c-0.3,0-0.6-0.3-0.6-0.6c0-0.3,0.3-0.6,0.6-0.6
				C235.6,36.1,235.9,36.4,235.9,36.7z"/>
			<path class="st2" d="M235.3,37.5c-0.4,0-0.7-0.3-0.7-0.8s0.3-0.8,0.7-0.8s0.7,0.3,0.7,0.8S235.7,37.5,235.3,37.5z M235.3,36.2
				c-0.3,0-0.5,0.2-0.5,0.5c0,0.3,0.2,0.5,0.5,0.5s0.5-0.2,0.5-0.5S235.5,36.2,235.3,36.2z"/>
		</g>
		<g>
			<g>
				<path class="st1" d="M234.9,36.2c0.2-0.2,0.6-0.2,0.8,0c0.2,0.2,0.2,0.6,0,0.8c-0.2,0.2-0.6,0.2-0.8,0
					C234.7,36.8,234.7,36.5,234.9,36.2z"/>
				<path class="st2" d="M235.3,37.3c-0.2,0-0.4-0.1-0.5-0.2c-0.3-0.3-0.3-0.7,0-1l0,0c0.3-0.3,0.7-0.3,1,0c0.3,0.3,0.3,0.7,0,1
					C235.6,37.3,235.5,37.3,235.3,37.3z M235,36.3c-0.2,0.2-0.2,0.4,0,0.6c0.2,0.2,0.4,0.2,0.6,0c0.2-0.2,0.2-0.4,0-0.6
					C235.4,36.2,235.1,36.2,235,36.3L235,36.3z"/>
			</g>
			<g>
				<path class="st1" d="M235,36.3c0.2-0.2,0.5-0.2,0.6,0c0.2,0.2,0.2,0.4,0,0.6c-0.2,0.2-0.5,0.2-0.6,0S234.8,36.4,235,36.3z"/>
				<path class="st2" d="M235.3,37.1c-0.1,0-0.3-0.1-0.4-0.2c-0.1-0.1-0.2-0.2-0.2-0.4s0.1-0.3,0.2-0.4l0,0c0.2-0.2,0.6-0.2,0.8,0
					c0.1,0.1,0.2,0.2,0.2,0.4s-0.1,0.3-0.2,0.4C235.6,37.1,235.4,37.1,235.3,37.1z M235,36.4c-0.1,0.1-0.1,0.1-0.1,0.2
					s0,0.1,0.1,0.2c0.1,0.1,0.3,0.1,0.5,0c0.1-0.1,0.1-0.1,0.1-0.2s0-0.1-0.1-0.2C235.4,36.2,235.2,36.2,235,36.4L235,36.4z"/>
			</g>
		</g>
	</g>
	<g>
		<g>
			<path class="st1" d="M235.9,40c0,0.3-0.3,0.6-0.6,0.6c-0.3,0-0.6-0.3-0.6-0.6c0-0.3,0.3-0.6,0.6-0.6
				C235.6,39.4,235.9,39.6,235.9,40z"/>
			<path class="st2" d="M235.3,40.7c-0.4,0-0.7-0.3-0.7-0.8s0.3-0.8,0.7-0.8s0.7,0.3,0.7,0.8C236,40.4,235.7,40.7,235.3,40.7z
				 M235.3,39.5c-0.3,0-0.5,0.2-0.5,0.5c0,0.3,0.2,0.5,0.5,0.5s0.5-0.2,0.5-0.5S235.5,39.5,235.3,39.5z"/>
		</g>
		<g>
			<g>
				<path class="st1" d="M234.9,39.5c0.2-0.2,0.6-0.2,0.8,0c0.2,0.2,0.2,0.6,0,0.8c-0.2,0.2-0.6,0.2-0.8,0
					C234.7,40.1,234.7,39.8,234.9,39.5z"/>
				<path class="st2" d="M235.3,40.6c-0.2,0-0.4-0.1-0.5-0.2c-0.3-0.3-0.3-0.7,0-1l0,0c0.3-0.3,0.7-0.3,1,0c0.3,0.3,0.3,0.7,0,1
					C235.6,40.6,235.5,40.6,235.3,40.6z M235,39.6c-0.2,0.2-0.2,0.4,0,0.6c0.2,0.2,0.4,0.2,0.6,0c0.2-0.2,0.2-0.4,0-0.6
					C235.4,39.5,235.1,39.5,235,39.6L235,39.6z"/>
			</g>
			<g>
				<path class="st1" d="M235,39.6c0.2-0.2,0.5-0.2,0.6,0c0.2,0.2,0.2,0.4,0,0.6c-0.2,0.2-0.5,0.2-0.6,0
					C234.8,40,234.8,39.7,235,39.6z"/>
				<path class="st2" d="M235.3,40.4c-0.1,0-0.3-0.1-0.4-0.2c-0.1-0.1-0.2-0.2-0.2-0.4s0.1-0.3,0.2-0.4l0,0c0.2-0.2,0.6-0.2,0.8,0
					c0.1,0.1,0.2,0.2,0.2,0.4s-0.1,0.3-0.2,0.4C235.6,40.3,235.4,40.4,235.3,40.4z M235,39.6c-0.1,0.1-0.1,0.1-0.1,0.2
					s0,0.1,0.1,0.2c0.1,0.1,0.3,0.1,0.5,0c0.1-0.1,0.1-0.1,0.1-0.2s0-0.1-0.1-0.2C235.4,39.5,235.2,39.5,235,39.6L235,39.6z"/>
			</g>
		</g>
	</g>
	<g>
		<g>
			<path class="st1" d="M191.7,36.7c0,0.3-0.3,0.6-0.6,0.6c-0.3,0-0.6-0.3-0.6-0.6c0-0.3,0.3-0.6,0.6-0.6
				C191.4,36.1,191.7,36.4,191.7,36.7z"/>
			<path class="st2" d="M191.1,37.5c-0.4,0-0.7-0.3-0.7-0.8s0.3-0.8,0.7-0.8c0.4,0,0.7,0.3,0.7,0.8S191.5,37.5,191.1,37.5z
				 M191.1,36.2c-0.3,0-0.5,0.2-0.5,0.5c0,0.3,0.2,0.5,0.5,0.5c0.3,0,0.5-0.2,0.5-0.5S191.3,36.2,191.1,36.2z"/>
		</g>
		<g>
			<g>
				<path class="st1" d="M190.7,36.2c0.2-0.2,0.6-0.2,0.8,0c0.2,0.2,0.2,0.6,0,0.8c-0.2,0.2-0.6,0.2-0.8,0
					C190.5,36.8,190.5,36.5,190.7,36.2z"/>
				<path class="st2" d="M191.1,37.3c-0.2,0-0.4-0.1-0.5-0.2c-0.3-0.3-0.3-0.7,0-1l0,0c0.1-0.1,0.3-0.2,0.5-0.2l0,0
					c0.2,0,0.3,0.1,0.5,0.2c0.3,0.3,0.3,0.7,0,1C191.4,37.3,191.3,37.3,191.1,37.3L191.1,37.3z M190.8,36.3c-0.2,0.2-0.2,0.4,0,0.6
					c0.1,0.1,0.2,0.1,0.3,0.1l0,0c0.1,0,0.2,0,0.3-0.1c0.2-0.2,0.2-0.4,0-0.6c-0.1-0.1-0.2-0.1-0.3-0.1l0,0
					C191,36.2,190.9,36.3,190.8,36.3z"/>
			</g>
			<g>
				<path class="st1" d="M190.8,36.3c0.2-0.2,0.5-0.2,0.6,0c0.2,0.2,0.2,0.4,0,0.6c-0.2,0.2-0.5,0.2-0.6,0
					C190.6,36.7,190.6,36.4,190.8,36.3z"/>
				<path class="st2" d="M191.1,37.1c-0.1,0-0.3-0.1-0.4-0.2s-0.2-0.2-0.2-0.4s0.1-0.3,0.2-0.4l0,0c0.2-0.2,0.6-0.2,0.8,0
					c0.1,0.1,0.2,0.2,0.2,0.4s-0.1,0.3-0.2,0.4S191.2,37.1,191.1,37.1z M190.8,36.4c-0.1,0.1-0.1,0.1-0.1,0.2s0,0.1,0.1,0.2
					c0.1,0.1,0.3,0.1,0.5,0c0.1-0.1,0.1-0.1,0.1-0.2s0-0.1-0.1-0.2C191.2,36.2,191,36.2,190.8,36.4L190.8,36.4z"/>
			</g>
		</g>
	</g>
	<g>
		<g>
			<path class="st1" d="M191.7,40c0,0.3-0.3,0.6-0.6,0.6c-0.3,0-0.6-0.3-0.6-0.6c0-0.3,0.3-0.6,0.6-0.6
				C191.4,39.4,191.7,39.6,191.7,40z"/>
			<path class="st2" d="M191.1,40.7c-0.4,0-0.7-0.3-0.7-0.8s0.3-0.8,0.7-0.8c0.4,0,0.7,0.3,0.7,0.8
				C191.8,40.4,191.5,40.7,191.1,40.7z M191.1,39.5c-0.3,0-0.5,0.2-0.5,0.5c0,0.3,0.2,0.5,0.5,0.5c0.3,0,0.5-0.2,0.5-0.5
				S191.3,39.5,191.1,39.5z"/>
		</g>
		<g>
			<g>
				<path class="st1" d="M190.7,39.5c0.2-0.2,0.6-0.2,0.8,0c0.2,0.2,0.2,0.6,0,0.8c-0.2,0.2-0.6,0.2-0.8,0
					C190.5,40.1,190.5,39.8,190.7,39.5z"/>
				<path class="st2" d="M191.1,40.6c-0.2,0-0.4-0.1-0.5-0.2c-0.3-0.3-0.3-0.7,0-1l0,0c0.1-0.1,0.3-0.2,0.5-0.2l0,0
					c0.2,0,0.3,0.1,0.5,0.2c0.3,0.3,0.3,0.7,0,1C191.4,40.6,191.3,40.6,191.1,40.6L191.1,40.6z M190.8,39.6c-0.2,0.2-0.2,0.4,0,0.6
					c0.1,0.1,0.2,0.1,0.3,0.1l0,0c0.1,0,0.2,0,0.3-0.1c0.2-0.2,0.2-0.4,0-0.6c-0.1-0.1-0.2-0.1-0.3-0.1l0,0
					C191,39.5,190.9,39.5,190.8,39.6z"/>
			</g>
			<g>
				<path class="st1" d="M190.8,39.6c0.2-0.2,0.5-0.2,0.6,0c0.2,0.2,0.2,0.4,0,0.6c-0.2,0.2-0.5,0.2-0.6,0
					C190.6,40,190.6,39.7,190.8,39.6z"/>
				<path class="st2" d="M191.1,40.4c-0.1,0-0.3-0.1-0.4-0.2c-0.1-0.1-0.2-0.2-0.2-0.4s0.1-0.3,0.2-0.4l0,0c0.2-0.2,0.6-0.2,0.8,0
					c0.1,0.1,0.2,0.2,0.2,0.4s-0.1,0.3-0.2,0.4C191.4,40.3,191.2,40.4,191.1,40.4z M190.8,39.6c-0.1,0.1-0.1,0.1-0.1,0.2
					s0,0.1,0.1,0.2c0.1,0.1,0.3,0.1,0.5,0c0.1-0.1,0.1-0.1,0.1-0.2s0-0.1-0.1-0.2C191.2,39.5,191,39.5,190.8,39.6L190.8,39.6z"/>
			</g>
		</g>
	</g>
	<polygon class="st1" points="108.9,120.7 50.5,120.7 50.5,112.8 105.3,112.8 	"/>
	<path class="st2" d="M109.1,120.8H50.4v-8.2h55L109.1,120.8z M50.6,120.6h58l-3.5-7.6H50.6V120.6z"/>
	<polygon class="st1" points="105.6,113.6 49.3,113.6 49.3,112.8 106.3,112.8 	"/>
	<path class="st2" d="M105.7,113.7H49.1v-1h57.5L105.7,113.7z M49.4,113.4h56.2l0.4-0.5H49.4V113.4z"/>
	<rect x="49.3" y="120.7" class="st1" width="59.9" height="0.8"/>
	<path class="st2" d="M109.4,121.6H49.2v-1h60.2L109.4,121.6L109.4,121.6z M49.4,121.3h59.7v-0.5H49.4V121.3z"/>
	<polygon class="st1" points="108.9,120.7 50.5,120.7 50.5,119.6 108.4,119.6 	"/>
	<path class="st2" d="M109.1,120.8H50.4v-1.3h58.1L109.1,120.8z M50.6,120.5h58l-0.4-0.8H50.6V120.5z"/>
	<g>
		<g>
			<path class="st1" d="M54.7,115.8c0,0.3,0.3,0.6,0.6,0.6c0.3,0,0.6-0.3,0.6-0.6c0-0.3-0.3-0.6-0.6-0.6
				C55,115.2,54.7,115.5,54.7,115.8z"/>
			<path class="st2" d="M55.3,116.6c-0.4,0-0.7-0.3-0.7-0.8c0-0.4,0.3-0.8,0.7-0.8c0.4,0,0.7,0.3,0.7,0.8
				C56,116.2,55.7,116.6,55.3,116.6z M55.3,115.3c-0.3,0-0.5,0.2-0.5,0.5c0,0.3,0.2,0.5,0.5,0.5s0.5-0.2,0.5-0.5
				C55.8,115.5,55.6,115.3,55.3,115.3z"/>
		</g>
		<g>
			<g>
				<path class="st1" d="M55.7,115.4c-0.2-0.2-0.6-0.2-0.8,0c-0.2,0.2-0.2,0.6,0,0.8c0.2,0.2,0.6,0.2,0.8,0
					C55.9,115.9,55.9,115.6,55.7,115.4z"/>
				<path class="st2" d="M55.3,116.5L55.3,116.5c-0.2,0-0.4-0.1-0.5-0.2c-0.3-0.3-0.3-0.7,0-1c0.1-0.1,0.3-0.2,0.5-0.2l0,0
					c0.2,0,0.4,0.1,0.5,0.2l0,0c0.3,0.3,0.3,0.7,0,1C55.7,116.4,55.5,116.5,55.3,116.5z M55.3,115.3L55.3,115.3
					c-0.1,0-0.2,0-0.3,0.1c-0.2,0.2-0.2,0.4,0,0.6c0.1,0.1,0.2,0.1,0.3,0.1l0,0c0.1,0,0.2,0,0.3-0.1c0.2-0.2,0.2-0.4,0-0.6
					C55.5,115.4,55.4,115.3,55.3,115.3z"/>
			</g>
			<g>
				<path class="st1" d="M55.6,115.4c-0.2-0.2-0.5-0.2-0.6,0c-0.2,0.2-0.2,0.4,0,0.6c0.2,0.2,0.5,0.2,0.6,0
					C55.8,115.8,55.8,115.5,55.6,115.4z"/>
				<path class="st2" d="M55.3,116.2c-0.1,0-0.3-0.1-0.4-0.2c-0.1-0.1-0.2-0.2-0.2-0.4s0.1-0.3,0.2-0.4c0.2-0.2,0.6-0.2,0.8,0l0,0
					c0.1,0.1,0.2,0.2,0.2,0.4s-0.1,0.3-0.2,0.4S55.5,116.2,55.3,116.2z M55.3,115.4c-0.1,0-0.2,0-0.2,0.1c-0.1,0.1-0.1,0.1-0.1,0.2
					c0,0.1,0,0.1,0.1,0.2c0.1,0.1,0.3,0.1,0.5,0c0.1-0.1,0.1-0.1,0.1-0.2c0-0.1,0-0.1-0.1-0.2l0,0C55.5,115.4,55.4,115.4,55.3,115.4
					z"/>
			</g>
		</g>
	</g>
	<g>
		<g>
			<path class="st1" d="M54.7,119.1c0,0.3,0.3,0.6,0.6,0.6c0.3,0,0.6-0.3,0.6-0.6c0-0.3-0.3-0.6-0.6-0.6
				C55,118.5,54.7,118.7,54.7,119.1z"/>
			<path class="st2" d="M55.3,119.8c-0.4,0-0.7-0.3-0.7-0.8c0-0.4,0.3-0.8,0.7-0.8c0.4,0,0.7,0.3,0.7,0.8
				C56,119.5,55.7,119.8,55.3,119.8z M55.3,118.6c-0.3,0-0.5,0.2-0.5,0.5c0,0.3,0.2,0.5,0.5,0.5s0.5-0.2,0.5-0.5
				C55.8,118.8,55.6,118.6,55.3,118.6z"/>
		</g>
		<g>
			<g>
				<path class="st1" d="M55.7,118.6c-0.2-0.2-0.6-0.2-0.8,0c-0.2,0.2-0.2,0.6,0,0.8c0.2,0.2,0.6,0.2,0.8,0
					C55.9,119.2,55.9,118.9,55.7,118.6z"/>
				<path class="st2" d="M55.3,119.7L55.3,119.7c-0.2,0-0.4-0.1-0.5-0.2c-0.3-0.3-0.3-0.7,0-1c0.1-0.1,0.3-0.2,0.5-0.2l0,0
					c0.2,0,0.4,0.1,0.5,0.2l0,0c0.3,0.3,0.3,0.7,0,1C55.7,119.7,55.5,119.7,55.3,119.7z M55.3,118.6L55.3,118.6
					c-0.1,0-0.2,0-0.3,0.1c-0.2,0.2-0.2,0.4,0,0.6c0.1,0.1,0.2,0.1,0.3,0.1l0,0c0.1,0,0.2,0,0.3-0.1c0.2-0.2,0.2-0.4,0-0.6
					C55.5,118.6,55.4,118.6,55.3,118.6z"/>
			</g>
			<g>
				<path class="st1" d="M55.6,118.7c-0.2-0.2-0.5-0.2-0.6,0c-0.2,0.2-0.2,0.4,0,0.6c0.2,0.2,0.5,0.2,0.6,0
					C55.8,119.1,55.8,118.8,55.6,118.7z"/>
				<path class="st2" d="M55.3,119.5c-0.1,0-0.3-0.1-0.4-0.2c-0.1-0.1-0.2-0.2-0.2-0.4c0-0.1,0.1-0.3,0.2-0.4c0.2-0.2,0.6-0.2,0.8,0
					l0,0c0.1,0.1,0.2,0.2,0.2,0.4c0,0.1-0.1,0.3-0.2,0.4C55.6,119.4,55.5,119.5,55.3,119.5z M55.3,118.7c-0.1,0-0.2,0-0.2,0.1
					c-0.1,0.1-0.1,0.1-0.1,0.2s0,0.1,0.1,0.2c0.1,0.1,0.3,0.1,0.5,0c0.1-0.1,0.1-0.1,0.1-0.2s0-0.1-0.1-0.2S55.4,118.7,55.3,118.7z"
					/>
			</g>
		</g>
	</g>
	<g>
		<g>
			<path class="st1" d="M103,115.8c0,0.3,0.3,0.6,0.6,0.6c0.3,0,0.6-0.3,0.6-0.6c0-0.3-0.3-0.6-0.6-0.6
				C103.3,115.2,103,115.5,103,115.8z"/>
			<path class="st2" d="M103.6,116.6c-0.4,0-0.7-0.3-0.7-0.8c0-0.4,0.3-0.8,0.7-0.8c0.4,0,0.7,0.3,0.7,0.8
				C104.4,116.2,104.1,116.6,103.6,116.6z M103.6,115.3c-0.3,0-0.5,0.2-0.5,0.5c0,0.3,0.2,0.5,0.5,0.5c0.3,0,0.5-0.2,0.5-0.5
				C104.1,115.5,103.9,115.3,103.6,115.3z"/>
		</g>
		<g>
			<g>
				<path class="st1" d="M104.1,115.4c-0.2-0.2-0.6-0.2-0.8,0c-0.2,0.2-0.2,0.6,0,0.8c0.2,0.2,0.6,0.2,0.8,0
					C104.3,115.9,104.3,115.6,104.1,115.4z"/>
				<path class="st2" d="M103.7,116.5L103.7,116.5c-0.2,0-0.4-0.1-0.5-0.2c-0.3-0.3-0.3-0.7,0-1c0.1-0.1,0.3-0.2,0.5-0.2l0,0
					c0.2,0,0.4,0.1,0.5,0.2l0,0c0.3,0.3,0.3,0.7,0,1C104,116.4,103.8,116.5,103.7,116.5z M103.7,115.3L103.7,115.3
					c-0.1,0-0.2,0-0.3,0.1c-0.2,0.2-0.2,0.4,0,0.6c0.1,0.1,0.2,0.1,0.3,0.1l0,0c0.1,0,0.2,0,0.3-0.1c0.2-0.2,0.2-0.4,0-0.6
					C103.9,115.4,103.8,115.3,103.7,115.3z"/>
			</g>
			<g>
				<path class="st1" d="M104,115.4c-0.2-0.2-0.5-0.2-0.6,0c-0.2,0.2-0.2,0.4,0,0.6c0.2,0.2,0.5,0.2,0.6,0
					C104.1,115.8,104.1,115.5,104,115.4z"/>
				<path class="st2" d="M103.7,116.2c-0.1,0-0.3-0.1-0.4-0.2c-0.1-0.1-0.2-0.2-0.2-0.4s0.1-0.3,0.2-0.4c0.2-0.2,0.6-0.2,0.8,0l0,0
					c0.1,0.1,0.2,0.2,0.2,0.4s-0.1,0.3-0.2,0.4C104,116.2,103.8,116.2,103.7,116.2z M103.7,115.4c-0.1,0-0.2,0-0.2,0.1
					c-0.1,0.1-0.1,0.1-0.1,0.2c0,0.1,0,0.1,0.1,0.2c0.1,0.1,0.3,0.1,0.5,0c0.1-0.1,0.1-0.1,0.1-0.2c0-0.1,0-0.1-0.1-0.2
					C103.8,115.4,103.7,115.4,103.7,115.4z"/>
			</g>
		</g>
	</g>
	<g>
		<g>
			<path class="st1" d="M103,119.1c0,0.3,0.3,0.6,0.6,0.6c0.3,0,0.6-0.3,0.6-0.6c0-0.3-0.3-0.6-0.6-0.6
				C103.3,118.5,103,118.7,103,119.1z"/>
			<path class="st2" d="M103.6,119.8c-0.4,0-0.7-0.3-0.7-0.8c0-0.4,0.3-0.8,0.7-0.8c0.4,0,0.7,0.3,0.7,0.8
				C104.4,119.5,104.1,119.8,103.6,119.8z M103.6,118.6c-0.3,0-0.5,0.2-0.5,0.5c0,0.3,0.2,0.5,0.5,0.5c0.3,0,0.5-0.2,0.5-0.5
				C104.1,118.8,103.9,118.6,103.6,118.6z"/>
		</g>
		<g>
			<g>
				<path class="st1" d="M104.1,118.6c-0.2-0.2-0.6-0.2-0.8,0c-0.2,0.2-0.2,0.6,0,0.8c0.2,0.2,0.6,0.2,0.8,0
					C104.3,119.2,104.3,118.9,104.1,118.6z"/>
				<path class="st2" d="M103.7,119.7L103.7,119.7c-0.2,0-0.4-0.1-0.5-0.2c-0.3-0.3-0.3-0.7,0-1c0.1-0.1,0.3-0.2,0.5-0.2l0,0
					c0.2,0,0.4,0.1,0.5,0.2l0,0c0.3,0.3,0.3,0.7,0,1C104,119.7,103.8,119.7,103.7,119.7z M103.7,118.6L103.7,118.6
					c-0.1,0-0.2,0-0.3,0.1c-0.2,0.2-0.2,0.4,0,0.6c0.1,0.1,0.2,0.1,0.3,0.1l0,0c0.1,0,0.2,0,0.3-0.1c0.2-0.2,0.2-0.4,0-0.6
					C103.9,118.6,103.8,118.6,103.7,118.6z"/>
			</g>
			<g>
				<path class="st1" d="M104,118.7c-0.2-0.2-0.5-0.2-0.6,0c-0.2,0.2-0.2,0.4,0,0.6c0.2,0.2,0.5,0.2,0.6,0
					C104.1,119.1,104.1,118.8,104,118.7z"/>
				<path class="st2" d="M103.7,119.5c-0.1,0-0.3-0.1-0.4-0.2c-0.1-0.1-0.2-0.2-0.2-0.4c0-0.1,0.1-0.3,0.2-0.4
					c0.2-0.2,0.6-0.2,0.8,0l0,0c0.1,0.1,0.2,0.2,0.2,0.4c0,0.1-0.1,0.3-0.2,0.4C104,119.4,103.8,119.5,103.7,119.5z M103.7,118.7
					c-0.1,0-0.2,0-0.2,0.1c-0.1,0.1-0.1,0.1-0.1,0.2s0,0.1,0.1,0.2c0.1,0.1,0.3,0.1,0.5,0c0.1-0.1,0.1-0.1,0.1-0.2s0-0.1-0.1-0.2
					C103.8,118.7,103.7,118.7,103.7,118.7z"/>
			</g>
		</g>
	</g>
	<polygon class="st1" points="190.1,38.8 113,115.7 108.5,111.8 185.6,34.9 	"/>
	<path class="st2" d="M113,115.9l-4.7-4.1l0.1-0.1l77.2-77l4.7,4.1l-0.1,0.1L113,115.9z M108.7,111.8l4.3,3.7l76.9-76.8l-4.3-3.7
		L108.7,111.8z"/>
	<polygon class="st1" points="108.9,120.7 187.9,41.6 187.5,40.5 108.4,119.5 	"/>
	<path class="st2" d="M108.9,120.9l-0.7-1.4l0.1-0.1l79.3-79.1l0.4,1.3l-0.1,0.1L108.9,120.9z M108.5,119.5l0.4,0.9l78.8-78.9
		l-0.2-0.8L108.5,119.5z"/>
	<g>
		<g>
			<path class="st1" d="M184.7,42.9c-0.2,0.3-0.6,0.3-0.9,0.1s-0.3-0.6,0-0.9c0.2-0.3,0.6-0.3,0.9-0.1
				C184.9,42.3,184.9,42.7,184.7,42.9z"/>
			<path class="st2" d="M184.2,43.3c-0.2,0-0.3-0.1-0.5-0.2c-0.3-0.3-0.3-0.7-0.1-1c0.3-0.3,0.7-0.3,1-0.1c0.1,0.1,0.2,0.3,0.2,0.5
				c0,0.2-0.1,0.4-0.2,0.5l0,0C184.6,43.2,184.4,43.2,184.2,43.3C184.2,43.3,184.2,43.3,184.2,43.3z M184.2,42
				c-0.1,0-0.3,0.1-0.4,0.2c-0.2,0.2-0.2,0.5,0,0.7c0.1,0.1,0.2,0.1,0.3,0.1c0.1,0,0.2-0.1,0.3-0.2l0,0c0.1-0.1,0.1-0.2,0.1-0.3
				c0-0.1-0.1-0.2-0.2-0.3C184.4,42.1,184.3,42,184.2,42z"/>
		</g>
		<g>
			<g>
				<path class="st1" d="M184.2,41.9c0.3,0,0.6,0.2,0.6,0.5c0,0.3-0.2,0.6-0.5,0.6c-0.3,0-0.6-0.2-0.6-0.5
					C183.7,42.2,183.9,41.9,184.2,41.9z"/>
				<path class="st2" d="M184.2,43.2c-0.2,0-0.3-0.1-0.5-0.2c-0.1-0.1-0.2-0.3-0.2-0.5c0-0.4,0.3-0.7,0.6-0.7c0.2,0,0.4,0.1,0.5,0.2
					c0.1,0.1,0.2,0.3,0.2,0.5C184.9,42.8,184.6,43.1,184.2,43.2C184.3,43.2,184.2,43.2,184.2,43.2z M184.2,42
					C184.2,42,184.2,42,184.2,42L184.2,42c-0.3,0-0.5,0.2-0.4,0.5c0,0.1,0.1,0.2,0.1,0.3c0.1,0.1,0.2,0.1,0.3,0.1
					c0.2,0,0.4-0.2,0.4-0.5c0-0.1-0.1-0.2-0.1-0.3C184.4,42.1,184.3,42,184.2,42z"/>
			</g>
			<g>
				<path class="st1" d="M184.2,42c0.2,0,0.5,0.2,0.5,0.4c0,0.2-0.1,0.4-0.4,0.4c-0.2,0-0.5-0.2-0.5-0.4S184,42,184.2,42z"/>
				<path class="st2" d="M184.3,43c-0.3,0-0.6-0.2-0.6-0.5c0-0.1,0-0.3,0.1-0.4c0.1-0.1,0.2-0.2,0.4-0.2l0,0c0.3,0,0.6,0.2,0.6,0.5
					c0,0.1,0,0.3-0.1,0.4C184.6,42.9,184.5,42.9,184.3,43C184.3,43,184.3,43,184.3,43z M184.3,42.1
					C184.3,42.1,184.3,42.1,184.3,42.1L184.3,42.1c-0.1,0-0.2,0-0.2,0.1c-0.1,0.1-0.1,0.1-0.1,0.2c0,0.2,0.2,0.3,0.3,0.3
					c0.1,0,0.1,0,0.2-0.1c0.1-0.1,0.1-0.1,0.1-0.2C184.6,42.2,184.4,42.1,184.3,42.1z"/>
			</g>
		</g>
	</g>
	<g>
		<g>
			<path class="st1" d="M182.5,41c-0.2,0.3-0.6,0.3-0.9,0.1c-0.3-0.2-0.3-0.6,0-0.9c0.2-0.3,0.6-0.3,0.9-0.1
				C182.7,40.4,182.8,40.8,182.5,41z"/>
			<path class="st2" d="M182.1,41.4c-0.2,0-0.3-0.1-0.5-0.2c-0.3-0.3-0.3-0.7-0.1-1c0.3-0.3,0.7-0.3,1-0.1c0.3,0.3,0.3,0.7,0.1,1
				l0,0C182.5,41.3,182.3,41.4,182.1,41.4z M182.1,40.1c-0.1,0-0.3,0.1-0.4,0.2c-0.2,0.2-0.2,0.5,0,0.7c0.2,0.2,0.5,0.1,0.7-0.1
				s0.2-0.5,0-0.7C182.3,40.2,182.2,40.1,182.1,40.1z"/>
		</g>
		<g>
			<g>
				<path class="st1" d="M182.1,40c0.3,0,0.6,0.2,0.6,0.5c0,0.3-0.2,0.6-0.5,0.6c-0.3,0-0.6-0.2-0.6-0.5
					C181.5,40.3,181.8,40,182.1,40z"/>
				<path class="st2" d="M182.1,41.3c-0.2,0-0.3-0.1-0.5-0.2c-0.1-0.1-0.2-0.3-0.2-0.5c0-0.4,0.3-0.7,0.6-0.7c0.2,0,0.4,0,0.5,0.2
					c0.1,0.1,0.2,0.3,0.2,0.5C182.8,40.9,182.5,41.3,182.1,41.3C182.1,41.3,182.1,41.3,182.1,41.3z M182.1,40.2
					C182.1,40.2,182.1,40.2,182.1,40.2L182.1,40.2c-0.3,0-0.5,0.2-0.4,0.5c0,0.1,0.1,0.2,0.1,0.3c0.1,0.1,0.2,0.1,0.3,0.1
					c0.2,0,0.4-0.2,0.4-0.5c0-0.1-0.1-0.2-0.1-0.3C182.3,40.2,182.2,40.2,182.1,40.2z"/>
			</g>
			<g>
				<path class="st1" d="M182.1,40.1c0.2,0,0.5,0.2,0.5,0.4c0,0.2-0.1,0.4-0.4,0.4c-0.2,0-0.5-0.2-0.5-0.4S181.9,40.1,182.1,40.1z"
					/>
				<path class="st2" d="M182.2,41.1c-0.3,0-0.6-0.2-0.6-0.5c0-0.1,0-0.3,0.1-0.4c0.1-0.1,0.2-0.2,0.4-0.2l0,0
					c0.3,0,0.6,0.2,0.6,0.5c0,0.1,0,0.3-0.1,0.4C182.5,41,182.4,41.1,182.2,41.1C182.2,41.1,182.2,41.1,182.2,41.1z M182.1,40.2
					L182.1,40.2L182.1,40.2c-0.1,0-0.2,0-0.2,0.1c-0.1,0.1-0.1,0.1-0.1,0.2c0,0.2,0.2,0.3,0.3,0.3c0.1,0,0.1,0,0.2-0.1
					c0.1-0.1,0.1-0.1,0.1-0.2C182.5,40.4,182.3,40.2,182.1,40.2z"/>
			</g>
		</g>
	</g>
	<g>
		<g>
			<path class="st1" d="M148.9,78.5c-0.2,0.3-0.6,0.3-0.9,0.1c-0.3-0.2-0.3-0.6,0-0.9s0.6-0.3,0.9-0.1
				C149.1,77.9,149.2,78.3,148.9,78.5z"/>
			<path class="st2" d="M148.5,78.8c-0.2,0-0.3-0.1-0.5-0.2c-0.3-0.3-0.3-0.7-0.1-1c0.1-0.1,0.3-0.2,0.5-0.3c0.2,0,0.4,0.1,0.5,0.2
				c0.3,0.3,0.3,0.7,0.1,1C148.9,78.7,148.7,78.8,148.5,78.8C148.5,78.8,148.5,78.8,148.5,78.8z M148.5,77.6
				C148.5,77.6,148.5,77.6,148.5,77.6c-0.2,0-0.3,0.1-0.4,0.2c-0.2,0.2-0.2,0.5,0,0.7c0.1,0.1,0.2,0.1,0.3,0.1
				c0.1,0,0.3-0.1,0.3-0.2l0,0c0.2-0.2,0.2-0.5,0-0.7C148.7,77.7,148.6,77.6,148.5,77.6z"/>
		</g>
		<g>
			<g>
				<path class="st1" d="M148.5,77.5c0.3,0,0.6,0.2,0.6,0.5c0,0.3-0.2,0.6-0.5,0.6c-0.3,0-0.6-0.2-0.6-0.5S148.2,77.5,148.5,77.5z"
					/>
				<path class="st2" d="M148.5,78.8c-0.2,0-0.3-0.1-0.5-0.2c-0.1-0.1-0.2-0.3-0.2-0.5c0-0.4,0.3-0.7,0.6-0.7c0.2,0,0.4,0,0.5,0.2
					c0.1,0.1,0.2,0.3,0.2,0.5C149.2,78.4,148.9,78.7,148.5,78.8C148.5,78.8,148.5,78.8,148.5,78.8z M148.5,77.6
					C148.5,77.6,148.5,77.6,148.5,77.6L148.5,77.6c-0.3,0-0.5,0.2-0.4,0.5c0,0.1,0.1,0.2,0.1,0.3c0.1,0.1,0.2,0.1,0.3,0.1
					c0.2,0,0.4-0.2,0.4-0.5c0-0.1-0.1-0.2-0.1-0.3C148.7,77.7,148.6,77.6,148.5,77.6z"/>
			</g>
			<g>
				<path class="st1" d="M148.5,77.6c0.2,0,0.5,0.2,0.5,0.4c0,0.2-0.1,0.4-0.4,0.4c-0.2,0-0.4-0.2-0.5-0.4
					C148.1,77.8,148.3,77.6,148.5,77.6z"/>
				<path class="st2" d="M148.6,78.6c-0.3,0-0.6-0.2-0.6-0.5c0-0.1,0-0.3,0.1-0.4c0.1-0.1,0.2-0.2,0.4-0.2l0,0
					c0.3,0,0.6,0.2,0.6,0.5c0,0.1,0,0.3-0.1,0.4C148.9,78.5,148.8,78.5,148.6,78.6L148.6,78.6z M148.5,77.7L148.5,77.7L148.5,77.7
					c-0.1,0-0.2,0-0.2,0.1c-0.1,0.1-0.1,0.1-0.1,0.2c0,0.2,0.2,0.3,0.3,0.3c0,0,0,0,0,0c0.1,0,0.1,0,0.2-0.1
					c0.1-0.1,0.1-0.1,0.1-0.2C148.9,77.8,148.7,77.7,148.5,77.7z"/>
			</g>
		</g>
	</g>
	<g>
		<g>
			<path class="st1" d="M146.8,76.6c-0.2,0.3-0.6,0.3-0.9,0.1s-0.3-0.6,0-0.9c0.2-0.3,0.6-0.3,0.9-0.1C147,76,147,76.4,146.8,76.6z"
				/>
			<path class="st2" d="M146.4,77c-0.2,0-0.3-0.1-0.5-0.2c-0.3-0.3-0.3-0.7-0.1-1c0.3-0.3,0.7-0.3,1-0.1c0.1,0.1,0.2,0.3,0.2,0.5
				c0,0.2-0.1,0.4-0.2,0.5l0,0C146.8,76.9,146.6,77,146.4,77C146.4,77,146.4,77,146.4,77z M146.4,75.7c-0.1,0-0.3,0.1-0.4,0.2
				c-0.2,0.2-0.2,0.5,0,0.7c0.1,0.1,0.2,0.1,0.3,0.1c0.1,0,0.2-0.1,0.3-0.2l0,0c0.1-0.1,0.1-0.2,0.1-0.3c0-0.1-0.1-0.2-0.2-0.3
				C146.6,75.8,146.5,75.7,146.4,75.7z"/>
		</g>
		<g>
			<g>
				<path class="st1" d="M146.4,75.6c0.3,0,0.6,0.2,0.6,0.5c0,0.3-0.2,0.6-0.5,0.6c-0.3,0-0.6-0.2-0.6-0.5
					C145.8,75.9,146.1,75.6,146.4,75.6z"/>
				<path class="st2" d="M146.4,76.9c-0.2,0-0.3-0.1-0.5-0.2c-0.1-0.1-0.2-0.3-0.2-0.5c0-0.4,0.3-0.7,0.6-0.7c0.2,0,0.4,0.1,0.5,0.2
					c0.1,0.1,0.2,0.3,0.2,0.5C147.1,76.5,146.8,76.8,146.4,76.9C146.4,76.9,146.4,76.9,146.4,76.9z M146.4,75.7
					C146.4,75.7,146.4,75.7,146.4,75.7L146.4,75.7c-0.3,0-0.5,0.2-0.4,0.5c0,0.1,0.1,0.2,0.1,0.3c0.1,0.1,0.2,0.1,0.3,0.1
					c0.2,0,0.4-0.2,0.4-0.5c0-0.1-0.1-0.2-0.1-0.3C146.6,75.8,146.5,75.7,146.4,75.7z"/>
			</g>
			<g>
				<path class="st1" d="M146.4,75.7c0.2,0,0.5,0.2,0.5,0.4c0,0.2-0.1,0.4-0.4,0.4c-0.2,0-0.5-0.2-0.5-0.4
					C146,75.9,146.2,75.7,146.4,75.7z"/>
				<path class="st2" d="M146.5,76.7c-0.3,0-0.6-0.2-0.6-0.5c0-0.1,0-0.3,0.1-0.4c0.1-0.1,0.2-0.2,0.4-0.2l0,0
					c0.3,0,0.6,0.2,0.6,0.5c0,0.1,0,0.3-0.1,0.4C146.8,76.6,146.7,76.7,146.5,76.7L146.5,76.7z M146.4,75.8c-0.1,0-0.1,0-0.2,0.1
					c-0.1,0.1-0.1,0.1-0.1,0.2c0,0.2,0.2,0.3,0.3,0.3c0,0,0,0,0,0c0.1,0,0.1,0,0.2-0.1c0.1-0.1,0.1-0.1,0.1-0.2
					C146.7,75.9,146.6,75.8,146.4,75.8L146.4,75.8z"/>
			</g>
		</g>
	</g>
	<g>
		<g>
			<path class="st1" d="M110.8,116.5c-0.2,0.3-0.6,0.3-0.9,0.1c-0.3-0.2-0.3-0.6,0-0.9c0.2-0.3,0.6-0.3,0.9-0.1
				C111,115.9,111,116.3,110.8,116.5z"/>
			<path class="st2" d="M110.3,116.9c-0.2,0-0.3-0.1-0.5-0.2c-0.3-0.3-0.3-0.7-0.1-1c0.3-0.3,0.7-0.3,1-0.1c0.3,0.3,0.3,0.7,0.1,1
				l0,0C110.7,116.8,110.5,116.9,110.3,116.9C110.3,116.9,110.3,116.9,110.3,116.9z M110.3,115.6c-0.1,0-0.3,0.1-0.4,0.2
				c-0.2,0.2-0.2,0.5,0,0.7c0.1,0.1,0.2,0.1,0.3,0.1s0.2-0.1,0.3-0.2l0,0c0.2-0.2,0.2-0.5,0-0.7
				C110.6,115.7,110.4,115.6,110.3,115.6z"/>
		</g>
		<g>
			<g>
				<path class="st1" d="M110.3,115.5c0.3,0,0.6,0.2,0.6,0.5c0,0.3-0.2,0.6-0.5,0.6c-0.3,0-0.6-0.2-0.6-0.5
					C109.8,115.8,110,115.6,110.3,115.5z"/>
				<path class="st2" d="M110.3,116.8c-0.2,0-0.3-0.1-0.5-0.2c-0.1-0.1-0.2-0.3-0.2-0.5c0-0.4,0.3-0.7,0.6-0.7l0,0
					c0.2,0,0.4,0.1,0.5,0.2c0.1,0.1,0.2,0.3,0.2,0.5C111,116.4,110.7,116.8,110.3,116.8C110.4,116.8,110.4,116.8,110.3,116.8z
					 M110.3,115.7c-0.2,0-0.4,0.2-0.4,0.5c0,0.1,0.1,0.2,0.1,0.3c0.1,0.1,0.2,0.1,0.3,0.1c0.2,0,0.4-0.2,0.4-0.5
					c0-0.1-0.1-0.2-0.1-0.3C110.5,115.7,110.4,115.6,110.3,115.7L110.3,115.7z"/>
			</g>
			<g>
				<path class="st1" d="M110.4,115.6c0.2,0,0.5,0.2,0.5,0.4c0,0.2-0.1,0.4-0.4,0.4c-0.2,0-0.5-0.2-0.5-0.4
					C109.9,115.8,110.1,115.6,110.4,115.6z"/>
				<path class="st2" d="M110.4,116.6c-0.3,0-0.6-0.2-0.6-0.5c0-0.1,0-0.3,0.1-0.4c0.1-0.1,0.2-0.2,0.4-0.2c0.3,0,0.6,0.2,0.6,0.5
					c0,0.1,0,0.3-0.1,0.4C110.7,116.5,110.6,116.6,110.4,116.6L110.4,116.6z M110.4,115.7c-0.1,0-0.1,0-0.2,0.1
					c-0.1,0.1-0.1,0.1-0.1,0.2c0,0.2,0.2,0.3,0.3,0.3c0.1,0,0.1,0,0.2-0.1c0.1-0.1,0.1-0.1,0.1-0.2
					C110.7,115.8,110.5,115.7,110.4,115.7L110.4,115.7z"/>
			</g>
		</g>
	</g>
	<g>
		<g>
			<path class="st1" d="M108.6,114.7c-0.2,0.3-0.6,0.3-0.9,0.1c-0.3-0.2-0.3-0.6,0-0.9c0.2-0.3,0.6-0.3,0.9-0.1
				C108.8,114,108.9,114.4,108.6,114.7z"/>
			<path class="st2" d="M108.2,115c-0.2,0-0.3-0.1-0.5-0.2c-0.1-0.1-0.2-0.3-0.2-0.5c0-0.2,0.1-0.4,0.2-0.5c0.3-0.3,0.7-0.3,1-0.1
				c0.3,0.3,0.3,0.7,0.1,1l0,0C108.6,114.9,108.4,115,108.2,115z M108.2,113.8c-0.1,0-0.3,0.1-0.4,0.2c-0.1,0.1-0.1,0.2-0.1,0.3
				c0,0.1,0.1,0.2,0.2,0.3c0.2,0.2,0.5,0.1,0.7-0.1c0.2-0.2,0.2-0.5,0-0.7C108.4,113.8,108.3,113.8,108.2,113.8z"/>
		</g>
		<g>
			<g>
				<path class="st1" d="M108.2,113.6c0.3,0,0.6,0.2,0.6,0.5c0,0.3-0.2,0.6-0.5,0.6c-0.3,0-0.6-0.2-0.6-0.5
					C107.7,113.9,107.9,113.7,108.2,113.6z"/>
				<path class="st2" d="M108.2,114.9c-0.2,0-0.3-0.1-0.5-0.2c-0.1-0.1-0.2-0.3-0.2-0.5c0-0.4,0.3-0.7,0.6-0.7c0.2,0,0.4,0,0.5,0.2
					c0.1,0.1,0.2,0.3,0.2,0.5C108.9,114.5,108.6,114.9,108.2,114.9C108.2,114.9,108.2,114.9,108.2,114.9z M108.2,113.8
					C108.2,113.8,108.2,113.8,108.2,113.8L108.2,113.8c-0.3,0-0.5,0.2-0.4,0.5c0,0.1,0.1,0.2,0.1,0.3c0.1,0.1,0.2,0.1,0.3,0.1
					c0.2,0,0.4-0.2,0.4-0.5c0-0.1-0.1-0.2-0.1-0.3C108.4,113.8,108.3,113.8,108.2,113.8z"/>
			</g>
			<g>
				<path class="st1" d="M108.2,113.7c0.2,0,0.5,0.2,0.5,0.4c0,0.2-0.1,0.4-0.4,0.4c-0.2,0-0.5-0.2-0.5-0.4S108,113.7,108.2,113.7z"
					/>
				<path class="st2" d="M108.3,114.7c-0.3,0-0.6-0.2-0.6-0.5c0-0.1,0-0.3,0.1-0.4c0.1-0.1,0.2-0.2,0.4-0.2c0.3,0,0.6,0.2,0.6,0.5
					c0,0.1,0,0.3-0.1,0.4C108.6,114.6,108.5,114.7,108.3,114.7C108.3,114.7,108.3,114.7,108.3,114.7z M108.2,113.8L108.2,113.8
					L108.2,113.8c-0.1,0-0.2,0-0.2,0.1c-0.1,0.1-0.1,0.1-0.1,0.2c0,0.2,0.2,0.3,0.3,0.3c0.1,0,0.1,0,0.2-0.1
					c0.1-0.1,0.1-0.1,0.1-0.2C108.6,114,108.4,113.8,108.2,113.8z"/>
			</g>
		</g>
	</g>
	<polygon class="st1" points="109,120.6 108.9,120.7 105.6,113.6 105.7,113.4 	"/>
	<polygon class="st2" points="108.9,120.9 105.5,113.5 105.8,113.2 109.2,120.6 	"/>
	<polygon class="st1" points="187.8,41.6 187.7,41.7 184.5,34.6 184.6,34.4 	"/>
	<polygon class="st2" points="187.7,41.9 184.4,34.6 184.6,34.2 188,41.6 	"/>
	<rect x="230.3" y="34.4" class="st1" width="0.2" height="7.1"/>
	<rect x="230.2" y="34.3" class="st2" width="0.5" height="7.4"/>
	<rect x="59.1" y="113.6" class="st1" width="0.2" height="7.1"/>
	<rect x="59" y="113.4" class="st2" width="0.5" height="7.4"/>
	<rect x="49.8" y="82.8" class="st1" width="42.4" height="1.3"/>
	<path class="st2" d="M92.4,84.3H49.7v-1.6h42.7C92.4,82.7,92.4,84.3,92.4,84.3z M49.9,84h42.2V83H49.9V84z"/>
	<polygon class="st1" points="170.6,3.7 91.3,83.3 92.2,84.2 171.6,4.6 	"/>
	<path class="st2" d="M92.2,84.3l-1.2-1l0.1-0.1l79.5-79.6l1.2,1l-0.1,0.1L92.2,84.3z M91.4,83.3l0.8,0.7l79.2-79.4l-0.8-0.7
		L91.4,83.3z"/>
	<rect x="50.6" y="84.2" class="st1" width="1.3" height="28.6"/>
	<path class="st2" d="M52,112.9h-1.6V84H52V112.9z M50.7,112.7h1.1V84.3h-1.1V112.7z"/>
	<rect x="90.9" y="84.2" class="st1" width="1.3" height="28.6"/>
	<path class="st2" d="M92.4,112.9h-1.6V84h1.6V112.9z M91.1,112.7h1.1V84.3h-1.1V112.7z"/>
	<rect x="51.9" y="92.5" class="st1" width="45.5" height="0.7"/>
	<path class="st2" d="M97.5,93.2H51.8v-0.9h45.7V93.2z M52,93h45.2v-0.4H52V93z"/>
	<rect x="51.9" y="101.4" class="st1" width="49.6" height="0.7"/>
	<path class="st2" d="M101.6,102.2H51.8v-0.9h49.8V102.2z M52,101.9h49.3v-0.4H52V101.9z"/>
	<polygon class="st1" points="175.6,13.4 96.9,92.7 97.4,93.1 176.1,13.8 	"/>
	<path class="st2" d="M97.4,93.3l-0.7-0.6l0.1-0.1l78.8-79.4l0.7,0.6l-0.1,0.1L97.4,93.3z M97.1,92.7l0.3,0.3l78.5-79.1l-0.3-0.3
		L97.1,92.7z"/>
	<polygon class="st1" points="179.7,22.3 101,101.6 101.5,102.1 180.2,22.8 	"/>
	<path class="st2" d="M101.5,102.2l-0.7-0.6l0.1-0.1l78.8-79.4l0.7,0.6l-0.1,0.1L101.5,102.2z M101.2,101.6l0.3,0.3L180,22.8
		l-0.3-0.3L101.2,101.6z"/>
	<g>
		<path class="st1" d="M50.9,101.8c0,0.2,0.1,0.3,0.3,0.3c0.2,0,0.3-0.1,0.3-0.3c0-0.2-0.1-0.3-0.3-0.3
			C51.1,101.5,50.9,101.6,50.9,101.8z"/>
		<path class="st2" d="M51.2,102.2c-0.2,0-0.4-0.2-0.4-0.4s0.2-0.4,0.4-0.4c0.2,0,0.4,0.2,0.4,0.4C51.7,102,51.5,102.2,51.2,102.2z
			 M51.2,101.6c-0.1,0-0.2,0.1-0.2,0.2c0,0.1,0.1,0.2,0.2,0.2s0.2-0.1,0.2-0.2C51.4,101.7,51.4,101.6,51.2,101.6z"/>
	</g>
	<g>
		<g>
			<path class="st1" d="M51.5,101.6c-0.1-0.1-0.3-0.1-0.4,0c-0.1,0.1-0.1,0.3,0,0.4c0.1,0.1,0.3,0.1,0.4,0
				C51.6,101.9,51.6,101.7,51.5,101.6z"/>
			<path class="st2" d="M51.3,102.2L51.3,102.2c-0.1,0-0.2,0-0.3-0.1c-0.2-0.2-0.2-0.4,0-0.6c0.1-0.1,0.2-0.1,0.3-0.1l0,0
				c0.1,0,0.2,0,0.3,0.1l0,0c0.2,0.2,0.2,0.4,0,0.6C51.5,102.1,51.4,102.2,51.3,102.2z M51.3,101.6c0,0-0.1,0-0.1,0
				c-0.1,0.1-0.1,0.2,0,0.2c0,0,0.1,0,0.1,0l0,0c0,0,0.1,0,0.1,0c0.1-0.1,0.1-0.2,0-0.2C51.3,101.6,51.3,101.6,51.3,101.6z"/>
		</g>
		<g>
			<path class="st1" d="M51.4,101.6c-0.1-0.1-0.2-0.1-0.3,0c-0.1,0.1-0.1,0.2,0,0.3s0.2,0.1,0.3,0C51.5,101.8,51.5,101.7,51.4,101.6
				z"/>
			<path class="st2" d="M51.3,102.1c-0.1,0-0.2,0-0.3-0.1c-0.1-0.1-0.1-0.1-0.1-0.2c0-0.1,0-0.2,0.1-0.2c0.1-0.1,0.4-0.1,0.5,0l0,0
				c0.1,0.1,0.1,0.1,0.1,0.2s0,0.2-0.1,0.2C51.4,102,51.3,102.1,51.3,102.1z M51.3,101.6C51.2,101.6,51.2,101.7,51.3,101.6
				C51.2,101.7,51.2,101.7,51.3,101.6c-0.1,0.1-0.1,0.1-0.1,0.1c0,0,0.1,0,0.1,0C51.4,101.8,51.4,101.7,51.3,101.6
				C51.4,101.7,51.3,101.7,51.3,101.6L51.3,101.6C51.3,101.7,51.3,101.6,51.3,101.6z"/>
		</g>
	</g>
	<g>
		<path class="st1" d="M50.9,92.8c0,0.2,0.1,0.3,0.3,0.3c0.2,0,0.3-0.1,0.3-0.3c0-0.2-0.1-0.3-0.3-0.3
			C51.1,92.5,50.9,92.6,50.9,92.8z"/>
		<path class="st2" d="M51.2,93.2c-0.2,0-0.4-0.2-0.4-0.4c0-0.2,0.2-0.4,0.4-0.4c0.2,0,0.4,0.2,0.4,0.4S51.5,93.2,51.2,93.2z
			 M51.2,92.6c-0.1,0-0.2,0.1-0.2,0.2c0,0.1,0.1,0.2,0.2,0.2s0.2-0.1,0.2-0.2C51.4,92.7,51.4,92.6,51.2,92.6z"/>
	</g>
	<g>
		<g>
			<path class="st1" d="M51.5,92.5c-0.1-0.1-0.3-0.1-0.4,0c-0.1,0.1-0.1,0.3,0,0.4c0.1,0.1,0.3,0.1,0.4,0
				C51.6,92.8,51.6,92.7,51.5,92.5z"/>
			<path class="st2" d="M51.3,93.2L51.3,93.2c-0.1,0-0.2,0-0.3-0.1c-0.2-0.2-0.2-0.4,0-0.6c0.1-0.1,0.2-0.1,0.3-0.1l0,0
				c0.1,0,0.2,0,0.3,0.1l0,0c0.2,0.2,0.2,0.4,0,0.6C51.5,93.1,51.4,93.2,51.3,93.2z M51.3,92.6c0,0-0.1,0-0.1,0
				c-0.1,0.1-0.1,0.2,0,0.2c0,0,0.1,0,0.1,0l0,0c0,0,0.1,0,0.1,0c0.1-0.1,0.1-0.2,0-0.2l0,0C51.3,92.6,51.3,92.6,51.3,92.6z"/>
		</g>
		<g>
			<path class="st1" d="M51.4,92.6c-0.1-0.1-0.2-0.1-0.3,0c-0.1,0.1-0.1,0.2,0,0.3s0.2,0.1,0.3,0C51.5,92.8,51.5,92.6,51.4,92.6z"/>
			<path class="st2" d="M51.3,93.1c-0.1,0-0.2,0-0.3-0.1c-0.1-0.1-0.1-0.1-0.1-0.2c0-0.1,0-0.2,0.1-0.2c0.1-0.1,0.4-0.1,0.5,0l0,0
				c0.1,0.1,0.1,0.1,0.1,0.2c0,0.1,0,0.2-0.1,0.2C51.4,93,51.3,93.1,51.3,93.1z M51.3,92.6C51.2,92.6,51.2,92.6,51.3,92.6
				C51.2,92.7,51.2,92.7,51.3,92.6c-0.1,0.1-0.1,0.1-0.1,0.1c0,0,0.1,0,0.1,0C51.4,92.7,51.4,92.7,51.3,92.6
				C51.4,92.7,51.3,92.7,51.3,92.6L51.3,92.6C51.3,92.6,51.3,92.6,51.3,92.6z"/>
		</g>
	</g>
	<rect x="170.6" y="3.7" class="st1" width="70.2" height="1.3"/>
	<path class="st2" d="M241,5.2h-70.5V3.6H241V5.2z M170.8,4.9h69.9V3.9h-69.9V4.9z"/>
	<rect x="238.7" y="5.1" class="st1" width="1.3" height="28.6"/>
	<path class="st2" d="M240.2,33.8h-1.6V4.9h1.6V33.8z M238.9,33.6h1.1V5.2h-1.1V33.6z"/>
	<rect x="187.2" y="5.1" class="st1" width="1.3" height="28.6"/>
	<path class="st2" d="M188.6,33.8h-1.6V4.9h1.6V33.8z M187.3,33.6h1.1V5.2h-1.1V33.6z"/>
	<rect x="175.6" y="13.3" class="st1" width="63.2" height="0.7"/>
	<path class="st2" d="M238.9,14.1h-63.4v-0.9h63.4V14.1z M175.7,13.9h62.9v-0.4h-62.9V13.9z"/>
	<rect x="179.7" y="22.3" class="st1" width="59.1" height="0.7"/>
	<path class="st2" d="M238.9,23.1h-59.3v-0.9h59.3V23.1z M179.8,22.8h58.8v-0.4h-58.8L179.8,22.8L179.8,22.8z"/>
	<g>
		<path class="st1" d="M239.7,22.7c0,0.2-0.1,0.3-0.3,0.3c-0.2,0-0.3-0.1-0.3-0.3c0-0.2,0.1-0.3,0.3-0.3
			C239.6,22.4,239.7,22.5,239.7,22.7z"/>
		<path class="st2" d="M239.4,23.1c-0.2,0-0.4-0.2-0.4-0.4s0.2-0.4,0.4-0.4c0.2,0,0.4,0.2,0.4,0.4S239.7,23.1,239.4,23.1z
			 M239.4,22.5c-0.1,0-0.2,0.1-0.2,0.2s0.1,0.2,0.2,0.2c0.1,0,0.2-0.1,0.2-0.2S239.5,22.5,239.4,22.5z"/>
	</g>
	<g>
		<g>
			<path class="st1" d="M239.2,22.5c0.1-0.1,0.3-0.1,0.4,0c0.1,0.1,0.1,0.3,0,0.4c-0.1,0.1-0.3,0.1-0.4,0
				C239.1,22.8,239.1,22.6,239.2,22.5z"/>
			<path class="st2" d="M239.4,23.1c-0.1,0-0.2,0-0.3-0.1c-0.2-0.2-0.2-0.4,0-0.6l0,0c0.1-0.1,0.2-0.1,0.3-0.1l0,0
				c0.1,0,0.2,0,0.3,0.1c0.2,0.2,0.2,0.4,0,0.6C239.6,23,239.5,23.1,239.4,23.1L239.4,23.1z M239.3,22.5c-0.1,0.1-0.1,0.2,0,0.2
				c0,0,0.1,0,0.1,0l0,0c0,0,0.1,0,0.1,0c0.1-0.1,0.1-0.2,0-0.2c0,0-0.1,0-0.1,0l0,0C239.4,22.5,239.3,22.5,239.3,22.5z"/>
		</g>
		<g>
			<path class="st1" d="M239.2,22.5c0.1-0.1,0.2-0.1,0.3,0c0.1,0.1,0.1,0.2,0,0.3c-0.1,0.1-0.2,0.1-0.3,0
				C239.2,22.7,239.2,22.6,239.2,22.5z"/>
			<path class="st2" d="M239.4,23c-0.1,0-0.2,0-0.3-0.1s-0.1-0.1-0.1-0.2s0-0.2,0.1-0.2l0,0c0.1-0.1,0.4-0.1,0.5,0
				c0.1,0.1,0.1,0.1,0.1,0.2s0,0.2-0.1,0.2C239.6,22.9,239.5,23,239.4,23z M239.3,22.6C239.3,22.6,239.3,22.6,239.3,22.6
				c0,0.1,0,0.1,0,0.1c0,0,0.1,0,0.1,0c0,0,0,0,0-0.1s0,0,0-0.1C239.4,22.5,239.4,22.5,239.3,22.6z"/>
		</g>
	</g>
	<g>
		<path class="st1" d="M239.7,13.7c0,0.2-0.1,0.3-0.3,0.3c-0.2,0-0.3-0.1-0.3-0.3s0.1-0.3,0.3-0.3C239.6,13.4,239.7,13.5,239.7,13.7
			z"/>
		<path class="st2" d="M239.4,14.1c-0.2,0-0.4-0.2-0.4-0.4s0.2-0.4,0.4-0.4c0.2,0,0.4,0.2,0.4,0.4S239.7,14.1,239.4,14.1z
			 M239.4,13.5c-0.1,0-0.2,0.1-0.2,0.2c0,0.1,0.1,0.2,0.2,0.2c0.1,0,0.2-0.1,0.2-0.2C239.6,13.6,239.5,13.5,239.4,13.5z"/>
	</g>
	<g>
		<g>
			<path class="st1" d="M239.2,13.4c0.1-0.1,0.3-0.1,0.4,0c0.1,0.1,0.1,0.3,0,0.4c-0.1,0.1-0.3,0.1-0.4,0
				C239.1,13.7,239.1,13.6,239.2,13.4z"/>
			<path class="st2" d="M239.4,14.1c-0.1,0-0.2,0-0.3-0.1c-0.2-0.2-0.2-0.4,0-0.6l0,0c0.1-0.1,0.2-0.1,0.3-0.1l0,0
				c0.1,0,0.2,0,0.3,0.1c0.2,0.2,0.2,0.4,0,0.6C239.6,14,239.5,14.1,239.4,14.1L239.4,14.1z M239.3,13.5c-0.1,0.1-0.1,0.2,0,0.2
				c0,0,0.1,0,0.1,0l0,0c0,0,0.1,0,0.1,0c0.1-0.1,0.1-0.2,0-0.2c0,0-0.1,0-0.1,0l0,0C239.4,13.5,239.3,13.5,239.3,13.5z"/>
		</g>
		<g>
			<path class="st1" d="M239.2,13.5c0.1-0.1,0.2-0.1,0.3,0c0.1,0.1,0.1,0.2,0,0.3c-0.1,0.1-0.2,0.1-0.3,0
				C239.2,13.7,239.2,13.5,239.2,13.5z"/>
			<path class="st2" d="M239.4,13.9c-0.1,0-0.2,0-0.3-0.1c-0.1-0.1-0.1-0.1-0.1-0.2c0-0.1,0-0.2,0.1-0.2l0,0c0.1-0.1,0.4-0.1,0.5,0
				c0.1,0.1,0.1,0.1,0.1,0.2c0,0.1,0,0.2-0.1,0.2C239.6,13.9,239.5,13.9,239.4,13.9z M239.3,13.6C239.3,13.6,239.3,13.6,239.3,13.6
				c0,0.1,0,0.1,0,0.1c0,0,0.1,0,0.1,0c0,0,0,0,0-0.1c0,0,0,0,0-0.1C239.4,13.5,239.4,13.5,239.3,13.6z"/>
		</g>
	</g>
	<polygon class="st1" points="106.4,115.3 50.5,115.3 50.5,113.6 105.6,113.6 	"/>
	<path class="st2" d="M106.6,115.4H50.4v-2h55.3L106.6,115.4z M50.6,115.1h55.6l-0.7-1.4H50.6V115.1z"/>
</g>
</svg>
