<?xml version="1.0" encoding="UTF-8"?>
<svg width="281px" height="98px" viewBox="0 0 281 98" version="1.1" xmlns="http://www.w3.org/2000/svg" xmlns:xlink="http://www.w3.org/1999/xlink">
    <!-- Generator: Sketch 52.5 (67469) - http://www.bohemiancoding.com/sketch -->
    <title>metal_deck</title>
    <desc>Created with Sketch.</desc>
    <g id="Page-2" stroke="none" stroke-width="1" fill="none" fill-rule="evenodd">
        <g id="Desktop-HD-Copy" transform="translate(-1129.000000, -658.000000)" fill="#404040" fill-rule="nonzero">
            <g id="metal_deck" transform="translate(1129.000000, 654.000000)">
                <path d="M279.37,47.68 L279.79,16.89 C279.79,16.89 279.19,15.29 278.99,15.27 C278.79,15.25 278.17,16.77 278.17,16.77 L278.16,17.65 L228.98,14.45 L228.99,13.39 C228.99,13.39 228.03,11.33 227.72,11.31 C227.7,11.31 227.67,11.32 227.64,11.34 C227.61,11.32 227.58,11.3 227.56,11.3 C227.25,11.28 226.27,13.17 226.27,13.17 L226.26,14.28 L143.17,8.88 L143.17,6.92 C143.17,6.92 141.43,4.35 140.86,4.4 C140.61,4.42 140.12,4.99 139.66,5.61 C139.08,6.31 138.52,7.13 138.52,7.13 L138.52,8.67 L55.43,14.07 L55.42,12.96 C55.42,12.96 54.44,11.06 54.13,11.09 C54.11,11.09 54.08,11.11 54.05,11.13 C54.02,11.11 53.99,11.1 53.97,11.1 C53.66,11.12 52.7,13.18 52.7,13.18 L52.71,14.24 L6.95,17.21 L6.95,16.46 C6.95,16.46 5.01,14.79 4.38,14.77 C4.09,14.76 3.53,15.09 3.01,15.44 C2.89,15.21 2.77,15.03 2.7,15.04 C2.58,15.05 2.32,15.62 2.13,16.08 C1.95,16.22 1.84,16.31 1.84,16.31 L1.9,47.42 L1.6,47.39 L1.61,47.87 L0.35,47.94 L0.35,50.11 L1.23,50.06 L1.23,52 L1.03,52 L1.03,77.65 L12.1,77.65 L12.1,56.56 L107.75,68.46 L107.75,74.84 L116.86,74.84 L116.86,69.59 L133.91,71.71 L133.91,101.78 L148.41,101.78 L148.41,71.83 L269.54,56.75 L269.54,75.47 L279.46,75.47 L279.46,55.52 L279.5,55.52 L279.58,49.73 L280.03,49.69 L280.06,47.58 L279.37,47.68 Z M52.96,43.24 L31,44.3 L9.06,42.98 L37.58,41.78 L52.96,42.52 L52.96,43.24 Z M52.95,42 L43.11,41.55 L52.94,41.14 L52.95,42 Z M52.94,40.77 L38.77,41.35 L10.11,40.04 L48.31,38.73 L52.93,38.88 L52.94,40.77 Z M52.92,38.2 L50.45,38.28 L11.97,37.07 L52.9,36 L52.92,38.2 Z M52.89,34.73 L16.2,34.11 L52.87,33.44 L52.89,34.73 Z M52.86,31.09 L35.39,31.05 L52.86,30.87 L52.86,31.09 Z M52.81,25.35 L20,25.13 L52.79,24.32 L52.81,25.35 Z M52.78,22.77 L13.85,22.21 L52.76,20.68 L52.78,22.77 Z M52.73,16.74 L52.75,18.59 L30.25,17.98 L52.73,16.74 Z M6.95,19.35 L49.6,20.28 L6.95,22.05 L6.95,19.35 Z M6.95,22.52 L52.78,23.13 L52.79,23.8 L6.95,25.03 L6.95,22.52 Z M6.96,25.47 L52.81,25.72 L52.83,27.45 L8.77,27.99 L6.96,27.99 L6.96,25.47 Z M6.96,28.43 L10.2,28.4 L52.83,28.29 L52.85,30.5 L6.96,30.93 L6.96,28.43 Z M6.96,31.41 L52.86,31.61 L52.87,33.07 L6.96,33.86 L6.96,31.41 Z M6.97,34.38 L52.89,35.25 L52.89,35.64 L6.97,36.79 L6.97,34.38 Z M6.97,37.34 L42.72,38.54 L6.97,39.72 L6.97,37.34 Z M6.98,40.31 L33.27,41.57 L6.98,42.65 L6.98,40.31 Z M6.98,43.28 L26.74,44.51 L6.98,45.47 L6.98,43.28 Z M6.98,47.61 L6.98,46.88 L12.41,47.31 L6.98,47.61 Z M21.71,46.81 L14.21,46.25 L36.29,45.11 L44.05,45.59 L21.71,46.81 Z M48.4,45.36 L40.6,44.89 L52.97,44.25 L52.98,45.11 L48.4,45.36 Z M55.48,20.57 L58,20.47 L98.61,21.36 L98.59,22.58 L77.86,23.14 L55.51,22.82 L55.48,20.57 Z M83.97,19.45 L98.96,18.86 C98.77,19.04 98.64,19.18 98.64,19.18 L98.63,19.85 L83.97,19.45 Z M98.58,23.19 L98.58,23.43 L92.46,23.34 L98.58,23.19 Z M55.51,23.17 L69.4,23.36 L55.52,23.73 L55.51,23.17 Z M55.52,24.26 L83.97,23.56 L98.58,23.75 L98.55,25.65 L55.53,25.37 L55.52,24.26 Z M55.53,25.73 L98.55,25.96 L98.54,26.88 L55.55,27.41 L55.53,25.73 Z M98.53,27.5 L98.53,27.86 L57.53,27.92 L98.53,27.5 Z M55.55,28.28 L98.52,28.17 L98.49,30.07 L55.57,30.47 L55.55,28.28 Z M55.57,30.84 L98.48,30.39 L98.47,31.19 L55.57,31.09 L55.57,30.84 Z M55.58,31.62 L98.47,31.81 L98.46,32.29 L55.59,33.03 L55.58,31.62 Z M55.59,33.39 L98.45,32.6 L98.42,34.49 L74.49,35.09 L55.6,34.77 L55.59,33.39 Z M98.43,34.81 L98.42,35.5 L82.43,35.23 L98.43,34.81 Z M55.61,35.3 L61.7,35.42 L55.61,35.57 L55.61,35.3 Z M55.61,35.93 L69.58,35.56 L98.4,36.11 L98.39,36.7 L55.62,38.11 L55.61,35.93 Z M86.19,39.41 L56.08,38.47 L98.4,37.02 L98.37,38.91 L86.19,39.41 Z M98.37,39.22 L98.36,39.79 L90.66,39.55 L98.37,39.22 Z M55.64,38.97 L78.29,39.73 L55.66,40.66 L55.64,38.97 Z M55.66,41.02 L82.76,39.88 L98.36,40.4 L98.35,41.03 L66.08,42.6 L55.67,42.12 L55.66,41.02 Z M98.33,41.9 L98.32,42.64 L83.98,43.42 L76,43.06 L98.33,41.9 Z M55.67,42.65 L60.43,42.88 L55.68,43.11 L55.67,42.65 Z M55.68,44.1 L70.31,43.34 L78.29,43.72 L55.69,44.95 L55.68,44.1 Z M138.52,59.04 L55.75,52.01 L55.75,51.88 L62.85,51.34 L138.52,57.4 L138.52,59.04 Z M138.52,55.49 L72.73,50.6 L95.99,48.84 L138.53,51.5 L138.53,55.49 L138.52,55.49 Z M138.52,50.8 L100.44,48.5 L130.35,46.23 L138.52,46.62 L138.52,50.8 Z M115.98,40.99 L123.89,41.25 L101.31,42.48 L101.32,41.75 L115.98,40.99 Z M101.34,40.89 L101.35,40.5 L106.08,40.66 L101.34,40.89 Z M138.52,45.92 L135.92,45.8 L138.52,45.6 L138.52,45.92 Z M138.52,40.46 L131.67,40.83 L123.81,40.58 L138.53,39.82 L138.53,40.46 L138.52,40.46 Z M138.52,39.08 L113.94,40.27 L101.35,39.88 L101.36,39.09 L138.52,37.53 L138.52,39.08 Z M138.52,37.26 L101.37,38.78 L101.4,36.91 L115.45,36.43 L138.52,36.87 L138.52,37.26 Z M101.4,36.6 L101.41,36.17 L109.77,36.33 L101.4,36.6 Z M138.52,36.17 L128.16,36 L138.52,35.65 L138.52,36.17 Z M138.52,35.37 L122.53,35.9 L101.42,35.54 L101.43,34.72 L138.52,33.75 L138.52,35.37 Z M138.52,33.48 L101.43,34.41 L101.46,32.54 L133.29,31.96 L138.52,31.98 L138.52,33.48 Z M101.46,32.23 L101.47,31.82 L120.53,31.9 L101.46,32.23 Z M138.52,31.28 L101.47,31.19 L101.48,30.35 L138.51,29.96 L138.51,31.28 L138.52,31.28 Z M138.52,29.7 L101.49,30.05 L101.52,28.17 L138.52,28.08 L138.52,29.7 Z M138.52,27.8 L101.52,27.85 L101.53,27.46 L138.52,27.08 L138.52,27.8 Z M138.52,26.39 L101.53,26.84 L101.54,25.97 L138.51,26.17 L138.51,26.39 L138.52,26.39 Z M138.52,25.91 L101.55,25.67 L101.58,23.79 L138.52,24.28 L138.52,25.91 Z M138.52,24.01 L101.58,23.48 L101.58,23.12 L137.88,22.22 L138.51,22.23 L138.51,24.01 L138.52,24.01 Z M101.59,22.49 L101.6,21.42 L123.56,21.9 L101.59,22.49 Z M138.52,20.94 L101.63,19.93 L101.64,19.29 C101.64,19.29 101.43,19.04 101.16,18.77 L138.52,17.3 L138.52,20.94 Z M138.52,16.6 L100.5,18.17 C100.4,18.1 100.31,18.05 100.24,18.04 C100.21,18.04 100.18,18.05 100.15,18.06 C100.12,18.05 100.09,18.04 100.06,18.03 C99.98,18.03 99.85,18.09 99.71,18.19 L75.45,19.19 L55.48,18.64 L55.46,16.56 L138.53,11.99 L138.53,16.6 L138.52,16.6 Z M143.17,22.41 L155.85,22.72 L155.82,24.26 L143.17,24.08 L143.17,22.41 Z M143.17,24.34 L155.81,24.51 L155.78,26.02 L143.17,25.94 L143.17,24.34 Z M143.17,26.2 L155.77,26.27 L155.76,26.75 L143.17,26.6 L143.17,26.2 Z M143.17,27.3 L155.75,27.43 L155.74,27.78 L143.17,27.8 L143.17,27.3 Z M143.17,28.06 L155.73,28.03 L155.7,29.54 L143.17,29.66 L143.17,28.06 Z M143.17,29.92 L155.69,29.79 L155.66,31.3 L144.64,31.49 L143.16,31.49 L143.16,29.92 L143.17,29.92 Z M155.64,32.13 L155.62,33.05 L143.17,33.36 L143.17,32.18 L155.64,32.13 Z M143.17,38.86 L143.17,37.34 L154.46,36.86 L155.53,36.84 L155.5,38.26 L143.17,38.86 Z M155.48,38.95 L155.47,39.54 L143.17,40.21 L143.17,39.59 L155.48,38.95 Z M143.17,36.38 L143.17,35.49 L155.58,35.07 L155.55,36.18 L143.17,36.38 Z M143.17,35.22 L143.17,33.63 L155.62,33.3 L155.59,34.81 L143.17,35.22 Z M225.93,52.22 L143.16,59.25 L143.16,57.61 L225.94,50.98 L225.93,52.22 Z M225.96,49.54 L143.17,55.7 L143.17,51.7 L225.99,46.53 L225.96,49.54 Z M225.99,46 L143.17,51 L143.17,46.82 L226.02,42.85 L225.99,46 Z M226.02,42.33 L143.17,46.13 L143.17,45.26 L157.44,44.18 L157.5,41.48 L226.05,39.19 L226.02,42.33 Z M226.05,38.65 L157.52,40.8 L157.52,40.69 L158.01,40.66 L158.04,39.39 L157.26,39.43 L157.32,36.8 L226.08,35.5 L226.05,38.65 Z M226.08,34.98 L157.33,36.14 L157.42,32.13 L226.1,31.83 L226.08,34.98 Z M226.11,31.3 L157.44,31.46 L157.53,27.45 L226.14,28.15 L226.11,31.3 Z M226.14,27.62 L157.54,26.78 L157.63,22.77 L226.16,24.46 L226.14,27.62 Z M226.17,23.94 L157.65,22.1 L157.68,20.94 C157.68,20.94 157.02,19.98 156.8,19.98 C156.58,19.97 155.89,20.89 155.89,20.89 L155.88,21.42 L143.17,21.07 L143.17,17.51 L226.2,20.77 L226.17,23.94 Z M226.2,20.25 L143.16,16.81 L143.16,12.23 L226.23,16.8 L226.2,20.25 Z M228.95,16.95 L278.12,19.66 L278.08,22.4 L228.91,20.36 L228.95,16.95 Z M228.92,20.88 L278.08,22.81 L278.05,25.32 L228.89,24 L228.92,20.88 Z M228.89,24.53 L278.05,25.75 L278.02,28.26 L228.87,27.66 L228.89,24.53 Z M228.86,28.17 L278.01,28.67 L277.98,31.18 L228.84,31.29 L228.86,28.17 Z M228.82,31.81 L277.96,31.59 L277.93,34.1 L228.79,34.93 L228.82,31.81 Z M228.79,35.45 L277.92,34.52 L277.89,37.02 L228.76,38.56 L228.79,35.45 Z M228.76,39.09 L277.89,37.45 L277.86,39.96 L228.74,42.21 L228.76,39.09 Z M228.73,42.72 L277.85,40.37 L277.82,42.87 L228.71,45.84 L228.73,42.72 Z M228.7,46.36 L277.81,43.29 L277.78,45.69 L228.68,49.34 L228.7,46.36 Z M228.66,50.77 L277.76,46.84 L277.75,47.82 L228.65,51.99 L228.66,50.77 Z" id="Shape"></path>
            </g>
        </g>
    </g>
</svg>