<?xml version="1.0" encoding="UTF-8"?>
<svg width="264px" height="208px" viewBox="0 0 264 208" version="1.1" xmlns="http://www.w3.org/2000/svg" xmlns:xlink="http://www.w3.org/1999/xlink">
    <!-- Generator: Sketch 52.5 (67469) - http://www.bohemiancoding.com/sketch -->
    <title>metal_gates</title>
    <desc>Created with Sketch.</desc>
    <g id="Page-2" stroke="none" stroke-width="1" fill="none" fill-rule="evenodd">
        <g id="Desktop-HD-Copy" transform="translate(-260.000000, -124.000000)">
            <g id="metal_gates" transform="translate(260.000000, 124.000000)">
                <g id="Group">
                    <polygon id="Path" points="243.51 205.93 246.54 205.93 258.81 205.93 261.85 205.93 261.85 198.73 243.51 198.73"></polygon>
                    <rect id="Rectangle" x="2.25" y="9.39" width="18.34" height="7.2"></rect>
                    <path d="M252.68,6.09 C250.28,6.09 247.85,6.72 245.42,7.96 L259.93,7.96 C257.51,6.72 255.08,6.09 252.68,6.09 Z" id="Path"></path>
                    <polygon id="Path" points="2.25 205.93 5.29 205.93 17.56 205.93 20.6 205.93 20.6 198.73 2.25 198.73"></polygon>
                    <rect id="Rectangle" x="5.29" y="18.03" width="12.27" height="179.26"></rect>
                    <path d="M11.43,6.09 C9.03,6.09 6.6,6.72 4.17,7.96 L18.69,7.96 C16.26,6.72 13.82,6.09 11.43,6.09 Z" id="Path"></path>
                    <rect id="Rectangle" x="246.54" y="18.03" width="12.27" height="179.26"></rect>
                    <rect id="Rectangle" x="243.51" y="9.39" width="18.34" height="7.2"></rect>
                    <path d="M22.49,21.97 L22.49,24.45 C49,24.36 62.6,18.86 75.75,13.54 C89,8.18 102.71,2.64 129.39,2.52 L129.39,0.03 C102.92,0.13 89.34,5.63 76.21,10.95 C62.95,16.32 49.24,21.87 22.49,21.97 Z" id="Path" fill="#404040"></path>
                    <path d="M103.98,153.85 C104.79,152.1 106.11,150.58 107.73,149.44 L107.73,23.54 C104.36,24.05 101.25,24.67 98.34,25.37 L98.34,176.53 C101.36,178.12 104.46,179.56 107.73,180.2 L107.73,166.38 C106.8,165.88 105.96,165.21 105.26,164.39 C102.88,161.59 102.36,157.35 103.98,153.85 Z" id="Path" fill="#404040"></path>
                    <path d="M55,38.75 C58.36,37.89 61.46,36.94 64.39,35.92 L64.39,27.6 C63.5,27.3 62.86,26.46 62.86,25.47 C62.86,24.23 63.87,23.22 65.11,23.22 C66.35,23.22 67.36,24.23 67.36,25.47 C67.36,26.46 66.72,27.3 65.83,27.6 L65.83,35.41 C69.1,34.24 72.17,33 75.22,31.77 L75.22,15.32 C69.07,17.8 62.74,20.29 55,22.23 L55,38.75 Z" id="Path" fill="#404040"></path>
                    <path d="M115.54,166.71 C113.58,167.67 111.26,167.72 109.17,167.02 L109.17,180.44 C114.08,181.03 119.19,179.57 122.9,176.5 C126.76,173.31 129.09,168.29 129,163.42 C128.9,158.37 126.27,153.56 122.15,150.87 C119.29,149 115.87,148.26 112.77,148.85 C109.48,149.47 106.62,151.62 105.31,154.47 C103.95,157.42 104.38,161.12 106.38,163.47 C108.44,165.9 112.19,166.75 114.92,165.42 C116.71,164.55 117.92,162.86 118.02,161.12 C118.12,159.29 116.8,157.52 115.15,157.26 C114.33,157.13 113.41,157.46 112.74,158.12 C112.15,158.7 111.87,159.44 111.97,160.13 C112.03,160.52 111.76,160.89 111.36,160.95 C110.96,161.01 110.6,160.74 110.54,160.34 C110.37,159.19 110.8,158.01 111.72,157.1 C112.72,156.11 114.08,155.63 115.37,155.84 C117.76,156.21 119.59,158.62 119.46,161.2 C119.32,163.44 117.79,165.61 115.54,166.71 Z" id="Path" fill="#404040"></path>
                    <rect id="Rectangle" fill="#404040" x="98.34" y="183.03" width="9.39" height="5.91"></rect>
                    <rect id="Rectangle" fill="#404040" x="76.67" y="183.03" width="9.39" height="5.91"></rect>
                    <path d="M118.56,4.35 C110.68,4.89 104.11,5.97 98.33,7.37 L98.33,23.89 C101.24,23.2 104.35,22.59 107.72,22.08 L107.72,13.85 C106.83,13.55 106.19,12.71 106.19,11.72 C106.19,10.48 107.2,9.47 108.44,9.47 C109.68,9.47 110.69,10.48 110.69,11.72 C110.69,12.71 110.05,13.55 109.16,13.85 L109.16,21.88 C112.08,21.48 115.2,21.15 118.55,20.92 L118.55,4.35 L118.56,4.35 Z" id="Path" fill="#404040"></path>
                    <path d="M55,164.77 C55.31,164.57 55.64,164.39 55.98,164.23 C58.51,163.08 61.66,163.31 64,164.82 C64.13,164.91 64.26,165 64.39,165.09 L64.39,37.45 C61.46,38.46 58.36,39.4 55,40.24 L55,164.77 Z" id="Path" fill="#404040"></path>
                    <rect id="Rectangle" fill="#404040" x="55" y="183.03" width="9.39" height="5.91"></rect>
                    <rect id="Rectangle" fill="#404040" x="65.83" y="183.03" width="9.39" height="5.91"></rect>
                    <path d="M108.45,10.91 C108.01,10.91 107.65,11.27 107.65,11.71 C107.65,12.15 108.01,12.51 108.45,12.51 C108.89,12.51 109.25,12.15 109.25,11.71 C109.25,11.27 108.89,10.91 108.45,10.91 Z" id="Path" fill="#404040"></path>
                    <path d="M121.89,96.69 C119.37,96.88 117.07,98.87 116.66,101.22 C116.24,103.65 117.96,106.27 120.27,106.72 C121.56,106.97 123.24,106.47 123.84,105.19 C124.11,104.61 124.05,103.82 123.68,103.19 C123.38,102.68 122.93,102.36 122.44,102.33 C122.04,102.3 121.74,101.96 121.77,101.56 C121.8,101.16 122.14,100.87 122.54,100.89 C123.51,100.96 124.38,101.53 124.93,102.46 C125.54,103.5 125.63,104.78 125.15,105.8 C124.33,107.54 122.11,108.55 119.99,108.13 C116.9,107.53 114.68,104.18 115.24,100.96 C115.58,99.02 116.85,97.32 118.56,96.28 L118.56,22.36 C115.2,22.59 112.09,22.92 109.17,23.33 L109.17,148.56 C110.2,148.03 111.32,147.64 112.49,147.42 C114.46,147.05 116.55,147.15 118.56,147.69 C115.08,143.61 112.98,137.67 113.66,132.86 C114.43,127.38 117.36,121.84 122.36,116.39 C122.77,115.95 123.18,115.51 123.6,115.07 C125.72,112.82 127.92,110.5 128.9,107.65 C129.19,106.82 129.35,105.96 129.4,105.1 L129.4,103.98 C129.32,102.6 128.93,101.28 128.25,100.15 C126.89,97.9 124.34,96.51 121.89,96.69 Z" id="Path" fill="#404040"></path>
                    <path d="M120.01,92.56 L120.01,95.62 C120.58,95.43 121.17,95.3 121.78,95.25 C121.81,95.25 121.84,95.25 121.87,95.25 C121.12,94.45 120.5,93.54 120.01,92.56 Z" id="Path" fill="#404040"></path>
                    <path d="M124.62,87.59 C124.28,86.93 124.25,86.1 124.56,85.37 C124.85,84.68 125.39,84.18 126.05,83.98 C126.43,83.87 126.83,84.08 126.95,84.47 C127.06,84.85 126.85,85.25 126.46,85.37 C126.22,85.44 126.01,85.65 125.89,85.93 C125.75,86.26 125.75,86.64 125.9,86.91 C126.21,87.5 127.05,87.79 127.75,87.55 C128.45,87.31 129.01,86.59 129.14,85.76 C129.27,84.98 129.05,84.07 128.54,83.26 C127.77,82.05 126.42,81.25 125.1,81.24 C123.84,81.21 122.51,81.91 121.62,83.04 C120.6,84.34 120.31,85.93 120.25,87.03 C120.07,90.3 121.67,93.62 124.34,95.51 C126.36,96.07 128.22,97.41 129.39,99.26 L129.39,88.2 C129.05,88.52 128.65,88.77 128.21,88.92 C126.84,89.4 125.26,88.81 124.62,87.59 Z" id="Path" fill="#404040"></path>
                    <path d="M120.01,82.87 C120.16,82.62 120.32,82.38 120.49,82.16 C121.65,80.68 123.35,79.81 125.06,79.81 C125.08,79.81 125.11,79.81 125.13,79.81 C126.75,79.83 128.34,80.66 129.41,82 L129.41,21.98 C126.09,22 122.96,22.09 120.02,22.27 L120.02,82.87 L120.01,82.87 Z" id="Path" fill="#404040"></path>
                    <path d="M120.01,20.82 C122.95,20.65 126.08,20.55 129.4,20.53 L129.4,3.97 C126.08,3.99 122.95,4.08 120.01,4.26 L120.01,20.82 Z" id="Path" fill="#404040"></path>
                    <path d="M123.82,177.61 C121.44,179.58 118.52,180.94 115.42,181.58 L129.39,181.58 L129.39,169.64 C128.3,172.7 126.39,175.48 123.82,177.61 Z" id="Path" fill="#404040"></path>
                    <rect id="Rectangle" fill="#404040" x="120.01" y="183.03" width="9.39" height="5.91"></rect>
                    <rect id="Rectangle" fill="#404040" x="109.17" y="183.03" width="9.39" height="5.91"></rect>
                    <path d="M123.42,117.37 C118.62,122.6 115.81,127.88 115.09,133.07 C114.45,137.61 116.51,143.25 119.85,147.01 C119.58,145.89 119.49,144.75 119.54,143.77 C119.64,141.69 120.61,139.77 122.12,138.63 C123.83,137.34 126.16,137.14 127.9,138.12 C128.51,138.46 129.01,138.95 129.39,139.51 L129.39,110.06 C128.18,112.31 126.38,114.21 124.64,116.06 C124.23,116.5 123.82,116.93 123.42,117.37 Z" id="Path" fill="#404040"></path>
                    <path d="M124.75,144.45 C124.44,143.91 124.39,143.22 124.59,142.61 C124.79,142.03 125.2,141.57 125.72,141.35 C126.09,141.19 126.51,141.36 126.67,141.73 C126.83,142.1 126.66,142.52 126.29,142.68 C126.15,142.74 126.03,142.88 125.97,143.07 C125.89,143.3 125.91,143.55 126.01,143.74 C126.24,144.14 126.82,144.35 127.33,144.22 C127.85,144.08 128.33,143.63 128.58,143.04 C129.1,141.78 128.47,140.12 127.2,139.4 C125.96,138.7 124.24,138.87 123,139.8 C121.83,140.69 121.07,142.2 120.99,143.86 C120.91,145.4 121.24,148.37 122.98,149.71 C125.94,151.66 128.18,154.59 129.4,157.94 L129.4,144.47 C128.95,145.04 128.36,145.46 127.69,145.63 C126.54,145.9 125.31,145.41 124.75,144.45 Z" id="Path" fill="#404040"></path>
                    <rect id="Rectangle" fill="#404040" x="87.5" y="183.03" width="9.39" height="5.91"></rect>
                    <path d="M43.44,30.01 C43,30.01 42.64,30.37 42.64,30.81 C42.64,31.25 43,31.61 43.44,31.61 C43.88,31.61 44.24,31.25 44.24,30.81 C44.24,30.37 43.88,30.01 43.44,30.01 Z" id="Path" fill="#404040"></path>
                    <path d="M38.54,139.23 C37.78,139.27 37.05,139.71 36.53,140.44 C35.95,141.25 35.75,142.23 35.99,143.09 C36.46,144.79 38.45,145.98 40.33,145.69 C42.14,145.41 43.75,143.91 44.34,141.97 C44.88,140.18 44.59,138.07 43.55,136.17 C41.62,132.66 37.35,130.59 33.4,131.26 C33.38,131.26 33.35,131.27 33.33,131.27 L33.33,172.42 C33.82,172.88 34.32,173.33 34.83,173.75 C34.89,173.8 34.96,173.85 35.02,173.9 C37.37,175.82 39.97,177.39 42.72,178.57 L42.72,146.3 C42.05,146.71 41.32,146.99 40.56,147.11 C37.94,147.51 35.27,145.89 34.6,143.47 C34.25,142.2 34.53,140.75 35.36,139.6 C36.13,138.52 37.26,137.86 38.46,137.79 C38.86,137.77 39.2,138.07 39.22,138.47 C39.24,138.86 38.94,139.2 38.54,139.23 Z" id="Path" fill="#404040"></path>
                    <path d="M22.49,180.29 L22.49,181.58 L23.76,181.58 C23.25,181.24 22.82,180.8 22.49,180.29 Z" id="Path" fill="#404040"></path>
                    <path d="M33.33,115.41 C33.93,115.94 34.47,116.55 34.9,117.25 C36.4,119.66 36.67,122.81 35.61,125.67 C35.08,127.12 34.07,128.59 32.92,129.87 C33,129.85 33.08,129.84 33.16,129.82 C36.58,129.24 40.19,130.44 42.72,132.79 L42.72,42.6 C39.8,43 36.68,43.32 33.33,43.55 L33.33,115.41 Z" id="Path" fill="#404040"></path>
                    <path d="M53.55,22.58 C47.77,23.95 41.19,25 33.32,25.53 L33.32,42.09 C36.67,41.86 39.79,41.54 42.71,41.13 L42.71,32.94 C41.82,32.64 41.18,31.8 41.18,30.81 C41.18,29.57 42.19,28.56 43.43,28.56 C44.67,28.56 45.68,29.57 45.68,30.81 C45.68,31.8 45.04,32.64 44.15,32.94 L44.15,40.93 C47.52,40.42 50.63,39.8 53.54,39.11 L53.54,22.58 L53.55,22.58 Z" id="Path" fill="#404040"></path>
                    <path d="M29.85,132.58 C29.67,132.7 29.49,132.82 29.32,132.92 C29.31,132.92 29.31,132.92 29.3,132.93 C27.56,134.1 26.06,135.79 24.98,137.84 C23.43,140.81 22.73,144.52 22.89,148.88 C23.19,156.86 26.31,164.74 31.45,170.5 C31.59,170.66 31.74,170.8 31.88,170.96 L31.88,131.65 C31.18,131.87 30.5,132.19 29.85,132.58 Z" id="Path" fill="#404040"></path>
                    <path d="M27.35,113.46 C28.9,113.27 30.49,113.63 31.88,114.4 L31.88,43.63 C28.94,43.8 25.81,43.89 22.49,43.91 L22.49,116.51 C23.5,114.87 25.32,113.71 27.35,113.46 Z" id="Path" fill="#404040"></path>
                    <path d="M31.88,25.62 C28.94,25.79 25.81,25.88 22.49,25.9 L22.49,42.47 C25.81,42.46 28.94,42.36 31.88,42.19 L31.88,25.62 Z" id="Path" fill="#404040"></path>
                    <path d="M29.08,131.35 C31.26,129.87 33.5,127.21 34.25,125.16 C35.14,122.75 34.91,120 33.67,118 C32.36,115.89 29.83,114.61 27.52,114.89 C25.7,115.11 24.04,116.31 23.4,117.88 C22.73,119.53 23.21,121.53 24.53,122.55 C25.87,123.58 28.01,123.39 29.03,122.15 C29.59,121.46 29.76,120.54 29.45,119.86 C29.15,119.19 28.3,118.81 27.7,119.07 C27.43,119.19 27.22,119.5 27.17,119.85 C27.15,119.99 27.13,120.34 27.37,120.55 C27.67,120.81 27.71,121.27 27.45,121.57 C27.19,121.87 26.73,121.91 26.43,121.65 C25.88,121.18 25.63,120.43 25.74,119.65 C25.86,118.8 26.39,118.08 27.11,117.76 C28.43,117.18 30.13,117.89 30.76,119.27 C31.3,120.46 31.06,121.96 30.14,123.07 C28.63,124.91 25.6,125.2 23.64,123.69 C23.18,123.33 22.79,122.89 22.48,122.38 L22.48,140.1 C22.81,139.05 23.21,138.07 23.69,137.14 C25.01,134.67 26.9,132.66 29.08,131.35 Z" id="Path" fill="#404040"></path>
                    <path d="M28.67,181.58 L47.24,181.58 C42.62,180.47 38.22,178.3 34.44,175.29 C34.42,175.27 34.39,175.26 34.37,175.24 C34.27,175.16 34.18,175.08 34.08,175 C34.03,174.96 33.99,174.93 33.94,174.89 C32.01,173.39 30.1,173.05 28.8,173.03 C26.99,173.01 25.28,173.7 24.25,174.88 C23.14,176.14 22.87,178.02 23.6,179.35 C23.97,180.03 24.68,180.58 25.48,180.81 C26.2,181.02 26.91,180.96 27.49,180.64 C28.16,180.27 28.61,179.56 28.6,178.88 C28.6,178.2 28.11,177.56 27.51,177.44 C27.23,177.38 26.9,177.47 26.63,177.67 C26.4,177.84 26.25,178.07 26.23,178.31 C26.19,178.71 25.84,179 25.44,178.96 C25.04,178.92 24.75,178.57 24.79,178.17 C24.85,177.53 25.2,176.92 25.76,176.5 C26.36,176.05 27.1,175.88 27.79,176.02 C29.07,176.28 30.04,177.51 30.04,178.88 C30.06,179.91 29.53,180.92 28.67,181.58 Z" id="Path" fill="#404040"></path>
                    <path d="M96.89,175.76 L96.89,25.74 C93.53,26.6 90.43,27.57 87.5,28.59 L87.5,171.12 C90.34,172.19 93.05,173.67 95.71,175.12 C96.1,175.33 96.5,175.54 96.89,175.76 Z" id="Path" fill="#404040"></path>
                    <path d="M86.78,16.29 C86.34,16.29 85.98,16.65 85.98,17.09 C85.98,17.53 86.34,17.89 86.78,17.89 C87.22,17.89 87.58,17.53 87.58,17.09 C87.58,16.65 87.22,16.29 86.78,16.29 Z" id="Path" fill="#404040"></path>
                    <path d="M96.89,7.73 C89.16,9.71 82.85,12.24 76.66,14.74 L76.66,31.19 C79.7,29.96 82.78,28.73 86.05,27.56 L86.05,19.22 C85.16,18.92 84.52,18.08 84.52,17.09 C84.52,15.85 85.53,14.84 86.77,14.84 C88.01,14.84 89.02,15.85 89.02,17.09 C89.02,18.08 88.38,18.92 87.49,19.22 L87.49,27.05 C90.42,26.04 93.52,25.09 96.88,24.24 L96.88,7.73 L96.89,7.73 Z" id="Path" fill="#404040"></path>
                    <path d="M76.67,169.69 C78.05,169.5 79.5,169.46 81.02,169.58 C82.75,169.71 84.43,170.08 86.06,170.6 L86.06,29.09 C82.8,30.27 79.72,31.5 76.67,32.74 L76.67,169.69 Z" id="Path" fill="#404040"></path>
                    <path d="M65.65,177.8 C65.6,177.86 65.54,177.9 65.48,177.94 C64.59,178.98 63.49,179.89 62.21,180.59 C61.48,180.99 60.7,181.31 59.88,181.58 L107.27,181.58 C102.91,180.68 98.91,178.5 95.03,176.38 C90.35,173.82 85.94,171.41 80.92,171.02 C74.9,170.56 70.19,172.65 65.65,177.8 Z" id="Path" fill="#404040"></path>
                    <path d="M67.61,173.86 C70,171.85 72.49,170.57 75.23,169.95 L75.23,33.33 C72.19,34.56 69.11,35.79 65.84,36.95 L65.84,166.46 C67.1,167.97 67.86,169.92 67.86,171.88 C67.85,172.54 67.77,173.21 67.61,173.86 Z" id="Path" fill="#404040"></path>
                    <path d="M66.41,171.88 C66.41,169.58 65.16,167.28 63.22,166.04 C61.28,164.79 58.68,164.6 56.58,165.56 C55.03,166.26 53.86,167.54 53.45,168.97 C53.01,170.5 53.5,172.19 54.64,173.08 C55.81,173.99 57.63,173.88 58.54,172.85 C58.98,172.35 59.16,171.58 59.01,170.83 C58.88,170.16 58.5,169.62 57.98,169.37 C57.62,169.19 57.47,168.76 57.65,168.4 C57.83,168.04 58.26,167.89 58.62,168.07 C59.55,168.53 60.21,169.43 60.43,170.55 C60.67,171.74 60.37,172.96 59.62,173.8 C58.21,175.41 55.52,175.59 53.74,174.21 C52.15,172.97 51.45,170.65 52.05,168.56 C52.32,167.62 52.84,166.73 53.54,165.98 L53.54,40.59 C50.63,41.28 47.52,41.89 44.15,42.39 L44.15,134.43 C44.38,134.76 44.61,135.1 44.8,135.45 C46.03,137.68 46.36,140.2 45.71,142.36 C45.4,143.39 44.85,144.33 44.15,145.09 L44.15,179.13 C46.71,180.07 49.37,180.68 52.06,180.9 C55.84,181.2 59.01,180.67 61.5,179.32 C64.49,177.7 66.41,174.78 66.41,171.88 Z" id="Path" fill="#404040"></path>
                    <rect id="Rectangle" fill="#404040" x="44.16" y="183.03" width="9.39" height="5.91"></rect>
                    <circle id="Oval" fill="#404040" cx="65.11" cy="25.47" r="1"></circle>
                    <rect id="Rectangle" fill="#404040" x="33.33" y="183.03" width="9.39" height="5.91"></rect>
                    <rect id="Rectangle" fill="#404040" x="22.49" y="183.03" width="9.39" height="5.91"></rect>
                    <path d="M28.83,171.59 C29.38,171.6 30.01,171.65 30.7,171.8 C30.59,171.68 30.48,171.57 30.37,171.45 C26.56,167.18 23.87,161.97 22.49,156.34 L22.49,174.91 C22.68,174.57 22.91,174.24 23.17,173.94 C24.48,172.44 26.58,171.57 28.83,171.59 Z" id="Path" fill="#404040"></path>
                    <path d="M219.61,179.03 L219.61,145.04 C218.91,144.28 218.36,143.34 218.05,142.31 C217.4,140.15 217.73,137.64 218.96,135.41 C219.16,135.06 219.38,134.72 219.61,134.39 L219.61,42.46 C216.24,41.96 213.14,41.35 210.23,40.66 L210.23,165.88 C210.93,166.64 211.45,167.52 211.72,168.46 C212.32,170.54 211.62,172.86 210.03,174.1 C208.26,175.48 205.57,175.29 204.16,173.69 C203.42,172.85 203.12,171.63 203.35,170.44 C203.57,169.32 204.23,168.42 205.16,167.96 C205.52,167.78 205.95,167.93 206.13,168.29 C206.31,168.65 206.16,169.08 205.8,169.26 C205.28,169.52 204.91,170.05 204.77,170.72 C204.62,171.46 204.8,172.24 205.24,172.74 C206.15,173.77 207.97,173.88 209.14,172.97 C210.28,172.08 210.77,170.39 210.33,168.87 C209.92,167.44 208.75,166.17 207.2,165.47 C205.11,164.52 202.5,164.71 200.57,165.95 C198.64,167.19 197.39,169.49 197.38,171.78 C197.38,174.68 199.29,177.6 202.26,179.22 C204.74,180.57 207.92,181.1 211.69,180.8 C214.4,180.57 217.06,179.97 219.61,179.03 Z" id="Path" fill="#404040"></path>
                    <path d="M230.43,115.38 L230.43,43.61 C227.08,43.39 223.97,43.06 221.05,42.67 L221.05,132.74 C223.58,130.4 227.19,129.2 230.6,129.78 C230.68,129.79 230.76,129.81 230.84,129.83 C229.69,128.55 228.68,127.08 228.15,125.63 C227.1,122.77 227.37,119.63 228.86,117.22 C229.29,116.52 229.83,115.91 230.43,115.38 Z" id="Path" fill="#404040"></path>
                    <rect id="Rectangle" fill="#404040" x="199.41" y="182.91" width="9.38" height="5.9"></rect>
                    <path d="M229.66,174.9 C229.56,174.98 229.47,175.05 229.37,175.14 C229.35,175.16 229.33,175.17 229.3,175.19 C225.52,178.2 221.13,180.37 216.52,181.48 L235.07,181.48 C234.22,180.81 233.69,179.81 233.69,178.78 C233.69,177.41 234.66,176.18 235.94,175.93 C236.63,175.79 237.37,175.97 237.97,176.41 C238.53,176.83 238.88,177.43 238.94,178.07 C238.98,178.47 238.68,178.82 238.29,178.85 C237.89,178.89 237.54,178.59 237.51,178.2 C237.49,177.97 237.34,177.73 237.11,177.56 C236.84,177.36 236.52,177.28 236.23,177.33 C235.63,177.45 235.14,178.1 235.14,178.77 C235.14,179.45 235.59,180.15 236.25,180.52 C236.82,180.84 237.53,180.9 238.25,180.69 C239.05,180.46 239.76,179.91 240.13,179.23 C240.86,177.9 240.58,176.03 239.48,174.77 C238.45,173.59 236.76,172.9 234.93,172.92 C233.63,172.93 231.72,173.28 229.79,174.77 C229.76,174.83 229.71,174.86 229.66,174.9 Z" id="Path" fill="#404040"></path>
                    <path d="M238.76,137.78 C237.69,135.73 236.19,134.05 234.45,132.88 C234.44,132.88 234.44,132.88 234.43,132.87 C234.26,132.77 234.08,132.65 233.9,132.53 C233.25,132.14 232.57,131.83 231.87,131.59 L231.87,170.85 C232.01,170.7 232.16,170.55 232.3,170.39 C237.43,164.64 240.55,156.77 240.85,148.8 C241.01,144.45 240.31,140.74 238.76,137.78 Z" id="Path" fill="#404040"></path>
                    <path d="M148.32,166.61 C146.07,165.51 144.54,163.34 144.42,161.09 C144.28,158.51 146.12,156.11 148.5,155.74 C149.78,155.54 151.14,156.01 152.14,157 C153.06,157.91 153.49,159.09 153.32,160.24 C153.26,160.63 152.89,160.91 152.5,160.85 C152.11,160.79 151.83,160.43 151.89,160.03 C151.99,159.34 151.71,158.61 151.12,158.02 C150.45,157.36 149.53,157.03 148.72,157.16 C147.07,157.42 145.76,159.18 145.85,161.01 C145.94,162.75 147.15,164.43 148.94,165.31 C151.67,166.64 155.42,165.79 157.47,163.37 C159.46,161.02 159.9,157.33 158.54,154.38 C157.23,151.54 154.37,149.39 151.09,148.77 C148,148.19 144.58,148.92 141.72,150.79 C137.6,153.48 134.98,158.28 134.88,163.32 C134.78,168.19 137.11,173.2 140.97,176.39 C144.67,179.45 149.77,180.91 154.68,180.32 L154.68,166.92 C152.59,167.62 150.28,167.57 148.32,166.61 Z" id="Path" fill="#404040"></path>
                    <rect id="Rectangle" fill="#404040" x="156.12" y="182.91" width="9.38" height="5.9"></rect>
                    <path d="M219.43,141.89 C220.01,143.83 221.62,145.33 223.43,145.61 C225.31,145.9 227.29,144.71 227.77,143.02 C228.01,142.17 227.8,141.18 227.23,140.38 C226.71,139.66 225.98,139.22 225.22,139.18 C224.82,139.16 224.52,138.82 224.54,138.42 C224.56,138.02 224.91,137.72 225.3,137.74 C226.5,137.81 227.62,138.47 228.4,139.54 C229.23,140.7 229.51,142.14 229.16,143.41 C228.49,145.82 225.82,147.45 223.21,147.04 C222.45,146.92 221.72,146.64 221.05,146.23 L221.05,178.46 C223.8,177.29 226.4,175.72 228.74,173.8 C228.8,173.75 228.87,173.7 228.93,173.65 C229.44,173.22 229.94,172.78 230.43,172.32 L230.43,131.23 C230.41,131.23 230.38,131.22 230.36,131.22 C226.41,130.55 222.15,132.61 220.22,136.12 C219.18,137.99 218.89,140.1 219.43,141.89 Z" id="Path" fill="#404040"></path>
                    <rect id="Rectangle" fill="#404040" x="166.95" y="182.91" width="9.38" height="5.9"></rect>
                    <rect id="Rectangle" fill="#404040" x="188.59" y="182.91" width="9.38" height="5.9"></rect>
                    <rect id="Rectangle" fill="#404040" x="177.77" y="182.91" width="9.38" height="5.9"></rect>
                    <path d="M231.87,114.37 C233.26,113.6 234.85,113.25 236.4,113.44 C238.43,113.69 240.24,114.85 241.25,116.48 L241.25,43.97 C237.93,43.96 234.81,43.86 231.87,43.69 L231.87,114.37 Z" id="Path" fill="#404040"></path>
                    <path d="M233.6,123.05 C232.68,121.93 232.44,120.44 232.98,119.25 C233.61,117.86 235.31,117.15 236.63,117.74 C237.35,118.06 237.88,118.78 238,119.63 C238.12,120.41 237.86,121.16 237.31,121.63 C237.01,121.89 236.55,121.85 236.29,121.55 C236.03,121.25 236.07,120.79 236.37,120.53 C236.61,120.32 236.59,119.98 236.57,119.84 C236.52,119.48 236.31,119.18 236.04,119.06 C235.44,118.8 234.6,119.18 234.29,119.85 C233.98,120.53 234.15,121.45 234.71,122.14 C235.73,123.38 237.87,123.57 239.2,122.53 C240.52,121.51 241.01,119.51 240.33,117.86 C239.69,116.29 238.03,115.09 236.21,114.87 C233.9,114.59 231.38,115.87 230.07,117.98 C228.83,119.98 228.6,122.72 229.49,125.13 C230.24,127.17 232.48,129.83 234.66,131.31 C236.84,132.62 238.73,134.63 240.03,137.11 C240.51,138.03 240.91,139.02 241.24,140.06 L241.24,122.36 C240.93,122.86 240.54,123.31 240.08,123.66 C238.14,125.17 235.11,124.88 233.6,123.05 Z" id="Path" fill="#404040"></path>
                    <rect id="Rectangle" fill="#404040" x="145.3" y="182.91" width="9.38" height="5.9"></rect>
                    <path d="M233.05,171.7 C233.74,171.55 234.38,171.5 234.92,171.49 C237.14,171.48 239.26,172.34 240.57,173.83 C240.83,174.13 241.06,174.46 241.25,174.8 L241.25,156.26 C239.87,161.89 237.18,167.09 233.38,171.35 C233.27,171.47 233.16,171.58 233.05,171.7 Z" id="Path" fill="#404040"></path>
                    <path d="M134.48,0.16 L134.48,2.65 C161.13,2.77 174.82,8.3 188.06,13.65 C201.2,18.96 214.78,24.45 241.25,24.55 L241.25,22.07 C214.53,21.97 200.84,16.43 187.6,11.06 C174.48,5.75 160.92,0.25 134.48,0.16 Z" id="Path" fill="#404040"></path>
                    <path d="M231.87,42.25 C234.81,42.42 237.93,42.52 241.25,42.53 L241.25,25.99 C237.93,25.98 234.81,25.88 231.87,25.71 L231.87,42.25 Z" id="Path" fill="#404040"></path>
                    <rect id="Rectangle" fill="#404040" x="210.23" y="182.91" width="9.38" height="5.9"></rect>
                    <path d="M230.43,25.62 C222.58,25.09 216.01,24.04 210.23,22.68 L210.23,39.18 C213.13,39.88 216.24,40.49 219.61,41 L219.61,33.02 C218.72,32.72 218.09,31.88 218.09,30.9 C218.09,29.66 219.1,28.65 220.34,28.65 C221.58,28.65 222.59,29.66 222.59,30.9 C222.59,31.89 221.95,32.72 221.07,33.02 L221.07,41.2 C223.99,41.6 227.1,41.93 230.45,42.16 L230.45,25.62 L230.43,25.62 Z" id="Path" fill="#404040"></path>
                    <path d="M241.25,181.47 L241.25,180.18 C240.92,180.69 240.49,181.12 239.98,181.47 L241.25,181.47 Z" id="Path" fill="#404040"></path>
                    <path d="M221.13,30.9 C221.13,30.46 220.77,30.1 220.33,30.1 C219.89,30.1 219.53,30.46 219.53,30.9 C219.53,31.34 219.89,31.7 220.33,31.7 C220.77,31.7 221.13,31.34 221.13,30.9 Z" id="Path" fill="#404040"></path>
                    <rect id="Rectangle" fill="#404040" x="231.87" y="182.91" width="9.38" height="5.9"></rect>
                    <rect id="Rectangle" fill="#404040" x="221.05" y="182.91" width="9.38" height="5.9"></rect>
                    <path d="M155.4,11.02 C154.96,11.02 154.6,11.38 154.6,11.82 C154.6,12.26 154.96,12.62 155.4,12.62 C155.84,12.62 156.2,12.26 156.2,11.82 C156.21,11.38 155.85,11.02 155.4,11.02 Z" id="Path" fill="#404040"></path>
                    <path d="M177.04,16.39 C176.6,16.39 176.24,16.75 176.24,17.19 C176.24,17.63 176.6,17.99 177.04,17.99 C177.48,17.99 177.84,17.63 177.84,17.19 C177.85,16.75 177.49,16.39 177.04,16.39 Z" id="Path" fill="#404040"></path>
                    <path d="M140.28,115.04 C140.7,115.48 141.11,115.92 141.52,116.36 C146.52,121.8 149.44,127.34 150.21,132.81 C150.89,137.62 148.78,143.55 145.31,147.62 C147.32,147.08 149.4,146.97 151.37,147.35 C152.53,147.57 153.65,147.96 154.68,148.49 L154.68,23.42 C151.76,23.01 148.65,22.68 145.3,22.45 L145.3,96.29 C147.01,97.33 148.28,99.03 148.62,100.96 C149.18,104.17 146.96,107.51 143.87,108.12 C141.75,108.53 139.54,107.53 138.72,105.79 C138.24,104.78 138.33,103.5 138.94,102.45 C139.49,101.52 140.35,100.95 141.32,100.88 C141.72,100.86 142.06,101.15 142.09,101.55 C142.12,101.95 141.82,102.29 141.42,102.32 C140.93,102.35 140.48,102.67 140.18,103.18 C139.81,103.81 139.75,104.59 140.02,105.17 C140.62,106.45 142.3,106.95 143.59,106.7 C145.9,106.25 147.61,103.63 147.19,101.21 C146.78,98.86 144.49,96.87 141.97,96.69 C139.53,96.51 136.98,97.9 135.62,100.14 C134.94,101.27 134.55,102.59 134.47,103.97 L134.47,105.09 C134.52,105.94 134.69,106.8 134.97,107.63 C135.96,110.48 138.16,112.8 140.28,115.04 Z" id="Path" fill="#404040"></path>
                    <path d="M187.14,169.6 L187.14,32.82 C184.1,31.59 181.02,30.35 177.76,29.18 L177.76,170.51 C179.39,169.99 181.06,169.62 182.79,169.49 C184.32,169.37 185.76,169.41 187.14,169.6 Z" id="Path" fill="#404040"></path>
                    <path d="M166.95,175.65 C167.34,175.44 167.74,175.22 168.13,175.01 C170.78,173.56 173.49,172.08 176.33,171.01 L176.33,28.67 C173.4,27.65 170.31,26.69 166.95,25.83 L166.95,175.65 Z" id="Path" fill="#404040"></path>
                    <path d="M187.14,14.83 C180.96,12.33 174.66,9.81 166.94,7.83 L166.94,24.32 C170.3,25.17 173.39,26.12 176.32,27.12 L176.32,19.3 C175.43,19 174.8,18.16 174.8,17.17 C174.8,15.93 175.81,14.92 177.05,14.92 C178.29,14.92 179.3,15.93 179.3,17.17 C179.3,18.16 178.66,18.99 177.78,19.3 L177.78,27.62 C181.04,28.79 184.12,30.01 187.16,31.24 L187.16,14.83 L187.14,14.83 Z" id="Path" fill="#404040"></path>
                    <path d="M138.75,79.83 C138.77,79.83 138.8,79.83 138.82,79.83 C140.53,79.83 142.23,80.7 143.38,82.18 C143.55,82.4 143.71,82.64 143.86,82.89 L143.86,22.36 C140.92,22.19 137.8,22.09 134.48,22.07 L134.48,82.01 C135.55,80.68 137.13,79.85 138.75,79.83 Z" id="Path" fill="#404040"></path>
                    <path d="M143.86,4.38 C140.92,4.21 137.8,4.11 134.48,4.09 L134.48,20.63 C137.8,20.65 140.92,20.74 143.86,20.92 L143.86,4.38 Z" id="Path" fill="#404040"></path>
                    <path d="M142.09,95.25 C142.7,95.3 143.29,95.42 143.86,95.62 L143.86,92.56 C143.37,93.54 142.75,94.45 142,95.25 C142.03,95.25 142.06,95.25 142.09,95.25 Z" id="Path" fill="#404040"></path>
                    <path d="M203.92,181.47 C203.1,181.2 202.31,180.88 201.59,180.48 C200.32,179.79 199.21,178.88 198.32,177.83 C198.26,177.79 198.2,177.75 198.15,177.69 C193.61,172.54 188.91,170.45 182.91,170.92 C177.9,171.31 173.49,173.72 168.82,176.27 C164.95,178.39 160.95,180.57 156.6,181.46 L203.92,181.46 L203.92,181.47 Z" id="Path" fill="#404040"></path>
                    <path d="M139.52,95.52 C142.19,93.63 143.79,90.31 143.61,87.05 C143.55,85.95 143.26,84.37 142.24,83.07 C141.36,81.95 140.04,81.25 138.77,81.27 C137.46,81.29 136.11,82.08 135.34,83.29 C134.83,84.09 134.61,85 134.74,85.78 C134.88,86.61 135.44,87.32 136.13,87.56 C136.82,87.8 137.67,87.5 137.97,86.92 C138.11,86.64 138.12,86.27 137.98,85.94 C137.86,85.65 137.65,85.45 137.41,85.38 C137.03,85.27 136.81,84.86 136.92,84.48 C137.03,84.1 137.43,83.88 137.82,83.99 C138.48,84.19 139.02,84.69 139.31,85.37 C139.62,86.1 139.6,86.93 139.25,87.58 C138.61,88.8 137.03,89.39 135.66,88.92 C135.22,88.77 134.83,88.52 134.48,88.2 L134.48,99.24 C135.65,97.41 137.5,96.07 139.52,95.52 Z" id="Path" fill="#404040"></path>
                    <path d="M188.59,169.85 C191.32,170.47 193.81,171.75 196.2,173.75 C196.04,173.1 195.96,172.43 195.96,171.77 C195.96,169.81 196.72,167.86 197.98,166.35 L197.98,37.02 C194.71,35.86 191.64,34.63 188.6,33.41 L188.6,169.85 L188.59,169.85 Z" id="Path" fill="#404040"></path>
                    <path d="M140.9,149.61 C142.63,148.28 142.96,145.31 142.89,143.77 C142.81,142.12 142.06,140.6 140.88,139.72 C139.64,138.79 137.92,138.62 136.68,139.32 C135.41,140.04 134.78,141.7 135.3,142.96 C135.55,143.55 136.02,144.01 136.55,144.14 C137.06,144.27 137.64,144.06 137.87,143.66 C137.97,143.48 137.99,143.22 137.91,143 C137.85,142.81 137.73,142.67 137.59,142.61 C137.22,142.45 137.05,142.03 137.21,141.66 C137.37,141.29 137.79,141.12 138.16,141.28 C138.68,141.5 139.09,141.96 139.28,142.54 C139.49,143.16 139.43,143.84 139.12,144.38 C138.57,145.35 137.34,145.84 136.19,145.54 C135.53,145.37 134.93,144.95 134.48,144.38 L134.48,157.83 C135.7,154.49 137.94,151.56 140.9,149.61 Z" id="Path" fill="#404040"></path>
                    <path d="M135.97,138.07 C137.72,137.08 140.04,137.28 141.74,138.57 C143.25,139.71 144.21,141.63 144.32,143.7 C144.37,144.67 144.28,145.82 144.01,146.93 C147.35,143.17 149.41,137.55 148.77,133.01 C148.04,127.83 145.24,122.56 140.45,117.33 C140.05,116.89 139.64,116.46 139.23,116.02 C137.48,114.17 135.69,112.28 134.48,110.03 L134.48,139.44 C134.86,138.89 135.37,138.41 135.97,138.07 Z" id="Path" fill="#404040"></path>
                    <path d="M140.05,177.5 C137.48,175.38 135.57,172.59 134.48,169.54 L134.48,181.47 L148.44,181.47 C145.35,180.83 142.43,179.47 140.05,177.5 Z" id="Path" fill="#404040"></path>
                    <path d="M145.3,21.01 C148.65,21.24 151.76,21.56 154.68,21.97 L154.68,13.95 C153.79,13.65 153.16,12.81 153.16,11.82 C153.16,10.58 154.17,9.57 155.41,9.57 C156.65,9.57 157.66,10.58 157.66,11.82 C157.66,12.81 157.02,13.64 156.14,13.95 L156.14,22.17 C159.51,22.68 162.61,23.29 165.52,23.98 L165.52,7.48 C159.75,6.09 153.19,5.01 145.32,4.47 L145.32,21.01 L145.3,21.01 Z" id="Path" fill="#404040"></path>
                    <path d="M207.8,164.14 C208.14,164.3 208.47,164.48 208.78,164.68 L208.78,40.31 C205.42,39.47 202.33,38.52 199.4,37.52 L199.4,165 C199.53,164.91 199.66,164.82 199.79,164.73 C202.13,163.23 205.27,163 207.8,164.14 Z" id="Path" fill="#404040"></path>
                    <path d="M198.69,24.76 C198.25,24.76 197.89,25.12 197.89,25.56 C197.89,26 198.25,26.36 198.69,26.36 C199.13,26.36 199.49,26 199.49,25.56 C199.49,25.12 199.13,24.76 198.69,24.76 Z" id="Path" fill="#404040"></path>
                    <path d="M208.79,22.33 C201.06,20.39 194.74,17.9 188.59,15.42 L188.59,31.85 C191.63,33.08 194.71,34.31 197.97,35.49 L197.97,27.69 C197.08,27.39 196.45,26.55 196.45,25.56 C196.45,24.32 197.46,23.31 198.7,23.31 C199.94,23.31 200.95,24.32 200.95,25.56 C200.95,26.55 200.31,27.38 199.43,27.69 L199.43,36 C202.36,37.02 205.45,37.97 208.81,38.83 L208.81,22.33 L208.79,22.33 Z" id="Path" fill="#404040"></path>
                    <path d="M156.12,166.29 L156.12,180.09 C159.38,179.45 162.49,178.01 165.5,176.42 L165.5,25.47 C162.6,24.77 159.49,24.15 156.12,23.64 L156.12,149.38 C157.74,150.52 159.05,152.04 159.86,153.78 C161.48,157.27 160.96,161.5 158.59,164.31 C157.9,165.13 157.05,165.79 156.12,166.29 Z" id="Path" fill="#404040"></path>
                    <rect id="Rectangle" fill="#404040" x="134.48" y="182.91" width="9.38" height="5.9"></rect>
                    <path d="M19,18.03 L22.04,18.03 L22.04,8.29 L22.04,7.96 L21.53,7.96 C18.19,5.77 14.79,4.65 11.43,4.65 C8.07,4.65 4.67,5.76 1.33,7.96 L0.82,7.96 L0.82,8.29 L0.82,18.03 L3.86,18.03 L3.86,197.3 L0.82,197.3 L0.82,207.37 L3.86,207.37 L19,207.37 L22.04,207.37 L22.04,197.3 L19,197.3 L19,18.03 Z M11.43,6.09 C13.83,6.09 16.26,6.72 18.69,7.96 L4.17,7.96 C6.59,6.72 9.03,6.09 11.43,6.09 Z M2.25,16.6 L2.25,9.4 L20.6,9.4 L20.6,16.6 L2.25,16.6 Z M17.56,18.03 L17.56,197.3 L5.29,197.3 L5.29,18.03 L17.56,18.03 Z M20.6,198.73 L20.6,205.93 L17.56,205.93 L5.29,205.93 L2.25,205.93 L2.25,198.73 L20.6,198.73 Z" id="Shape" fill="#404040" fill-rule="nonzero"></path>
                    <path d="M262.78,7.96 C259.44,5.77 256.04,4.65 252.68,4.65 C249.32,4.65 245.92,5.76 242.58,7.96 L242.07,7.96 L242.07,18.03 L245.11,18.03 L245.11,197.3 L242.07,197.3 L242.07,207.37 L245.11,207.37 L260.25,207.37 L263.29,207.37 L263.29,197.3 L260.25,197.3 L260.25,18.03 L263.29,18.03 L263.29,8.29 L263.29,7.96 L262.78,7.96 Z M252.68,6.09 C255.08,6.09 257.51,6.72 259.94,7.96 L245.43,7.96 C247.85,6.72 250.28,6.09 252.68,6.09 Z M261.85,198.73 L261.85,205.93 L258.81,205.93 L246.54,205.93 L243.5,205.93 L243.5,198.73 L261.85,198.73 Z M246.54,197.3 L246.54,18.03 L258.81,18.03 L258.81,197.3 L246.54,197.3 Z M261.85,16.6 L243.51,16.6 L243.51,9.4 L261.85,9.4 L261.85,16.6 Z" id="Shape" fill="#404040" fill-rule="nonzero"></path>
                </g>
            </g>
        </g>
    </g>
</svg>