<?xml version="1.0" encoding="utf-8"?>
<!-- Generator: Adobe Illustrator 24.0.0, SVG Export Plug-In . SVG Version: 6.00 Build 0)  -->
<svg version="1.1" id="Layer_1" xmlns="http://www.w3.org/2000/svg" xmlns:xlink="http://www.w3.org/1999/xlink" x="0px" y="0px"
	 viewBox="0 0 288 288" style="enable-background:new 0 0 288 288;" xml:space="preserve">
<style type="text/css">
	.st0{display:none;}
	.st1{fill:#404040;}
</style>
<g id="gGr0at_1_" class="st0">
	
		<image style="display:inline;overflow:visible;enable-background:new    ;" width="533" height="203" id="gGr0at" xlink:href="A3D5211695A8C95.jpeg"  transform="matrix(0.4406 0 0 0.4406 23.0905 107)">
	</image>
</g>
<g>
	<g>
		<polygon class="st1" points="12.7,110.4 176.1,103.1 175.9,101.2 12.8,107.2 		"/>
		<polygon class="st1" points="12.3,123.3 176.6,110.9 176.4,108.9 12.4,120.1 		"/>
		<polygon class="st1" points="8.9,243.9 181.2,181.7 181.1,179.5 9,240.2 		"/>
		<polygon class="st1" points="8.4,258.9 181.7,190.2 181.6,188 8.5,255.1 		"/>
		<g>
			<g>
				<polygon class="st1" points="34.2,263.3 38.1,261.6 40.3,91.2 36.8,91.2 				"/>
				<path class="st1" d="M32.1,87.5c0,3,2.8,6.3,6.4,6.3c3.5,0,6.3-3.3,6.4-6.2c0-2.8-6.1-13.8-6.1-13.8S32.2,84.6,32.1,87.5z"/>
			</g>
			<g>
				<polygon class="st1" points="136.8,218.8 139,217.9 133.8,91.3 131.7,91.3 				"/>
				<path class="st1" d="M128.9,88.5c0.1,2.2,1.9,4.8,3.9,4.8c2,0,3.5-2.5,3.4-4.7c-0.1-2.2-4.1-10.5-4.1-10.5
					S128.8,86.3,128.9,88.5z"/>
			</g>
			<g>
				<polygon class="st1" points="127,223.1 129.3,222.1 124.6,91.3 122.4,91.3 				"/>
				<path class="st1" d="M119.5,88.4c0.1,2.3,2,4.9,4.1,4.9c2.2,0,3.8-2.6,3.7-4.8c-0.1-2.2-4.2-10.8-4.2-10.8
					S119.4,86.1,119.5,88.4z"/>
			</g>
			<g>
				<polygon class="st1" points="116.5,227.6 119,226.6 114.9,91.3 112.6,91.3 				"/>
				<path class="st1" d="M109.4,88.3c0.1,2.4,2,5.1,4.4,5.1c2.3,0,4-2.7,4-5c-0.1-2.3-4.4-11.2-4.4-11.2S109.3,85.9,109.4,88.3z"/>
			</g>
			<g>
				<polygon class="st1" points="105.2,232.5 107.9,231.4 104.5,91.3 102,91.3 				"/>
				<path class="st1" d="M98.7,88.2c0.1,2.5,2.2,5.3,4.6,5.3c2.4,0,4.3-2.8,4.3-5.2c-0.1-2.4-4.7-11.6-4.7-11.6S98.6,85.8,98.7,88.2
					z"/>
			</g>
			<g>
				<polygon class="st1" points="80.1,243.4 83.2,242.1 81.5,91.2 78.7,91.2 				"/>
				<path class="st1" d="M74.9,88c0,2.6,2.4,5.7,5.2,5.6c2.8,0,5-3,5-5.5c0-2.6-5.1-12.4-5.1-12.4S74.9,85.3,74.9,88z"/>
			</g>
			<g>
				<polygon class="st1" points="66,249.5 69.4,248.1 68.8,91.2 65.8,91.2 				"/>
				<path class="st1" d="M61.7,87.8c0,2.7,2.5,5.9,5.6,5.8c3,0,5.4-3.1,5.4-5.7c0-2.7-5.4-12.8-5.4-12.8S61.7,85.1,61.7,87.8z"/>
			</g>
			<g>
				<polygon class="st1" points="50.8,256.1 54.4,254.6 55.1,91.2 51.8,91.2 				"/>
				<path class="st1" d="M47.5,87.7c0,2.8,2.7,6.1,6,6.1c3.2,0,5.8-3.2,5.8-5.9c0-2.8-5.7-13.3-5.7-13.3S47.5,84.8,47.5,87.7z"/>
			</g>
			<g>
				<polygon class="st1" points="162.8,207.6 164.6,206.8 158.2,91.3 156.5,91.3 				"/>
				<path class="st1" d="M154.1,88.8c0.1,2.1,1.6,4.4,3.4,4.4c1.7,0,2.9-2.3,2.8-4.3c-0.1-2-3.6-9.7-3.6-9.7S154,86.7,154.1,88.8z"
					/>
			</g>
			<g>
				<polygon class="st1" points="93.2,237.8 96,236.5 93.4,91.2 90.8,91.2 				"/>
				<path class="st1" d="M87.2,88.1c0,2.6,2.3,5.5,4.9,5.4c2.6,0,4.6-2.9,4.6-5.3c-0.1-2.5-4.9-11.9-4.9-11.9S87.2,85.6,87.2,88.1z"
					/>
			</g>
			<g>
				<polygon class="st1" points="154.7,211.1 156.6,210.3 150.5,91.3 148.7,91.3 				"/>
				<path class="st1" d="M146.2,88.7c0.1,2.1,1.7,4.5,3.5,4.5c1.8,0,3.1-2.4,3-4.4c-0.1-2.1-3.7-9.9-3.7-9.9S146.1,86.6,146.2,88.7z
					"/>
			</g>
			<g>
				<polygon class="st1" points="146,214.8 148.1,214 142.4,91.3 140.5,91.3 				"/>
				<path class="st1" d="M137.8,88.6c0.1,2.2,1.8,4.7,3.7,4.6c1.9,0,3.3-2.4,3.2-4.6c-0.1-2.1-3.9-10.2-3.9-10.2
					S137.7,86.4,137.8,88.6z"/>
			</g>
			<g>
				<polygon class="st1" points="170.5,204.2 172.2,203.5 165.5,91.3 163.9,91.3 				"/>
				<path class="st1" d="M161.6,88.9c0.1,2,1.6,4.3,3.2,4.3c1.6,0,2.8-2.2,2.6-4.2c-0.1-1.9-3.5-9.4-3.5-9.4S161.5,86.9,161.6,88.9z
					"/>
			</g>
		</g>
	</g>
	<g>
		<polygon class="st1" points="161.5,103.7 240.1,100.2 240,98.8 161.4,101.7 		"/>
		<polygon class="st1" points="162,112 240.7,106 240.6,104.6 161.9,109.9 		"/>
		<polygon class="st1" points="166.2,187.1 246.1,158.2 245.9,156.7 166.1,184.8 		"/>
		<polygon class="st1" points="166.8,196.1 246.7,164.4 246.6,162.9 166.6,193.8 		"/>
		<g>
			<g>
				<polygon class="st1" points="177.7,201.1 179.3,200.4 172.4,91.3 170.8,91.3 				"/>
				<path class="st1" d="M168.6,88.9c0.1,1.9,1.5,4.2,3.1,4.2c1.5,0,2.6-2.2,2.5-4.1c-0.1-1.9-3.3-9.2-3.3-9.2S168.5,87,168.6,88.9z
					"/>
			</g>
			<g>
				<polygon class="st1" points="223.8,181.1 224.8,180.7 216.9,91.4 215.8,91.4 				"/>
				<path class="st1" d="M214.2,89.4c0.1,1.6,1.2,3.4,2.2,3.4c1.1,0,1.7-1.8,1.6-3.4c-0.1-1.6-2.6-7.6-2.6-7.6
					S214.1,87.8,214.2,89.4z"/>
			</g>
			<g>
				<polygon class="st1" points="219,183.2 220.1,182.8 212.1,91.4 211.1,91.4 				"/>
				<path class="st1" d="M209.4,89.4c0.1,1.6,1.2,3.5,2.3,3.5c1.1,0,1.8-1.8,1.7-3.5c-0.1-1.6-2.6-7.7-2.6-7.7
					S209.3,87.7,209.4,89.4z"/>
			</g>
			<g>
				<polygon class="st1" points="213.9,185.4 215.1,184.9 207.2,91.4 206.1,91.4 				"/>
				<path class="st1" d="M204.4,89.3c0.1,1.7,1.2,3.6,2.4,3.6c1.1,0,1.9-1.9,1.8-3.5c-0.1-1.6-2.7-7.9-2.7-7.9
					S204.2,87.6,204.4,89.3z"/>
			</g>
			<g>
				<polygon class="st1" points="208.6,187.7 209.9,187.2 202.1,91.4 200.9,91.4 				"/>
				<path class="st1" d="M199.1,89.3c0.1,1.7,1.3,3.7,2.5,3.7c1.2,0,2-1.9,1.9-3.6c-0.1-1.7-2.8-8.1-2.8-8.1S199,87.6,199.1,89.3z"
					/>
			</g>
			<g>
				<polygon class="st1" points="197.2,192.7 198.6,192.1 191.1,91.4 189.7,91.4 				"/>
				<path class="st1" d="M187.8,89.1c0.1,1.8,1.4,3.9,2.7,3.8c1.3,0,2.2-2,2.1-3.8c-0.1-1.8-3-8.5-3-8.5S187.7,87.3,187.8,89.1z"/>
			</g>
			<g>
				<polygon class="st1" points="191.1,195.3 192.5,194.7 185.1,91.4 183.8,91.4 				"/>
				<path class="st1" d="M181.8,89.1c0.1,1.8,1.4,3.9,2.8,3.9c1.4,0,2.3-2.1,2.2-3.9c-0.1-1.8-3.1-8.7-3.1-8.7
					S181.6,87.2,181.8,89.1z"/>
			</g>
			<g>
				<polygon class="st1" points="184.6,198.1 186.1,197.5 178.9,91.4 177.4,91.3 				"/>
				<path class="st1" d="M175.4,89c0.1,1.9,1.5,4.1,2.9,4.1c1.4,0,2.5-2.1,2.4-4c-0.1-1.8-3.2-8.9-3.2-8.9S175.2,87.1,175.4,89z"/>
			</g>
			<g>
				<polygon class="st1" points="237,175.4 237.9,175 229.8,91.4 228.9,91.4 				"/>
				<path class="st1" d="M227.5,89.6c0.1,1.5,1.1,3.2,2,3.2c0.9,0,1.5-1.7,1.4-3.2c-0.1-1.5-2.4-7.1-2.4-7.1S227.3,88.1,227.5,89.6z
					"/>
			</g>
			<g>
				<polygon class="st1" points="203.1,190.1 204.4,189.6 196.7,91.4 195.4,91.4 				"/>
				<path class="st1" d="M193.6,89.2c0.1,1.8,1.3,3.8,2.6,3.8c1.3,0,2.1-2,2-3.7c-0.1-1.7-2.9-8.3-2.9-8.3S193.5,87.4,193.6,89.2z"
					/>
			</g>
			<g>
				<polygon class="st1" points="232.8,177.2 233.8,176.8 225.7,91.4 224.7,91.4 				"/>
				<path class="st1" d="M223.2,89.5c0.1,1.5,1.1,3.3,2.1,3.3c1,0,1.6-1.7,1.4-3.2c-0.1-1.5-2.4-7.3-2.4-7.3S223.1,88,223.2,89.5z"
					/>
			</g>
			<g>
				<polygon class="st1" points="228.4,179.2 229.4,178.7 221.4,91.4 220.4,91.4 				"/>
				<path class="st1" d="M218.8,89.5c0.1,1.6,1.1,3.4,2.1,3.4c1,0,1.6-1.8,1.5-3.3c-0.1-1.5-2.5-7.4-2.5-7.4S218.7,87.9,218.8,89.5z
					"/>
			</g>
			<g>
				<polygon class="st1" points="241,173.7 241.9,173.3 233.8,91.4 232.9,91.4 				"/>
				<path class="st1" d="M231.6,89.6c0.1,1.5,1,3.2,1.9,3.2c0.9,0,1.4-1.7,1.3-3.1c-0.1-1.4-2.3-7-2.3-7S231.4,88.1,231.6,89.6z"/>
			</g>
		</g>
	</g>
	<g>
		<polygon class="st1" points="232.1,100.6 278.4,98.5 278.3,97.3 232,99.1 		"/>
		<polygon class="st1" points="232.7,106.6 279,103.1 278.9,102 232.6,105.1 		"/>
		<polygon class="st1" points="238,161.1 284.1,144.5 284,143.2 237.9,159.5 		"/>
		<polygon class="st1" points="238.7,167.6 284.8,149.3 284.6,148.1 238.5,166 		"/>
		<g>
			<g>
				<polygon class="st1" points="244.9,172 245.8,171.6 237.6,91.4 236.8,91.4 				"/>
				<path class="st1" d="M235.4,89.6c0.1,1.4,1,3.1,1.9,3.1c0.9,0,1.4-1.6,1.2-3.1c-0.1-1.4-2.2-6.8-2.2-6.8S235.3,88.2,235.4,89.6z
					"/>
			</g>
			<g>
				<polygon class="st1" points="271,160.7 271.6,160.4 263.6,91.5 262.9,91.5 				"/>
				<path class="st1" d="M261.9,89.9c0.1,1.2,0.8,2.7,1.5,2.7s1-1.4,0.8-2.7c-0.1-1.2-1.8-5.9-1.8-5.9S261.8,88.7,261.9,89.9z"/>
			</g>
			<g>
				<polygon class="st1" points="268.1,161.9 268.8,161.6 260.7,91.5 260,91.5 				"/>
				<path class="st1" d="M259,89.9c0.1,1.3,0.9,2.7,1.5,2.7c0.7,0,1-1.4,0.9-2.7c-0.1-1.2-1.9-6-1.9-6S258.9,88.6,259,89.9z"/>
			</g>
			<g>
				<polygon class="st1" points="265.2,163.2 265.9,162.9 257.8,91.5 257.1,91.4 				"/>
				<path class="st1" d="M256,89.8c0.2,1.3,0.9,2.8,1.6,2.8c0.7,0,1.1-1.5,0.9-2.7c-0.1-1.3-1.9-6.1-1.9-6.1S255.8,88.6,256,89.8z"
					/>
			</g>
			<g>
				<polygon class="st1" points="262.1,164.5 262.8,164.2 254.7,91.4 254,91.4 				"/>
				<path class="st1" d="M252.9,89.8c0.1,1.3,0.9,2.8,1.6,2.8s1.1-1.5,1-2.8c-0.1-1.3-2-6.2-2-6.2S252.7,88.5,252.9,89.8z"/>
			</g>
			<g>
				<polygon class="st1" points="255.6,167.4 256.4,167 248.2,91.4 247.5,91.4 				"/>
				<path class="st1" d="M246.3,89.8c0.1,1.4,0.9,2.9,1.7,2.9c0.8,0,1.2-1.6,1.1-2.9c-0.1-1.3-2.1-6.5-2.1-6.5
					S246.1,88.4,246.3,89.8z"/>
			</g>
			<g>
				<polygon class="st1" points="252.2,168.8 253,168.5 244.8,91.4 244,91.4 				"/>
				<path class="st1" d="M242.8,89.7c0.1,1.4,1,3,1.8,3s1.3-1.6,1.1-2.9c-0.1-1.4-2.1-6.6-2.1-6.6S242.7,88.3,242.8,89.7z"/>
			</g>
			<g>
				<polygon class="st1" points="248.6,170.4 249.4,170 241.3,91.4 240.5,91.4 				"/>
				<path class="st1" d="M239.2,89.7c0.1,1.4,1,3,1.8,3c0.8,0,1.3-1.6,1.2-3C242,88.3,240,83,240,83S239.1,88.3,239.2,89.7z"/>
			</g>
			<g>
				<polygon class="st1" points="279,157.2 279.5,157 271.6,91.5 271,91.5 				"/>
				<path class="st1" d="M270.1,90c0.1,1.2,0.8,2.6,1.4,2.6c0.6,0,0.9-1.3,0.7-2.5s-1.7-5.6-1.7-5.6S269.9,88.8,270.1,90z"/>
			</g>
			<g>
				<polygon class="st1" points="258.9,165.9 259.6,165.6 251.5,91.4 250.8,91.4 				"/>
				<path class="st1" d="M249.6,89.8c0.1,1.3,0.9,2.9,1.7,2.9s1.2-1.5,1-2.8c-0.1-1.3-2-6.3-2-6.3S249.5,88.4,249.6,89.8z"/>
			</g>
			<g>
				<polygon class="st1" points="276.4,158.4 277,158.1 269,91.5 268.4,91.5 				"/>
				<path class="st1" d="M267.4,90c0.1,1.2,0.8,2.6,1.4,2.6s0.9-1.4,0.8-2.6c-0.1-1.2-1.8-5.7-1.8-5.7S267.3,88.8,267.4,90z"/>
			</g>
			<g>
				<polygon class="st1" points="273.7,159.5 274.3,159.2 266.3,91.5 265.7,91.5 				"/>
				<path class="st1" d="M264.7,89.9c0.1,1.2,0.8,2.6,1.4,2.6s1-1.4,0.8-2.6c-0.1-1.2-1.8-5.8-1.8-5.8S264.6,88.7,264.7,89.9z"/>
			</g>
			<g>
				<polygon class="st1" points="281.4,156.2 282,155.9 274.1,91.5 273.5,91.5 				"/>
				<path class="st1" d="M272.6,90c0.1,1.2,0.8,2.5,1.3,2.5s0.9-1.3,0.7-2.5s-1.7-5.6-1.7-5.6S272.5,88.9,272.6,90z"/>
			</g>
		</g>
	</g>
</g>
</svg>
