<?xml version="1.0" encoding="utf-8"?>
<!-- Generator: Adobe Illustrator 24.0.0, SVG Export Plug-In . SVG Version: 6.00 Build 0)  -->
<svg version="1.1" id="Layer_1" xmlns="http://www.w3.org/2000/svg" xmlns:xlink="http://www.w3.org/1999/xlink" x="0px" y="0px"
	 viewBox="0 0 288 288" style="enable-background:new 0 0 288 288;" xml:space="preserve">
<style type="text/css">
	.st0{display:none;}
	.st1{fill:#404040;}
</style>
<g id="gGr0at_1_" class="st0">
	
		<image style="display:inline;overflow:visible;enable-background:new    ;" width="530" height="201" id="gGr0at" xlink:href="E3E08CE1A1A909CA.jpeg"  transform="matrix(0.445 0 0 0.445 22.5896 107)">
	</image>
</g>
<g>
	<g>
		<rect x="13" y="88.9" class="st1" width="255.9" height="4"/>
	</g>
	<g>
		<rect x="9.1" y="88.9" class="st1" width="7.9" height="113.3"/>
	</g>
	<g>
		<rect x="265" y="88.9" class="st1" width="7.9" height="113.2"/>
	</g>
	<g>
		<rect x="136.7" y="89.5" class="st1" width="7.9" height="112.7"/>
	</g>
	<g>
		<rect x="13" y="103.5" class="st1" width="252.9" height="4"/>
	</g>
	<g>
		<g>
			<path class="st1" d="M54.2,111.7C54.2,111.7,54.2,111.7,54.2,111.7c0.1,0.1,0.2,0.1,0.3,0.1c0.2,0,0.6,0,0.9-0.3
				c0.3-0.3,0.4-0.8,0.2-1.4c-0.2-0.6-0.8-1.1-1.6-1.6c-0.8-0.5-1.8-0.8-2.7-0.7c-0.5,0-0.9,0.2-1.2,0.5l0,0l0,0c0,0,0-0.1,0,0l0,0
				l-0.1,0.1l-0.2,0.2c-0.1,0.1-0.2,0.2-0.2,0.3c-0.1,0.2-0.2,0.4-0.3,0.7c-0.4,1-0.6,2.2-0.7,3.5c0,1.2,0,2.5,0.3,3.7
				c0,0.2,0.2,0.6,0.3,0.9c0.1,0.2,0.2,0.5,0.4,0.8c0.3,0.5,0.6,1,1,1.5c0.8,0.9,1.7,1.7,2.7,2.3c0.5,0.3,1,0.6,1.5,0.8l0.4,0.2
				c0.1,0,0.3,0.1,0.4,0.1l0.3,0.1l0.4,0c1,0.1,1.9-0.2,2.5-0.7c0.6-0.5,0.8-1.2,0.8-1.9c-0.1-0.7-0.4-1.2-0.7-1.6
				c-0.3-0.4-0.7-0.5-0.9-0.6c-0.2-0.1-0.4,0-0.4,0l0-0.7c0,0,0-0.1-0.1-0.1s-0.1,0-0.1,0.1v0c0,0,0.2-0.1,0.6,0
				c0.4,0,0.9,0.2,1.4,0.7c0.5,0.5,0.9,1.2,1.1,2.1c0,0.1,0,0.2,0,0.3c0,0.2,0,0.2,0,0.4c0,0.2-0.1,0.5-0.1,0.8
				c-0.2,0.5-0.5,1-0.9,1.4c-0.9,0.8-2.1,1.2-3.4,1.2l-0.5,0c-0.2,0-0.4-0.1-0.5-0.1c-0.2,0-0.2-0.1-0.5-0.1l-0.5-0.2
				c-0.6-0.2-1.2-0.5-1.8-0.8c-1.1-0.7-2.2-1.5-3.1-2.6c-0.5-0.5-0.9-1.1-1.2-1.7c-0.2-0.3-0.3-0.6-0.5-1c-0.2-0.4-0.2-0.6-0.3-1
				c-0.3-1.4-0.4-2.8-0.3-4.1c0.1-1.4,0.3-2.7,0.8-4c0.2-0.3,0.3-0.6,0.5-0.9c0.1-0.2,0.2-0.3,0.3-0.4l0.2-0.2l0.1-0.1l0,0
				c0,0,0.1-0.1,0-0.1l0,0l0.1,0c0.6-0.5,1.4-0.7,2-0.7c1.4,0,2.5,0.5,3.4,1.1c0.5,0.3,0.9,0.6,1.2,1c0.2,0.2,0.3,0.4,0.5,0.6
				l0.1,0.2l0.1,0.2c0,0.1,0.1,0.2,0.1,0.3c0.1,0.5,0.2,0.9,0,1.4s-0.3,0.8-0.7,1.1c-0.6,0.5-1.2,0.5-1.6,0.3
				c-0.2-0.1-0.3-0.2-0.5-0.2c-0.1-0.1-0.1-0.1-0.1-0.1c-0.2-0.1-0.2-0.4,0-0.5C53.8,111.6,54,111.6,54.2,111.7z"/>
		</g>
		<g>
			<path class="st1" d="M59.9,118.9c-0.7-1.3-1.1-2.8-1.2-4.2c-0.5,0.3-0.8,0.8-0.8,1.3c-0.4-0.1-0.9-0.2-1.3-0.3
				c-0.3-0.1-0.8-0.1-0.9,0.2c-0.1,0.3,0.3,0.8,0,1.1c-0.1,0.1-0.2,0.1-0.3,0.2c-0.7,0.2-1.1,0.9-1.1,1.6c0.3-0.2,0.7-0.3,1.1-0.3
				c0,0.2-0.3,0.4-0.4,0.7c-0.2,0.4,0,0.8,0.2,1.1c0.3,0.3,0.7,0.5,1.1,0.6c0-0.7,0.3-1.3,0.8-1.7c0.5-0.4,1.3-0.4,1.9-0.2"/>
		</g>
		<g>
			<path class="st1" d="M56.1,110.5c-0.1,0.2-0.3,0.4-0.5,0.5c-0.5,0.2-1,0.2-1.5,0.1c-0.3,0-0.6-0.1-0.8-0.3
				c-0.2-0.2-0.3-0.6-0.4-0.9c-0.1-0.4-0.1-0.7-0.2-1.1c-0.5,0.4-0.8,1.1-0.8,1.8c-0.3-0.2-0.7-0.2-1,0c-0.3,0.2-0.5,0.5-0.5,0.9
				c0.3,0,0.6,0,0.9,0c0.1,0,0.3,0.1,0.3,0.2c0,0.1,0,0.1-0.1,0.2c-0.3,0.3-0.4,0.8-0.2,1.2s0.8,0.4,1,0c-0.2,0.2-0.3,0.4-0.3,0.7
				s0.1,0.6,0.4,0.6c0.3,0.1,0.6-0.4,1-0.4c0.1,0.3,0.3,0.6,0.6,0.7c0.3,0.1,0.7,0,0.8-0.3c0-0.1,0-0.2,0-0.3c0-0.4,0.4-0.7,0.7-0.9
				c0.5-0.5,0.9-1.2,0.9-2"/>
		</g>
	</g>
	<g>
		<g>
			<path class="st1" d="M39,112.2C39,112.2,39,112.3,39,112.2c-0.2,0.2-0.3,0.2-0.5,0.3c-0.4,0.1-1,0.1-1.6-0.3
				c-0.3-0.2-0.5-0.6-0.7-1.1s-0.1-0.9,0-1.4c0-0.1,0.1-0.2,0.1-0.3l0.1-0.2l0.1-0.2c0.1-0.2,0.3-0.4,0.5-0.6c0.4-0.4,0.8-0.7,1.2-1
				c0.9-0.6,2-1.1,3.4-1.1c0.7,0,1.4,0.2,2,0.7l0.1,0.1l0,0c0,0,0.1,0.1,0,0.1l0,0l0.1,0.1l0.2,0.2c0.1,0.1,0.2,0.3,0.3,0.4
				c0.2,0.3,0.4,0.6,0.5,0.9c0.5,1.3,0.8,2.6,0.8,4c0,1.4,0,2.7-0.3,4.1c-0.1,0.4-0.2,0.6-0.3,1c-0.1,0.4-0.3,0.7-0.5,1
				c-0.4,0.6-0.8,1.2-1.2,1.7c-0.9,1.1-2,1.9-3.1,2.6c-0.6,0.3-1.2,0.6-1.8,0.8l-0.5,0.2c-0.2,0.1-0.3,0.1-0.5,0.1
				c-0.2,0-0.3,0.1-0.5,0.1l-0.5,0c-1.3,0-2.5-0.4-3.4-1.2c-0.4-0.4-0.8-0.9-0.9-1.4c-0.1-0.3-0.1-0.5-0.1-0.8c0-0.1,0-0.2,0-0.4
				c0-0.1,0-0.2,0-0.3c0.2-0.9,0.6-1.6,1.1-2.1c0.5-0.5,1-0.7,1.4-0.7c0.4,0,0.6,0,0.6,0c0,0,0-0.1-0.1-0.1s-0.1,0-0.1,0.1v0l0,0.7
				c0,0-0.1,0-0.4,0c-0.2,0-0.6,0.2-0.9,0.6c-0.3,0.3-0.6,0.9-0.7,1.6c-0.1,0.7,0.1,1.4,0.8,1.9c0.6,0.5,1.6,0.8,2.5,0.7l0.4,0
				l0.3-0.1c0.1,0,0.3-0.1,0.4-0.1l0.4-0.2c0.5-0.2,1-0.5,1.5-0.8c1-0.6,1.9-1.4,2.7-2.3c0.4-0.5,0.7-1,1-1.5
				c0.1-0.3,0.3-0.5,0.4-0.8c0.1-0.2,0.2-0.7,0.3-0.9c0.3-1.2,0.4-2.4,0.3-3.7c0-1.2-0.2-2.4-0.7-3.5c-0.1-0.2-0.2-0.5-0.3-0.7
				c-0.1-0.1-0.1-0.2-0.2-0.3l-0.2-0.2l-0.1-0.1l0,0c0,0,0.1,0.1,0,0l0,0l0,0c-0.3-0.3-0.7-0.4-1.2-0.5c-0.9-0.1-1.9,0.3-2.7,0.7
				c-0.8,0.5-1.4,1-1.6,1.6c-0.2,0.6-0.1,1.2,0.2,1.4c0.3,0.3,0.7,0.3,0.9,0.3c0.1,0,0.2-0.1,0.2-0.1c0.1,0,0.1-0.1,0.1-0.1
				c0.2-0.1,0.4-0.1,0.5,0.1C39.2,111.9,39.2,112.1,39,112.2z"/>
		</g>
		<g>
			<path class="st1" d="M32.8,118.9c0.7-1.3,1.1-2.8,1.2-4.2c0.5,0.3,0.8,0.8,0.8,1.3c0.4-0.1,0.9-0.2,1.3-0.3
				c0.3-0.1,0.8-0.1,0.9,0.2c0.1,0.3-0.3,0.8,0,1.1c0.1,0.1,0.2,0.1,0.3,0.2c0.7,0.2,1.1,0.9,1.1,1.6c-0.3-0.2-0.7-0.3-1.1-0.3
				c0,0.2,0.3,0.4,0.4,0.7c0.2,0.4,0,0.8-0.2,1.1c-0.3,0.3-0.7,0.5-1.1,0.6c0-0.7-0.3-1.3-0.8-1.7c-0.5-0.4-1.3-0.4-1.9-0.2"/>
		</g>
		<g>
			<path class="st1" d="M36.7,110.5c0.1,0.2,0.3,0.4,0.5,0.5c0.5,0.2,1,0.2,1.5,0.1c0.3,0,0.6-0.1,0.8-0.3c0.2-0.2,0.3-0.6,0.4-0.9
				c0.1-0.4,0.1-0.7,0.2-1.1c0.5,0.4,0.8,1.1,0.8,1.8c0.3-0.2,0.7-0.2,1,0c0.3,0.2,0.5,0.5,0.5,0.9c-0.3,0-0.6,0-0.9,0
				c-0.1,0-0.3,0.1-0.3,0.2c0,0.1,0,0.1,0.1,0.2c0.3,0.3,0.4,0.8,0.2,1.2s-0.8,0.4-1,0c0.2,0.2,0.3,0.4,0.3,0.7s-0.1,0.6-0.4,0.6
				c-0.3,0.1-0.6-0.4-1-0.4c-0.1,0.3-0.3,0.6-0.6,0.7c-0.3,0.1-0.7,0-0.8-0.3c0-0.1,0-0.2,0-0.3c0-0.4-0.4-0.7-0.7-0.9
				c-0.5-0.5-0.9-1.2-0.9-2"/>
		</g>
	</g>
	<g>
		<g>
			<rect x="30.2" y="105.5" class="st1" width="2" height="83"/>
		</g>
		<g>
			<rect x="45.4" y="105.5" class="st1" width="2" height="83"/>
		</g>
		<g>
			<rect x="15.1" y="105.5" class="st1" width="2" height="83"/>
		</g>
		<g>
			<rect x="60.6" y="105.5" class="st1" width="2" height="83"/>
		</g>
		<g>
			<rect x="75.7" y="105.5" class="st1" width="2" height="83"/>
		</g>
		<g>
			<rect x="90.9" y="105.5" class="st1" width="2" height="83"/>
		</g>
		<g>
			<rect x="106.1" y="105.5" class="st1" width="2" height="83"/>
		</g>
		<g>
			<rect x="121.3" y="105.5" class="st1" width="2" height="83"/>
		</g>
		<g>
			<rect x="141.8" y="105.5" class="st1" width="2" height="83"/>
		</g>
		<g>
			<rect x="158.4" y="105.5" class="st1" width="2" height="83"/>
		</g>
		<g>
			<rect x="173.5" y="105.5" class="st1" width="2" height="83"/>
		</g>
		<g>
			<rect x="188.7" y="105.5" class="st1" width="2" height="83"/>
		</g>
		<g>
			<rect x="203.9" y="105.5" class="st1" width="2" height="83"/>
		</g>
		<g>
			<rect x="219.1" y="105.5" class="st1" width="2" height="83"/>
		</g>
		<g>
			<rect x="234.2" y="105.5" class="st1" width="2" height="83"/>
		</g>
		<g>
			<rect x="249.5" y="105.5" class="st1" width="2" height="83"/>
		</g>
	</g>
	<g>
		<rect x="43.2" y="112.7" class="st1" width="6.3" height="3.6"/>
	</g>
	<g>
		<g>
			<g>
				<path class="st1" d="M38.6,181.3C38.6,181.3,38.6,181.3,38.6,181.3c-0.1-0.1-0.2-0.1-0.3-0.1c-0.2,0-0.6,0-0.9,0.3
					c-0.3,0.3-0.4,0.8-0.2,1.4c0.2,0.6,0.8,1.1,1.6,1.6c0.8,0.5,1.8,0.8,2.7,0.7c0.5,0,0.9-0.2,1.2-0.5l0,0l0,0c0,0,0,0.1,0,0l0,0
					l0.1-0.1l0.2-0.2c0.1-0.1,0.2-0.2,0.2-0.3c0.1-0.2,0.2-0.4,0.3-0.7c0.4-1,0.6-2.2,0.7-3.5c0-1.2,0-2.5-0.3-3.7
					c0-0.2-0.2-0.6-0.3-0.9c-0.1-0.2-0.2-0.5-0.4-0.8c-0.3-0.5-0.6-1-1-1.5c-0.8-0.9-1.7-1.7-2.7-2.3c-0.5-0.3-1-0.6-1.5-0.8
					l-0.4-0.1c-0.1,0-0.3-0.1-0.4-0.1l-0.3-0.1l-0.4,0c-1-0.1-1.9,0.2-2.5,0.7c-0.6,0.5-0.8,1.2-0.8,1.9c0.1,0.6,0.4,1.2,0.7,1.6
					c0.3,0.4,0.7,0.5,0.9,0.6c0.2,0.1,0.4,0,0.4,0l0,0.7c0,0,0,0.1,0.1,0.1s0.1,0,0.1-0.1v0c0,0-0.2,0.1-0.6,0
					c-0.4,0-0.9-0.2-1.4-0.7s-0.9-1.2-1.1-2.1c0-0.1,0-0.2,0-0.3c0-0.1,0-0.2,0-0.4c0-0.2,0.1-0.5,0.1-0.8c0.2-0.5,0.5-1,0.9-1.4
					c0.9-0.8,2.1-1.2,3.4-1.2l0.5,0c0.2,0,0.4,0.1,0.5,0.1c0.2,0,0.2,0.1,0.5,0.1l0.5,0.1c0.6,0.2,1.2,0.5,1.8,0.8
					c1.1,0.7,2.2,1.5,3.1,2.6c0.5,0.5,0.9,1.1,1.2,1.7c0.2,0.3,0.3,0.6,0.5,1c0.2,0.4,0.2,0.6,0.3,1c0.3,1.4,0.4,2.8,0.3,4.1
					c-0.1,1.4-0.3,2.7-0.8,4c-0.2,0.3-0.3,0.6-0.5,0.9c-0.1,0.2-0.2,0.3-0.3,0.4l-0.2,0.2l-0.1,0.1l0,0c0,0-0.1,0.1,0,0.1l0,0
					l-0.1,0.1c-0.6,0.5-1.4,0.7-2,0.7c-1.4,0-2.5-0.5-3.4-1.1c-0.5-0.3-0.9-0.6-1.2-1c-0.2-0.2-0.3-0.4-0.5-0.6l-0.1-0.1l-0.1-0.2
					c0-0.1-0.1-0.2-0.1-0.4c-0.1-0.5-0.2-0.9,0-1.4c0.1-0.4,0.3-0.8,0.7-1.1c0.6-0.5,1.2-0.5,1.6-0.4c0.2,0.1,0.3,0.1,0.5,0.2
					c0.1,0.1,0.1,0.1,0.1,0.1c0.2,0.1,0.2,0.4,0,0.5C39,181.4,38.8,181.4,38.6,181.3z"/>
			</g>
			<g>
				<path class="st1" d="M32.8,174.1c0.7,1.3,1.1,2.8,1.2,4.2c0.5-0.3,0.8-0.8,0.8-1.3c0.4,0.1,0.9,0.2,1.3,0.3
					c0.3,0.1,0.8,0.1,0.9-0.2c0.1-0.3-0.3-0.8,0-1.1c0.1-0.1,0.2-0.1,0.3-0.2c0.7-0.2,1.1-0.9,1.1-1.6c-0.3,0.2-0.7,0.3-1.1,0.3
					c0-0.2,0.3-0.4,0.4-0.7c0.2-0.4,0-0.8-0.2-1.1c-0.3-0.3-0.7-0.5-1.1-0.6c0,0.6-0.3,1.3-0.8,1.7c-0.5,0.4-1.3,0.4-1.9,0.2"/>
			</g>
			<g>
				<path class="st1" d="M36.7,182.4c0.1-0.2,0.3-0.4,0.5-0.5c0.5-0.2,1-0.2,1.5-0.1c0.3,0,0.6,0.1,0.8,0.3c0.2,0.2,0.3,0.6,0.4,0.9
					c0.1,0.4,0.1,0.7,0.2,1.1c0.5-0.4,0.8-1.1,0.8-1.8c0.3,0.2,0.7,0.2,1,0c0.3-0.2,0.5-0.5,0.5-0.9c-0.3,0-0.6,0-0.9,0
					c-0.1,0-0.3-0.1-0.3-0.2c0-0.1,0-0.1,0.1-0.2c0.3-0.3,0.4-0.8,0.2-1.1s-0.8-0.4-1,0c0.2-0.2,0.3-0.4,0.3-0.7
					c0-0.3-0.1-0.6-0.4-0.6c-0.3-0.1-0.6,0.4-1,0.4c-0.1-0.3-0.3-0.6-0.6-0.7c-0.3-0.1-0.7,0-0.8,0.3c0,0.1,0,0.2,0,0.3
					c0,0.4-0.4,0.6-0.7,0.9c-0.5,0.5-0.9,1.2-0.9,2"/>
			</g>
		</g>
		<g>
			<g>
				<path class="st1" d="M53.7,180.7C53.7,180.7,53.8,180.7,53.7,180.7c0.2-0.2,0.3-0.2,0.5-0.3c0.4-0.1,1-0.1,1.6,0.4
					c0.3,0.2,0.5,0.6,0.7,1.1c0.1,0.4,0.1,0.9,0,1.4c0,0.1-0.1,0.2-0.1,0.4l-0.1,0.2l-0.1,0.1c-0.1,0.2-0.3,0.4-0.5,0.6
					c-0.4,0.4-0.8,0.7-1.2,1c-0.9,0.6-2,1.1-3.4,1.1c-0.7,0-1.4-0.2-2-0.7l-0.1-0.1l0,0c0,0-0.1-0.1,0-0.1l0,0l-0.1-0.1l-0.2-0.2
					c-0.1-0.1-0.2-0.3-0.3-0.4c-0.2-0.3-0.4-0.6-0.5-0.9c-0.5-1.3-0.8-2.6-0.8-4c0-1.4,0-2.7,0.3-4.1c0.1-0.4,0.2-0.6,0.3-1
					c0.1-0.4,0.3-0.7,0.5-1c0.4-0.6,0.8-1.2,1.2-1.7c0.9-1.1,2-1.9,3.1-2.6c0.6-0.3,1.2-0.6,1.8-0.8l0.5-0.1
					c0.2-0.1,0.3-0.1,0.5-0.1c0.2,0,0.3-0.1,0.5-0.1l0.5,0c1.3,0,2.5,0.4,3.4,1.2c0.4,0.4,0.8,0.9,0.9,1.4c0.1,0.3,0.1,0.5,0.1,0.8
					c0,0.1,0,0.2,0,0.4c0,0.1,0,0.2,0,0.3c-0.2,0.9-0.6,1.6-1.1,2.1c-0.5,0.5-1,0.7-1.4,0.7c-0.4,0-0.6,0-0.6,0c0,0,0,0.1,0.1,0.1
					s0.1,0,0.1-0.1v0l0-0.7c0,0,0.1,0,0.4,0c0.2,0,0.6-0.2,0.9-0.6s0.6-0.9,0.7-1.6c0.1-0.7-0.1-1.4-0.8-1.9
					c-0.6-0.5-1.6-0.8-2.5-0.7l-0.4,0l-0.3,0.1c-0.1,0-0.3,0.1-0.4,0.1l-0.4,0.1c-0.5,0.2-1,0.5-1.5,0.8c-1,0.6-1.9,1.4-2.7,2.3
					c-0.4,0.5-0.7,1-1,1.5c-0.1,0.3-0.3,0.5-0.4,0.8c-0.1,0.2-0.2,0.7-0.3,0.9c-0.3,1.2-0.4,2.4-0.3,3.7c0,1.2,0.2,2.4,0.7,3.5
					c0.1,0.2,0.2,0.5,0.3,0.7c0.1,0.1,0.1,0.2,0.2,0.3l0.2,0.2l0.1,0.1l0,0c0,0-0.1-0.1,0,0l0,0l0,0c0.3,0.3,0.7,0.4,1.2,0.5
					c0.9,0.1,1.9-0.3,2.7-0.7c0.8-0.5,1.4-1,1.6-1.6c0.2-0.6,0.1-1.2-0.2-1.4c-0.3-0.3-0.7-0.3-0.9-0.3c-0.1,0-0.2,0.1-0.2,0.1
					c-0.1,0-0.1,0.1-0.1,0.1c-0.2,0.1-0.4,0.1-0.5-0.1C53.5,181.1,53.6,180.9,53.7,180.7z"/>
			</g>
			<g>
				<path class="st1" d="M59.9,174.1c-0.7,1.3-1.1,2.8-1.2,4.2c-0.5-0.3-0.8-0.8-0.8-1.3c-0.4,0.1-0.9,0.2-1.3,0.3
					c-0.3,0.1-0.8,0.1-0.9-0.2c-0.1-0.3,0.3-0.8,0-1.1c-0.1-0.1-0.2-0.1-0.3-0.2c-0.7-0.2-1.1-0.9-1.1-1.6c0.3,0.2,0.7,0.3,1.1,0.3
					c0-0.2-0.3-0.4-0.4-0.7c-0.2-0.4,0-0.8,0.2-1.1s0.7-0.5,1.1-0.6c0,0.6,0.3,1.3,0.8,1.7c0.5,0.4,1.3,0.4,1.9,0.2"/>
			</g>
			<g>
				<path class="st1" d="M56.1,182.4c-0.1-0.2-0.3-0.4-0.5-0.5c-0.5-0.2-1-0.2-1.5-0.1c-0.3,0-0.6,0.1-0.8,0.3
					c-0.2,0.2-0.3,0.6-0.4,0.9c-0.1,0.4-0.1,0.7-0.2,1.1c-0.5-0.4-0.8-1.1-0.8-1.8c-0.3,0.2-0.7,0.2-1,0c-0.3-0.2-0.5-0.5-0.5-0.9
					c0.3,0,0.6,0,0.9,0c0.1,0,0.3-0.1,0.3-0.2c0-0.1,0-0.1-0.1-0.2c-0.3-0.3-0.4-0.8-0.2-1.1s0.8-0.4,1,0c-0.2-0.2-0.3-0.4-0.3-0.7
					c0-0.3,0.1-0.6,0.4-0.6c0.3-0.1,0.6,0.4,1,0.4c0.1-0.3,0.3-0.6,0.6-0.7c0.3-0.1,0.7,0,0.8,0.3c0,0.1,0,0.2,0,0.3
					c0,0.4,0.4,0.6,0.7,0.9c0.5,0.5,0.9,1.2,0.9,2"/>
			</g>
		</g>
		<g>
			<rect x="43.3" y="176.7" class="st1" width="6.3" height="3.6"/>
		</g>
	</g>
	<g>
		<g>
			<g>
				<path class="st1" d="M69.4,135.4C69.4,135.4,69.4,135.4,69.4,135.4c-0.2,0.2-0.3,0.2-0.5,0.3c-0.4,0.1-1,0.1-1.6-0.4
					c-0.3-0.2-0.5-0.6-0.7-1.1c-0.1-0.4-0.1-0.9,0-1.4c0-0.1,0.1-0.2,0.1-0.4l0.1-0.2l0.1-0.1c0.1-0.2,0.3-0.4,0.5-0.6
					c0.4-0.4,0.8-0.7,1.2-1c0.9-0.6,2-1.1,3.4-1.1c0.7,0,1.4,0.2,2,0.7l0.1,0.1l0,0c0,0,0.1,0.1,0.1,0.1l0,0l0.1,0.1l0.2,0.2
					c0.1,0.1,0.2,0.3,0.3,0.4c0.2,0.3,0.4,0.6,0.5,0.9c0.6,1.3,0.8,2.6,0.8,4c0.1,1.4,0,2.7-0.3,4.1c-0.1,0.4-0.2,0.6-0.3,1
					c-0.1,0.4-0.3,0.7-0.5,1c-0.4,0.6-0.8,1.2-1.2,1.7c-0.9,1.1-2,1.9-3.1,2.6c-0.6,0.3-1.2,0.6-1.8,0.8l-0.4,0.1
					c-0.2,0.1-0.3,0.1-0.5,0.1c-0.2,0-0.3,0.1-0.5,0.1l-0.5,0c-1.3,0-2.5-0.4-3.4-1.2c-0.4-0.4-0.8-0.9-0.9-1.4
					c-0.1-0.3-0.1-0.5-0.1-0.8c0-0.1,0-0.2,0-0.4c0-0.1,0-0.2,0-0.3c0.2-0.9,0.6-1.6,1.1-2.1c0.5-0.5,1-0.7,1.4-0.7
					c0.4,0,0.6,0,0.6,0c0,0,0-0.1-0.1-0.1s-0.1,0-0.1,0.1v0l0.1,0.7c0,0-0.1,0-0.4,0c-0.2,0-0.6,0.2-0.9,0.6s-0.6,0.9-0.7,1.6
					c-0.1,0.7,0.1,1.4,0.8,1.9c0.6,0.5,1.6,0.8,2.6,0.7l0.4,0l0.3-0.1c0.1,0,0.3-0.1,0.4-0.1l0.4-0.1c0.5-0.2,1-0.5,1.5-0.8
					c1-0.6,1.9-1.4,2.7-2.3c0.4-0.5,0.7-1,1-1.5c0.1-0.3,0.3-0.5,0.4-0.8c0.1-0.2,0.2-0.7,0.3-0.9c0.3-1.2,0.4-2.4,0.3-3.7
					c-0.1-1.2-0.2-2.4-0.7-3.5c-0.1-0.2-0.2-0.5-0.3-0.7c-0.1-0.1-0.1-0.2-0.2-0.3l-0.2-0.2l-0.1-0.1l0,0c0,0,0.1,0.1,0,0l0,0l0,0
					c-0.3-0.3-0.7-0.4-1.2-0.5c-0.9-0.1-1.9,0.3-2.7,0.7c-0.8,0.5-1.4,1-1.6,1.6c-0.2,0.6-0.1,1.2,0.2,1.4c0.3,0.3,0.7,0.3,0.9,0.3
					c0.1,0,0.2-0.1,0.2-0.1c0.1,0,0.1-0.1,0.1-0.1c0.2-0.1,0.4-0.1,0.5,0.1C69.6,135.1,69.5,135.3,69.4,135.4z"/>
			</g>
			<g>
				<path class="st1" d="M63.2,142c0.7-1.3,1.1-2.8,1.2-4.2c0.5,0.3,0.8,0.8,0.8,1.3c0.4-0.1,0.9-0.2,1.3-0.3
					c0.3-0.1,0.8-0.1,0.9,0.2c0.1,0.3-0.3,0.8,0,1.1c0.1,0.1,0.2,0.1,0.3,0.2c0.7,0.2,1.1,0.9,1.1,1.6c-0.3-0.2-0.7-0.3-1.1-0.3
					c0.1,0.2,0.3,0.4,0.4,0.7c0.2,0.4,0,0.8-0.2,1.1s-0.7,0.5-1.1,0.6c0.1-0.6-0.3-1.3-0.8-1.7c-0.5-0.4-1.3-0.4-1.9-0.2"/>
			</g>
			<g>
				<path class="st1" d="M67,133.7c0.1,0.2,0.3,0.4,0.5,0.5c0.4,0.2,1,0.2,1.5,0.1c0.3,0,0.6-0.1,0.8-0.3c0.2-0.2,0.3-0.6,0.4-0.9
					c0.1-0.4,0.1-0.7,0.2-1.1c0.5,0.4,0.8,1.1,0.8,1.8c0.3-0.2,0.7-0.2,1,0c0.3,0.2,0.5,0.5,0.5,0.9c-0.3,0-0.6,0-0.9,0
					c-0.1,0-0.3,0.1-0.3,0.2c0,0.1,0.1,0.1,0.1,0.2c0.3,0.3,0.4,0.8,0.2,1.1s-0.8,0.4-1,0c0.2,0.2,0.3,0.4,0.3,0.7
					c0,0.3-0.1,0.6-0.4,0.6c-0.3,0.1-0.6-0.4-1-0.4c-0.1,0.3-0.3,0.6-0.6,0.7c-0.3,0.1-0.7,0-0.8-0.3c0-0.1,0-0.2,0-0.3
					c0-0.4-0.4-0.6-0.7-0.9c-0.5-0.5-0.9-1.2-0.9-2"/>
			</g>
		</g>
		<g>
			<g>
				<path class="st1" d="M84.5,134.8C84.5,134.8,84.5,134.8,84.5,134.8c0.1,0.1,0.2,0.1,0.3,0.1c0.2,0,0.6,0,0.9-0.3
					c0.3-0.3,0.4-0.8,0.2-1.4c-0.2-0.6-0.8-1.1-1.6-1.6c-0.8-0.5-1.8-0.8-2.7-0.7c-0.4,0-0.9,0.2-1.2,0.5l0,0l0,0c0,0,0-0.1,0,0l0,0
					l-0.1,0.1l-0.2,0.2c-0.1,0.1-0.2,0.2-0.2,0.3c-0.1,0.2-0.2,0.4-0.3,0.7c-0.4,1-0.6,2.2-0.7,3.5c0,1.2,0.1,2.5,0.3,3.7
					c0,0.2,0.2,0.6,0.3,0.9c0.1,0.2,0.2,0.5,0.4,0.8c0.3,0.5,0.6,1,1,1.5c0.8,0.9,1.7,1.7,2.7,2.3c0.5,0.3,1,0.6,1.5,0.8l0.4,0.1
					c0.1,0,0.3,0.1,0.4,0.1l0.3,0.1l0.4,0c1,0.1,1.9-0.2,2.6-0.7c0.6-0.5,0.8-1.2,0.8-1.9c-0.1-0.6-0.4-1.2-0.7-1.6
					c-0.3-0.4-0.7-0.5-0.9-0.6c-0.2-0.1-0.4,0-0.4,0l0.1-0.7c0,0,0-0.1-0.1-0.1s-0.1,0-0.1,0.1v0c0,0,0.2-0.1,0.6,0
					c0.4,0,0.9,0.2,1.4,0.7c0.5,0.5,0.9,1.2,1.1,2.1c0,0.1,0,0.2,0,0.3c0,0.1,0,0.2,0,0.4c0,0.2-0.1,0.5-0.1,0.8
					c-0.2,0.5-0.5,1-0.9,1.4c-0.9,0.8-2.1,1.2-3.4,1.2l-0.5,0c-0.2,0-0.4-0.1-0.5-0.1c-0.2,0-0.2-0.1-0.5-0.1l-0.4-0.1
					c-0.6-0.2-1.2-0.5-1.8-0.8c-1.1-0.7-2.2-1.5-3.1-2.6c-0.4-0.5-0.9-1.1-1.2-1.7c-0.2-0.3-0.3-0.6-0.5-1c-0.2-0.4-0.2-0.6-0.3-1
					c-0.3-1.4-0.4-2.8-0.3-4.1c0.1-1.4,0.3-2.7,0.8-4c0.2-0.3,0.3-0.6,0.5-0.9c0.1-0.2,0.2-0.3,0.3-0.4l0.2-0.2l0.1-0.1l0,0
					c0,0,0.1-0.1,0.1-0.1l0,0l0.1-0.1c0.6-0.5,1.4-0.7,2-0.7c1.4,0,2.5,0.5,3.4,1.1c0.5,0.3,0.9,0.6,1.2,1c0.2,0.2,0.3,0.4,0.5,0.6
					l0.1,0.1l0.1,0.2c0.1,0.1,0.1,0.2,0.1,0.4c0.1,0.5,0.2,0.9,0,1.4c-0.1,0.4-0.3,0.8-0.7,1.1c-0.6,0.5-1.2,0.5-1.6,0.4
					c-0.2-0.1-0.3-0.1-0.4-0.2c-0.1-0.1-0.1-0.1-0.1-0.1c-0.2-0.1-0.2-0.4-0.1-0.5C84.2,134.7,84.4,134.7,84.5,134.8z"/>
			</g>
			<g>
				<path class="st1" d="M90.3,142c-0.7-1.3-1.1-2.8-1.2-4.2c-0.5,0.3-0.8,0.8-0.8,1.3c-0.4-0.1-0.9-0.2-1.3-0.3
					c-0.3-0.1-0.8-0.1-0.9,0.2c-0.1,0.3,0.3,0.8,0,1.1c-0.1,0.1-0.2,0.1-0.3,0.2c-0.7,0.2-1.1,0.9-1.1,1.6c0.3-0.2,0.7-0.3,1.1-0.3
					c-0.1,0.2-0.3,0.4-0.4,0.7c-0.2,0.4,0,0.8,0.2,1.1c0.3,0.3,0.7,0.5,1.1,0.6c-0.1-0.6,0.3-1.3,0.8-1.7c0.5-0.4,1.3-0.4,1.9-0.2"
					/>
			</g>
			<g>
				<path class="st1" d="M86.4,133.7c-0.1,0.2-0.3,0.4-0.5,0.5c-0.4,0.2-1,0.2-1.5,0.1c-0.3,0-0.6-0.1-0.8-0.3
					c-0.2-0.2-0.3-0.6-0.4-0.9c-0.1-0.4-0.1-0.7-0.2-1.1c-0.5,0.4-0.8,1.1-0.8,1.8c-0.3-0.2-0.7-0.2-1,0c-0.3,0.2-0.5,0.5-0.5,0.9
					c0.3,0,0.6,0,0.9,0c0.1,0,0.3,0.1,0.3,0.2c0,0.1-0.1,0.1-0.1,0.2c-0.3,0.3-0.4,0.8-0.2,1.1s0.8,0.4,1,0
					c-0.2,0.2-0.3,0.4-0.3,0.7c0,0.3,0.1,0.6,0.4,0.6c0.3,0.1,0.6-0.4,1-0.4c0.1,0.3,0.3,0.6,0.6,0.7c0.3,0.1,0.7,0,0.8-0.3
					c0-0.1,0-0.2,0-0.3c0-0.4,0.4-0.6,0.7-0.9c0.5-0.5,0.9-1.2,0.9-2"/>
			</g>
		</g>
		<g>
			<rect x="73.7" y="135.8" class="st1" width="6.3" height="3.6"/>
		</g>
	</g>
	<g>
		<g>
			<g>
				<path class="st1" d="M84.1,159.4C84.1,159.4,84.1,159.4,84.1,159.4c0.2-0.2,0.3-0.2,0.5-0.3c0.4-0.1,1-0.1,1.6,0.4
					c0.3,0.2,0.5,0.6,0.7,1.1c0.1,0.4,0.1,0.9,0,1.4c0,0.1-0.1,0.2-0.1,0.4l-0.1,0.2l-0.1,0.1c-0.1,0.2-0.3,0.4-0.5,0.6
					c-0.4,0.4-0.8,0.7-1.2,1c-0.9,0.6-2,1.1-3.4,1.1c-0.7,0-1.4-0.2-2-0.7l-0.1,0l0,0c0,0-0.1-0.1-0.1-0.1l0,0l-0.1-0.1l-0.2-0.2
					c-0.1-0.1-0.2-0.3-0.3-0.4c-0.2-0.3-0.4-0.6-0.5-0.9c-0.6-1.3-0.8-2.6-0.8-4c-0.1-1.4,0-2.7,0.3-4.1c0.1-0.4,0.2-0.6,0.3-1
					c0.1-0.4,0.3-0.7,0.5-1c0.4-0.6,0.8-1.2,1.2-1.7c0.9-1.1,2-1.9,3.1-2.6c0.6-0.3,1.2-0.6,1.8-0.8l0.4-0.1
					c0.2-0.1,0.3-0.1,0.5-0.1c0.2,0,0.3-0.1,0.5-0.1l0.5,0c1.3,0,2.5,0.4,3.4,1.2c0.4,0.4,0.8,0.9,0.9,1.4c0.1,0.3,0.1,0.5,0.1,0.8
					c0,0.1,0,0.2,0,0.4c0,0.1,0,0.2,0,0.3c-0.2,0.9-0.6,1.6-1.1,2.1c-0.5,0.5-1.1,0.7-1.4,0.7c-0.4,0-0.6,0-0.6,0c0,0,0,0.1,0.1,0.1
					s0.1,0,0.1-0.1v0l-0.1-0.7c0,0,0.1,0,0.4,0c0.2,0,0.6-0.2,0.9-0.6s0.6-0.9,0.7-1.6c0.1-0.7-0.1-1.4-0.8-1.9
					c-0.6-0.5-1.6-0.8-2.6-0.7l-0.4,0l-0.3,0.1c-0.1,0-0.3,0.1-0.4,0.1l-0.4,0.1c-0.5,0.2-1,0.5-1.5,0.8c-1,0.6-1.9,1.4-2.7,2.3
					c-0.4,0.5-0.7,1-1,1.5c-0.1,0.3-0.3,0.5-0.4,0.8c-0.1,0.2-0.2,0.7-0.3,0.9c-0.3,1.2-0.4,2.4-0.3,3.7c0.1,1.2,0.2,2.4,0.7,3.5
					c0.1,0.2,0.2,0.5,0.3,0.7c0.1,0.1,0.1,0.2,0.2,0.3l0.2,0.2l0.1,0.1l0,0c0,0-0.1-0.1,0,0l0,0l0,0c0.3,0.3,0.7,0.4,1.2,0.5
					c0.9,0.1,1.9-0.3,2.7-0.7c0.8-0.5,1.4-1,1.6-1.6c0.2-0.6,0.1-1.2-0.2-1.4c-0.3-0.3-0.7-0.3-0.9-0.3c-0.1,0-0.2,0.1-0.2,0.1
					c-0.1,0-0.1,0.1-0.1,0.1c-0.2,0.1-0.4,0.1-0.5-0.1C83.9,159.8,83.9,159.6,84.1,159.4z"/>
			</g>
			<g>
				<path class="st1" d="M90.3,152.8c-0.7,1.3-1.1,2.8-1.2,4.2c-0.5-0.3-0.8-0.8-0.8-1.3c-0.4,0.1-0.9,0.2-1.3,0.3
					c-0.3,0.1-0.8,0.1-0.9-0.2c-0.1-0.3,0.3-0.8,0-1.1c-0.1-0.1-0.2-0.1-0.3-0.2c-0.7-0.2-1.1-0.9-1.1-1.6c0.3,0.2,0.7,0.3,1.1,0.3
					c-0.1-0.2-0.3-0.4-0.4-0.7c-0.2-0.4,0-0.8,0.2-1.1c0.3-0.3,0.7-0.5,1.1-0.6c-0.1,0.6,0.3,1.3,0.8,1.7c0.5,0.4,1.3,0.4,1.9,0.2"
					/>
			</g>
			<g>
				<path class="st1" d="M86.4,161.1c-0.1-0.2-0.3-0.4-0.5-0.5c-0.4-0.2-1-0.2-1.5-0.1c-0.3,0-0.6,0.1-0.8,0.3
					c-0.2,0.2-0.3,0.6-0.4,0.9c-0.1,0.4-0.1,0.7-0.2,1.1c-0.5-0.4-0.8-1.1-0.8-1.8c-0.3,0.2-0.7,0.2-1,0c-0.3-0.2-0.5-0.5-0.5-0.9
					c0.3,0,0.6,0,0.9,0c0.1,0,0.3-0.1,0.3-0.2c0-0.1-0.1-0.1-0.1-0.2c-0.3-0.3-0.4-0.8-0.2-1.1s0.8-0.4,1,0
					c-0.2-0.2-0.3-0.4-0.3-0.7c0-0.3,0.1-0.6,0.4-0.6c0.3-0.1,0.6,0.4,1,0.4c0.1-0.3,0.3-0.6,0.6-0.7c0.3-0.1,0.7,0,0.8,0.3
					c0,0.1,0,0.2,0,0.3c0,0.4,0.4,0.6,0.7,0.9c0.5,0.5,0.9,1.2,0.9,2"/>
			</g>
		</g>
		<g>
			<g>
				<path class="st1" d="M68.9,160C68.9,160,68.9,160,68.9,160c-0.1-0.1-0.2-0.1-0.3-0.1c-0.2,0-0.6,0-0.9,0.3
					c-0.3,0.3-0.4,0.8-0.2,1.4c0.2,0.6,0.8,1.1,1.6,1.6c0.8,0.5,1.8,0.8,2.7,0.7c0.4,0,0.9-0.2,1.2-0.5l0,0l0,0c0,0,0,0.1,0,0l0,0
					l0.1-0.1l0.2-0.2c0.1-0.1,0.2-0.2,0.2-0.3c0.1-0.2,0.2-0.4,0.3-0.7c0.4-1,0.6-2.2,0.7-3.5c0-1.2-0.1-2.5-0.3-3.7
					c0-0.2-0.2-0.6-0.3-0.9c-0.1-0.2-0.2-0.5-0.4-0.8c-0.3-0.5-0.6-1-1-1.5c-0.8-0.9-1.7-1.7-2.7-2.3c-0.5-0.3-1-0.6-1.5-0.8
					l-0.4-0.1c-0.1,0-0.3-0.1-0.4-0.1l-0.3-0.1l-0.4,0c-1-0.1-1.9,0.2-2.6,0.7c-0.6,0.5-0.8,1.2-0.8,1.9c0.1,0.6,0.4,1.2,0.7,1.6
					c0.3,0.4,0.7,0.5,0.9,0.6c0.2,0.1,0.4,0,0.4,0l-0.1,0.7c0,0,0,0.1,0.1,0.1s0.1,0,0.1-0.1v0c0,0-0.2,0.1-0.6,0
					c-0.4,0-0.9-0.2-1.4-0.7c-0.5-0.5-0.9-1.2-1.1-2.1c0-0.1,0-0.2,0-0.3c0-0.1,0-0.2,0-0.4c0-0.2,0.1-0.5,0.1-0.8
					c0.2-0.5,0.5-1,0.9-1.4c0.9-0.8,2.1-1.2,3.4-1.2l0.5,0c0.2,0,0.4,0.1,0.5,0.1c0.2,0,0.2,0.1,0.5,0.1l0.4,0.1
					c0.6,0.2,1.2,0.5,1.8,0.8c1.1,0.7,2.2,1.5,3.1,2.6c0.4,0.5,0.9,1.1,1.2,1.7c0.2,0.3,0.3,0.6,0.5,1c0.2,0.4,0.2,0.6,0.3,1
					c0.3,1.4,0.4,2.8,0.3,4.1c-0.1,1.4-0.3,2.7-0.8,4c-0.2,0.3-0.3,0.6-0.5,0.9c-0.1,0.2-0.2,0.3-0.3,0.4l-0.2,0.2l-0.1,0.1l0,0
					c0,0-0.1,0.1-0.1,0.1l0,0l-0.1,0c-0.6,0.5-1.4,0.7-2,0.7c-1.4,0-2.5-0.5-3.4-1.1c-0.5-0.3-0.9-0.6-1.2-1
					c-0.2-0.2-0.3-0.4-0.5-0.6l-0.1-0.1l-0.1-0.2c-0.1-0.1-0.1-0.2-0.1-0.4c-0.1-0.5-0.2-0.9,0-1.4c0.1-0.4,0.3-0.8,0.7-1.1
					c0.6-0.5,1.2-0.5,1.6-0.4c0.2,0.1,0.3,0.1,0.4,0.2c0.1,0.1,0.1,0.1,0.1,0.1c0.2,0.1,0.2,0.4,0.1,0.5
					C69.3,160.1,69.1,160.1,68.9,160z"/>
			</g>
			<g>
				<path class="st1" d="M63.2,152.8c0.7,1.3,1.1,2.8,1.2,4.2c0.5-0.3,0.8-0.8,0.8-1.3c0.4,0.1,0.9,0.2,1.3,0.3
					c0.3,0.1,0.8,0.1,0.9-0.2c0.1-0.3-0.3-0.8,0-1.1c0.1-0.1,0.2-0.1,0.3-0.2c0.7-0.2,1.1-0.9,1.1-1.6c-0.3,0.2-0.7,0.3-1.1,0.3
					c0.1-0.2,0.3-0.4,0.4-0.7c0.2-0.4,0-0.8-0.2-1.1s-0.7-0.5-1.1-0.6c0.1,0.6-0.3,1.3-0.8,1.7c-0.5,0.4-1.3,0.4-1.9,0.2"/>
			</g>
			<g>
				<path class="st1" d="M67,161.1c0.1-0.2,0.3-0.4,0.5-0.5c0.4-0.2,1-0.2,1.5-0.1c0.3,0,0.6,0.1,0.8,0.3c0.2,0.2,0.3,0.6,0.4,0.9
					c0.1,0.4,0.1,0.7,0.2,1.1c0.5-0.4,0.8-1.1,0.8-1.8c0.3,0.2,0.7,0.2,1,0c0.3-0.2,0.5-0.5,0.5-0.9c-0.3,0-0.6,0-0.9,0
					c-0.1,0-0.3-0.1-0.3-0.2c0-0.1,0.1-0.1,0.1-0.2c0.3-0.3,0.4-0.8,0.2-1.1s-0.8-0.4-1,0c0.2-0.2,0.3-0.4,0.3-0.7
					c0-0.3-0.1-0.6-0.4-0.6c-0.3-0.1-0.6,0.4-1,0.4c-0.1-0.3-0.3-0.6-0.6-0.7c-0.3-0.1-0.7,0-0.8,0.3c0,0.1,0,0.2,0,0.3
					c0,0.4-0.4,0.6-0.7,0.9c-0.5,0.5-0.9,1.2-0.9,2"/>
			</g>
		</g>
		<g>
			<rect x="73.5" y="155.4" class="st1" width="6.3" height="3.6"/>
		</g>
	</g>
	<g>
		<g>
			<path class="st1" d="M114.9,111.7C114.9,111.7,114.9,111.7,114.9,111.7c0.1,0.1,0.2,0.1,0.3,0.1c0.2,0,0.6,0,0.9-0.3
				c0.3-0.3,0.4-0.8,0.2-1.4c-0.2-0.6-0.8-1.1-1.6-1.6c-0.8-0.5-1.8-0.8-2.7-0.7c-0.4,0-0.9,0.2-1.2,0.5l0,0l0,0c0,0,0-0.1,0,0l0,0
				l-0.1,0.1l-0.2,0.2c-0.1,0.1-0.2,0.2-0.2,0.3c-0.1,0.2-0.2,0.4-0.3,0.7c-0.4,1-0.6,2.2-0.7,3.5c0,1.2,0.1,2.5,0.3,3.7
				c0,0.2,0.2,0.6,0.3,0.9c0.1,0.2,0.2,0.5,0.4,0.8c0.3,0.5,0.6,1,1,1.5c0.8,0.9,1.7,1.7,2.7,2.3c0.5,0.3,1,0.6,1.5,0.8l0.4,0.2
				c0.1,0,0.3,0.1,0.4,0.1l0.3,0.1l0.4,0c1,0.1,1.9-0.2,2.6-0.7c0.6-0.5,0.8-1.2,0.8-1.9c-0.1-0.7-0.4-1.2-0.7-1.6
				c-0.3-0.4-0.7-0.5-0.9-0.6c-0.2-0.1-0.4,0-0.4,0l0.1-0.7c0,0,0-0.1-0.1-0.1s-0.1,0-0.1,0.1v0c0,0,0.2-0.1,0.6,0
				c0.4,0,0.9,0.2,1.4,0.7c0.5,0.5,0.9,1.2,1.1,2.1c0,0.1,0,0.2,0,0.3c0,0.2,0,0.2,0,0.4c0,0.2-0.1,0.5-0.1,0.8
				c-0.2,0.5-0.5,1-0.9,1.4c-0.9,0.8-2.1,1.2-3.4,1.2l-0.5,0c-0.2,0-0.4-0.1-0.5-0.1c-0.2,0-0.2-0.1-0.5-0.1l-0.4-0.2
				c-0.6-0.2-1.2-0.5-1.8-0.8c-1.1-0.7-2.2-1.5-3.1-2.6c-0.4-0.5-0.9-1.1-1.2-1.7c-0.2-0.3-0.3-0.6-0.5-1c-0.2-0.4-0.2-0.6-0.3-1
				c-0.3-1.4-0.4-2.8-0.3-4.1c0.1-1.4,0.3-2.7,0.8-4c0.2-0.3,0.3-0.6,0.5-0.9c0.1-0.2,0.2-0.3,0.3-0.4l0.2-0.2l0.1-0.1l0,0
				c0,0,0.1-0.1,0.1-0.1l0,0l0.1,0c0.6-0.5,1.4-0.7,2-0.7c1.4,0,2.5,0.5,3.4,1.1c0.5,0.3,0.9,0.6,1.2,1c0.2,0.2,0.3,0.4,0.5,0.6
				l0.1,0.2l0.1,0.2c0.1,0.1,0.1,0.2,0.1,0.3c0.1,0.5,0.2,0.9,0,1.4s-0.3,0.8-0.7,1.1c-0.6,0.5-1.2,0.5-1.6,0.3
				c-0.2-0.1-0.3-0.2-0.4-0.2c-0.1-0.1-0.1-0.1-0.1-0.1c-0.2-0.1-0.2-0.4-0.1-0.5C114.5,111.6,114.7,111.6,114.9,111.7z"/>
		</g>
		<g>
			<path class="st1" d="M120.6,118.9c-0.7-1.3-1.1-2.8-1.2-4.2c-0.5,0.3-0.8,0.8-0.8,1.3c-0.4-0.1-0.9-0.2-1.3-0.3
				c-0.3-0.1-0.8-0.1-0.9,0.2c-0.1,0.3,0.3,0.8,0,1.1c-0.1,0.1-0.2,0.1-0.3,0.2c-0.7,0.2-1.1,0.9-1.1,1.6c0.3-0.2,0.7-0.3,1.1-0.3
				c-0.1,0.2-0.3,0.4-0.4,0.7c-0.2,0.4,0,0.8,0.2,1.1c0.3,0.3,0.7,0.5,1.1,0.6c-0.1-0.7,0.3-1.3,0.8-1.7c0.5-0.4,1.3-0.4,1.9-0.2"/>
		</g>
		<g>
			<path class="st1" d="M116.8,110.5c-0.1,0.2-0.3,0.4-0.5,0.5c-0.4,0.2-1,0.2-1.5,0.1c-0.3,0-0.6-0.1-0.8-0.3
				c-0.2-0.2-0.3-0.6-0.4-0.9c-0.1-0.4-0.1-0.7-0.2-1.1c-0.5,0.4-0.8,1.1-0.8,1.8c-0.3-0.2-0.7-0.2-1,0c-0.3,0.2-0.5,0.5-0.5,0.9
				c0.3,0,0.6,0,0.9,0c0.1,0,0.3,0.1,0.3,0.2c0,0.1-0.1,0.1-0.1,0.2c-0.3,0.3-0.4,0.8-0.2,1.2s0.8,0.4,1,0c-0.2,0.2-0.3,0.4-0.3,0.7
				s0.1,0.6,0.4,0.6c0.3,0.1,0.6-0.4,1-0.4c0.1,0.3,0.3,0.6,0.6,0.7c0.3,0.1,0.7,0,0.8-0.3c0-0.1,0-0.2,0-0.3c0-0.4,0.4-0.7,0.7-0.9
				c0.5-0.5,0.9-1.2,0.9-2"/>
		</g>
	</g>
	<g>
		<g>
			<path class="st1" d="M99.7,112.2C99.7,112.2,99.7,112.3,99.7,112.2c-0.2,0.2-0.3,0.2-0.5,0.3c-0.4,0.1-1,0.1-1.6-0.3
				c-0.3-0.2-0.5-0.6-0.7-1.1s-0.1-0.9,0-1.4c0-0.1,0.1-0.2,0.1-0.3l0.1-0.2l0.1-0.2c0.1-0.2,0.3-0.4,0.5-0.6c0.4-0.4,0.8-0.7,1.2-1
				c0.9-0.6,2-1.1,3.4-1.1c0.7,0,1.4,0.2,2,0.7l0.1,0l0,0c0,0,0.1,0.1,0.1,0.1l0,0l0.1,0.1l0.2,0.2c0.1,0.1,0.2,0.3,0.3,0.4
				c0.2,0.3,0.4,0.6,0.5,0.9c0.6,1.3,0.8,2.6,0.8,4c0.1,1.4,0,2.7-0.3,4.1c-0.1,0.4-0.2,0.6-0.3,1c-0.1,0.4-0.3,0.7-0.5,1
				c-0.4,0.6-0.8,1.2-1.2,1.7c-0.9,1.1-2,1.9-3.1,2.6c-0.6,0.3-1.2,0.6-1.8,0.8l-0.4,0.2c-0.2,0.1-0.3,0.1-0.5,0.1
				c-0.2,0-0.3,0.1-0.5,0.1l-0.5,0c-1.3,0-2.5-0.4-3.4-1.2c-0.4-0.4-0.8-0.9-0.9-1.4c-0.1-0.3-0.1-0.5-0.1-0.8c0-0.1,0-0.2,0-0.4
				c0-0.1,0-0.2,0-0.3c0.2-0.9,0.6-1.6,1.1-2.1c0.5-0.5,1.1-0.7,1.4-0.7c0.4,0,0.6,0,0.6,0c0,0,0-0.1-0.1-0.1s-0.1,0-0.1,0.1v0
				l0.1,0.7c0,0-0.1,0-0.4,0c-0.2,0-0.6,0.2-0.9,0.6c-0.3,0.3-0.6,0.9-0.7,1.6c-0.1,0.7,0.1,1.4,0.8,1.9c0.6,0.5,1.6,0.8,2.6,0.7
				l0.4,0l0.3-0.1c0.1,0,0.3-0.1,0.4-0.1l0.4-0.2c0.5-0.2,1-0.5,1.5-0.8c1-0.6,1.9-1.4,2.7-2.3c0.4-0.5,0.7-1,1-1.5
				c0.1-0.3,0.3-0.5,0.4-0.8c0.1-0.2,0.2-0.7,0.3-0.9c0.3-1.2,0.4-2.4,0.3-3.7c-0.1-1.2-0.2-2.4-0.7-3.5c-0.1-0.2-0.2-0.5-0.3-0.7
				c-0.1-0.1-0.1-0.2-0.2-0.3l-0.2-0.2l-0.1-0.1l0,0c0,0,0.1,0.1,0,0l0,0l0,0c-0.3-0.3-0.7-0.4-1.2-0.5c-0.9-0.1-1.9,0.3-2.7,0.7
				c-0.8,0.5-1.4,1-1.6,1.6c-0.2,0.6-0.1,1.2,0.2,1.4c0.3,0.3,0.7,0.3,0.9,0.3c0.1,0,0.2-0.1,0.2-0.1c0.1,0,0.1-0.1,0.1-0.1
				c0.2-0.1,0.4-0.1,0.5,0.1C99.9,111.9,99.9,112.1,99.7,112.2z"/>
		</g>
		<g>
			<path class="st1" d="M93.5,118.9c0.7-1.3,1.1-2.8,1.2-4.2c0.5,0.3,0.8,0.8,0.8,1.3c0.4-0.1,0.9-0.2,1.3-0.3
				c0.3-0.1,0.8-0.1,0.9,0.2c0.1,0.3-0.3,0.8,0,1.1c0.1,0.1,0.2,0.1,0.3,0.2c0.7,0.2,1.1,0.9,1.1,1.6c-0.3-0.2-0.7-0.3-1.1-0.3
				c0.1,0.2,0.3,0.4,0.4,0.7c0.2,0.4,0,0.8-0.2,1.1c-0.3,0.3-0.7,0.5-1.1,0.6c0.1-0.7-0.3-1.3-0.8-1.7c-0.5-0.4-1.3-0.4-1.9-0.2"/>
		</g>
		<g>
			<path class="st1" d="M97.4,110.5c0.1,0.2,0.3,0.4,0.5,0.5c0.4,0.2,1,0.2,1.5,0.1c0.3,0,0.6-0.1,0.8-0.3c0.2-0.2,0.3-0.6,0.4-0.9
				c0.1-0.4,0.1-0.7,0.2-1.1c0.5,0.4,0.8,1.1,0.8,1.8c0.3-0.2,0.7-0.2,1,0c0.3,0.2,0.5,0.5,0.5,0.9c-0.3,0-0.6,0-0.9,0
				c-0.1,0-0.3,0.1-0.3,0.2c0,0.1,0.1,0.1,0.1,0.2c0.3,0.3,0.4,0.8,0.2,1.2s-0.8,0.4-1,0c0.2,0.2,0.3,0.4,0.3,0.7s-0.1,0.6-0.4,0.6
				c-0.3,0.1-0.6-0.4-1-0.4c-0.1,0.3-0.3,0.6-0.6,0.7c-0.3,0.1-0.7,0-0.8-0.3c0-0.1,0-0.2,0-0.3c0-0.4-0.4-0.7-0.7-0.9
				c-0.5-0.5-0.9-1.2-0.9-2"/>
		</g>
	</g>
	<g>
		<rect x="103.8" y="112.7" class="st1" width="6.3" height="3.6"/>
	</g>
	<g>
		<g>
			<g>
				<path class="st1" d="M99.3,181.3C99.3,181.3,99.3,181.3,99.3,181.3c-0.1-0.1-0.2-0.1-0.3-0.1c-0.2,0-0.6,0-0.9,0.3
					c-0.3,0.3-0.4,0.8-0.2,1.4c0.2,0.6,0.8,1.1,1.6,1.6c0.8,0.5,1.8,0.8,2.7,0.7c0.4,0,0.9-0.2,1.2-0.5l0,0l0,0c0,0,0,0.1,0,0l0,0
					l0.1-0.1l0.2-0.2c0.1-0.1,0.2-0.2,0.2-0.3c0.1-0.2,0.2-0.4,0.3-0.7c0.4-1,0.6-2.2,0.7-3.5c0-1.2-0.1-2.5-0.3-3.7
					c0-0.2-0.2-0.6-0.3-0.9c-0.1-0.2-0.2-0.5-0.4-0.8c-0.3-0.5-0.6-1-1-1.5c-0.8-0.9-1.7-1.7-2.7-2.3c-0.5-0.3-1-0.6-1.5-0.8
					l-0.4-0.1c-0.1,0-0.3-0.1-0.4-0.1l-0.3-0.1l-0.4,0c-1-0.1-1.9,0.2-2.6,0.7c-0.6,0.5-0.8,1.2-0.8,1.9c0.1,0.6,0.4,1.2,0.7,1.6
					c0.3,0.4,0.7,0.5,0.9,0.6c0.2,0.1,0.4,0,0.4,0l-0.1,0.7c0,0,0,0.1,0.1,0.1s0.1,0,0.1-0.1v0c0,0-0.2,0.1-0.6,0
					c-0.4,0-0.9-0.2-1.4-0.7c-0.5-0.5-0.9-1.2-1.1-2.1c0-0.1,0-0.2,0-0.3c0-0.1,0-0.2,0-0.4c0-0.2,0.1-0.5,0.1-0.8
					c0.2-0.5,0.5-1,0.9-1.4c0.9-0.8,2.1-1.2,3.4-1.2l0.5,0c0.2,0,0.4,0.1,0.5,0.1c0.2,0,0.2,0.1,0.5,0.1l0.4,0.1
					c0.6,0.2,1.2,0.5,1.8,0.8c1.1,0.7,2.2,1.5,3.1,2.6c0.4,0.5,0.9,1.1,1.2,1.7c0.2,0.3,0.3,0.6,0.5,1c0.2,0.4,0.2,0.6,0.3,1
					c0.3,1.4,0.4,2.8,0.3,4.1c-0.1,1.4-0.3,2.7-0.8,4c-0.2,0.3-0.3,0.6-0.5,0.9c-0.1,0.2-0.2,0.3-0.3,0.4l-0.2,0.2l-0.1,0.1l0,0
					c0,0-0.1,0.1-0.1,0.1l0,0l-0.1,0.1c-0.6,0.5-1.4,0.7-2,0.7c-1.4,0-2.5-0.5-3.4-1.1c-0.5-0.3-0.9-0.6-1.2-1
					c-0.2-0.2-0.3-0.4-0.5-0.6l-0.1-0.1l-0.1-0.2c-0.1-0.1-0.1-0.2-0.1-0.4c-0.1-0.5-0.2-0.9,0-1.4c0.1-0.4,0.3-0.8,0.7-1.1
					c0.6-0.5,1.2-0.5,1.6-0.4c0.2,0.1,0.3,0.1,0.4,0.2c0.1,0.1,0.1,0.1,0.1,0.1c0.2,0.1,0.2,0.4,0.1,0.5
					C99.7,181.4,99.4,181.4,99.3,181.3z"/>
			</g>
			<g>
				<path class="st1" d="M93.5,174.1c0.7,1.3,1.1,2.8,1.2,4.2c0.5-0.3,0.8-0.8,0.8-1.3c0.4,0.1,0.9,0.2,1.3,0.3
					c0.3,0.1,0.8,0.1,0.9-0.2c0.1-0.3-0.3-0.8,0-1.1c0.1-0.1,0.2-0.1,0.3-0.2c0.7-0.2,1.1-0.9,1.1-1.6c-0.3,0.2-0.7,0.3-1.1,0.3
					c0.1-0.2,0.3-0.4,0.4-0.7c0.2-0.4,0-0.8-0.2-1.1c-0.3-0.3-0.7-0.5-1.1-0.6c0.1,0.6-0.3,1.3-0.8,1.7c-0.5,0.4-1.3,0.4-1.9,0.2"/>
			</g>
			<g>
				<path class="st1" d="M97.4,182.4c0.1-0.2,0.3-0.4,0.5-0.5c0.4-0.2,1-0.2,1.5-0.1c0.3,0,0.6,0.1,0.8,0.3c0.2,0.2,0.3,0.6,0.4,0.9
					c0.1,0.4,0.1,0.7,0.2,1.1c0.5-0.4,0.8-1.1,0.8-1.8c0.3,0.2,0.7,0.2,1,0c0.3-0.2,0.5-0.5,0.5-0.9c-0.3,0-0.6,0-0.9,0
					c-0.1,0-0.3-0.1-0.3-0.2c0-0.1,0.1-0.1,0.1-0.2c0.3-0.3,0.4-0.8,0.2-1.1s-0.8-0.4-1,0c0.2-0.2,0.3-0.4,0.3-0.7
					c0-0.3-0.1-0.6-0.4-0.6c-0.3-0.1-0.6,0.4-1,0.4c-0.1-0.3-0.3-0.6-0.6-0.7c-0.3-0.1-0.7,0-0.8,0.3c0,0.1,0,0.2,0,0.3
					c0,0.4-0.4,0.6-0.7,0.9c-0.5,0.5-0.9,1.2-0.9,2"/>
			</g>
		</g>
		<g>
			<g>
				<path class="st1" d="M114.4,180.7C114.4,180.7,114.4,180.7,114.4,180.7c0.2-0.2,0.3-0.2,0.5-0.3c0.4-0.1,1-0.1,1.6,0.4
					c0.3,0.2,0.5,0.6,0.7,1.1c0.1,0.4,0.1,0.9,0,1.4c0,0.1-0.1,0.2-0.1,0.4l-0.1,0.2l-0.1,0.1c-0.1,0.2-0.3,0.4-0.5,0.6
					c-0.4,0.4-0.8,0.7-1.2,1c-0.9,0.6-2,1.1-3.4,1.1c-0.7,0-1.4-0.2-2-0.7l-0.1-0.1l0,0c0,0-0.1-0.1-0.1-0.1l0,0l-0.1-0.1l-0.2-0.2
					c-0.1-0.1-0.2-0.3-0.3-0.4c-0.2-0.3-0.4-0.6-0.5-0.9c-0.6-1.3-0.8-2.6-0.8-4c-0.1-1.4,0-2.7,0.3-4.1c0.1-0.4,0.2-0.6,0.3-1
					c0.1-0.4,0.3-0.7,0.5-1c0.4-0.6,0.8-1.2,1.2-1.7c0.9-1.1,2-1.9,3.1-2.6c0.6-0.3,1.2-0.6,1.8-0.8l0.4-0.1
					c0.2-0.1,0.3-0.1,0.5-0.1c0.2,0,0.3-0.1,0.5-0.1l0.5,0c1.3,0,2.5,0.4,3.4,1.2c0.4,0.4,0.8,0.9,0.9,1.4c0.1,0.3,0.1,0.5,0.1,0.8
					c0,0.1,0,0.2,0,0.4c0,0.1,0,0.2,0,0.3c-0.2,0.9-0.6,1.6-1.1,2.1c-0.5,0.5-1.1,0.7-1.4,0.7c-0.4,0-0.6,0-0.6,0c0,0,0,0.1,0.1,0.1
					s0.1,0,0.1-0.1v0l-0.1-0.7c0,0,0.1,0,0.4,0c0.2,0,0.6-0.2,0.9-0.6s0.6-0.9,0.7-1.6c0.1-0.7-0.1-1.4-0.8-1.9
					c-0.6-0.5-1.6-0.8-2.6-0.7l-0.4,0l-0.3,0.1c-0.1,0-0.3,0.1-0.4,0.1l-0.4,0.1c-0.5,0.2-1,0.5-1.5,0.8c-1,0.6-1.9,1.4-2.7,2.3
					c-0.4,0.5-0.7,1-1,1.5c-0.1,0.3-0.3,0.5-0.4,0.8c-0.1,0.2-0.2,0.7-0.3,0.9c-0.3,1.2-0.4,2.4-0.3,3.7c0.1,1.2,0.2,2.4,0.7,3.5
					c0.1,0.2,0.2,0.5,0.3,0.7c0.1,0.1,0.1,0.2,0.2,0.3l0.2,0.2l0.1,0.1l0,0c0,0-0.1-0.1,0,0l0,0l0,0c0.3,0.3,0.7,0.4,1.2,0.5
					c0.9,0.1,1.9-0.3,2.7-0.7c0.8-0.5,1.4-1,1.6-1.6c0.2-0.6,0.1-1.2-0.2-1.4c-0.3-0.3-0.7-0.3-0.9-0.3c-0.1,0-0.2,0.1-0.2,0.1
					c-0.1,0-0.1,0.1-0.1,0.1c-0.2,0.1-0.4,0.1-0.5-0.1C114.2,181.1,114.3,180.9,114.4,180.7z"/>
			</g>
			<g>
				<path class="st1" d="M120.6,174.1c-0.7,1.3-1.1,2.8-1.2,4.2c-0.5-0.3-0.8-0.8-0.8-1.3c-0.4,0.1-0.9,0.2-1.3,0.3
					c-0.3,0.1-0.8,0.1-0.9-0.2c-0.1-0.3,0.3-0.8,0-1.1c-0.1-0.1-0.2-0.1-0.3-0.2c-0.7-0.2-1.1-0.9-1.1-1.6c0.3,0.2,0.7,0.3,1.1,0.3
					c-0.1-0.2-0.3-0.4-0.4-0.7c-0.2-0.4,0-0.8,0.2-1.1s0.7-0.5,1.1-0.6c-0.1,0.6,0.3,1.3,0.8,1.7c0.5,0.4,1.3,0.4,1.9,0.2"/>
			</g>
			<g>
				<path class="st1" d="M116.8,182.4c-0.1-0.2-0.3-0.4-0.5-0.5c-0.4-0.2-1-0.2-1.5-0.1c-0.3,0-0.6,0.1-0.8,0.3
					c-0.2,0.2-0.3,0.6-0.4,0.9c-0.1,0.4-0.1,0.7-0.2,1.1c-0.5-0.4-0.8-1.1-0.8-1.8c-0.3,0.2-0.7,0.2-1,0c-0.3-0.2-0.5-0.5-0.5-0.9
					c0.3,0,0.6,0,0.9,0c0.1,0,0.3-0.1,0.3-0.2c0-0.1-0.1-0.1-0.1-0.2c-0.3-0.3-0.4-0.8-0.2-1.1s0.8-0.4,1,0
					c-0.2-0.2-0.3-0.4-0.3-0.7c0-0.3,0.1-0.6,0.4-0.6c0.3-0.1,0.6,0.4,1,0.4c0.1-0.3,0.3-0.6,0.6-0.7c0.3-0.1,0.7,0,0.8,0.3
					c0,0.1,0,0.2,0,0.3c0,0.4,0.4,0.6,0.7,0.9c0.5,0.5,0.9,1.2,0.9,2"/>
			</g>
		</g>
		<g>
			<rect x="104" y="176.7" class="st1" width="6.3" height="3.6"/>
		</g>
	</g>
	<g>
		<g>
			<g>
				<path class="st1" d="M182.4,111.7c0,0,0,0,0.1,0.1c0,0,0.1,0,0.2,0.1c0.2,0,0.6,0,0.9-0.3c0.3-0.3,0.4-0.8,0.2-1.4
					c-0.2-0.6-0.8-1.1-1.6-1.6c-0.8-0.5-1.8-0.8-2.7-0.7c-0.4,0-0.9,0.2-1.2,0.5l0,0l0,0c0,0,0-0.1,0,0l0,0l-0.1,0.1l-0.1,0.2
					c-0.1,0.1-0.2,0.2-0.2,0.3c-0.1,0.2-0.2,0.4-0.4,0.7c-0.4,1-0.6,2.2-0.7,3.5c0,1.2,0.1,2.5,0.3,3.7c0,0.2,0.2,0.6,0.3,0.9
					c0.1,0.2,0.2,0.5,0.4,0.8c0.3,0.5,0.6,1,1,1.5c0.8,0.9,1.7,1.7,2.7,2.3c0.5,0.3,1,0.6,1.5,0.8l0.4,0.2c0.1,0,0.3,0.1,0.4,0.1
					l0.3,0.1l0.4,0c1,0.1,1.9-0.2,2.6-0.7c0.6-0.5,0.8-1.2,0.8-1.9c-0.1-0.7-0.4-1.2-0.7-1.6c-0.3-0.4-0.7-0.5-0.9-0.6
					c-0.2-0.1-0.4,0-0.4,0l0.1-0.7c0,0,0-0.1-0.1-0.1c0,0-0.1,0-0.1,0.1v0c0,0,0.2-0.1,0.6,0c0.4,0,0.9,0.2,1.4,0.7
					c0.5,0.5,0.9,1.2,1.1,2.1c0,0.1,0,0.2,0,0.3c0,0.2,0,0.2,0,0.4c0,0.2-0.1,0.5-0.1,0.8c-0.1,0.5-0.5,1-0.9,1.4
					c-0.9,0.8-2.1,1.2-3.4,1.2l-0.5,0c-0.2,0-0.4-0.1-0.5-0.1c-0.2,0-0.2-0.1-0.5-0.1l-0.4-0.2c-0.6-0.2-1.2-0.5-1.8-0.8
					c-1.1-0.7-2.2-1.5-3.1-2.6c-0.4-0.5-0.9-1.1-1.2-1.7c-0.2-0.3-0.3-0.6-0.5-1c-0.1-0.4-0.2-0.6-0.3-1c-0.3-1.4-0.4-2.8-0.3-4.1
					c0.1-1.4,0.3-2.7,0.8-4c0.2-0.3,0.3-0.6,0.5-0.9c0.1-0.2,0.2-0.3,0.3-0.4l0.1-0.2l0.1-0.1l0,0c0,0,0.1-0.1,0.1-0.1l0,0l0.1,0
					c0.6-0.5,1.4-0.7,2-0.7c1.4,0,2.5,0.5,3.4,1.1c0.5,0.3,0.9,0.6,1.2,1c0.2,0.2,0.3,0.4,0.5,0.6l0.1,0.2l0.1,0.2
					c0.1,0.1,0.1,0.2,0.1,0.3c0.1,0.5,0.1,0.9,0,1.4s-0.3,0.8-0.6,1.1c-0.6,0.5-1.2,0.5-1.6,0.3c-0.2-0.1-0.4-0.2-0.4-0.2
					c-0.1-0.1-0.1-0.1-0.1-0.1c-0.2-0.1-0.2-0.4-0.1-0.5C182,111.6,182.2,111.6,182.4,111.7z"/>
			</g>
			<g>
				<path class="st1" d="M188.1,118.9c-0.7-1.3-1.1-2.8-1.2-4.2c-0.5,0.3-0.8,0.8-0.8,1.3c-0.4-0.1-0.9-0.2-1.3-0.3
					c-0.3-0.1-0.8-0.1-0.9,0.2c-0.1,0.3,0.3,0.8,0,1.1c-0.1,0.1-0.2,0.1-0.3,0.2c-0.6,0.2-1.1,0.9-1.1,1.6c0.3-0.2,0.7-0.3,1.1-0.3
					c-0.1,0.2-0.3,0.4-0.4,0.7c-0.2,0.4,0,0.8,0.2,1.1c0.3,0.3,0.7,0.5,1.1,0.6c-0.1-0.7,0.3-1.3,0.8-1.7c0.5-0.4,1.3-0.4,1.9-0.2"
					/>
			</g>
			<g>
				<path class="st1" d="M184.3,110.5c-0.1,0.2-0.3,0.4-0.5,0.5c-0.4,0.2-1,0.2-1.5,0.1c-0.3,0-0.6-0.1-0.8-0.3
					c-0.2-0.2-0.3-0.6-0.4-0.9c-0.1-0.4-0.1-0.7-0.2-1.1c-0.5,0.4-0.9,1.1-0.8,1.8c-0.3-0.2-0.7-0.2-1,0c-0.3,0.2-0.5,0.5-0.5,0.9
					c0.3,0,0.6,0,0.9,0c0.1,0,0.3,0.1,0.3,0.2c0,0.1-0.1,0.1-0.1,0.2c-0.3,0.3-0.4,0.8-0.2,1.2s0.8,0.4,1,0
					c-0.1,0.2-0.3,0.4-0.3,0.7s0.1,0.6,0.4,0.6c0.4,0.1,0.6-0.4,1-0.4c0.1,0.3,0.3,0.6,0.6,0.7c0.3,0.1,0.7,0,0.8-0.3
					c0-0.1,0-0.2,0-0.3c0-0.4,0.4-0.7,0.7-0.9c0.5-0.5,0.9-1.2,0.9-2"/>
			</g>
		</g>
		<g>
			<g>
				<path class="st1" d="M167.2,112.2C167.2,112.2,167.2,112.3,167.2,112.2c-0.2,0.2-0.3,0.2-0.5,0.3c-0.4,0.1-1,0.1-1.6-0.3
					c-0.3-0.2-0.5-0.6-0.6-1.1s-0.1-0.9,0-1.4c0-0.1,0.1-0.2,0.1-0.3l0.1-0.2l0.1-0.2c0.1-0.2,0.3-0.4,0.5-0.6
					c0.4-0.4,0.8-0.7,1.2-1c0.9-0.6,2-1.1,3.4-1.1c0.7,0,1.4,0.2,2,0.7l0.1,0.1l0,0c0,0,0.1,0.1,0.1,0.1l0,0l0.1,0.1l0.1,0.2
					c0.1,0.1,0.2,0.3,0.3,0.4c0.2,0.3,0.4,0.6,0.5,0.9c0.6,1.3,0.8,2.6,0.8,4c0.1,1.4,0,2.7-0.3,4.1c-0.1,0.4-0.2,0.6-0.3,1
					c-0.1,0.4-0.3,0.7-0.5,1c-0.4,0.6-0.8,1.2-1.2,1.7c-0.9,1.1-2,1.9-3.1,2.6c-0.6,0.3-1.1,0.6-1.8,0.8l-0.4,0.2
					c-0.2,0.1-0.3,0.1-0.5,0.1c-0.2,0-0.4,0.1-0.5,0.1l-0.5,0c-1.3,0-2.5-0.4-3.4-1.2c-0.4-0.4-0.8-0.9-0.9-1.4
					c-0.1-0.3-0.1-0.5-0.1-0.8c0-0.1,0-0.2,0-0.4c0-0.1,0-0.2,0-0.3c0.2-0.9,0.6-1.6,1.1-2.1c0.5-0.5,1.1-0.7,1.4-0.7
					c0.4,0,0.6,0,0.6,0c0,0,0-0.1-0.1-0.1c0,0-0.1,0-0.1,0.1v0l0.1,0.7c0,0-0.1,0-0.4,0c-0.2,0-0.6,0.2-0.9,0.6
					c-0.3,0.3-0.6,0.9-0.7,1.6c-0.1,0.7,0.1,1.4,0.8,1.9c0.6,0.5,1.6,0.8,2.6,0.7l0.4,0l0.3-0.1c0.1,0,0.3-0.1,0.4-0.1l0.4-0.2
					c0.5-0.2,1-0.5,1.5-0.8c1-0.6,1.9-1.4,2.7-2.3c0.4-0.5,0.7-1,1-1.5c0.1-0.3,0.3-0.5,0.4-0.8c0.1-0.2,0.2-0.7,0.3-0.9
					c0.3-1.2,0.4-2.4,0.3-3.7c-0.1-1.2-0.2-2.4-0.7-3.5c-0.1-0.2-0.2-0.5-0.4-0.7c-0.1-0.1-0.1-0.2-0.2-0.3l-0.1-0.2l-0.1-0.1l0,0
					c0,0,0.1,0.1,0,0l0,0l0,0c-0.3-0.3-0.7-0.4-1.2-0.5c-0.9-0.1-1.9,0.3-2.7,0.7c-0.8,0.5-1.4,1-1.6,1.6c-0.2,0.6-0.1,1.2,0.2,1.4
					c0.3,0.3,0.7,0.3,0.9,0.3c0.1,0,0.2-0.1,0.2-0.1c0.1,0,0.1-0.1,0.1-0.1c0.2-0.1,0.4-0.1,0.5,0.1
					C167.4,111.9,167.4,112.1,167.2,112.2z"/>
			</g>
			<g>
				<path class="st1" d="M161.1,118.9c0.7-1.3,1.1-2.8,1.2-4.2c0.5,0.3,0.8,0.8,0.8,1.3c0.4-0.1,0.9-0.2,1.3-0.3
					c0.3-0.1,0.8-0.1,0.9,0.2c0.1,0.3-0.3,0.8,0,1.1c0.1,0.1,0.2,0.1,0.3,0.2c0.6,0.2,1.1,0.9,1.1,1.6c-0.3-0.2-0.7-0.3-1.1-0.3
					c0.1,0.2,0.3,0.4,0.4,0.7c0.2,0.4,0,0.8-0.2,1.1c-0.3,0.3-0.7,0.5-1.1,0.6c0.1-0.7-0.3-1.3-0.8-1.7c-0.5-0.4-1.3-0.4-1.9-0.2"/>
			</g>
			<g>
				<path class="st1" d="M164.9,110.5c0.1,0.2,0.3,0.4,0.5,0.5c0.4,0.2,1,0.2,1.5,0.1c0.3,0,0.6-0.1,0.8-0.3
					c0.2-0.2,0.3-0.6,0.4-0.9c0.1-0.4,0.1-0.7,0.2-1.1c0.5,0.4,0.9,1.1,0.8,1.8c0.3-0.2,0.7-0.2,1,0c0.3,0.2,0.5,0.5,0.5,0.9
					c-0.3,0-0.6,0-0.9,0c-0.1,0-0.3,0.1-0.3,0.2c0,0.1,0.1,0.1,0.1,0.2c0.3,0.3,0.4,0.8,0.2,1.2s-0.8,0.4-1,0
					c0.1,0.2,0.3,0.4,0.3,0.7s-0.1,0.6-0.4,0.6c-0.4,0.1-0.6-0.4-1-0.4c-0.1,0.3-0.3,0.6-0.6,0.7c-0.3,0.1-0.7,0-0.8-0.3
					c0-0.1,0-0.2,0-0.3c0-0.4-0.4-0.7-0.7-0.9c-0.5-0.5-0.9-1.2-0.9-2"/>
			</g>
		</g>
		<g>
			<rect x="171.4" y="112.7" class="st1" width="6.3" height="3.6"/>
		</g>
		<g>
			<g>
				<g>
					<path class="st1" d="M166.8,181.3c0,0,0,0-0.1-0.1c0,0-0.1,0-0.2-0.1c-0.2,0-0.6,0-0.9,0.3c-0.3,0.3-0.4,0.8-0.2,1.4
						c0.2,0.6,0.8,1.1,1.6,1.6c0.8,0.5,1.8,0.8,2.7,0.7c0.4,0,0.9-0.2,1.2-0.5l0,0l0,0c0,0,0,0.1,0,0l0,0l0.1-0.1l0.1-0.2
						c0.1-0.1,0.2-0.2,0.2-0.3c0.1-0.2,0.2-0.4,0.4-0.7c0.4-1,0.6-2.2,0.7-3.5c0-1.2-0.1-2.5-0.3-3.7c0-0.2-0.2-0.6-0.3-0.9
						c-0.1-0.2-0.2-0.5-0.4-0.8c-0.3-0.5-0.6-1-1-1.5c-0.8-0.9-1.7-1.7-2.7-2.3c-0.5-0.3-1-0.6-1.5-0.8l-0.4-0.1
						c-0.1,0-0.3-0.1-0.4-0.1l-0.3-0.1l-0.4,0c-1-0.1-1.9,0.2-2.6,0.7c-0.6,0.5-0.8,1.2-0.8,1.9c0.1,0.6,0.4,1.2,0.7,1.6
						c0.3,0.4,0.7,0.5,0.9,0.6c0.2,0.1,0.4,0,0.4,0l-0.1,0.7c0,0,0,0.1,0.1,0.1c0,0,0.1,0,0.1-0.1v0c0,0-0.2,0.1-0.6,0
						c-0.4,0-0.9-0.2-1.4-0.7s-0.9-1.2-1.1-2.1c0-0.1,0-0.2,0-0.3c0-0.1,0-0.2,0-0.4c0-0.2,0.1-0.5,0.1-0.8c0.1-0.5,0.5-1,0.9-1.4
						c0.9-0.8,2.1-1.2,3.4-1.2l0.5,0c0.2,0,0.4,0.1,0.5,0.1c0.2,0,0.2,0.1,0.5,0.1l0.4,0.1c0.6,0.2,1.2,0.5,1.8,0.8
						c1.1,0.7,2.2,1.5,3.1,2.6c0.4,0.5,0.9,1.1,1.2,1.7c0.2,0.3,0.3,0.6,0.5,1c0.1,0.4,0.2,0.6,0.3,1c0.3,1.4,0.4,2.8,0.3,4.1
						c-0.1,1.4-0.3,2.7-0.8,4c-0.2,0.3-0.3,0.6-0.5,0.9c-0.1,0.2-0.2,0.3-0.3,0.4l-0.1,0.2l-0.1,0.1l0,0c0,0-0.1,0.1-0.1,0.1l0,0
						l-0.1,0.1c-0.6,0.5-1.4,0.7-2,0.7c-1.4,0-2.5-0.5-3.4-1.1c-0.5-0.3-0.9-0.6-1.2-1c-0.2-0.2-0.3-0.4-0.5-0.6l-0.1-0.1l-0.1-0.2
						c-0.1-0.1-0.1-0.2-0.1-0.4c-0.1-0.5-0.1-0.9,0-1.4c0.1-0.4,0.3-0.8,0.6-1.1c0.6-0.5,1.2-0.5,1.6-0.4c0.2,0.1,0.4,0.1,0.4,0.2
						c0.1,0.1,0.1,0.1,0.1,0.1c0.2,0.1,0.2,0.4,0.1,0.5C167.2,181.4,167,181.4,166.8,181.3z"/>
				</g>
				<g>
					<path class="st1" d="M161.1,174.1c0.7,1.3,1.1,2.8,1.2,4.2c0.5-0.3,0.8-0.8,0.8-1.3c0.4,0.1,0.9,0.2,1.3,0.3
						c0.3,0.1,0.8,0.1,0.9-0.2c0.1-0.3-0.3-0.8,0-1.1c0.1-0.1,0.2-0.1,0.3-0.2c0.6-0.2,1.1-0.9,1.1-1.6c-0.3,0.2-0.7,0.3-1.1,0.3
						c0.1-0.2,0.3-0.4,0.4-0.7c0.2-0.4,0-0.8-0.2-1.1c-0.3-0.3-0.7-0.5-1.1-0.6c0.1,0.6-0.3,1.3-0.8,1.7c-0.5,0.4-1.3,0.4-1.9,0.2"
						/>
				</g>
				<g>
					<path class="st1" d="M164.9,182.4c0.1-0.2,0.3-0.4,0.5-0.5c0.4-0.2,1-0.2,1.5-0.1c0.3,0,0.6,0.1,0.8,0.3
						c0.2,0.2,0.3,0.6,0.4,0.9c0.1,0.4,0.1,0.7,0.2,1.1c0.5-0.4,0.9-1.1,0.8-1.8c0.3,0.2,0.7,0.2,1,0c0.3-0.2,0.5-0.5,0.5-0.9
						c-0.3,0-0.6,0-0.9,0c-0.1,0-0.3-0.1-0.3-0.2c0-0.1,0.1-0.1,0.1-0.2c0.3-0.3,0.4-0.8,0.2-1.1s-0.8-0.4-1,0
						c0.1-0.2,0.3-0.4,0.3-0.7c0-0.3-0.1-0.6-0.4-0.6c-0.4-0.1-0.6,0.4-1,0.4c-0.1-0.3-0.3-0.6-0.6-0.7c-0.3-0.1-0.7,0-0.8,0.3
						c0,0.1,0,0.2,0,0.3c0,0.4-0.4,0.6-0.7,0.9c-0.5,0.5-0.9,1.2-0.9,2"/>
				</g>
			</g>
			<g>
				<g>
					<path class="st1" d="M181.9,180.7C181.9,180.7,182,180.7,181.9,180.7c0.2-0.2,0.3-0.2,0.5-0.3c0.4-0.1,1-0.1,1.6,0.4
						c0.3,0.2,0.5,0.6,0.6,1.1c0.1,0.4,0.1,0.9,0,1.4c0,0.1-0.1,0.2-0.1,0.4l-0.1,0.2l-0.1,0.1c-0.1,0.2-0.3,0.4-0.5,0.6
						c-0.4,0.4-0.8,0.7-1.2,1c-0.9,0.6-2,1.1-3.4,1.1c-0.7,0-1.4-0.2-2-0.7l-0.1-0.1l0,0c0,0-0.1-0.1-0.1-0.1l0,0l-0.1-0.1l-0.1-0.2
						c-0.1-0.1-0.2-0.3-0.3-0.4c-0.2-0.3-0.4-0.6-0.5-0.9c-0.6-1.3-0.8-2.6-0.8-4c-0.1-1.4,0-2.7,0.3-4.1c0.1-0.4,0.2-0.6,0.3-1
						c0.1-0.4,0.3-0.7,0.5-1c0.4-0.6,0.8-1.2,1.2-1.7c0.9-1.1,2-1.9,3.1-2.6c0.6-0.3,1.1-0.6,1.8-0.8l0.4-0.1
						c0.2-0.1,0.3-0.1,0.5-0.1c0.2,0,0.4-0.1,0.5-0.1l0.5,0c1.3,0,2.5,0.4,3.4,1.2c0.4,0.4,0.8,0.9,0.9,1.4c0.1,0.3,0.1,0.5,0.1,0.8
						c0,0.1,0,0.2,0,0.4c0,0.1,0,0.2,0,0.3c-0.2,0.9-0.6,1.6-1.1,2.1c-0.5,0.5-1.1,0.7-1.4,0.7c-0.4,0-0.6,0-0.6,0
						c0,0,0,0.1,0.1,0.1c0,0,0.1,0,0.1-0.1v0l-0.1-0.7c0,0,0.1,0,0.4,0c0.2,0,0.6-0.2,0.9-0.6c0.3-0.4,0.6-0.9,0.7-1.6
						c0.1-0.7-0.1-1.4-0.8-1.9c-0.6-0.5-1.6-0.8-2.6-0.7l-0.4,0l-0.3,0.1c-0.1,0-0.3,0.1-0.4,0.1l-0.4,0.1c-0.5,0.2-1,0.5-1.5,0.8
						c-1,0.6-1.9,1.4-2.7,2.3c-0.4,0.5-0.7,1-1,1.5c-0.1,0.3-0.3,0.5-0.4,0.8c-0.1,0.2-0.2,0.7-0.3,0.9c-0.3,1.2-0.4,2.4-0.3,3.7
						c0.1,1.2,0.2,2.4,0.7,3.5c0.1,0.2,0.2,0.5,0.4,0.7c0.1,0.1,0.1,0.2,0.2,0.3l0.1,0.2l0.1,0.1l0,0c0,0-0.1-0.1,0,0l0,0l0,0
						c0.3,0.3,0.7,0.4,1.2,0.5c0.9,0.1,1.9-0.3,2.7-0.7c0.8-0.5,1.4-1,1.6-1.6c0.2-0.6,0.1-1.2-0.2-1.4c-0.3-0.3-0.7-0.3-0.9-0.3
						c-0.1,0-0.2,0.1-0.2,0.1c-0.1,0-0.1,0.1-0.1,0.1c-0.2,0.1-0.4,0.1-0.5-0.1C181.8,181.1,181.8,180.9,181.9,180.7z"/>
				</g>
				<g>
					<path class="st1" d="M188.1,174.1c-0.7,1.3-1.1,2.8-1.2,4.2c-0.5-0.3-0.8-0.8-0.8-1.3c-0.4,0.1-0.9,0.2-1.3,0.3
						c-0.3,0.1-0.8,0.1-0.9-0.2c-0.1-0.3,0.3-0.8,0-1.1c-0.1-0.1-0.2-0.1-0.3-0.2c-0.6-0.2-1.1-0.9-1.1-1.6c0.3,0.2,0.7,0.3,1.1,0.3
						c-0.1-0.2-0.3-0.4-0.4-0.7c-0.2-0.4,0-0.8,0.2-1.1s0.7-0.5,1.1-0.6c-0.1,0.6,0.3,1.3,0.8,1.7c0.5,0.4,1.3,0.4,1.9,0.2"/>
				</g>
				<g>
					<path class="st1" d="M184.3,182.4c-0.1-0.2-0.3-0.4-0.5-0.5c-0.4-0.2-1-0.2-1.5-0.1c-0.3,0-0.6,0.1-0.8,0.3
						c-0.2,0.2-0.3,0.6-0.4,0.9c-0.1,0.4-0.1,0.7-0.2,1.1c-0.5-0.4-0.9-1.1-0.8-1.8c-0.3,0.2-0.7,0.2-1,0c-0.3-0.2-0.5-0.5-0.5-0.9
						c0.3,0,0.6,0,0.9,0c0.1,0,0.3-0.1,0.3-0.2c0-0.1-0.1-0.1-0.1-0.2c-0.3-0.3-0.4-0.8-0.2-1.1s0.8-0.4,1,0
						c-0.1-0.2-0.3-0.4-0.3-0.7c0-0.3,0.1-0.6,0.4-0.6c0.4-0.1,0.6,0.4,1,0.4c0.1-0.3,0.3-0.6,0.6-0.7c0.3-0.1,0.7,0,0.8,0.3
						c0,0.1,0,0.2,0,0.3c0,0.4,0.4,0.6,0.7,0.9c0.5,0.5,0.9,1.2,0.9,2"/>
				</g>
			</g>
			<g>
				<rect x="171.5" y="176.7" class="st1" width="6.3" height="3.6"/>
			</g>
		</g>
		<g>
			<g>
				<g>
					<path class="st1" d="M197.6,135.4C197.6,135.4,197.6,135.4,197.6,135.4c-0.2,0.2-0.3,0.2-0.5,0.3c-0.4,0.1-1,0.1-1.6-0.4
						c-0.3-0.2-0.5-0.6-0.6-1.1c-0.1-0.4-0.1-0.9,0-1.4c0-0.1,0.1-0.2,0.1-0.4l0.1-0.2l0.1-0.1c0.1-0.2,0.3-0.4,0.5-0.6
						c0.4-0.4,0.8-0.7,1.2-1c0.9-0.6,2-1.1,3.4-1.1c0.7,0,1.4,0.2,2,0.7l0.1,0.1l0,0c0,0,0.1,0.1,0.1,0.1l0,0l0.1,0.1l0.1,0.2
						c0.1,0.1,0.2,0.3,0.3,0.4c0.2,0.3,0.4,0.6,0.5,0.9c0.6,1.3,0.8,2.6,0.8,4c0.1,1.4,0,2.7-0.3,4.1c-0.1,0.4-0.2,0.6-0.3,1
						c-0.1,0.4-0.3,0.7-0.5,1c-0.4,0.6-0.8,1.2-1.2,1.7c-0.9,1.1-2,1.9-3.1,2.6c-0.6,0.3-1.1,0.6-1.8,0.8l-0.4,0.1
						c-0.2,0.1-0.3,0.1-0.5,0.1c-0.2,0-0.4,0.1-0.5,0.1l-0.5,0c-1.3,0-2.5-0.4-3.4-1.2c-0.4-0.4-0.8-0.9-0.9-1.4
						c-0.1-0.3-0.1-0.5-0.1-0.8c0-0.1,0-0.2,0-0.4c0-0.1,0-0.2,0-0.3c0.2-0.9,0.6-1.6,1.1-2.1c0.5-0.5,1.1-0.7,1.4-0.7
						c0.4,0,0.6,0,0.6,0c0,0,0-0.1-0.1-0.1c0,0-0.1,0-0.1,0.1v0l0.1,0.7c0,0-0.1,0-0.4,0c-0.2,0-0.6,0.2-0.9,0.6
						c-0.3,0.4-0.6,0.9-0.7,1.6c-0.1,0.7,0.1,1.4,0.8,1.9c0.6,0.5,1.6,0.8,2.6,0.7l0.4,0l0.3-0.1c0.1,0,0.3-0.1,0.4-0.1l0.4-0.1
						c0.5-0.2,1-0.5,1.5-0.8c1-0.6,1.9-1.4,2.7-2.3c0.4-0.5,0.7-1,1-1.5c0.1-0.3,0.3-0.5,0.4-0.8c0.1-0.2,0.2-0.7,0.3-0.9
						c0.3-1.2,0.4-2.4,0.3-3.7c-0.1-1.2-0.2-2.4-0.7-3.5c-0.1-0.2-0.2-0.5-0.4-0.7c-0.1-0.1-0.1-0.2-0.2-0.3l-0.1-0.2l-0.1-0.1l0,0
						c0,0,0.1,0.1,0,0l0,0l0,0c-0.3-0.3-0.7-0.4-1.2-0.5c-0.9-0.1-1.9,0.3-2.7,0.7c-0.8,0.5-1.4,1-1.6,1.6c-0.2,0.6-0.1,1.2,0.2,1.4
						c0.3,0.3,0.7,0.3,0.9,0.3c0.1,0,0.2-0.1,0.2-0.1c0.1,0,0.1-0.1,0.1-0.1c0.2-0.1,0.4-0.1,0.5,0.1
						C197.8,135.1,197.7,135.3,197.6,135.4z"/>
				</g>
				<g>
					<path class="st1" d="M191.4,142c0.7-1.3,1.1-2.8,1.2-4.2c0.5,0.3,0.8,0.8,0.8,1.3c0.4-0.1,0.9-0.2,1.3-0.3
						c0.3-0.1,0.8-0.1,0.9,0.2c0.1,0.3-0.3,0.8,0,1.1c0.1,0.1,0.2,0.1,0.3,0.2c0.6,0.2,1.1,0.9,1.1,1.6c-0.3-0.2-0.7-0.3-1.1-0.3
						c0.1,0.2,0.3,0.4,0.4,0.7c0.2,0.4,0,0.8-0.2,1.1s-0.7,0.5-1.1,0.6c0.1-0.6-0.3-1.3-0.8-1.7c-0.5-0.4-1.3-0.4-1.9-0.2"/>
				</g>
				<g>
					<path class="st1" d="M195.2,133.7c0.1,0.2,0.3,0.4,0.5,0.5c0.4,0.2,1,0.2,1.5,0.1c0.3,0,0.6-0.1,0.8-0.3
						c0.2-0.2,0.3-0.6,0.4-0.9c0.1-0.4,0.1-0.7,0.2-1.1c0.5,0.4,0.9,1.1,0.8,1.8c0.3-0.2,0.7-0.2,1,0c0.3,0.2,0.5,0.5,0.5,0.9
						c-0.3,0-0.6,0-0.9,0c-0.1,0-0.3,0.1-0.3,0.2c0,0.1,0.1,0.1,0.1,0.2c0.3,0.3,0.4,0.8,0.2,1.1s-0.8,0.4-1,0
						c0.1,0.2,0.3,0.4,0.3,0.7c0,0.3-0.1,0.6-0.4,0.6c-0.4,0.1-0.6-0.4-1-0.4c-0.1,0.3-0.3,0.6-0.6,0.7c-0.3,0.1-0.7,0-0.8-0.3
						c0-0.1,0-0.2,0-0.3c0-0.4-0.4-0.6-0.7-0.9c-0.5-0.5-0.9-1.2-0.9-2"/>
				</g>
			</g>
			<g>
				<g>
					<path class="st1" d="M212.7,134.8c0,0,0,0,0.1,0.1c0,0,0.1,0,0.2,0.1c0.2,0,0.6,0,0.9-0.3c0.3-0.3,0.4-0.8,0.2-1.4
						c-0.2-0.6-0.8-1.1-1.6-1.6c-0.8-0.5-1.8-0.8-2.7-0.7c-0.4,0-0.9,0.2-1.2,0.5l0,0l0,0c0,0,0-0.1,0,0l0,0l-0.1,0.1l-0.1,0.2
						c-0.1,0.1-0.2,0.2-0.2,0.3c-0.1,0.2-0.2,0.4-0.4,0.7c-0.4,1-0.6,2.2-0.7,3.5c0,1.2,0.1,2.5,0.3,3.7c0,0.2,0.2,0.6,0.3,0.9
						c0.1,0.2,0.2,0.5,0.4,0.8c0.3,0.5,0.6,1,1,1.5c0.8,0.9,1.7,1.7,2.7,2.3c0.5,0.3,1,0.6,1.5,0.8l0.4,0.1c0.1,0,0.3,0.1,0.4,0.1
						l0.3,0.1l0.4,0c1,0.1,1.9-0.2,2.6-0.7c0.6-0.5,0.8-1.2,0.8-1.9c-0.1-0.6-0.4-1.2-0.7-1.6c-0.3-0.4-0.7-0.5-0.9-0.6
						c-0.2-0.1-0.4,0-0.4,0l0.1-0.7c0,0,0-0.1-0.1-0.1c0,0-0.1,0-0.1,0.1v0c0,0,0.2-0.1,0.6,0c0.4,0,0.9,0.2,1.4,0.7
						s0.9,1.2,1.1,2.1c0,0.1,0,0.2,0,0.3c0,0.1,0,0.2,0,0.4c0,0.2-0.1,0.5-0.1,0.8c-0.1,0.5-0.5,1-0.9,1.4c-0.9,0.8-2.1,1.2-3.4,1.2
						l-0.5,0c-0.2,0-0.4-0.1-0.5-0.1c-0.2,0-0.2-0.1-0.5-0.1l-0.4-0.1c-0.6-0.2-1.2-0.5-1.8-0.8c-1.1-0.7-2.2-1.5-3.1-2.6
						c-0.4-0.5-0.9-1.1-1.2-1.7c-0.2-0.3-0.3-0.6-0.5-1c-0.1-0.4-0.2-0.6-0.3-1c-0.3-1.4-0.4-2.8-0.3-4.1c0.1-1.4,0.3-2.7,0.8-4
						c0.2-0.3,0.3-0.6,0.5-0.9c0.1-0.2,0.2-0.3,0.3-0.4l0.1-0.2l0.1-0.1l0,0c0,0,0.1-0.1,0.1-0.1l0,0l0.1-0.1c0.6-0.5,1.4-0.7,2-0.7
						c1.4,0,2.5,0.5,3.4,1.1c0.5,0.3,0.9,0.6,1.2,1c0.2,0.2,0.3,0.4,0.5,0.6l0.1,0.1l0.1,0.2c0.1,0.1,0.1,0.2,0.1,0.4
						c0.1,0.5,0.1,0.9,0,1.4c-0.1,0.4-0.3,0.8-0.6,1.1c-0.6,0.5-1.2,0.5-1.6,0.4c-0.2-0.1-0.4-0.1-0.4-0.2c-0.1-0.1-0.1-0.1-0.1-0.1
						c-0.2-0.1-0.2-0.4-0.1-0.5C212.4,134.7,212.6,134.7,212.7,134.8z"/>
				</g>
				<g>
					<path class="st1" d="M218.5,142c-0.7-1.3-1.1-2.8-1.2-4.2c-0.5,0.3-0.8,0.8-0.8,1.3c-0.4-0.1-0.9-0.2-1.3-0.3
						c-0.3-0.1-0.8-0.1-0.9,0.2c-0.1,0.3,0.3,0.8,0,1.1c-0.1,0.1-0.2,0.1-0.3,0.2c-0.6,0.2-1.1,0.9-1.1,1.6c0.3-0.2,0.7-0.3,1.1-0.3
						c-0.1,0.2-0.3,0.4-0.4,0.7c-0.2,0.4,0,0.8,0.2,1.1c0.3,0.3,0.7,0.5,1.1,0.6c-0.1-0.6,0.3-1.3,0.8-1.7c0.5-0.4,1.3-0.4,1.9-0.2"
						/>
				</g>
				<g>
					<path class="st1" d="M214.6,133.7c-0.1,0.2-0.3,0.4-0.5,0.5c-0.4,0.2-1,0.2-1.5,0.1c-0.3,0-0.6-0.1-0.8-0.3
						c-0.2-0.2-0.3-0.6-0.4-0.9c-0.1-0.4-0.1-0.7-0.2-1.1c-0.5,0.4-0.9,1.1-0.8,1.8c-0.3-0.2-0.7-0.2-1,0c-0.3,0.2-0.5,0.5-0.5,0.9
						c0.3,0,0.6,0,0.9,0c0.1,0,0.3,0.1,0.3,0.2c0,0.1-0.1,0.1-0.1,0.2c-0.3,0.3-0.4,0.8-0.2,1.1s0.8,0.4,1,0
						c-0.1,0.2-0.3,0.4-0.4,0.7c0,0.3,0.1,0.6,0.4,0.6c0.4,0.1,0.6-0.4,1-0.4c0.1,0.3,0.3,0.6,0.6,0.7c0.3,0.1,0.7,0,0.8-0.3
						c0-0.1,0-0.2,0-0.3c0-0.4,0.4-0.6,0.7-0.9c0.5-0.5,0.9-1.2,0.9-2"/>
				</g>
			</g>
			<g>
				<rect x="201.9" y="135.8" class="st1" width="6.3" height="3.6"/>
			</g>
		</g>
		<g>
			<g>
				<g>
					<path class="st1" d="M212.3,159.4C212.3,159.4,212.3,159.4,212.3,159.4c0.2-0.2,0.3-0.2,0.5-0.3c0.4-0.1,1-0.1,1.6,0.4
						c0.3,0.2,0.5,0.6,0.6,1.1c0.1,0.4,0.1,0.9,0,1.4c0,0.1-0.1,0.2-0.1,0.4l-0.1,0.2l-0.1,0.1c-0.1,0.2-0.3,0.4-0.5,0.6
						c-0.4,0.4-0.8,0.7-1.2,1c-0.9,0.6-2,1.1-3.4,1.1c-0.7,0-1.4-0.2-2-0.7l-0.1,0l0,0c0,0-0.1-0.1-0.1-0.1l0,0l-0.1-0.1l-0.1-0.2
						c-0.1-0.1-0.2-0.3-0.3-0.4c-0.2-0.3-0.4-0.6-0.5-0.9c-0.6-1.3-0.8-2.6-0.8-4c-0.1-1.4,0-2.7,0.3-4.1c0.1-0.4,0.2-0.6,0.3-1
						c0.1-0.4,0.3-0.7,0.5-1c0.4-0.6,0.8-1.2,1.2-1.7c0.9-1.1,2-1.9,3.1-2.6c0.6-0.3,1.1-0.6,1.8-0.8l0.4-0.1
						c0.2-0.1,0.3-0.1,0.5-0.1c0.2,0,0.4-0.1,0.5-0.1l0.5,0c1.3,0,2.5,0.4,3.4,1.2c0.4,0.4,0.8,0.9,0.9,1.4c0.1,0.3,0.1,0.5,0.1,0.8
						c0,0.1,0,0.2,0,0.4c0,0.1,0,0.2,0,0.3c-0.2,0.9-0.6,1.6-1.1,2.1c-0.5,0.5-1.1,0.7-1.4,0.7c-0.4,0-0.6,0-0.6,0
						c0,0,0,0.1,0.1,0.1c0,0,0.1,0,0.1-0.1v0l-0.1-0.7c0,0,0.1,0,0.4,0c0.2,0,0.6-0.2,0.9-0.6c0.3-0.4,0.6-0.9,0.7-1.6
						c0.1-0.7-0.1-1.4-0.8-1.9c-0.6-0.5-1.6-0.8-2.6-0.7l-0.4,0l-0.3,0.1c-0.1,0-0.3,0.1-0.4,0.1l-0.4,0.1c-0.5,0.2-1,0.5-1.5,0.8
						c-1,0.6-1.9,1.4-2.7,2.3c-0.4,0.5-0.7,1-1,1.5c-0.1,0.3-0.3,0.5-0.4,0.8c-0.1,0.2-0.2,0.7-0.3,0.9c-0.3,1.2-0.4,2.4-0.3,3.7
						c0.1,1.2,0.2,2.4,0.7,3.5c0.1,0.2,0.2,0.5,0.4,0.7c0.1,0.1,0.1,0.2,0.2,0.3l0.1,0.2l0.1,0.1l0,0c0,0-0.1-0.1,0,0l0,0l0,0
						c0.3,0.3,0.7,0.4,1.2,0.5c0.9,0.1,1.9-0.3,2.7-0.7c0.8-0.5,1.4-1,1.6-1.6c0.2-0.6,0.1-1.2-0.2-1.4c-0.3-0.3-0.7-0.3-0.9-0.3
						c-0.1,0-0.2,0.1-0.2,0.1c-0.1,0-0.1,0.1-0.1,0.1c-0.2,0.1-0.4,0.1-0.5-0.1C212.1,159.8,212.1,159.6,212.3,159.4z"/>
				</g>
				<g>
					<path class="st1" d="M218.5,152.8c-0.7,1.3-1.1,2.8-1.2,4.2c-0.5-0.3-0.8-0.8-0.8-1.3c-0.4,0.1-0.9,0.2-1.3,0.3
						c-0.3,0.1-0.8,0.1-0.9-0.2c-0.1-0.3,0.3-0.8,0-1.1c-0.1-0.1-0.2-0.1-0.3-0.2c-0.6-0.2-1.1-0.9-1.1-1.6c0.3,0.2,0.7,0.3,1.1,0.3
						c-0.1-0.2-0.3-0.4-0.4-0.7c-0.2-0.4,0-0.8,0.2-1.1s0.7-0.5,1.1-0.6c-0.1,0.6,0.3,1.3,0.8,1.7c0.5,0.4,1.3,0.4,1.9,0.2"/>
				</g>
				<g>
					<path class="st1" d="M214.6,161.1c-0.1-0.2-0.3-0.4-0.5-0.5c-0.4-0.2-1-0.2-1.5-0.1c-0.3,0-0.6,0.1-0.8,0.3
						c-0.2,0.2-0.3,0.6-0.4,0.9c-0.1,0.4-0.1,0.7-0.2,1.1c-0.5-0.4-0.9-1.1-0.8-1.8c-0.3,0.2-0.7,0.2-1,0c-0.3-0.2-0.5-0.5-0.5-0.9
						c0.3,0,0.6,0,0.9,0c0.1,0,0.3-0.1,0.3-0.2c0-0.1-0.1-0.1-0.1-0.2c-0.3-0.3-0.4-0.8-0.2-1.1s0.8-0.4,1,0
						c-0.1-0.2-0.3-0.4-0.4-0.7c0-0.3,0.1-0.6,0.4-0.6c0.4-0.1,0.6,0.4,1,0.4c0.1-0.3,0.3-0.6,0.6-0.7c0.3-0.1,0.7,0,0.8,0.3
						c0,0.1,0,0.2,0,0.3c0,0.4,0.4,0.6,0.7,0.9c0.5,0.5,0.9,1.2,0.9,2"/>
				</g>
			</g>
			<g>
				<g>
					<path class="st1" d="M197.2,160c0,0,0,0-0.1-0.1c0,0-0.1,0-0.2-0.1c-0.2,0-0.6,0-0.9,0.3c-0.3,0.3-0.4,0.8-0.2,1.4
						c0.2,0.6,0.8,1.1,1.6,1.6c0.8,0.5,1.8,0.8,2.7,0.7c0.4,0,0.9-0.2,1.2-0.5l0,0l0,0c0,0,0,0.1,0,0l0,0l0.1-0.1l0.1-0.2
						c0.1-0.1,0.1-0.2,0.2-0.3c0.1-0.2,0.2-0.4,0.4-0.7c0.4-1,0.6-2.2,0.7-3.5c0-1.2-0.1-2.5-0.3-3.7c0-0.2-0.2-0.6-0.3-0.9
						c-0.1-0.2-0.2-0.5-0.4-0.8c-0.3-0.5-0.6-1-1-1.5c-0.8-0.9-1.7-1.7-2.7-2.3c-0.5-0.3-1-0.6-1.5-0.8l-0.4-0.1
						c-0.1,0-0.3-0.1-0.4-0.1l-0.3-0.1l-0.4,0c-1-0.1-1.9,0.2-2.6,0.7c-0.6,0.5-0.8,1.2-0.8,1.9c0.1,0.6,0.4,1.2,0.7,1.6
						c0.3,0.4,0.7,0.5,0.9,0.6c0.2,0.1,0.4,0,0.4,0l-0.1,0.7c0,0,0,0.1,0.1,0.1c0,0,0.1,0,0.1-0.1v0c0,0-0.2,0.1-0.6,0
						c-0.4,0-0.9-0.2-1.4-0.7s-0.9-1.2-1.1-2.1c0-0.1,0-0.2,0-0.3c0-0.1,0-0.2,0-0.4c0-0.2,0.1-0.5,0.1-0.8c0.1-0.5,0.5-1,0.9-1.4
						c0.9-0.8,2.1-1.2,3.4-1.2l0.5,0c0.2,0,0.4,0.1,0.5,0.1c0.2,0,0.2,0.1,0.5,0.1l0.4,0.1c0.6,0.2,1.2,0.5,1.8,0.8
						c1.1,0.7,2.2,1.5,3.1,2.6c0.4,0.5,0.9,1.1,1.2,1.7c0.2,0.3,0.3,0.6,0.5,1c0.1,0.4,0.2,0.6,0.3,1c0.3,1.4,0.4,2.8,0.3,4.1
						c-0.1,1.4-0.3,2.7-0.8,4c-0.2,0.3-0.3,0.6-0.5,0.9c-0.1,0.2-0.2,0.3-0.3,0.4l-0.1,0.2l-0.1,0.1l0,0c0,0-0.1,0.1-0.1,0.1l0,0
						l-0.1,0c-0.6,0.5-1.4,0.7-2,0.7c-1.4,0-2.5-0.5-3.4-1.1c-0.5-0.3-0.9-0.6-1.2-1c-0.2-0.2-0.3-0.4-0.5-0.6l-0.1-0.1l-0.1-0.2
						c-0.1-0.1-0.1-0.2-0.1-0.4c-0.1-0.5-0.1-0.9,0-1.4c0.1-0.4,0.3-0.8,0.6-1.1c0.6-0.5,1.2-0.5,1.6-0.4c0.2,0.1,0.4,0.1,0.4,0.2
						c0.1,0.1,0.1,0.1,0.1,0.1c0.2,0.1,0.2,0.4,0.1,0.5C197.5,160.1,197.3,160.1,197.2,160z"/>
				</g>
				<g>
					<path class="st1" d="M191.4,152.8c0.7,1.3,1.1,2.8,1.2,4.2c0.5-0.3,0.8-0.8,0.8-1.3c0.4,0.1,0.9,0.2,1.3,0.3
						c0.3,0.1,0.8,0.1,0.9-0.2c0.1-0.3-0.3-0.8,0-1.1c0.1-0.1,0.2-0.1,0.3-0.2c0.6-0.2,1.1-0.9,1.1-1.6c-0.3,0.2-0.7,0.3-1.1,0.3
						c0.1-0.2,0.3-0.4,0.4-0.7c0.2-0.4,0-0.8-0.2-1.1s-0.7-0.5-1.1-0.6c0.1,0.6-0.3,1.3-0.8,1.7c-0.5,0.4-1.3,0.4-1.9,0.2"/>
				</g>
				<g>
					<path class="st1" d="M195.2,161.1c0.1-0.2,0.3-0.4,0.5-0.5c0.4-0.2,1-0.2,1.5-0.1c0.3,0,0.6,0.1,0.8,0.3
						c0.2,0.2,0.3,0.6,0.4,0.9c0.1,0.4,0.1,0.7,0.2,1.1c0.5-0.4,0.9-1.1,0.8-1.8c0.3,0.2,0.7,0.2,1,0c0.3-0.2,0.5-0.5,0.5-0.9
						c-0.3,0-0.6,0-0.9,0c-0.1,0-0.3-0.1-0.3-0.2c0-0.1,0.1-0.1,0.1-0.2c0.3-0.3,0.4-0.8,0.2-1.1s-0.8-0.4-1,0
						c0.1-0.2,0.3-0.4,0.3-0.7c0-0.3-0.1-0.6-0.4-0.6c-0.4-0.1-0.6,0.4-1,0.4c-0.1-0.3-0.3-0.6-0.6-0.7c-0.3-0.1-0.7,0-0.8,0.3
						c0,0.1,0,0.2,0,0.3c0,0.4-0.4,0.6-0.7,0.9c-0.5,0.5-0.9,1.2-0.9,2"/>
				</g>
			</g>
			<g>
				<rect x="201.7" y="155.4" class="st1" width="6.3" height="3.6"/>
			</g>
		</g>
		<g>
			<g>
				<path class="st1" d="M243.1,111.7c0,0,0,0,0.1,0.1c0,0,0.1,0,0.2,0.1c0.2,0,0.6,0,0.9-0.3c0.3-0.3,0.4-0.8,0.2-1.4
					c-0.2-0.6-0.8-1.1-1.6-1.6c-0.8-0.5-1.8-0.8-2.7-0.7c-0.4,0-0.9,0.2-1.2,0.5l0,0l0,0c0,0,0-0.1,0,0l0,0l-0.1,0.1l-0.1,0.2
					c-0.1,0.1-0.2,0.2-0.2,0.3c-0.1,0.2-0.2,0.4-0.4,0.7c-0.4,1-0.6,2.2-0.7,3.5c0,1.2,0.1,2.5,0.3,3.7c0,0.2,0.2,0.6,0.3,0.9
					c0.1,0.2,0.2,0.5,0.4,0.8c0.3,0.5,0.6,1,1,1.5c0.8,0.9,1.7,1.7,2.7,2.3c0.5,0.3,1,0.6,1.5,0.8l0.4,0.2c0.1,0,0.3,0.1,0.4,0.1
					l0.3,0.1l0.4,0c1,0.1,1.9-0.2,2.6-0.7c0.6-0.5,0.8-1.2,0.8-1.9c-0.1-0.7-0.4-1.2-0.7-1.6c-0.3-0.4-0.7-0.5-0.9-0.6
					c-0.2-0.1-0.4,0-0.4,0l0.1-0.7c0,0,0-0.1-0.1-0.1s-0.1,0-0.1,0.1v0c0,0,0.2-0.1,0.6,0c0.4,0,0.9,0.2,1.4,0.7
					c0.5,0.5,0.9,1.2,1.1,2.1c0,0.1,0,0.2,0,0.3c0,0.2,0,0.2,0,0.4c0,0.2-0.1,0.5-0.1,0.8c-0.1,0.5-0.5,1-0.9,1.4
					c-0.9,0.8-2.1,1.2-3.4,1.2l-0.5,0c-0.2,0-0.4-0.1-0.5-0.1c-0.2,0-0.2-0.1-0.5-0.1l-0.4-0.2c-0.6-0.2-1.2-0.5-1.8-0.8
					c-1.1-0.7-2.2-1.5-3.1-2.6c-0.4-0.5-0.9-1.1-1.2-1.7c-0.2-0.3-0.3-0.6-0.5-1c-0.1-0.4-0.2-0.6-0.3-1c-0.3-1.4-0.4-2.8-0.3-4.1
					c0.1-1.4,0.3-2.7,0.8-4c0.2-0.3,0.3-0.6,0.5-0.9c0.1-0.2,0.2-0.3,0.3-0.4l0.1-0.2l0.1-0.1l0,0c0,0,0.1-0.1,0.1-0.1l0,0l0.1,0
					c0.6-0.5,1.4-0.7,2-0.7c1.4,0,2.5,0.5,3.4,1.1c0.5,0.3,0.9,0.6,1.2,1c0.2,0.2,0.3,0.4,0.5,0.6l0.1,0.2l0.1,0.2
					c0.1,0.1,0.1,0.2,0.1,0.3c0.1,0.5,0.1,0.9,0,1.4s-0.3,0.8-0.6,1.1c-0.6,0.5-1.2,0.5-1.6,0.3c-0.2-0.1-0.4-0.2-0.4-0.2
					c-0.1-0.1-0.1-0.1-0.1-0.1c-0.2-0.1-0.2-0.4-0.1-0.5C242.7,111.6,242.9,111.6,243.1,111.7z"/>
			</g>
			<g>
				<path class="st1" d="M248.8,118.9c-0.7-1.3-1.1-2.8-1.2-4.2c-0.5,0.3-0.8,0.8-0.8,1.3c-0.4-0.1-0.9-0.2-1.3-0.3
					c-0.3-0.1-0.8-0.1-0.9,0.2c-0.1,0.3,0.3,0.8,0,1.1c-0.1,0.1-0.2,0.1-0.3,0.2c-0.6,0.2-1.1,0.9-1.1,1.6c0.3-0.2,0.7-0.3,1.1-0.3
					c-0.1,0.2-0.3,0.4-0.4,0.7c-0.2,0.4,0,0.8,0.2,1.1c0.3,0.3,0.7,0.5,1.1,0.6c-0.1-0.7,0.3-1.3,0.8-1.7c0.5-0.4,1.3-0.4,1.9-0.2"
					/>
			</g>
			<g>
				<path class="st1" d="M245,110.5c-0.1,0.2-0.3,0.4-0.5,0.5c-0.4,0.2-1,0.2-1.5,0.1c-0.3,0-0.6-0.1-0.8-0.3
					c-0.2-0.2-0.3-0.6-0.4-0.9c-0.1-0.4-0.1-0.7-0.2-1.1c-0.5,0.4-0.9,1.1-0.8,1.8c-0.3-0.2-0.7-0.2-1,0c-0.3,0.2-0.5,0.5-0.5,0.9
					c0.3,0,0.6,0,0.9,0c0.1,0,0.3,0.1,0.3,0.2c0,0.1-0.1,0.1-0.1,0.2c-0.3,0.3-0.4,0.8-0.2,1.2s0.8,0.4,1,0
					c-0.1,0.2-0.3,0.4-0.3,0.7s0.1,0.6,0.4,0.6c0.4,0.1,0.6-0.4,1-0.4c0.1,0.3,0.3,0.6,0.6,0.7c0.3,0.1,0.7,0,0.8-0.3
					c0-0.1,0-0.2,0-0.3c0-0.4,0.4-0.7,0.7-0.9c0.5-0.5,0.9-1.2,0.9-2"/>
			</g>
		</g>
		<g>
			<g>
				<path class="st1" d="M227.9,112.2C227.9,112.2,227.9,112.3,227.9,112.2c-0.2,0.2-0.3,0.2-0.5,0.3c-0.4,0.1-1,0.1-1.6-0.3
					c-0.3-0.2-0.5-0.6-0.6-1.1s-0.1-0.9,0-1.4c0-0.1,0.1-0.2,0.1-0.3l0.1-0.2l0.1-0.2c0.1-0.2,0.3-0.4,0.5-0.6
					c0.4-0.4,0.8-0.7,1.2-1c0.9-0.6,2-1.1,3.4-1.1c0.7,0,1.4,0.2,2,0.7l0.1,0l0,0c0,0,0.1,0.1,0.1,0.1l0,0l0.1,0.1l0.1,0.2
					c0.1,0.1,0.2,0.3,0.3,0.4c0.2,0.3,0.4,0.6,0.5,0.9c0.6,1.3,0.8,2.6,0.8,4c0.1,1.4,0,2.7-0.3,4.1c-0.1,0.4-0.2,0.6-0.3,1
					c-0.1,0.4-0.3,0.7-0.5,1c-0.4,0.6-0.8,1.2-1.2,1.7c-0.9,1.1-2,1.9-3.1,2.6c-0.6,0.3-1.1,0.6-1.8,0.8l-0.4,0.2
					c-0.2,0.1-0.3,0.1-0.5,0.1c-0.2,0-0.4,0.1-0.5,0.1l-0.5,0c-1.3,0-2.5-0.4-3.4-1.2c-0.4-0.4-0.8-0.9-0.9-1.4
					c-0.1-0.3-0.1-0.5-0.1-0.8c0-0.1,0-0.2,0-0.4c0-0.1,0-0.2,0-0.3c0.2-0.9,0.6-1.6,1.1-2.1c0.5-0.5,1.1-0.7,1.4-0.7
					c0.4,0,0.6,0,0.6,0c0,0,0-0.1-0.1-0.1c0,0-0.1,0-0.1,0.1v0l0.1,0.7c0,0-0.1,0-0.4,0c-0.2,0-0.6,0.2-0.9,0.6
					c-0.3,0.3-0.6,0.9-0.7,1.6c-0.1,0.7,0.1,1.4,0.8,1.9c0.6,0.5,1.6,0.8,2.6,0.7l0.4,0l0.3-0.1c0.1,0,0.3-0.1,0.4-0.1l0.4-0.2
					c0.5-0.2,1-0.5,1.5-0.8c1-0.6,1.9-1.4,2.7-2.3c0.4-0.5,0.7-1,1-1.5c0.1-0.3,0.3-0.5,0.4-0.8c0.1-0.2,0.2-0.7,0.3-0.9
					c0.3-1.2,0.4-2.4,0.3-3.7c-0.1-1.2-0.2-2.4-0.7-3.5c-0.1-0.2-0.2-0.5-0.4-0.7c-0.1-0.1-0.1-0.2-0.2-0.3l-0.1-0.2l-0.1-0.1l0,0
					c0,0,0.1,0.1,0,0l0,0l0,0c-0.3-0.3-0.7-0.4-1.2-0.5c-0.9-0.1-1.9,0.3-2.7,0.7c-0.8,0.5-1.4,1-1.6,1.6c-0.2,0.6-0.1,1.2,0.2,1.4
					c0.3,0.3,0.7,0.3,0.9,0.3c0.1,0,0.2-0.1,0.2-0.1c0.1,0,0.1-0.1,0.1-0.1c0.2-0.1,0.4-0.1,0.5,0.1
					C228.1,111.9,228.1,112.1,227.9,112.2z"/>
			</g>
			<g>
				<path class="st1" d="M221.8,118.9c0.7-1.3,1.1-2.8,1.2-4.2c0.5,0.3,0.8,0.8,0.8,1.3c0.4-0.1,0.9-0.2,1.3-0.3
					c0.3-0.1,0.8-0.1,0.9,0.2c0.1,0.3-0.3,0.8,0,1.1c0.1,0.1,0.2,0.1,0.3,0.2c0.6,0.2,1.1,0.9,1.1,1.6c-0.3-0.2-0.7-0.3-1.1-0.3
					c0.1,0.2,0.3,0.4,0.4,0.7c0.2,0.4,0,0.8-0.2,1.1c-0.3,0.3-0.7,0.5-1.1,0.6c0.1-0.7-0.3-1.3-0.8-1.7c-0.5-0.4-1.3-0.4-1.9-0.2"/>
			</g>
			<g>
				<path class="st1" d="M225.6,110.5c0.1,0.2,0.3,0.4,0.5,0.5c0.4,0.2,1,0.2,1.5,0.1c0.3,0,0.6-0.1,0.8-0.3
					c0.2-0.2,0.3-0.6,0.4-0.9c0.1-0.4,0.1-0.7,0.2-1.1c0.5,0.4,0.9,1.1,0.8,1.8c0.3-0.2,0.7-0.2,1,0c0.3,0.2,0.5,0.5,0.5,0.9
					c-0.3,0-0.6,0-0.9,0c-0.1,0-0.3,0.1-0.3,0.2c0,0.1,0.1,0.1,0.1,0.2c0.3,0.3,0.4,0.8,0.2,1.2s-0.8,0.4-1,0
					c0.1,0.2,0.3,0.4,0.3,0.7s-0.1,0.6-0.4,0.6c-0.4,0.1-0.6-0.4-1-0.4c-0.1,0.3-0.3,0.6-0.6,0.7c-0.3,0.1-0.7,0-0.8-0.3
					c0-0.1,0-0.2,0-0.3c0-0.4-0.4-0.7-0.7-0.9c-0.5-0.5-0.9-1.2-0.9-2"/>
			</g>
		</g>
		<g>
			<rect x="232.1" y="112.7" class="st1" width="6.3" height="3.6"/>
		</g>
		<g>
			<g>
				<g>
					<path class="st1" d="M227.5,181.3c0,0,0,0-0.1-0.1c0,0-0.1,0-0.2-0.1c-0.2,0-0.6,0-0.9,0.3c-0.3,0.3-0.4,0.8-0.2,1.4
						c0.2,0.6,0.8,1.1,1.6,1.6c0.8,0.5,1.8,0.8,2.7,0.7c0.4,0,0.9-0.2,1.2-0.5l0,0l0,0c0,0,0,0.1,0,0l0,0l0.1-0.1l0.1-0.2
						c0.1-0.1,0.2-0.2,0.2-0.3c0.1-0.2,0.2-0.4,0.4-0.7c0.4-1,0.6-2.2,0.7-3.5c0-1.2-0.1-2.5-0.3-3.7c0-0.2-0.2-0.6-0.3-0.9
						c-0.1-0.2-0.2-0.5-0.4-0.8c-0.3-0.5-0.6-1-1-1.5c-0.8-0.9-1.7-1.7-2.7-2.3c-0.5-0.3-1-0.6-1.5-0.8l-0.4-0.1
						c-0.1,0-0.3-0.1-0.4-0.1l-0.3-0.1l-0.4,0c-1-0.1-1.9,0.2-2.6,0.7c-0.6,0.5-0.8,1.2-0.8,1.9c0.1,0.6,0.4,1.2,0.7,1.6
						c0.3,0.4,0.7,0.5,0.9,0.6c0.2,0.1,0.4,0,0.4,0l-0.1,0.7c0,0,0,0.1,0.1,0.1c0,0,0.1,0,0.1-0.1v0c0,0-0.2,0.1-0.6,0
						c-0.4,0-0.9-0.2-1.4-0.7s-0.9-1.2-1.1-2.1c0-0.1,0-0.2,0-0.3c0-0.1,0-0.2,0-0.4c0-0.2,0.1-0.5,0.1-0.8c0.1-0.5,0.5-1,0.9-1.4
						c0.9-0.8,2.1-1.2,3.4-1.2l0.5,0c0.2,0,0.4,0.1,0.5,0.1c0.2,0,0.2,0.1,0.5,0.1l0.4,0.1c0.6,0.2,1.2,0.5,1.8,0.8
						c1.1,0.7,2.2,1.5,3.1,2.6c0.4,0.5,0.9,1.1,1.2,1.7c0.2,0.3,0.3,0.6,0.5,1c0.1,0.4,0.2,0.6,0.3,1c0.3,1.4,0.4,2.8,0.3,4.1
						c-0.1,1.4-0.3,2.7-0.8,4c-0.2,0.3-0.3,0.6-0.5,0.9c-0.1,0.2-0.2,0.3-0.3,0.4l-0.1,0.2l-0.1,0.1l0,0c0,0-0.1,0.1-0.1,0.1l0,0
						l-0.1,0.1c-0.6,0.5-1.4,0.7-2,0.7c-1.4,0-2.5-0.5-3.4-1.1c-0.5-0.3-0.9-0.6-1.2-1c-0.2-0.2-0.3-0.4-0.5-0.6l-0.1-0.1l-0.1-0.2
						c-0.1-0.1-0.1-0.2-0.1-0.4c-0.1-0.5-0.1-0.9,0-1.4c0.1-0.4,0.3-0.8,0.6-1.1c0.6-0.5,1.2-0.5,1.6-0.4c0.2,0.1,0.4,0.1,0.4,0.2
						c0.1,0.1,0.1,0.1,0.1,0.1c0.2,0.1,0.2,0.4,0.1,0.5C227.9,181.4,227.7,181.4,227.5,181.3z"/>
				</g>
				<g>
					<path class="st1" d="M221.8,174.1c0.7,1.3,1.1,2.8,1.2,4.2c0.5-0.3,0.8-0.8,0.8-1.3c0.4,0.1,0.9,0.2,1.3,0.3
						c0.3,0.1,0.8,0.1,0.9-0.2c0.1-0.3-0.3-0.8,0-1.1c0.1-0.1,0.2-0.1,0.3-0.2c0.6-0.2,1.1-0.9,1.1-1.6c-0.3,0.2-0.7,0.3-1.1,0.3
						c0.1-0.2,0.3-0.4,0.4-0.7c0.2-0.4,0-0.8-0.2-1.1s-0.7-0.5-1.1-0.6c0.1,0.6-0.3,1.3-0.8,1.7c-0.5,0.4-1.3,0.4-1.9,0.2"/>
				</g>
				<g>
					<path class="st1" d="M225.6,182.4c0.1-0.2,0.3-0.4,0.5-0.5c0.4-0.2,1-0.2,1.5-0.1c0.3,0,0.6,0.1,0.8,0.3
						c0.2,0.2,0.3,0.6,0.4,0.9c0.1,0.4,0.1,0.7,0.2,1.1c0.5-0.4,0.9-1.1,0.8-1.8c0.3,0.2,0.7,0.2,1,0c0.3-0.2,0.5-0.5,0.5-0.9
						c-0.3,0-0.6,0-0.9,0c-0.1,0-0.3-0.1-0.3-0.2c0-0.1,0.1-0.1,0.1-0.2c0.3-0.3,0.4-0.8,0.2-1.1s-0.8-0.4-1,0
						c0.1-0.2,0.3-0.4,0.3-0.7c0-0.3-0.1-0.6-0.4-0.6c-0.4-0.1-0.6,0.4-1,0.4c-0.1-0.3-0.3-0.6-0.6-0.7c-0.3-0.1-0.7,0-0.8,0.3
						c0,0.1,0,0.2,0,0.3c0,0.4-0.4,0.6-0.7,0.9c-0.5,0.5-0.9,1.2-0.9,2"/>
				</g>
			</g>
			<g>
				<g>
					<path class="st1" d="M242.6,180.7C242.6,180.7,242.7,180.7,242.6,180.7c0.2-0.2,0.3-0.2,0.5-0.3c0.4-0.1,1-0.1,1.6,0.4
						c0.3,0.2,0.5,0.6,0.6,1.1c0.1,0.4,0.1,0.9,0,1.4c0,0.1-0.1,0.2-0.1,0.4l-0.1,0.2l-0.1,0.1c-0.1,0.2-0.3,0.4-0.5,0.6
						c-0.4,0.4-0.8,0.7-1.2,1c-0.9,0.6-2,1.1-3.4,1.1c-0.7,0-1.4-0.2-2-0.7l-0.1-0.1l0,0c0,0-0.1-0.1-0.1-0.1l0,0l-0.1-0.1l-0.1-0.2
						c-0.1-0.1-0.2-0.3-0.3-0.4c-0.2-0.3-0.4-0.6-0.5-0.9c-0.6-1.3-0.8-2.6-0.8-4c-0.1-1.4,0-2.7,0.3-4.1c0.1-0.4,0.2-0.6,0.3-1
						c0.1-0.4,0.3-0.7,0.5-1c0.4-0.6,0.8-1.2,1.2-1.7c0.9-1.1,2-1.9,3.1-2.6c0.6-0.3,1.1-0.6,1.8-0.8l0.4-0.1
						c0.2-0.1,0.3-0.1,0.5-0.1c0.2,0,0.4-0.1,0.5-0.1l0.5,0c1.3,0,2.5,0.4,3.4,1.2c0.4,0.4,0.8,0.9,0.9,1.4c0.1,0.3,0.1,0.5,0.1,0.8
						c0,0.1,0,0.2,0,0.4c0,0.1,0,0.2,0,0.3c-0.2,0.9-0.6,1.6-1.1,2.1c-0.5,0.5-1.1,0.7-1.4,0.7c-0.4,0-0.6,0-0.6,0
						c0,0,0,0.1,0.1,0.1c0,0,0.1,0,0.1-0.1v0l-0.1-0.7c0,0,0.1,0,0.4,0c0.2,0,0.6-0.2,0.9-0.6c0.3-0.4,0.6-0.9,0.7-1.6
						c0.1-0.7-0.1-1.4-0.8-1.9c-0.6-0.5-1.6-0.8-2.6-0.7l-0.4,0l-0.3,0.1c-0.1,0-0.3,0.1-0.4,0.1l-0.4,0.1c-0.5,0.2-1,0.5-1.5,0.8
						c-1,0.6-1.9,1.4-2.7,2.3c-0.4,0.5-0.7,1-1,1.5c-0.1,0.3-0.3,0.5-0.4,0.8c-0.1,0.2-0.2,0.7-0.3,0.9c-0.3,1.2-0.4,2.4-0.3,3.7
						c0.1,1.2,0.2,2.4,0.7,3.5c0.1,0.2,0.2,0.5,0.4,0.7c0.1,0.1,0.1,0.2,0.2,0.3l0.1,0.2l0.1,0.1l0,0c0,0-0.1-0.1,0,0l0,0l0,0
						c0.3,0.3,0.7,0.4,1.2,0.5c0.9,0.1,1.9-0.3,2.7-0.7c0.8-0.5,1.4-1,1.6-1.6c0.2-0.6,0.1-1.2-0.2-1.4c-0.3-0.3-0.7-0.3-0.9-0.3
						c-0.1,0-0.2,0.1-0.2,0.1c-0.1,0-0.1,0.1-0.1,0.1c-0.2,0.1-0.4,0.1-0.5-0.1C242.5,181.1,242.5,180.9,242.6,180.7z"/>
				</g>
				<g>
					<path class="st1" d="M248.8,174.1c-0.7,1.3-1.1,2.8-1.2,4.2c-0.5-0.3-0.8-0.8-0.8-1.3c-0.4,0.1-0.9,0.2-1.3,0.3
						c-0.3,0.1-0.8,0.1-0.9-0.2c-0.1-0.3,0.3-0.8,0-1.1c-0.1-0.1-0.2-0.1-0.3-0.2c-0.6-0.2-1.1-0.9-1.1-1.6c0.3,0.2,0.7,0.3,1.1,0.3
						c-0.1-0.2-0.3-0.4-0.4-0.7c-0.2-0.4,0-0.8,0.2-1.1c0.3-0.3,0.7-0.5,1.1-0.6c-0.1,0.6,0.3,1.3,0.8,1.7c0.5,0.4,1.3,0.4,1.9,0.2"
						/>
				</g>
				<g>
					<path class="st1" d="M245,182.4c-0.1-0.2-0.3-0.4-0.5-0.5c-0.4-0.2-1-0.2-1.5-0.1c-0.3,0-0.6,0.1-0.8,0.3
						c-0.2,0.2-0.3,0.6-0.4,0.9c-0.1,0.4-0.1,0.7-0.2,1.1c-0.5-0.4-0.9-1.1-0.8-1.8c-0.3,0.2-0.7,0.2-1,0c-0.3-0.2-0.5-0.5-0.5-0.9
						c0.3,0,0.6,0,0.9,0c0.1,0,0.3-0.1,0.3-0.2c0-0.1-0.1-0.1-0.1-0.2c-0.3-0.3-0.4-0.8-0.2-1.1s0.8-0.4,1,0
						c-0.1-0.2-0.3-0.4-0.3-0.7c0-0.3,0.1-0.6,0.4-0.6c0.4-0.1,0.6,0.4,1,0.4c0.1-0.3,0.3-0.6,0.6-0.7c0.3-0.1,0.7,0,0.8,0.3
						c0,0.1,0,0.2,0,0.3c0,0.4,0.4,0.6,0.7,0.9c0.5,0.5,0.9,1.2,0.9,2"/>
				</g>
			</g>
			<g>
				<rect x="232.2" y="176.7" class="st1" width="6.3" height="3.6"/>
			</g>
		</g>
	</g>
	<g>
		<rect x="5.9" y="200.2" class="st1" width="14.3" height="4"/>
	</g>
	<g>
		<rect x="133.5" y="200.2" class="st1" width="14.3" height="4"/>
	</g>
	<g>
		<rect x="261.8" y="200.2" class="st1" width="14.3" height="4"/>
	</g>
	<g>
		<path class="st1" d="M13.1,90.6c0,0,15.8-0.1,39.4-0.1c23.6,0,55.1-0.1,86.7-0.1c31.5,0,63,0.1,86.6,0.1
			c23.6,0.1,39.4,0.1,39.4,0.1c0.1,0,0.2,0.1,0.2,0.2s-0.1,0.2-0.2,0.2c0,0-15.8,0.1-39.4,0.1c-23.6,0-55.1,0.1-86.7,0.1
			c-31.5,0-63-0.1-86.7-0.1c-23.6-0.1-39.4-0.1-39.4-0.1c-0.1,0-0.2-0.1-0.2-0.2C12.9,90.7,13,90.6,13.1,90.6z"/>
	</g>
	<g>
		<path class="st1" d="M19.8,105.3c0,0,14.9-0.1,37.2-0.1c22.3,0,52.1-0.1,81.9-0.1c29.8,0,59.6,0.1,81.9,0.1
			c22.3,0.1,37.2,0.1,37.2,0.1c0.1,0,0.2,0.1,0.2,0.2s-0.1,0.2-0.2,0.2c0,0-14.9,0.1-37.2,0.1c-22.3,0-52.1,0.1-81.9,0.1
			c-29.8,0-59.6-0.1-81.9-0.1c-22.3-0.1-37.2-0.1-37.2-0.1c-0.1,0-0.2-0.1-0.2-0.2C19.6,105.4,19.6,105.3,19.8,105.3z"/>
	</g>
	<g>
		<rect x="12.2" y="186.4" class="st1" width="255" height="4"/>
	</g>
	<g>
		<path class="st1" d="M19.8,188.2c0,0,14.9-0.1,37.1-0.1c22.3,0,52-0.1,81.7-0.1c29.7,0,59.4,0.1,81.7,0.1
			c22.3,0.1,37.1,0.1,37.1,0.1c0.1,0,0.2,0.1,0.2,0.2c0,0.1-0.1,0.2-0.2,0.2c0,0-14.9,0.1-37.1,0.1c-22.3,0-52,0.1-81.7,0.1
			c-29.7,0-59.4-0.1-81.7-0.1c-22.3-0.1-37.1-0.1-37.1-0.1c-0.1,0-0.2-0.1-0.2-0.2C19.6,188.3,19.7,188.2,19.8,188.2z"/>
	</g>
	<g>
		<path class="st1" d="M14.7,94.2c0,0,0.1,6.6,0.1,16.4c0,9.8,0.1,22.9,0.1,36c0,13.1-0.1,26.2-0.1,36c-0.1,9.8-0.1,16.4-0.1,16.4
			c0,0.1-0.1,0.2-0.2,0.2s-0.2-0.1-0.2-0.2c0,0-0.1-6.6-0.1-16.4c0-9.8-0.1-22.9-0.1-36c0-13.1,0.1-26.2,0.1-36
			c0.1-9.8,0.1-16.4,0.1-16.4c0-0.1,0.1-0.2,0.2-0.2C14.6,94,14.7,94.1,14.7,94.2z"/>
	</g>
	<g>
		<path class="st1" d="M267.5,94.2c0,0,0,6.6,0.1,16.4c0,9.8,0.1,22.9,0.1,36c0,13.1-0.1,26.2-0.1,36c-0.1,9.8-0.1,16.4-0.1,16.4
			c0,0.1-0.1,0.2-0.2,0.2s-0.2-0.1-0.2-0.2c0,0,0-6.6-0.1-16.4c0-9.8-0.1-22.9-0.1-36c0-13.1,0.1-26.2,0.1-36
			c0.1-9.8,0.1-16.4,0.1-16.4c0-0.1,0.1-0.2,0.2-0.2C267.4,94,267.5,94.1,267.5,94.2z"/>
	</g>
</g>
<g>
	<g>
		<path class="st1" d="M24.2,98.2c0,0,0-0.1,0-0.3c0-0.2,0-0.6,0.2-1c0.2-0.8,0.8-2.1,2.1-3c0.6-0.4,1.4-0.8,2.3-0.9
			c0.2,0,0.4-0.1,0.7-0.1c0.2,0,0.4,0,0.7,0c0.5,0.1,1,0.2,1.4,0.4c0.9,0.4,1.8,1,2.4,1.9c0.6,0.9,1,2,1,3.1c0,0.5-0.1,1.1-0.2,1.6
			c-0.2,0.5-0.4,1-0.7,1.4c-0.6,0.9-1.5,1.5-2.4,1.9c-0.9,0.4-2,0.5-2.8,0.3c-0.9-0.1-1.7-0.5-2.3-0.9c-1.3-0.9-1.9-2.1-2.1-3
			c-0.1-0.4-0.1-0.8-0.2-1C24.2,98.3,24.2,98.2,24.2,98.2L24.2,98.2z M24.9,98.2c0,0,0,0.1,0,0.3s0,0.5,0.2,0.9
			c0.2,0.7,0.7,1.8,1.9,2.4c0.5,0.3,1.2,0.6,1.9,0.6c0.8,0.1,1.5-0.1,2.2-0.4c0.7-0.3,1.3-0.9,1.7-1.6c0.2-0.3,0.4-0.7,0.5-1.1
			c0.1-0.4,0.2-0.7,0.2-1.2c0-0.8-0.2-1.6-0.7-2.2c-0.4-0.7-1-1.2-1.7-1.6c-0.3-0.2-0.7-0.3-1-0.4c-0.1-0.1-0.4-0.1-0.6-0.1
			c-0.1,0-0.4,0-0.5,0c-0.7,0.1-1.4,0.3-1.9,0.6c-1.1,0.7-1.7,1.7-1.9,2.4c-0.1,0.4-0.1,0.6-0.2,0.9C24.9,98.1,24.9,98.2,24.9,98.2
			L24.9,98.2z"/>
	</g>
	<g>
		<path class="st1" d="M72.7,98.2c0,0,0-0.1,0-0.3c0-0.2,0.1-0.6,0.2-1c0.2-0.8,0.8-2.1,2.1-3c0.6-0.4,1.4-0.8,2.3-0.9
			c0.2,0,0.4-0.1,0.7-0.1c0.2,0,0.4,0,0.7,0c0.5,0.1,1,0.2,1.4,0.4c0.9,0.4,1.8,1,2.4,1.9c0.6,0.9,0.9,2,1,3.1
			c0,0.5-0.1,1.1-0.2,1.6c-0.2,0.5-0.4,1-0.7,1.4c-0.6,0.9-1.5,1.5-2.4,1.9c-0.9,0.4-1.9,0.5-2.8,0.3c-0.9-0.1-1.7-0.5-2.3-0.9
			c-1.3-0.9-1.8-2.1-2.1-3c-0.1-0.4-0.2-0.8-0.2-1C72.7,98.3,72.7,98.2,72.7,98.2L72.7,98.2z M73.4,98.2c0,0,0,0.1,0,0.3
			c0,0.2,0.1,0.5,0.2,0.9c0.2,0.7,0.7,1.8,1.8,2.4c0.5,0.3,1.2,0.6,1.9,0.6c0.8,0.1,1.5-0.1,2.2-0.4c0.7-0.3,1.3-0.9,1.7-1.6
			c0.2-0.3,0.4-0.7,0.5-1.1c0.1-0.4,0.2-0.7,0.2-1.2c0-0.8-0.2-1.6-0.7-2.2c-0.4-0.7-1-1.2-1.7-1.6c-0.3-0.2-0.7-0.3-1.1-0.4
			c-0.2-0.1-0.4-0.1-0.6-0.1c-0.1,0-0.3,0-0.5,0c-0.7,0.1-1.4,0.3-1.9,0.6c-1.1,0.7-1.7,1.7-1.8,2.4c-0.1,0.4-0.1,0.6-0.2,0.9
			C73.4,98.1,73.4,98.2,73.4,98.2L73.4,98.2z"/>
	</g>
	<g>
		<path class="st1" d="M121.2,98.2c0,0,0-0.1,0-0.3c0-0.2,0.1-0.6,0.2-1c0.2-0.8,0.8-2.1,2.1-3c0.6-0.4,1.4-0.8,2.3-0.9
			c0.2,0,0.4-0.1,0.7-0.1c0.2,0,0.4,0,0.7,0c0.5,0.1,1,0.2,1.4,0.4c0.9,0.4,1.8,1,2.4,1.9c0.6,0.9,0.9,2,1,3.1
			c0,0.5-0.1,1.1-0.2,1.6c-0.2,0.5-0.4,1-0.7,1.4c-0.6,0.9-1.5,1.5-2.4,1.9c-0.9,0.4-1.9,0.5-2.8,0.3c-0.9-0.1-1.7-0.5-2.3-0.9
			c-1.3-0.9-1.8-2.1-2.1-3c-0.1-0.4-0.2-0.8-0.2-1C121.2,98.3,121.2,98.2,121.2,98.2L121.2,98.2z M121.9,98.2c0,0,0,0.1,0,0.3
			c0,0.2,0.1,0.5,0.2,0.9c0.2,0.7,0.7,1.8,1.8,2.4c0.5,0.3,1.2,0.6,1.9,0.6c0.8,0.1,1.5-0.1,2.2-0.4c0.7-0.3,1.3-0.9,1.7-1.6
			c0.2-0.3,0.4-0.7,0.5-1.1c0.1-0.4,0.1-0.7,0.2-1.2c0-0.8-0.2-1.6-0.6-2.2c-0.4-0.7-1-1.2-1.7-1.6c-0.3-0.2-0.7-0.3-1.1-0.4
			c-0.2-0.1-0.4-0.1-0.6-0.1c-0.1,0-0.3,0-0.5,0c-0.7,0.1-1.4,0.3-1.9,0.6c-1.1,0.7-1.7,1.7-1.8,2.4c-0.1,0.4-0.1,0.6-0.2,0.9
			C121.9,98.1,121.9,98.2,121.9,98.2L121.9,98.2z"/>
	</g>
</g>
<g>
	<g>
		<path class="st1" d="M150.9,98.2c0,0,0-0.1,0-0.3c0-0.2,0.1-0.6,0.2-1c0.2-0.8,0.8-2.1,2.1-3c0.6-0.4,1.4-0.8,2.3-0.9
			c0.2,0,0.4-0.1,0.7-0.1c0.2,0,0.4,0,0.7,0c0.5,0.1,1,0.2,1.4,0.4c0.9,0.4,1.8,1,2.4,1.9c0.6,0.9,0.9,2,1,3.1
			c0,0.5-0.1,1.1-0.2,1.6c-0.2,0.5-0.4,1-0.7,1.4c-0.6,0.9-1.5,1.5-2.4,1.9c-0.9,0.4-1.9,0.5-2.8,0.3c-0.9-0.1-1.7-0.5-2.3-0.9
			c-1.3-0.9-1.9-2.1-2.1-3c-0.1-0.4-0.1-0.8-0.2-1C150.9,98.3,150.9,98.2,150.9,98.2L150.9,98.2z M151.6,98.2c0,0,0,0.1,0,0.3
			c0,0.2,0.1,0.5,0.2,0.9c0.2,0.7,0.7,1.8,1.9,2.4c0.5,0.3,1.2,0.6,1.9,0.6c0.8,0.1,1.5-0.1,2.2-0.4c0.7-0.3,1.3-0.9,1.7-1.6
			c0.2-0.3,0.4-0.7,0.5-1.1c0.1-0.4,0.1-0.7,0.2-1.2c0-0.8-0.2-1.6-0.6-2.2c-0.4-0.7-1-1.2-1.7-1.6c-0.3-0.2-0.7-0.3-1.1-0.4
			c-0.1-0.1-0.4-0.1-0.6-0.1c-0.1,0-0.4,0-0.5,0c-0.7,0.1-1.4,0.3-1.9,0.6c-1.1,0.7-1.7,1.7-1.9,2.4c-0.1,0.4-0.1,0.6-0.2,0.9
			C151.6,98.1,151.6,98.2,151.6,98.2L151.6,98.2z"/>
	</g>
	<g>
		<path class="st1" d="M199.4,98.2c0,0,0-0.1,0-0.3c0-0.2,0.1-0.6,0.2-1c0.2-0.8,0.8-2.1,2.1-3c0.6-0.4,1.4-0.8,2.3-0.9
			c0.2,0,0.4-0.1,0.7-0.1c0.2,0,0.4,0,0.7,0c0.5,0.1,1,0.2,1.4,0.4c0.9,0.4,1.8,1,2.4,1.9c0.6,0.9,0.9,2,1,3.1
			c0,0.5-0.1,1.1-0.2,1.6c-0.2,0.5-0.4,1-0.7,1.4c-0.6,0.9-1.5,1.5-2.4,1.9c-0.9,0.4-1.9,0.5-2.8,0.3c-0.9-0.1-1.7-0.5-2.3-0.9
			c-1.3-0.9-1.9-2.1-2.1-3c-0.1-0.4-0.1-0.8-0.2-1C199.4,98.3,199.4,98.2,199.4,98.2L199.4,98.2z M200.1,98.2c0,0,0,0.1,0,0.3
			c0,0.2,0.1,0.5,0.2,0.9c0.2,0.7,0.7,1.8,1.9,2.4c0.5,0.3,1.2,0.6,1.9,0.6c0.8,0.1,1.5-0.1,2.2-0.4c0.7-0.3,1.3-0.9,1.7-1.6
			c0.2-0.3,0.4-0.7,0.5-1.1c0.1-0.4,0.1-0.7,0.2-1.2c0-0.8-0.2-1.6-0.6-2.2c-0.4-0.7-1-1.2-1.7-1.6c-0.3-0.2-0.7-0.3-1.1-0.4
			c-0.1-0.1-0.4-0.1-0.6-0.1c-0.1,0-0.4,0-0.5,0c-0.7,0.1-1.4,0.3-1.9,0.6c-1.1,0.7-1.7,1.7-1.9,2.4c-0.1,0.4-0.1,0.6-0.2,0.9
			C200.1,98.1,200.1,98.2,200.1,98.2L200.1,98.2z"/>
	</g>
	<g>
		<path class="st1" d="M247.9,98.2c0,0,0-0.1,0-0.3c0-0.2,0.1-0.6,0.2-1c0.2-0.8,0.8-2.1,2.1-3c0.6-0.4,1.4-0.8,2.3-0.9
			c0.2,0,0.4-0.1,0.7-0.1c0.2,0,0.4,0,0.7,0c0.5,0.1,1,0.2,1.4,0.4c0.9,0.4,1.8,1,2.4,1.9c0.6,0.9,1,2,1,3.1c0,0.5-0.1,1.1-0.2,1.6
			c-0.2,0.5-0.4,1-0.7,1.4c-0.6,0.9-1.5,1.5-2.4,1.9c-0.9,0.4-1.9,0.5-2.8,0.3c-0.9-0.1-1.7-0.5-2.3-0.9c-1.3-0.9-1.9-2.1-2.1-3
			c-0.1-0.4-0.1-0.8-0.2-1C247.9,98.3,247.9,98.2,247.9,98.2L247.9,98.2z M248.6,98.2c0,0,0,0.1,0,0.3c0,0.2,0.1,0.5,0.2,0.9
			c0.2,0.7,0.7,1.8,1.9,2.4c0.5,0.3,1.2,0.6,1.9,0.6c0.8,0.1,1.5-0.1,2.2-0.4c0.7-0.3,1.3-0.9,1.7-1.6c0.2-0.3,0.4-0.7,0.5-1.1
			c0.1-0.4,0.1-0.7,0.2-1.2c0-0.8-0.2-1.6-0.6-2.2c-0.4-0.7-1-1.2-1.7-1.6c-0.3-0.2-0.7-0.3-1.1-0.4c-0.1-0.1-0.4-0.1-0.6-0.1
			c-0.1,0-0.4,0-0.5,0c-0.7,0.1-1.4,0.3-1.9,0.6c-1.1,0.7-1.7,1.7-1.9,2.4c-0.1,0.4-0.1,0.6-0.2,0.9
			C248.6,98.1,248.6,98.2,248.6,98.2L248.6,98.2z"/>
	</g>
</g>
</svg>
