<?xml version="1.0" encoding="UTF-8"?>
<svg width="285px" height="206px" viewBox="0 0 285 206" version="1.1" xmlns="http://www.w3.org/2000/svg" xmlns:xlink="http://www.w3.org/1999/xlink">
    <!-- Generator: Sketch 52.5 (67469) - http://www.bohemiancoding.com/sketch -->
    <title>staircase</title>
    <desc>Created with Sketch.</desc>
    <g id="Page-2" stroke="none" stroke-width="1" fill="none" fill-rule="evenodd">
        <g id="Desktop-HD-Copy" transform="translate(-604.000000, -207.000000)">
            <g id="staircase" transform="translate(604.000000, 207.000000)">
                <g id="Group" fill="#404040">
                    <polygon id="Path" points="265.63 65.01 248.14 65.01 248.14 73.79 230.64 73.79 230.64 82.58 213.13 82.58 213.13 91.34 195.64 91.34 195.64 100.11 178.14 100.11 178.14 108.89 160.65 108.89 160.65 117.66 143.15 117.66 143.15 126.43 125.65 126.43 125.65 135.19 108.16 135.19 108.16 143.96 90.65 143.96 90.65 152.74 73.16 152.74 73.16 161.51 55.66 161.51 55.66 170.28 38.17 170.28 38.17 179.06 20.66 179.06 20.66 187.84 3.17 187.84 3.17 205.3 20.66 205.3 284.32 73.94 284.79 73.94 284.79 56.25 265.63 56.25"></polygon>
                    <path d="M284.79,3.64 L284.79,0 L265.25,0 L265.25,0.01 L0.61,130.83 L2.22,134.1 L11.56,129.48 L11.56,134.1 L10.45,134.1 L10.16,134.1 L10.16,135.42 L10.45,135.42 L10.45,136.74 L10.45,149.6 L5.62,151.99 L6.19,153.15 L10.45,151.05 L10.45,156.61 L5.62,159 L6.19,160.16 L10.45,158.06 L10.45,163.04 L5.62,165.43 L6.19,166.59 L10.45,164.49 L10.45,185.18 L10.45,186.5 L10.16,186.5 L10.16,187.82 L13.79,187.82 L13.79,186.5 L13.5,186.5 L13.5,185.18 L13.5,164.24 C13.73,163.98 13.88,163.65 13.88,163.27 C13.88,163.11 13.84,162.97 13.79,162.83 L62.63,138.69 L62.63,158.82 L62.63,160.14 L62.34,160.14 L62.34,161.46 L65.97,161.46 L65.97,160.14 L65.68,160.14 L65.68,158.82 L65.68,138.38 C65.86,138.14 65.99,137.85 65.99,137.53 C65.99,137.37 65.95,137.22 65.9,137.08 L115.23,112.7 L115.23,132.52 L115.23,133.84 L114.94,133.84 L114.94,135.16 L118.57,135.16 L118.57,133.84 L118.28,133.84 L118.28,132.52 L118.28,112.37 C118.5,112.12 118.64,111.8 118.64,111.44 C118.64,111.3 118.6,111.18 118.56,111.05 L167.87,86.68 L167.87,106.25 L167.87,107.57 L167.58,107.57 L167.58,108.89 L171.21,108.89 L171.21,107.57 L170.92,107.57 L170.92,106.25 L170.92,86.43 C171.13,86.18 171.27,85.86 171.27,85.51 C171.27,85.35 171.23,85.2 171.18,85.05 L220.25,60.8 L220.25,79.92 L220.25,81.24 L219.96,81.24 L219.96,82.56 L223.59,82.56 L223.59,81.24 L223.3,81.24 L223.3,79.92 L223.3,60.58 C223.57,60.32 223.74,59.95 223.74,59.54 C223.74,59.39 223.7,59.25 223.66,59.12 L268.27,37.07 L268.27,37.08 L276.1,37.08 L276.1,53.54 L276.09,53.54 L276.09,54.86 L275.8,54.86 L275.8,56.18 L279.43,56.18 L279.43,54.86 L279.14,54.86 L279.14,53.54 L279.14,37.79 C279.36,37.6 279.5,37.34 279.57,37.05 L284.79,37.05 L284.79,35.75 L279.25,35.75 C279.22,35.71 279.18,35.66 279.13,35.63 L279.13,31.36 C279.35,31.17 279.51,30.91 279.56,30.62 L284.78,30.62 L284.78,29.33 L279.24,29.33 C279.21,29.29 279.17,29.24 279.12,29.21 L279.12,24.35 C279.34,24.16 279.5,23.9 279.55,23.61 L284.77,23.61 L284.77,22.32 L279.23,22.32 C279.2,22.28 279.16,22.23 279.11,22.2 L279.11,11.73 L279.11,10.41 L279.4,10.41 L279.4,9.08 L278.01,9.08 L278.01,3.64 L284.79,3.64 Z M220.25,28.84 L219.96,28.84 L219.96,30.16 L220.25,30.16 L220.25,31.48 L220.25,45.92 L170.92,70.3 L170.92,57.82 L170.92,56.5 L171.21,56.5 L171.21,55.18 L170.92,55.18 L169.81,55.18 L169.81,51.26 L221.36,25.78 L221.36,28.85 L220.25,28.85 L220.25,28.84 Z M276.09,29.34 L267.97,29.34 L223.3,51.42 L223.3,47.14 C223.57,46.88 223.74,46.51 223.74,46.1 C223.74,45.95 223.7,45.82 223.66,45.68 L268.27,23.63 L268.25,23.55 L268.27,23.63 L276.1,23.63 L276.1,29.34 L276.09,29.34 Z M13.5,150.8 C13.73,150.54 13.88,150.21 13.88,149.83 C13.88,149.67 13.84,149.53 13.79,149.39 L62.63,125.25 L62.63,130.81 L13.5,155.1 L13.5,150.8 Z M65.68,109.07 L65.97,109.07 L65.97,107.75 L65.68,107.75 L64.57,107.75 L64.57,103.28 L116.33,77.69 L116.33,81.44 L115.22,81.44 L114.93,81.44 L114.93,82.76 L115.22,82.76 L115.22,84.08 L115.22,97.82 L65.67,122.31 L65.67,110.4 L65.67,109.07 L65.68,109.07 Z M167.87,55.18 L167.58,55.18 L167.58,56.5 L167.87,56.5 L167.87,57.82 L167.87,71.81 L118.28,96.32 L118.28,84.09 L118.28,82.77 L118.57,82.77 L118.57,81.45 L118.28,81.45 L117.17,81.45 L117.17,77.29 L168.98,51.68 L168.98,55.19 L167.87,55.18 Z M65.68,124.95 C65.86,124.71 65.99,124.42 65.99,124.1 C65.99,123.94 65.95,123.79 65.9,123.65 L115.23,99.27 L115.23,104.83 L65.68,129.32 C65.68,129.32 65.68,124.95 65.68,124.95 Z M118.28,98.93 C118.5,98.68 118.64,98.36 118.64,98 C118.64,97.86 118.6,97.74 118.56,97.61 L167.87,73.24 L167.87,78.8 L118.28,103.31 L118.28,98.93 Z M170.92,72.99 C171.13,72.74 171.27,72.42 171.27,72.07 C171.27,71.91 171.23,71.76 171.18,71.61 L220.25,47.36 L220.25,52.92 L170.92,77.3 L170.92,72.99 Z M13.5,135.43 L13.79,135.43 L13.79,134.11 L13.5,134.11 L12.39,134.11 L12.39,129.08 L63.74,103.7 L63.74,107.76 L62.63,107.76 L62.34,107.76 L62.34,109.08 L62.63,109.08 L62.63,110.4 L62.63,123.82 L13.5,148.1 L13.5,136.75 L13.5,135.43 Z M13.5,161.52 L13.5,157.8 C13.73,157.54 13.88,157.21 13.88,156.83 C13.88,156.67 13.84,156.53 13.79,156.39 L62.63,132.25 L62.63,137.23 L13.5,161.52 Z M65.68,135.73 L65.68,131.95 C65.86,131.71 65.99,131.42 65.99,131.1 C65.99,130.94 65.95,130.79 65.9,130.65 L115.23,106.27 L115.23,111.25 L65.68,135.73 Z M118.28,109.73 L118.28,105.93 C118.5,105.68 118.64,105.36 118.64,105 C118.64,104.86 118.6,104.74 118.56,104.61 L167.87,80.24 L167.87,85.22 L118.28,109.73 Z M170.92,83.72 L170.92,79.99 C171.13,79.74 171.27,79.42 171.27,79.07 C171.27,78.91 171.23,78.76 171.18,78.61 L220.25,54.36 L220.25,59.34 L170.92,83.72 Z M267.96,35.75 L223.3,57.83 L223.3,54.13 C223.57,53.87 223.74,53.5 223.74,53.09 C223.74,52.94 223.7,52.81 223.66,52.67 L268.27,30.62 L276.1,30.62 L276.1,35.74 L267.96,35.75 Z M277.19,9.08 L275.8,9.08 L275.8,10.41 L276.09,10.41 L276.09,11.73 L276.09,22.33 L267.96,22.33 L223.3,44.41 L223.3,31.48 L223.3,30.16 L223.59,30.16 L223.59,28.84 L223.3,28.84 L222.19,28.84 L222.19,25.36 L266.12,3.64 L277.19,3.64 L277.19,9.08 Z" id="Shape"></path>
                </g>
                <path d="M197.04,84.56 L197.04,83.67" id="Path"></path>
                <path d="M197.04,89 L197.04,88.1" id="Path"></path>
                <path d="M197.04,79.72 L197.04,78.83" id="Path"></path>
                <path d="M197.04,114.5 L197.04,102.27" id="Path"></path>
            </g>
        </g>
    </g>
</svg>